<svg id="Capa_1" enable-background="new 0 0 512 512" height="512" viewBox="0 0 512 512" width="512" xmlns="http://www.w3.org/2000/svg"><g><g clip-rule="evenodd" fill-rule="evenodd"><path d="m82.713 311.687 27.779 22.932 7.398 30.813-43.71 117.581c-1.417 5.244-5.358 7.994-11.876 8.249h-37.614c-5.3-.198-7.256-2.919-5.726-8.249z" fill="#a077c2"/><path d="m312.428 311.687 27.778 22.932 7.484 30.983-43.795 117.411c-1.417 5.244-5.357 7.994-11.877 8.249h-37.615c-5.301-.198-7.256-2.919-5.726-8.249z" fill="#4982c9"/><path d="m82.713 311.687 23.981-7.852 31.237 7.852c47.763 42.803 61.566 101.991 56.436 170.816-.652 5.783-3.798 8.73-9.552 8.759h-37.615c-5.697-.085-8.674-2.863-8.532-8.787 2.835-75.317-5.867-102.19-55.955-170.788z" fill="#c0a1d9"/><path d="m312.428 311.687 23.98-7.852 31.236 7.852c47.763 42.803 61.567 101.991 56.438 170.816-.652 5.783-3.799 8.73-9.553 8.759h-37.615c-5.697-.085-8.674-2.863-8.532-8.787 2.863-75.317-5.867-102.19-55.954-170.788z" fill="#6aa2e6"/><path d="m82.713 129.277h55.219c15.051 0 27.381 12.331 27.381 27.382v127.644c0 15.052-12.33 27.382-27.381 27.382h-55.219c-15.08 0-27.381-12.331-27.381-27.382v-127.643c0-15.052 12.301-27.383 27.381-27.383z" fill="#ebd2ff"/><path d="m312.428 129.277h55.217c15.053 0 27.383 12.331 27.383 27.382v127.644c0 15.052-12.33 27.382-27.383 27.382h-55.217c-15.052 0-27.383-12.331-27.383-27.382v-127.643c0-15.052 12.331-27.383 27.383-27.383z" fill="#a5cdff"/><path d="m16.328 177.919h405.628c4.479-.793 7.993-4.337 8.787-8.815v-16.498c0-2.183 3.827-4.536 6.151-2.495l62.983 64.743c2.608 3.713 2.552 8.759-.057 12.473l-62.927 64.715c-2.013 1.672-6.038.51-6.151-2.495v-16.497c-.794-4.479-4.309-8.022-8.787-8.815h-405.627c-4.479-.794-8.022-4.337-8.816-8.816v-68.712c.794-4.478 4.337-7.994 8.816-8.788z" fill="#ffe5a0"/><path d="m7.512 235.69v19.729c.794 4.479 4.337 8.022 8.816 8.816h405.628c4.479.793 7.993 4.337 8.787 8.815v16.498c.113 3.005 4.139 4.167 6.151 2.495l62.927-64.715c2.608-3.713 2.665-8.759.057-12.473l-15.079-15.505-27.978 28.771c-4.479 5.046-10.686 7.654-18.821 7.569z" fill="#f2ce7e"/><path d="m134.274 155.271v108.425c0 13.181-10.8 23.953-23.952 23.953-13.181 0-23.952-10.772-23.952-23.953v-108.425z" fill="#ebd2ff"/><path d="m134.274 155.271v108.425c0 13.181-10.8 23.953-23.952 23.953v-115.739c1.502-8.447 8.163-15.137 16.639-16.639z" fill="#d7bef0"/><path d="m363.988 155.271v108.425c0 13.181-10.799 23.953-23.952 23.953-13.181 0-23.951-10.772-23.951-23.953v-108.425z" fill="#a5cdff"/><path d="m363.988 155.271v108.425c0 13.181-10.799 23.953-23.952 23.953v-115.739c1.503-8.447 8.164-15.137 16.64-16.639z" fill="#8abfff"/><path d="m66.329 92.71c0 24.208 19.786 43.994 43.993 43.994s43.992-19.786 43.992-43.994v-47.14c0-13.549-11.082-24.633-24.632-24.633h-38.748c-13.521 0-24.604 11.083-24.604 24.633v47.14z" fill="#ffcbbe"/><path d="m296.044 92.71c0 24.208 19.786 43.994 43.992 43.994 24.207 0 43.993-19.786 43.993-43.994v-47.14c0-13.549-11.084-24.633-24.632-24.633h-38.75c-13.52 0-24.604 11.083-24.604 24.633v47.14z" fill="#ffcbbe"/><path d="m154.314 45.57v17.122c-12.387 4.621-22.562.85-28.516-2.551-4.648-2.636-5.414-2.636-5.981 1.587-1.615 12.387-7.171 46.488-53.46 32.513l-.028-48.671c-.028-13.55 11.083-24.633 24.605-24.633h38.749c13.549 0 24.631 11.083 24.631 24.633z" fill="#477b9e"/><path d="m384.029 45.57v17.122c-12.388 4.621-22.562.85-28.516-2.551-4.62-2.636-5.414-2.636-5.982 1.587-1.615 12.387-7.171 46.488-53.46 32.513l-.028-48.671c-.028-13.549 11.083-24.633 24.604-24.633h38.75c13.548 0 24.632 11.083 24.632 24.633z" fill="#c68b87"/><path d="m132.46 63.145v29.565c0 20.438-14.116 37.729-33.051 42.633 3.486.879 7.143 1.361 10.913 1.361 24.207 0 43.992-19.786 43.992-43.994v-30.019c-8.559 3.175-16.071 2.381-21.854.454z" fill="#f7beaf"/><path d="m362.202 63.145v29.565c0 20.438-14.115 37.729-33.079 42.633 3.486.879 7.144 1.361 10.913 1.361 24.207 0 43.993-19.786 43.993-43.994v-30.019c-8.56 3.175-16.072 2.381-21.827.454z" fill="#f7beaf"/><path d="m107.855 20.937c13.521 0 24.605 11.083 24.605 24.633v17.575c5.783 1.927 13.295 2.721 21.854-.454v-17.121c0-13.549-11.082-24.633-24.632-24.633z" fill="#365e7d"/><path d="m337.57 20.937c13.55 0 24.632 11.083 24.632 24.633v17.575c5.755 1.927 13.267 2.721 21.827-.454v-17.121c0-13.549-11.084-24.633-24.632-24.633z" fill="#bd7d79"/><path d="m343.523 311.687c47.763 42.803 61.567 101.991 56.408 170.816-.624 5.783-3.799 8.73-9.524 8.759h24.122c5.754-.028 8.9-2.976 9.553-8.759 5.13-68.825-8.675-128.013-56.438-170.816z" fill="#5a94db"/><path d="m113.809 311.687c47.763 42.803 61.567 101.991 56.408 170.816-.624 5.783-3.798 8.73-9.524 8.759h24.123c5.754-.028 8.899-2.976 9.552-8.759 5.131-68.825-8.673-128.013-56.436-170.816z" fill="#b592d1"/></g><path d="m75.514 104.559c1.813 5.414 4.875 10.261 8.815 14.202 6.604 6.604 15.704 10.687 25.681 10.687 10.007 0 19.105-4.082 25.682-10.687 6.605-6.605 10.715-15.704 10.715-25.682v-20.551c-8.078.822-15.08-1.021-20.409-3.345-.481 2.466-1.049 4.904-1.785 7.257-2.523 8.22-6.719 15.647-13.38 21.004-6.745 5.443-15.703 8.561-27.58 7.966-2.439-.114-5.019-.397-7.739-.851zm212.196-11.48v-47.027c0-8.815 3.6-16.837 9.411-22.649 5.811-5.811 13.833-9.411 22.647-9.411h38.637c8.814 0 16.837 3.6 22.647 9.411 5.812 5.812 9.411 13.833 9.411 22.649v47.027c0 11.849-4.054 22.79-10.857 31.493 4.365 1.757 8.306 4.394 11.594 7.682 6.321 6.321 10.232 15.024 10.232 24.605v13.663h20.607v-26.504c0-4.138 3.373-7.512 7.512-7.512 2.296 0 4.365 1.049 5.726 2.693l74.607 76.649c2.835 2.92 2.806 7.54 0 10.432-24.944 25.738-50.002 51.364-74.975 77.045-2.892 2.977-7.625 3.033-10.573.17-1.445-1.417-2.296-3.345-2.296-5.386v-26.504h-20.607v12.501c0 9.581-3.911 18.284-10.232 24.605-2.778 2.778-6.038 5.102-9.609 6.803 20.211 21.175 33.447 45.751 41.186 73.021 8.787 31.124 10.346 65.679 6.803 102.671-.34 3.855-3.571 6.803-7.427 6.803h-55.076c-4.507 0-7.965-3.912-7.454-8.391 1.36-36.397 0-63.241-7.682-89.036-1.475-4.876-3.147-9.723-5.074-14.626l-39.883 107.178c-1.077 2.92-3.884 4.876-7.001 4.876h-55.077c-4.138 0-7.482-3.345-7.482-7.483 0-1.162.255-2.268.708-3.231l27.185-73.02c1.417-3.855 5.726-5.839 9.609-4.394 3.855 1.445 5.81 5.754 4.393 9.609l-23.64 63.524h39.117l43.113-115.88-24.632-38.977-22.11 59.499c-1.445 3.855-5.754 5.839-9.609 4.393-3.882-1.446-5.838-5.754-4.394-9.609l24.18-65.055c-5.471-1.701-10.403-4.706-14.372-8.674-6.321-6.321-10.231-15.024-10.231-24.605v-12.501h-104.399v12.501c0 9.581-3.912 18.284-10.205 24.605-2.777 2.778-6.037 5.102-9.638 6.803 20.239 21.175 33.477 45.751 41.186 73.021 8.816 31.124 10.375 65.679 6.832 102.671-.369 3.855-3.572 6.803-7.427 6.803h-55.075c-4.508 0-7.966-3.912-7.456-8.391 1.361-36.397 0-63.241-7.682-89.036-1.474-4.876-3.146-9.723-5.102-14.626l-39.853 107.175c-1.105 2.92-3.884 4.876-7.002 4.876h-55.075c-4.139 0-7.512-3.345-7.512-7.483 0-1.162.283-2.268.737-3.231l27.155-73.02c1.445-3.855 5.754-5.839 9.609-4.394 3.883 1.445 5.839 5.754 4.394 9.609l-23.613 63.524h39.117l43.114-115.88-24.632-38.977-22.109 59.499c-1.446 3.855-5.755 5.839-9.609 4.393-3.884-1.446-5.84-5.754-4.422-9.609l24.207-65.055c-5.5-1.701-10.402-4.706-14.371-8.674-6.321-6.321-10.233-15.024-10.233-24.605v-12.501h-40.166c-4.138 0-7.512-3.345-7.512-7.484v-86.088c0-4.139 3.374-7.512 7.512-7.512h40.166v-13.663c0-9.581 3.912-18.284 10.233-24.605 3.26-3.288 7.199-5.924 11.593-7.682-7.058-9.042-10.855-20.069-10.855-31.493v-47.025c0-8.815 3.6-16.837 9.409-22.649 5.812-5.811 13.806-9.411 22.649-9.411h38.635c8.816 0 16.838 3.6 22.648 9.411 5.811 5.812 9.411 13.833 9.411 22.649v47.027c0 11.849-4.054 22.79-10.857 31.493 4.365 1.757 8.306 4.394 11.594 7.682 6.293 6.321 10.205 15.024 10.205 24.605v13.663h35.233c4.139 0 7.483 3.374 7.483 7.512s-3.345 7.512-7.483 7.512h-42.717-23.47v71.064h23.47 119.393 23.471v-71.064h-23.471-42.718c-4.139 0-7.482-3.374-7.482-7.512 0-4.139 3.344-7.512 7.482-7.512h35.207v-13.663c0-9.581 3.91-18.284 10.231-24.605 3.288-3.288 7.2-5.924 11.594-7.682-7.058-9.043-10.856-20.07-10.856-31.493zm14.995-4.167c3.799.907 7.228 1.417 10.318 1.559 7.822.397 13.492-1.446 17.488-4.677 4.082-3.288 6.747-8.192 8.476-13.748 1.503-4.932 2.24-10.346 2.523-15.675.198-4.11 3.685-7.313 7.823-7.115 1.729.085 3.401.765 4.678 1.927.028.028 8.899 8.334 21.457 6.265v-11.396c0-4.677-1.928-8.958-5.018-12.047-3.09-3.09-7.37-5.018-12.046-5.018h-38.637c-4.676 0-8.956 1.928-12.046 5.018-3.09 3.089-5.018 7.37-5.018 12.047v42.86zm72.764-16.384c-8.079.822-15.079-1.021-20.408-3.345-.482 2.466-1.049 4.904-1.786 7.257-2.523 8.22-6.719 15.647-13.38 21.004-6.746 5.443-15.704 8.561-27.58 7.966-2.438-.114-5.018-.397-7.738-.851 1.814 5.414 4.875 10.261 8.815 14.202 6.803 6.803 15.986 10.687 25.682 10.687 10.006 0 19.105-4.082 25.709-10.687 6.576-6.605 10.687-15.704 10.687-25.682v-20.551zm-229.063-15.081v-11.395c0-4.677-1.927-8.958-5.017-12.047-3.118-3.09-7.37-5.018-12.048-5.018h-38.634c-4.677 0-8.958 1.928-12.048 5.018-3.089 3.089-5.017 7.37-5.017 12.047v42.86c3.77.907 7.2 1.417 10.317 1.559 7.824.397 13.493-1.446 17.49-4.677 4.082-3.288 6.745-8.192 8.475-13.748 1.503-4.932 2.239-10.346 2.523-15.675.171-4.11 3.685-7.313 7.824-7.115 2.041.113 3.43.85 4.904 2.154 1.474 1.247 9.837 7.908 21.231 6.037zm219.17 79.597c-7.738 4.706-16.809 7.398-26.503 7.398-9.667 0-18.736-2.693-26.476-7.398-5.924 0-10.771 1.559-15.023 5.811-3.6 3.6-5.839 8.561-5.839 14.003v13.663h15.987v-10.062c0-4.139 3.345-7.484 7.483-7.484 4.139 0 7.511 3.345 7.511 7.484v17.575 80.561c0 4.479 1.843 8.589 4.819 11.565 2.947 2.948 7.058 4.79 11.537 4.79 4.507 0 8.589-1.843 11.564-4.819 2.977-2.948 4.819-7.059 4.819-11.537v-80.561-17.575c0-4.139 3.373-7.484 7.511-7.484 4.139 0 7.483 3.345 7.483 7.484v10.062h15.959v-13.663c0-5.443-2.211-10.403-5.811-14.003-4.249-4.251-9.097-5.81-15.021-5.81zm-282.069 0c-6.038.142-10.573 1.389-14.995 5.811-3.6 3.6-5.838 8.561-5.838 14.003v13.663h15.958v-10.062c0-4.139 3.373-7.484 7.512-7.484s7.512 3.345 7.512 7.484v98.135c0 4.479 1.842 8.589 4.79 11.565 2.977 2.948 7.087 4.79 11.565 4.79 4.507 0 8.589-1.843 11.565-4.819 2.977-2.948 4.819-7.059 4.819-11.537v-98.135c0-4.139 3.345-7.484 7.512-7.484 4.139 0 7.483 3.345 7.483 7.484v10.062h15.958v-13.663c0-5.443-2.211-10.403-5.812-14.003-4.251-4.252-9.126-5.811-15.022-5.811-7.738 4.706-16.81 7.398-26.504 7.398-9.665.001-18.736-2.691-26.503-7.397zm302.903 134.561h-18.793c-1.56 3.43-3.742 6.52-6.378 9.156-5.669 5.669-13.52 9.212-22.166 9.212-8.618 0-16.47-3.543-22.138-9.212-2.637-2.636-4.819-5.726-6.379-9.156h-18.821v12.501c0 5.442 2.239 10.403 5.839 13.975 3.601 3.6 8.532 5.839 13.975 5.839h55.076c5.442 0 10.374-2.239 13.975-5.839 3.6-3.572 5.811-8.533 5.811-13.975v-12.501zm-15.959-14.996h23.471 35.631c4.139 0 7.483 3.345 7.483 7.512v15.562l57.031-58.621-57.031-58.621v15.591c0 4.138-3.345 7.512-7.483 7.512h-35.631-23.471zm-213.103 14.996h-18.793c-1.587 3.43-3.741 6.52-6.378 9.156-5.669 5.669-13.522 9.212-22.167 9.212-8.616 0-16.468-3.543-22.166-9.212-2.608-2.636-4.79-5.726-6.35-9.156h-18.82v12.501c0 5.442 2.238 10.403 5.838 13.975 3.571 3.6 8.532 5.839 13.975 5.839h55.076c5.414 0 10.375-2.239 13.974-5.839 3.601-3.572 5.812-8.533 5.812-13.975v-12.501zm-78.716-86.06h-23.443-40.194v71.064h40.194 23.442v-71.064zm247.458 133.37c20.409 29.282 32.91 52.951 40.194 77.386 7.71 25.852 9.496 52.214 8.532 86.712h40.478c2.552-32.627.822-63.071-6.944-90.454-7.937-27.978-22.166-52.838-44.588-73.644zm-229.062 0c20.408 29.282 32.909 52.951 40.194 77.386 7.682 25.852 9.468 52.214 8.532 86.712h40.478c2.552-32.627.794-63.071-6.944-90.454-7.938-27.978-22.195-52.838-44.589-73.644z"/></g></svg>