<svg id="Layer_3" fill="#1b6ca8"  enable-background="new 0 0 64 64" height="512" viewBox="0 0 64 64" width="512" xmlns="http://www.w3.org/2000/svg"><g><path  d="m15 17v-2c0-2.206-1.794-4-4-4s-4 1.794-4 4v2c0 2.206 1.794 4 4 4s4-1.794 4-4zm-2 0c0 1.103-.897 2-2 2s-2-.897-2-2v-2c0-1.103.897-2 2-2s2 .897 2 2z"/><path d="m16 27h2v5h-2z"/><path d="m16 21h-5-5c-2.757 0-5 2.243-5 5v8c0 .552.448 1 1 1h2v22.184c-1.161.414-2 1.514-2 2.816v2c0 .552.448 1 1 1h6c.552 0 1-.448 1-1v-4-13h2v13 4c0 .552.448 1 1 1h6c.552 0 1-.448 1-1v-2c0-1.302-.839-2.402-2-2.816v-22.184h2c.552 0 1-.448 1-1v-8c0-2.757-2.243-5-5-5zm-8 40h-4v-1c0-.551.449-1 1-1h3zm1-18c-.552 0-1 .448-1 1v13h-2v-16h10v16h-2v-13c0-.552-.448-1-1-1zm9 18h-4v-2h3c.551 0 1 .449 1 1zm-2-22h-10v-4h10zm3-6h-16v-7c0-1.654 1.346-3 3-3h10c1.654 0 3 1.346 3 3z"/><path fill="#a6dcef" d="m6 27h-2v4c0 .552.448 1 1 1h9v-2h-8z"/><path d="m62 1h-40c-.552 0-1 .448-1 1v4c0 .552.448 1 1 1h1v25c0 .552.448 1 1 1h36c.552 0 1-.448 1-1v-25h1c.552 0 1-.448 1-1v-4c0-.552-.448-1-1-1zm-3 30h-34v-24h34zm2-26h-38v-2h38z"/><path d="m30.293 24.293-1.293 1.293-1.293-1.293-1.414 1.414 1.293 1.293-1.293 1.293 1.414 1.414 1.293-1.293 1.293 1.293 1.414-1.414-1.293-1.293 1.293-1.293z"/><path d="m53.707 13.707 1.293-1.293 1.293 1.293 1.414-1.414-1.293-1.293 1.293-1.293-1.414-1.414-1.293 1.293-1.293-1.293-1.414 1.414 1.293 1.293-1.293 1.293z"/><path d="m55 24c-1.654 0-3 1.346-3 3s1.346 3 3 3 3-1.346 3-3-1.346-3-3-3zm0 4c-.551 0-1-.449-1-1s.449-1 1-1 1 .449 1 1-.449 1-1 1z"/><path  d="m29 14c1.654 0 3-1.346 3-3s-1.346-3-3-3-3 1.346-3 3 1.346 3 3 3zm0-4c.551 0 1 .449 1 1s-.449 1-1 1-1-.449-1-1 .449-1 1-1z"/><path fill="#01a9b4" d="m32 18h2v-1.586l4.293 4.293c.187.188.442.293.707.293h.78c.33.366.746.647 1.22.816v3.184c0 .551-.449 1-1 1h-7v2h7c1.654 0 3-1.346 3-3v-3.184c1.047-.373 1.818-1.305 1.962-2.44l3.624 3.624h-1.586v2h4c.552 0 1-.448 1-1v-4h-2v1.586l-4.293-4.293c-.187-.188-.442-.293-.707-.293h-.78c-.33-.366-.746-.647-1.22-.816v-3.184c0-.551.449-1 1-1h1.586l-1.293 1.293 1.414 1.414 3-3c.391-.391.391-1.023 0-1.414l-3-3-1.414 1.414 1.293 1.293h-1.586c-1.654 0-3 1.346-3 3v3.184c-1.047.373-1.818 1.305-1.962 2.44l-3.624-3.624h1.586v-2h-4c-.552 0-1 .448-1 1zm10 0c.551 0 1 .449 1 1s-.449 1-1 1-1-.449-1-1 .449-1 1-1z"/></g></svg>