<?xml version="1.0" encoding="iso-8859-1"?>
<!-- Generator: Adobe Illustrator 19.0.0, SVG Export Plug-In . SVG Version: 6.00 Build 0)  -->
<svg version="1.1" id="Capa_1" xmlns="http://www.w3.org/2000/svg" xmlns:xlink="http://www.w3.org/1999/xlink" x="0px" y="0px"
	 viewBox="0 0 496 496" style="enable-background:new 0 0 496 496;" xml:space="preserve">
<polyline style="fill:#BABDBF;" points="184,72 64,72 8,128 8,152 176,152 "/>
<path d="M176,160H8c-4.8,0-8-3.2-8-8v-24c0-2.4,0.8-4,2.4-5.6l56-56C60,64.8,61.6,64,64,64h120v16H67.2L16,131.2V144h160V160z"/>
<polyline style="fill:#BABDBF;" points="320,152 488,152 488,128 432,72 312,72 "/>
<path d="M488,160H320v-16h160v-12.8L428.8,80H312V64h120c2.4,0,4,0.8,5.6,2.4l56,56c1.6,1.6,2.4,3.2,2.4,5.6v24
	C496,156.8,492.8,160,488,160z"/>
<rect x="24" y="152" style="fill:#737272;" width="152" height="80"/>
<path d="M176,240H24c-4.8,0-8-3.2-8-8v-80c0-4.8,3.2-8,8-8h152c4.8,0,8,3.2,8,8v80C184,236.8,180.8,240,176,240z M32,224h136v-64H32
	V224z"/>
<path style="fill:#C7B299;" d="M248,264L248,264c17.6,0,32,14.4,32,32v16c0,17.6-14.4,32-32,32l0,0c-17.6,0-32-14.4-32-32v-16
	C216,278.4,230.4,264,248,264z"/>
<path d="M248,352c-22.4,0-40-17.6-40-40v-16c0-22.4,17.6-40,40-40s40,17.6,40,40v16C288,334.4,270.4,352,248,352z M248,272
	c-13.6,0-24,10.4-24,24v16c0,13.6,10.4,24,24,24s24-10.4,24-24v-16C272,282.4,261.6,272,248,272z"/>
<polygon style="fill:#3E606F;" points="296,488 296,424 376,344 376,264 344,264 344,328 296,376 200,376 152,328 152,264 120,264 
	120,344 200,424 200,488 "/>
<path d="M296,496h-96c-4.8,0-8-3.2-8-8v-60.8l-77.6-77.6c-1.6-1.6-2.4-3.2-2.4-5.6v-80c0-4.8,3.2-8,8-8h32c4.8,0,8,3.2,8,8v60.8
	l43.2,43.2h89.6l43.2-43.2V264c0-4.8,3.2-8,8-8h32c4.8,0,8,3.2,8,8v80c0,2.4-0.8,4-2.4,5.6L304,427.2V488
	C304,492.8,300.8,496,296,496z M208,480h80v-56c0-2.4,0.8-4,2.4-5.6l77.6-77.6V272h-16v56c0,2.4-0.8,4-2.4,5.6l-48,48
	c-1.6,1.6-3.2,2.4-5.6,2.4h-96c-2.4,0-4-0.8-5.6-2.4l-48-48c-1.6-1.6-2.4-3.2-2.4-5.6v-56h-16v68.8l77.6,77.6
	c1.6,1.6,2.4,3.2,2.4,5.6V480z"/>
<rect x="120" y="264" style="fill:#C7B299;" width="32" height="32"/>
<path d="M152,304h-32c-4.8,0-8-3.2-8-8v-32c0-4.8,3.2-8,8-8h32c4.8,0,8,3.2,8,8v32C160,300.8,156.8,304,152,304z M128,288h16v-16
	h-16V288z"/>
<rect x="344" y="264" style="fill:#C7B299;" width="32" height="32"/>
<path d="M376,304h-32c-4.8,0-8-3.2-8-8v-32c0-4.8,3.2-8,8-8h32c4.8,0,8,3.2,8,8v32C384,300.8,380.8,304,376,304z M352,288h16v-16
	h-16V288z"/>
<rect x="64" y="344" width="16" height="16"/>
<rect x="64" y="376" width="16" height="16"/>
<rect x="80" y="360" width="16" height="16"/>
<rect x="48" y="360" width="16" height="16"/>
<rect x="128" y="408" width="16" height="16"/>
<rect x="128" y="440" width="16" height="16"/>
<rect x="144" y="424" width="16" height="16"/>
<rect x="112" y="424" width="16" height="16"/>
<rect x="424" y="344" width="16" height="16"/>
<rect x="424" y="376" width="16" height="16"/>
<rect x="408" y="360" width="16" height="16"/>
<rect x="440" y="360" width="16" height="16"/>
<rect x="360" y="408" width="16" height="16"/>
<rect x="360" y="440" width="16" height="16"/>
<rect x="344" y="424" width="16" height="16"/>
<rect x="376" y="424" width="16" height="16"/>
<rect x="176" y="120" style="fill:#BABDBF;" width="144" height="112"/>
<path d="M320,240H176c-4.8,0-8-3.2-8-8V120c0-4.8,3.2-8,8-8h144c4.8,0,8,3.2,8,8v112C328,236.8,324.8,240,320,240z M184,224h128v-96
	H184V224z"/>
<polygon style="fill:#737272;" points="312,120 360,120 248,8 136,120 184,120 "/>
<path d="M360,128H136c-4.8,0-8-3.2-8-8c0-2.4,0.8-4,2.4-5.6l112-112c3.2-3.2,8-3.2,11.2,0l112,112c3.2,3.2,3.2,8,0,11.2
	C364,127.2,362.4,128,360,128z M155.2,112h185.6L248,19.2L155.2,112z"/>
<rect x="224" y="168" style="fill:#D9D9D9;" width="48" height="64"/>
<path d="M272,240h-48c-4.8,0-8-3.2-8-8v-64c0-4.8,3.2-8,8-8h48c4.8,0,8,3.2,8,8v64C280,236.8,276.8,240,272,240z M232,224h32v-48
	h-32V224z"/>
<polyline style="fill:#D9D9D9;" points="56,152 56,136 120,72 64,72 8,128 8,152 56,152 "/>
<path d="M56,160H8c-4.8,0-8-3.2-8-8v-24c0-2.4,0.8-4,2.4-5.6l56-56C60,64.8,61.6,64,64,64h56c4.8,0,8,3.2,8,8c0,2.4-0.8,4-2.4,5.6
	L64,139.2V152C64,156.8,60.8,160,56,160z M16,144h32v-8c0-2.4,0.8-4,2.4-5.6L100.8,80H67.2L16,131.2V144z"/>
<polyline style="fill:#BABDBF;" points="88,152 88,184 136,184 136,152 "/>
<path d="M136,192H88c-4.8,0-8-3.2-8-8v-32h16v24h32v-24h16v32C144,188.8,140.8,192,136,192z"/>
<rect x="320" y="152" style="fill:#737272;" width="152" height="80"/>
<path d="M472,240H320c-4.8,0-8-3.2-8-8v-80c0-4.8,3.2-8,8-8h152c4.8,0,8,3.2,8,8v80C480,236.8,476.8,240,472,240z M328,224h136v-64
	H328V224z"/>
<rect x="440" y="152" style="fill:#BABDBF;" width="32" height="80"/>
<path d="M472,240h-32c-4.8,0-8-3.2-8-8v-80c0-4.8,3.2-8,8-8h32c4.8,0,8,3.2,8,8v80C480,236.8,476.8,240,472,240z M448,224h16v-64
	h-16V224z"/>
<rect x="24" y="152" style="fill:#BABDBF;" width="32" height="80"/>
<path d="M56,240H24c-4.8,0-8-3.2-8-8v-80c0-4.8,3.2-8,8-8h32c4.8,0,8,3.2,8,8v80C64,236.8,60.8,240,56,240z M32,224h16v-64H32V224z"
	/>
<polygon style="fill:#D9D9D9;" points="440,152 440,136 376,72 432,72 488,128 488,152 "/>
<path d="M488,160h-48c-4.8,0-8-3.2-8-8v-12.8l-61.6-61.6c-3.2-3.2-3.2-8,0-11.2c1.6-1.6,3.2-2.4,5.6-2.4h56c2.4,0,4,0.8,5.6,2.4
	l56,56c1.6,1.6,2.4,3.2,2.4,5.6v24C496,156.8,492.8,160,488,160z M448,144h32v-12.8L428.8,80h-33.6l50.4,50.4
	c1.6,1.6,2.4,3.2,2.4,5.6L448,144L448,144z"/>
<rect x="360" y="152" style="fill:#BABDBF;" width="48" height="32"/>
<path d="M408,192h-48c-4.8,0-8-3.2-8-8v-32c0-4.8,3.2-8,8-8h48c4.8,0,8,3.2,8,8v32C416,188.8,412.8,192,408,192z M368,176h32v-16
	h-32V176z"/>
<polyline style="fill:#D9D9D9;" points="320,200 320,232 272,232 272,200 320,200 "/>
<path d="M320,240h-48c-4.8,0-8-3.2-8-8v-32c0-4.8,3.2-8,8-8h48c4.8,0,8,3.2,8,8v32C328,236.8,324.8,240,320,240z M280,224h32v-16
	h-32V224z"/>
<rect x="176" y="200" style="fill:#D9D9D9;" width="48" height="32"/>
<path d="M224,240h-48c-4.8,0-8-3.2-8-8v-32c0-4.8,3.2-8,8-8h48c4.8,0,8,3.2,8,8v32C232,236.8,228.8,240,224,240z M184,224h32v-16
	h-32V224z"/>
<rect x="88" y="144" width="48" height="16"/>
<g>
</g>
<g>
</g>
<g>
</g>
<g>
</g>
<g>
</g>
<g>
</g>
<g>
</g>
<g>
</g>
<g>
</g>
<g>
</g>
<g>
</g>
<g>
</g>
<g>
</g>
<g>
</g>
<g>
</g>
</svg>
