<svg id="Layer_1" enable-background="new 0 0 480 480" height="512" viewBox="0 0 480 480" width="512" xmlns="http://www.w3.org/2000/svg"><path d="m472 228.5v63c0 5.52-4.48 10-10 10h-22.13c-8.86 29.67-27.35 56.28-52.79 75.09-2.56 1.89-4.08 4.87-4.08 8.05v29.86c0 13.25-10.75 24-24 24h-35c-13.25 0-24-10.75-24-24 0-5.52-4.48-10-10-10h-79c-5.52 0-10 4.48-10 10 0 13.251-10.76 24-24 24h-35c-13.25 0-24-10.75-24-24v-29.91c0-3.15-1.5-6.11-4.02-8-91.65-68.743-70.582-210.068 34.02-250.59h.02c.79-46.81 38.98-84.5 85.98-84.5 47.84 0 80.22 35.96 85.33 75.89l.12-.02c19.39 2.34 37.52 8.53 53.64 17.68 21.431-24.703 58.491 1.502 59.29 22.18.31 7.87-4.29 15.51-11.26 21.98 6.92 10.1 12.52 21.09 16.6 32.67 1.41 3.98 5.19 6.62 9.41 6.62h14.87c5.52 0 10 4.48 10 10z" fill="#ffa4b8"/><path d="m289.14 193.5h-110.28c-21.159-17.692-31.776-44.088-30.84-67.5.79-46.81 38.98-84.5 85.98-84.5 79.957 0 116.75 100.472 55.14 152z" fill="#ffe773"/><path d="m432.38 157.23c1.015 25.777-50.678 49.091-65.52 36.97-13.886-11.346-6.156-62.416 21.21-68.61 19.15-4.33 43.64 14.29 44.31 31.64z" fill="#ffb1bf"/><path d="m160.09 171.48c-42.899 31.309-63.454 77.125-66.998 126.945-1.268 17.816-26.308 20.433-31.329 3.292-21.073-71.945 15.991-148.505 86.237-175.717h.02c-.559 13.971 3.389 30.933 12.07 45.48z" fill="#ffb1bf"/><path d="m373.09 135.05c-2.74 3.15-5.05 6.87-6.92 10.89-15.53-4.91-31.07-8.34-46.43-10.38.51-6.07.36-12.17-.41-18.17l.12-.02c19.39 2.34 37.52 8.53 53.64 17.68z" fill="#ff99af"/><path d="m267.162 47.89c7.198 2.962 4.964 13.638-2.82 13.61-68.325-.246-109.034 75.236-73.012 131.999h-12.47c-21.555-18.024-31.756-44.621-30.84-67.5.79-46.809 38.98-84.499 85.98-84.499 12.109 0 23.227 2.302 33.162 6.39z" fill="#ffec8f"/><path d="m380.549 176.071c4.386-37.857 32.888-48.957 44.259-35.763 4.463 5.178 7.353 11.122 7.572 16.922.551 13.982-14.405 27.239-30.577 34.509-10.771 4.842-22.613-3.937-21.254-15.668z" fill="#ffa4b8"/><g fill="#ff99af"><path d="m424.792 184.855c2.968 4.808 1.331 11.091-3.553 13.932-19.359 11.263-43.005 16.005-52.895 7.617-4.41-3.74-.564-10.929 5.019-9.422 15.315 4.133 39.463-9.98 47.758-17.772 1.267 1.853 2.492 3.735 3.671 5.645z"/><path d="m211 404.5c-5.534 0-10 4.499-10 10 0 13.251-10.76 24-24 24h-5.52c-6.571 0-11.303-6.307-9.466-12.616l.825-2.834c3.21-10.99 13.28-18.55 24.73-18.55z"/><path d="m385.31 378.26c-3.026 3.718-2.31 3.854-2.31 36.241 0 13.252-10.748 23.999-24 23.999h-13.832c-5.246 0-9.498-4.253-9.498-9.498v-5.501c0-10.147 6.349-19.109 15.812-22.773 12.474-4.828 24.037-12.332 33.828-22.468z"/></g><path d="m472 210.5h-26.298c-3.647-10.649-8.48-20.845-14.399-30.453 5.7-6.744 9.402-14.596 9.074-23.127-.862-22.379-30.053-44.563-54.074-39.131-33.662 7.611-43.834 66.802-24.506 82.601 13.599 11.116 41.057 2.19 57.405-9.413 5.51 9.393 9.883 19.381 13.001 29.813 1.013 3.388 4.129 5.709 7.665 5.709h24.132v67h-24.133c-3.537 0-6.653 2.322-7.666 5.71-8.717 29.186-27.425 55.49-53.656 73.508-2.329 1.6-3.546 4.267-3.546 6.781v35c0 8.823-7.178 16-16 16h-35c-8.822 0-16-7.177-16-16v-10c0-4.418-3.582-8-8-8h-60c-4.418 0-8 3.582-8 8s3.582 8 8 8h52v2c0 17.645 14.355 32 32 32h35c17.645 0 32-14.355 32-32v-31.002c26.14-19.027 44.844-45.25 54.702-73.998h26.299c4.418 0 8-3.582 8-8v-83c0-4.416-3.582-7.998-8-7.998zm-70.923-27.268c-14.188 7.065-26.048 7.31-29.155 4.77-3.089-2.525-5.583-13.6-2.229-27.827 2.675-11.35 9.37-24.345 20.138-26.78 1 0 10.706-2.811 23.379 6.923 6.684 5.134 10.967 11.731 11.178 17.218.319 8.268-9.05 18.595-23.311 25.696zm-192.077 221.268v10c0 17.645-14.355 32-32 32h-35c-17.645 0-32-14.355-32-32v-30.907c-35.028-25.992-59.492-67.209-61.902-115.093h-5.815c-13.863 0-25.141-11.278-25.141-25.141 0-5.041-4.101-9.141-9.142-9.141-4.418 0-8-3.582-8-8s3.582-8 8-8c13.863 0 25.142 11.278 25.142 25.141 0 5.041 4.101 9.141 9.141 9.141h5.84c2.492-46.732 26.459-89.102 63.237-115.472 3.59-2.574 8.589-1.751 11.163 1.84 2.575 3.591 1.75 8.589-1.84 11.163-75.828 54.366-76.145 168.215 1.908 222.917 2.137 1.497 3.409 3.942 3.409 6.551v35c0 8.823 7.178 16 16 16h35c8.822 0 16-7.177 16-16v-10c0-4.418 3.582-8 8-8s8 3.583 8 8.001zm-61-219h12.025c-12.88-16.403-20.025-36.728-20.025-58 0-51.832 42.168-94 94-94 60.04 0 105.109 55.931 91.65 114.97-.982 4.308-5.271 7.003-9.578 6.022-4.308-.982-7.004-5.27-6.022-9.578 11.177-49.029-26.266-95.414-76.05-95.414-43.009 0-78 34.991-78 78 0 22.219 9.39 43.194 25.854 58h138.146c4.418 0 8 3.582 8 8s-3.582 8-8 8c-5.257 0-170.881 0-172 0-4.418 0-8-3.582-8-8s3.582-8 8-8z"/></svg>