<svg id="Capa_1" enable-background="new 0 0 512 512" height="512" viewBox="0 0 512 512" width="512" xmlns="http://www.w3.org/2000/svg"><g><g><path clip-rule="evenodd" d="m502 115.312v-83.224c0-12.16-9.949-22.081-22.081-22.081h-447.838c-12.16 0-22.081 9.921-22.081 22.081v83.224z" fill="#ff7d95" fill-rule="evenodd"/></g><g><path clip-rule="evenodd" d="m93.876 339.868c0-89.545 72.566-162.139 162.11-162.139s162.139 72.594 162.139 162.139c0 30.982-8.702 59.952-23.782 84.584h85.576c12.132 0 22.081-9.949 22.081-22.081v-287.059h-492v287.059c0 12.132 9.921 22.081 22.081 22.081h85.576c-15.108-24.632-23.781-53.602-23.781-84.584z" fill="#fff" fill-rule="evenodd"/></g><g><path clip-rule="evenodd" d="m201.873 278.273c0-23.924 19.615-43.539 43.539-43.539h21.146c23.952 0 43.539 19.615 43.539 43.539v35.744h5.017c9.099 0 16.554 7.455 16.554 16.554v38.239c0 41.612-34.043 75.684-75.684 75.684-41.612 0-75.684-34.072-75.684-75.684v-38.239c0-9.099 7.455-16.554 16.582-16.554h4.989v-35.744zm216.251 61.595c0-89.545-72.594-162.139-162.139-162.139s-162.11 72.594-162.11 162.139c0 30.982 8.674 59.952 23.782 84.584 28.488 46.516 79.794 77.554 138.328 77.554 58.563 0 109.84-31.039 138.356-77.554 15.081-24.632 23.783-53.602 23.783-84.584z" fill="#a0e5a5" fill-rule="evenodd"/></g><g><path clip-rule="evenodd" d="m310.098 314.017h-108.225-4.989c-9.127 0-16.582 7.455-16.582 16.554v38.239c0 41.612 34.072 75.684 75.684 75.684 41.64 0 75.684-34.072 75.684-75.684v-38.239c0-9.099-7.455-16.554-16.554-16.554z" fill="#ffec80" fill-rule="evenodd"/></g><g><path clip-rule="evenodd" d="m310.098 278.273c0-23.924-19.587-43.539-43.539-43.539h-21.146c-23.924 0-43.539 19.615-43.539 43.539v35.744h108.225v-35.744z" fill="#a0e5a5" fill-rule="evenodd"/></g><g><path d="m387.737 72.646c5.522 0 10-4.478 10-10s-4.478-10-10-10h-.057c-5.522 0-9.972 4.478-9.972 10s4.507 10 10.029 10z"/><path d="m441.708 72.646c5.522 0 10-4.478 10-10s-4.478-10-10-10h-.057c-5.522 0-9.972 4.478-9.972 10s4.507 10 10.029 10z"/><path d="m333.767 72.646c5.522 0 10-4.478 10-10s-4.478-10-10-10h-.057c-5.522 0-9.972 4.478-9.972 10s4.506 10 10.029 10z"/><path d="m70.263 72.646h150.262c5.523 0 10-4.478 10-10s-4.477-10-10-10h-150.262c-5.523 0-10 4.478-10 10s4.477 10 10 10z"/><path d="m479.919.007h-447.837c-17.69 0-32.082 14.391-32.082 32.081v370.283c0 17.689 14.392 32.081 32.082 32.081h80.034c6.382 9.662 13.789 18.739 22.168 27.118 32.516 32.516 75.742 50.423 121.716 50.423 45.975 0 89.201-17.907 121.717-50.423 8.43-8.431 15.8-17.526 22.112-27.118h80.09c17.689 0 32.081-14.392 32.081-32.081v-370.283c0-17.69-14.392-32.081-32.081-32.081zm-447.837 20h447.837c6.661 0 12.081 5.42 12.081 12.081v73.224h-472v-73.224c0-6.661 5.42-12.081 12.082-12.081zm447.837 394.445h-68.793c30.719-64.037 19.591-143.285-33.409-196.286-26.946-26.945-61.105-43.851-98.785-48.889-36.468-4.874-74.189 2.196-106.219 19.912-4.833 2.674-6.584 8.758-3.911 13.591s8.759 6.583 13.59 3.911c58.975-32.621 133.479-22.086 181.182 25.617 59.309 59.309 59.309 155.812 0 215.119-28.738 28.738-66.942 44.565-107.574 44.565s-78.836-15.827-107.574-44.565c-47.696-47.695-58.23-122.188-25.618-181.152 2.673-4.833.922-10.917-3.911-13.591-4.831-2.673-10.917-.922-13.59 3.911-17.716 32.029-24.787 69.747-19.912 106.205 2.431 18.175 7.632 35.528 15.383 51.651h-68.696c-6.662 0-12.082-5.42-12.082-12.081v-277.06h472v277.06c0 6.662-5.42 12.082-12.081 12.082z"/><path d="m255.986 397.489c5.523 0 10-4.478 10-10v-23.867c0-5.522-4.478-10-10-10s-10 4.478-10 10v23.867c0 5.523 4.477 10 10 10z"/><path d="m255.986 454.493c47.246 0 85.683-38.438 85.683-85.684v-38.239c0-12.938-9.303-23.738-21.57-26.078v-26.22c0-29.521-24.018-53.539-53.54-53.539h-21.146c-29.521 0-53.539 24.018-53.539 53.539v26.224c-12.269 2.348-21.571 13.144-21.571 26.074v38.239c-.001 47.247 38.437 85.684 85.683 85.684zm-44.112-176.221c0-18.493 15.045-33.539 33.539-33.539h21.146c18.494 0 33.54 15.046 33.54 33.539v25.744h-88.225zm-21.572 52.298c0-3.553 3.015-6.554 6.583-6.554h118.23c3.553 0 6.554 3.001 6.554 6.554v38.239c0 36.218-29.465 65.684-65.683 65.684s-65.684-29.466-65.684-65.684z"/><path d="m134.284 218.166c-3.905 3.905-3.905 10.237 0 14.143 1.953 1.952 4.512 2.929 7.071 2.929s5.119-.977 7.071-2.929l.028-.028c3.905-3.905 3.891-10.223-.014-14.128s-10.25-3.892-14.156.013z"/></g></g></svg>