<svg id="_x33_0" enable-background="new 0 0 64 64" height="512" viewBox="0 0 64 64" width="512" xmlns="http://www.w3.org/2000/svg"><g><g><g><path d="m16.92 38h2.13c-1.9 2.12-3.05 4.93-3.05 8 0 1.4.24 2.75.68 4h-10.68c-2.21 0-4-2.69-4-6s1.79-6 4-6z" fill="#aab2bd"/></g><g><path d="m52 50c-2.21 0-4 2.69-4 6s1.79 6 4 6h-46c-2.21 0-4-2.69-4-6s1.79-6 4-6h10.68c1.65 4.66 6.09 8 11.32 8s9.67-3.34 11.32-8z" fill="#aab2bd"/></g><g><path d="m36.95 38h15.05c-2.21 0-4 2.69-4 6s1.79 6 4 6h-12.68c.44-1.25.68-2.6.68-4 0-3.08-1.15-5.88-3.05-8z" fill="#aab2bd"/></g><g><ellipse cx="52" cy="56" fill="#ff826e" rx="4" ry="6"/></g><g><path d="m56 44c0 3.31-1.79 6-4 6s-4-2.69-4-6 1.79-6 4-6c2.19 0 3.96 2.64 4 5.9z" fill="#ff826e"/></g><g><path d="m32 10v4h-8v-4h4z" fill="#e6e9ed"/></g><g><path d="m34 4c0 1.96-.58 3.87-1.66 5.5l-.34.5h-4l-.21-.42c-.88-1.76-1.44-3.64-1.67-5.58-.08-.66-.12-1.33-.12-2 3 0 5 .5 6.25 1s1.75 1 1.75 1z" fill="#d3a06c"/></g><g><path d="m27.79 9.58.21.42h-4l-2-4c.61-1.23 1.87-2 3.24-2h.88c.23 1.94.79 3.82 1.67 5.58z" fill="#cf9e76"/></g><g><path d="m28 34c-3.56 0-6.75 1.54-8.95 4h-2.13c-1.82-2.07-2.92-4.78-2.92-7.75 0-1.37.24-2.73.7-4s1.14-2.47 2.02-3.52l7.28-8.73h8l7.28 8.73c1.76 2.11 2.72 4.77 2.72 7.52 0 1.31-.21 2.57-.61 3.75h-4.39c-.53 0-1.04.21-1.41.59l-1.23 1.22c-1.84-1.15-4.02-1.81-6.36-1.81z" fill="#cf9e76"/></g><g><path d="m40 46c0 1.4-.24 2.75-.68 4-1.65 4.66-6.09 8-11.32 8s-9.67-3.34-11.32-8c-.44-1.25-.68-2.6-.68-4 0-3.07 1.15-5.88 3.05-8 2.2-2.46 5.39-4 8.95-4 2.34 0 4.52.66 6.36 1.81.96.61 1.83 1.35 2.59 2.19 1.9 2.12 3.05 4.92 3.05 8z" fill="#69d6f4"/></g><g><circle cx="28" cy="46" fill="#e6e9ed" r="2"/></g></g><g><path d="m31 46c0-1.302-.839-2.402-2-2.816v-4.184h-2v4.184c-1.161.414-2 1.514-2 2.816 0 1.654 1.346 3 3 3s3-1.346 3-3zm-3 1c-.552 0-1-.448-1-1s.448-1 1-1 1 .448 1 1-.448 1-1 1z"/><path d="m63 50c0-2.852-1.718-5.307-4.171-6.397 1.332-1.113 2.171-2.778 2.171-4.603 0-3.309-2.691-6-6-6h-12.306c.197-.899.306-1.817.306-2.747 0-2.976-1.049-5.874-2.954-8.161l-7.046-8.455v-3.334l.168-.252c1.198-1.798 1.832-3.891 1.832-6.051v-.414l-.293-.293c-.234-.234-2.473-2.293-8.707-2.293h-1v1c0 .338.01.677.03 1.014-1.676.074-3.168 1.027-3.924 2.538l-.224.448 2.118 4.236v3.401l-7.046 8.456c-1.905 2.286-2.954 5.184-2.954 8.16 0 2.404.684 4.735 1.941 6.747h-8.941c-2.804 0-5 3.075-5 7 0 2.58.953 4.786 2.4 6-1.447 1.214-2.4 3.42-2.4 6 0 3.925 2.196 7 5 7h46c2.578 0 4.638-2.603 4.953-6.073 3.409-.467 6.047-3.392 6.047-6.927zm-11-1c-1.626 0-3-2.29-3-5s1.374-5 3-5c1.421 0 2.649 1.75 2.936 4h-3.936v2h3.936c-.287 2.25-1.515 4-2.936 4zm-25 6v1.949c-5.268-.478-9.472-4.681-9.949-9.949h1.949v-2h-1.949c.478-5.268 4.681-9.472 9.949-9.949v1.949h2v-1.949c5.268.478 9.472 4.681 9.949 9.949h-1.949v2h1.949c-.478 5.268-4.681 9.472-9.949 9.949v-1.949zm11.937-16h9.534c-.912 1.261-1.471 3.022-1.471 5s.559 3.739 1.471 5h-7.834c.229-.965.363-1.966.363-3 0-2.578-.764-4.977-2.063-7zm20.063 0c0 1.496-.846 2.829-2.111 3.512-.475-3.186-2.451-5.512-4.889-5.512h-14.641c-.454-.472-.946-.906-1.467-1.306l.401-.401c.186-.187.444-.293.707-.293h18c2.206 0 4 1.794 4 4zm-26.013-34.514c-.087 1.591-.595 3.122-1.483 4.455l-.039.059h-2.839c-.911-1.863-1.458-3.908-1.593-5.979 3.503.151 5.293 1.043 5.954 1.465zm-1.987 6.514v2h-6v-2zm-5.764-6h.021c.234 1.372.625 2.718 1.167 4h-1.807l-1.477-2.953c.49-.655 1.257-1.047 2.096-1.047zm-10.236 25.253c0-2.509.885-4.952 2.491-6.88l6.978-8.373h7.062l6.978 8.372c1.606 1.929 2.491 4.372 2.491 6.881 0 .934-.124 1.854-.36 2.747h-3.64c-.801 0-1.555.313-2.121.879l-.691.691c-1.563-.85-3.323-1.376-5.188-1.519v-2.051h2v-3c0-1.654-1.346-3-3-3-.552 0-1-.448-1-1v-1h1c.552 0 1 .448 1 1v1h2v-1c0-1.302-.839-2.402-2-2.816v-2.184h-2v2h-2v3c0 1.654 1.346 3 3 3 .552 0 1 .448 1 1v1h-1c-.552 0-1-.448-1-1v-1h-2v1c0 1.302.839 2.402 2 2.816v2.235c-3.274.251-6.209 1.715-8.359 3.949h-1.246c-1.542-1.907-2.395-4.282-2.395-6.747zm-12 13.747c0-2.71 1.374-5 3-5h11.063c-1.299 2.023-2.063 4.422-2.063 7 0 1.034.134 2.035.363 3h-9.363c-1.626 0-3-2.29-3-5zm0 12c0-2.71 1.374-5 3-5h10.003c1.963 4.693 6.6 8 11.997 8s10.034-3.307 11.997-8h8.474c-.912 1.261-1.471 3.022-1.471 5s.559 3.739 1.471 5h-42.471c-1.626 0-3-2.29-3-5zm49 5c-1.626 0-3-2.29-3-5s1.374-5 3-5c1.421 0 2.649 1.75 2.936 4h-3.936v2h3.936c-.287 2.25-1.515 4-2.936 4zm4.935-6.095c-.227-2.103-1.098-3.868-2.335-4.905 1.237-1.037 2.108-2.802 2.335-4.905 2.311.44 4.065 2.468 4.065 4.905s-1.754 4.465-4.065 4.905z"/></g></g></svg>