<svg  fill="#1b6ca8" id="Layer_5" enable-background="new 0 0 64 64" height="512" viewBox="0 0 64 64" width="512" xmlns="http://www.w3.org/2000/svg"><g><path fill="#01a9b4" d="m30 20.855v2.145h2v-2.145c1.155-.366 2-1.435 2-2.709 0-1.087-.604-2.066-1.578-2.553l-1.95-.974c-.291-.146-.472-.439-.472-.765 0-.471.383-.854.854-.854h.292c.471 0 .854.383.854.854v.146h2v-.146c0-1.274-.845-2.343-2-2.709v-2.145h-2v2.145c-1.155.366-2 1.435-2 2.709 0 1.087.604 2.066 1.578 2.553l1.95.974c.291.146.472.439.472.765 0 .471-.383.854-.854.854h-.292c-.471 0-.854-.383-.854-.854v-.146h-2v.146c0 1.274.845 2.343 2 2.709z"/><path d="m31 27c6.065 0 11-4.935 11-11s-4.935-11-11-11-11 4.935-11 11 4.935 11 11 11zm0-20c4.962 0 9 4.038 9 9s-4.038 9-9 9-9-4.038-9-9 4.038-9 9-9z"/><path  d="m60.714 13.663-6.729-5.229-.1-.068c-.398-.24-.854-.366-1.319-.366-1.415 0-2.566 1.151-2.566 2.566v1.434h-4.558c-1.757-6.332-7.558-11-14.442-11s-12.685 4.668-14.442 11h-4.558v-1.434c0-1.415-1.151-2.566-2.566-2.566-.464 0-.921.126-1.32.365l-6.828 5.298c-.795.504-1.286 1.394-1.286 2.337s.491 1.833 1.286 2.337l6.729 5.229.1.068c.398.24.854.366 1.319.366.289 0 .562-.059.821-.147l.302.579c-1.342 2.176-2.317 4.526-2.905 7.001l-2.652.833v9.469l2.653.832c.587 2.476 1.563 4.826 2.904 7.002l-1.289 2.469 6.695 6.695 2.469-1.29c2.175 1.342 4.525 2.317 7.001 2.905l.833 2.652h9.469l.833-2.652c2.476-.588 4.826-1.563 7.001-2.905l2.469 1.29 6.695-6.695-1.289-2.469c1.342-2.176 2.317-4.526 2.904-7.002l2.652-.833v-9.469l-2.652-.833c-.588-2.475-1.563-4.825-2.905-7.001l.302-.579c.26.089.533.148.821.148.464 0 .921-.126 1.32-.365l6.828-5.298c.795-.504 1.286-1.394 1.286-2.337s-.491-1.833-1.286-2.337zm-29.714-10.663c7.168 0 13 5.832 13 13s-5.832 13-13 13-13-5.832-13-13 5.832-13 13-13zm16 34c0 .679-.056 1.343-.139 2h-3.625l-4.512-2.256-3.478 4.348-3.596-8.092h-5.268l-3.656 7.312-3.312-3.312h-4.414c0-4.206 1.694-8.231 4.65-11.221 2.753 3.19 6.815 5.221 11.35 5.221s8.597-2.031 11.35-5.221c2.956 2.99 4.65 7.015 4.65 11.221zm-29 9.292c-1.512-2.109-2.523-4.595-2.861-7.292h2.861zm2-5.878 2 2v7.804c-.713-.487-1.376-1.037-2-1.63zm4 1.822 2-4v13.952c-.69-.228-1.355-.508-2-.824zm4-7.236h2v17.949c-.678-.042-1.347-.117-2-.241zm4 3.712 2 4.5v9.496c-.653.124-1.322.199-2 .241zm4 4.639 2-2.5v10.515c-.645.316-1.31.596-2 .823zm4-3.733 2 1v7.971c-.624.592-1.287 1.143-2 1.63zm4 1.382h2.473c-.499 1.929-1.344 3.716-2.473 5.292zm-34.818-19.059-6.711-5.216-.099-.068c-.229-.137-.372-.389-.372-.657s.143-.52.372-.657l6.81-5.284c.358-.177.818.107.818.507v3.434h6.149c-.088.656-.149 1.32-.149 2s.061 1.344.149 2h-6.149v3.434c0 .399-.46.683-.818.507zm43.338 10.481.121.572 2.359.74v6.531l-2.359.74-.121.572c-.558 2.636-1.59 5.125-3.068 7.397l-.319.489 1.147 2.197-4.619 4.617-2.196-1.147-.49.319c-2.271 1.479-4.76 2.511-7.396 3.068l-.572.121-.741 2.362h-6.531l-.74-2.359-.572-.121c-2.636-.558-5.125-1.59-7.396-3.068l-.49-.319-2.196 1.147-4.619-4.617 1.147-2.197-.319-.489c-1.479-2.272-2.511-4.762-3.068-7.397l-.121-.572-2.361-.742v-6.531l2.359-.74.121-.572c.558-2.636 1.59-5.125 3.068-7.396l.319-.49-1.085-2.076c.139-.317.218-.662.218-1.027v-1.434h4.558c.415 1.496 1.05 2.9 1.879 4.17-3.453 3.382-5.437 7.999-5.437 12.83 0 9.925 8.075 18 18 18s18-8.075 18-18c0-4.831-1.984-9.448-5.437-12.83.829-1.27 1.464-2.674 1.879-4.17h4.558v1.434c0 .365.079.711.217 1.026l-1.085 2.076.319.49c1.479 2.271 2.511 4.76 3.069 7.396zm7.108-15.765-6.81 5.284c-.357.177-.818-.108-.818-.507v-3.434h-6.149c.088-.656.149-1.32.149-2s-.061-1.344-.149-2h6.149v-3.434c0-.4.461-.686.818-.507l6.711 5.216.099.068c.229.137.372.389.372.657s-.143.52-.372.657z"/><circle  cx="31" cy="58" r="1"/><path fill="#01a9b4" d="m45.142 51.142c-.391.391-.391 1.024 0 1.414.391.391 1.024.391 1.414 0 .391-.391.391-1.024 0-1.414-.39-.39-1.023-.39-1.414 0z"/><circle cx="52" cy="37" r="1"/><circle cx="10" cy="37" r="1"/><path fill="#01a9b4" d="m15.444 51.142c-.391.391-.391 1.024 0 1.414.391.391 1.024.391 1.414 0 .391-.391.391-1.024 0-1.414s-1.024-.39-1.414 0z"/></g></svg>