<svg height="496pt" viewBox="0 0 496 496" width="496pt" xmlns="http://www.w3.org/2000/svg"><path d="m337.894531 366.617188c14.722657-3.785157 26.242188-15.625 29.296875-30.617188h40.808594c13.230469 0 24-10.769531 24-24v-224c0-13.230469-10.769531-24-24-24h-104.390625v16h104.390625c4.414062 0 8 3.585938 8 8v224c0 4.414062-3.585938 8-8 8h-320c-4.414062 0-8-3.585938-8-8v-224c0-4.414062 3.585938-8 8-8h104.390625v-16h-104.390625c-13.230469 0-24 10.769531-24 24v224c0 13.230469 10.769531 24 24 24h40.808594c3.054687 14.992188 14.574218 26.832031 29.296875 30.617188l-28.34375 113.382812h-97.761719v16h432v-16h-97.761719zm-48.132812 1.382812 8 32h-99.523438l8-32zm-95.523438 48h107.523438l4 16h-115.523438zm-8 32h123.523438l8 32h-139.523438zm120-80h15.515625l28 112h-15.515625zm-160.765625-32h205.046875c-3.3125 9.289062-12.113281 16-22.527343 16h-159.992188c-10.414062 0-19.214844-6.710938-22.527344-16zm28.765625 32h15.515625l-28 112h-15.515625zm0 0"/><path d="m480 480h16v16h-16zm0 0"/><path d="m0 480h16v16h-16zm0 0"/><path d="m205.097656 112v-16h-109.097656v208h304v-208h-109.097656v16h45.097656v21.152344c0 2.75.441406 5.464844 1.3125 8.085937l6.191406 18.585938c.328125.976562.496094 2 .496094 3.023437v11.601563c0 5.269531-4.28125 9.550781-9.542969 9.550781h-47.183593c-6.730469 0-13.304688 2.726562-18.066407 7.488281l-5.71875 5.71875c-1.785156 1.777344-4.242187 2.800781-6.753906 2.800781h-7.957031c-2.992188 0-5.839844-1.433593-7.640625-3.832031l-13.464844-17.945312c-4.800781-6.40625-12.449219-10.230469-20.449219-10.230469h-5.679687c-5.261719 0-9.542969-4.28125-9.542969-9.542969v-1.808593c0-11.007813-7.023438-20.753907-17.472656-24.234376-3.902344-1.300781-6.527344-4.941406-6.527344-9.0625v-11.351562zm-93.097656 104h9.375c6.410156 0 12.441406-2.496094 16.96875-7.03125l6.625-6.625c1.496094-1.496094 3.550781-2.34375 5.65625-2.34375h17.375c4.414062 0 8 3.585938 8 8 0 13.230469 10.769531 24 24 24h8c4.414062 0 8 3.585938 8 8v18.664062c0 5.167969 1.710938 10.28125 4.808594 14.398438l11.199218 14.9375h-120.007812zm192 72v-16c0-4.414062 3.585938-8 8-8h8c13.230469 0 24-10.769531 24-24 0-4.414062 3.585938-8 8-8h32v56zm-134.527344-140.414062c3.902344 1.300781 6.527344 4.941406 6.527344 9.0625v1.808593c0 14.078125 11.464844 25.542969 25.542969 25.542969h5.679687c2.992188 0 5.839844 1.433594 7.640625 3.832031l13.464844 17.945313c4.800781 6.40625 12.449219 10.222656 20.449219 10.222656h7.957031c6.730469 0 13.304687-2.726562 18.066406-7.488281l5.71875-5.71875c1.785157-1.777344 4.242188-2.800781 6.753907-2.800781h47.183593c14.078125.007812 25.542969-11.457032 25.542969-25.535157v-11.601562c0-2.75-.441406-5.464844-1.3125-8.085938l-6.191406-18.585937c-.328125-.984375-.496094-2.007813-.496094-3.03125v-21.152344h32v104h-32c-13.230469 0-24 10.769531-24 24 0 4.414062-3.585938 8-8 8h-8c-13.230469 0-24 10.769531-24 24v16h-36l-18.398438-24.535156c-1.035156-1.375-1.601562-3.082032-1.601562-4.800782v-18.664062c0-13.230469-10.769531-24-24-24h-8c-4.414062 0-8-3.585938-8-8 0-13.230469-10.769531-24-24-24h-17.375c-6.410156 0-12.441406 2.496094-16.96875 7.03125l-6.625 6.625c-1.496094 1.496094-3.550781 2.34375-5.65625 2.34375h-9.375v-88h40v11.351562c0 11.007813 7.023438 20.753907 17.472656 24.234376zm0 0"/><path d="m170.34375 226.34375-14.34375 14.34375-14.34375-14.34375-11.3125 11.3125 14.34375 14.34375-14.34375 14.34375 11.3125 11.3125 14.34375-14.34375 14.34375 14.34375 11.3125-11.3125-14.34375-14.34375 14.34375-14.34375zm0 0"/><path d="m272 224h16v16h-16zm0 0"/><path d="m248 176c-7.863281 0-15.089844-4.289062-18.847656-11.191406l-37.335938-68.441406c-5.113281-9.375-7.816406-19.976563-7.816406-30.648438v-1.71875c0-35.289062 28.710938-64 64-64s64 28.710938 64 64v1.71875c0 10.671875-2.703125 21.273438-7.816406 30.648438l-37.335938 68.441406c-3.757812 6.902344-10.984375 11.191406-18.847656 11.191406zm0 0" fill="#f0bc5e"/><path d="m248 96c-17.648438 0-32-14.351562-32-32s14.351562-32 32-32 32 14.351562 32 32-14.351562 32-32 32zm0-48c-8.824219 0-16 7.175781-16 16s7.175781 16 16 16 16-7.175781 16-16-7.175781-16-16-16zm0 0"/><path d="m304 144h16v16h-16zm0 0"/></svg>