<svg id="Layer_1" height="512" viewBox="0 0 128 128" width="512" xmlns="http://www.w3.org/2000/svg" data-name="Layer 1"><path d="m91.3 119.823-30.179-61.37 5.384-2.648 30.177 61.37a3 3 0 0 1 -1.369 4.016 3 3 0 0 1 -4.013-1.368z" fill="#cdcdcd"/><path d="m36.7 119.823 30.176-61.37-5.376-2.648-30.177 61.37a3 3 0 0 0 1.369 4.016 3 3 0 0 0 4.008-1.368z" fill="#cdcdcd"/><path d="m6.969 41.391h46.724v9.565h-46.724z" fill="#f3d55b" transform="matrix(-.972 .235 -.235 -.972 70.68 83.909)"/><path d="m26.486 28.688h20.906v31.77h-20.906z" fill="#f3ba33" transform="matrix(.235 .972 -.972 .235 71.563 -1.821)"/><circle cx="106.634" cy="27.691" fill="#e8e8e8" r="14.864"/><path d="m55.209.47h29.728v72.155h-29.728z" fill="#f3d55b" transform="matrix(.235 .972 -.972 .235 89.097 -40.16)"/><path d="m86.05 22.651h41.166v10.082h-41.166z" fill="#f3ba33" transform="matrix(.235 .972 -.972 .235 108.443 -82.464)"/><path d="m64 121.5a3 3 0 0 1 -3-3v-61.062h6v61.062a3 3 0 0 1 -3 3z" fill="#e8e8e8"/><circle cx="64" cy="55.375" fill="#f3ba33" r="6"/><g fill="#2d1d40"><path d="m40.6 98.315a1.749 1.749 0 0 0 2.343-.8l1.529-3.109a1.75 1.75 0 0 0 -3.141-1.544l-1.531 3.11a1.75 1.75 0 0 0 .8 2.343z"/><path d="m121.077 19.475a16.618 16.618 0 0 0 -11.4-8.11l-1.277-5.277a1.75 1.75 0 0 0 -2.119-1.288l-9.8 2.373a1.751 1.751 0 0 0 -1.289 2.113l.934 3.857-65.026 15.746a1.751 1.751 0 0 0 -1.285 2.111l.627 2.589-11.808 2.86a1.751 1.751 0 0 0 -1.289 2.113l3.174 13.11-10.474 2.535-1.426-5.888 4.381-1.059a1.75 1.75 0 1 0 -.824-3.4l-6.082 1.469a1.75 1.75 0 0 0 -1.289 2.113l2.25 9.29a1.751 1.751 0 0 0 1.7 1.339 1.786 1.786 0 0 0 .413-.05l12.175-2.947.922 3.808a1.751 1.751 0 0 0 1.7 1.339 1.734 1.734 0 0 0 .413-.05l11.809-2.858.628 2.59a1.752 1.752 0 0 0 1.7 1.338 1.734 1.734 0 0 0 .413-.05l17.49-4.238a7.723 7.723 0 0 0 1.2 2.8l-13.176 26.786a1.75 1.75 0 1 0 3.14 1.544l11.674-23.743v5.654l-24.121 49.055a1.248 1.248 0 0 1 -2.3-.147 1.231 1.231 0 0 1 .062-.95l6.877-13.988a1.75 1.75 0 0 0 -3.141-1.544l-6.876 13.986a4.752 4.752 0 0 0 4.259 6.844 4.779 4.779 0 0 0 4.261-2.658l20.979-42.667v40.575a4.75 4.75 0 0 0 9.5 0v-40.575l20.979 42.667a4.779 4.779 0 0 0 4.265 2.658 4.636 4.636 0 0 0 2.089-.488 4.743 4.743 0 0 0 2.171-6.354l-27.86-56.659a7.671 7.671 0 0 0 1.07-6.44l8.8-2.135a1.75 1.75 0 1 0 -.825-3.4l-9.745 2.362a7.729 7.729 0 0 0 -13.159 3.186l-16.741 4.056-5.546-22.9v-.008-.009l-.625-2.581 63.323-15.336 6.173 25.487-15.8 3.831a1.75 1.75 0 0 0 .411 3.451 1.727 1.727 0 0 0 .413-.05l15.8-3.83.936 3.862a1.751 1.751 0 0 0 2.115 1.289l9.8-2.374a1.749 1.749 0 0 0 1.289-2.113l-1.277-5.274a16.645 16.645 0 0 0 4.265-21.348zm-57.071 100.275a1.251 1.251 0 0 1 -1.25-1.25v-55.485a7.157 7.157 0 0 0 2.5 0v55.485a1.251 1.251 0 0 1 -1.25 1.25zm31.171-.848a1.247 1.247 0 0 1 -.644.723 1.274 1.274 0 0 1 -1.657-.577l-24.12-49.054v-5.654l26.36 53.615a1.227 1.227 0 0 1 .061.945zm-31.171-67.777a4.245 4.245 0 0 1 3.554 1.932 4.225 4.225 0 0 1 -.544 5.308l-.009.011a4.244 4.244 0 0 1 -6.006 0l-.009-.011a4.247 4.247 0 0 1 3.012-7.244zm-38.751 5.233-.912-3.767c0-.014 0-.028-.006-.042s-.01-.027-.014-.041l-3.165-13.069 10.108-2.446 4.1 16.918zm82.62-9.588-7.92-32.7c0-.018 0-.036-.008-.054s-.013-.033-.017-.05l-.922-3.8 6.4-1.55 8.868 36.608zm2.73-31.556a13.094 13.094 0 0 1 5.277 21.786z"/><path d="m77.035 23.942-13.441 3.258a1.75 1.75 0 1 0 .824 3.4l13.442-3.257a1.75 1.75 0 1 0 -.825-3.4z"/><path d="m90.05 22.59a1.746 1.746 0 0 0 -2.113-1.29l-4 .968a1.75 1.75 0 1 0 .824 3.4l3.995-.968a1.749 1.749 0 0 0 1.294-2.11z"/></g></svg>