<?xml version="1.0" encoding="iso-8859-1"?>
<!-- Generator: Adobe Illustrator 19.0.0, SVG Export Plug-In . SVG Version: 6.00 Build 0)  -->
<svg version="1.1" id="Capa_1" xmlns="http://www.w3.org/2000/svg" xmlns:xlink="http://www.w3.org/1999/xlink" x="0px" y="0px"
	 viewBox="0 0 512 512" style="enable-background:new 0 0 512 512;" xml:space="preserve">
<path style="fill:#AAC4DA;" d="M330.667,10.667L416,96h-64c-11.767-0.035-21.298-9.566-21.333-21.333V10.667z"/>
<path style="fill:#D9EEF7;" d="M416,96v384c-0.035,11.768-9.566,21.298-21.333,21.333H53.333C41.566,501.298,32.035,491.768,32,480
	V32c0.035-11.767,9.566-21.298,21.333-21.333h277.333v64C330.702,86.434,340.233,95.965,352,96H416z"/>
<path style="fill:#FFE451;" d="M480,330.667v32c0,5.891-4.776,10.667-10.667,10.667H320c-5.891,0-10.667-4.776-10.667-10.667v-32
	H480z"/>
<path style="fill:#FFBD51;" d="M480,298.667v32H309.333v-32c0-5.891,4.776-10.667,10.667-10.667h149.333
	C475.224,288,480,292.776,480,298.667z"/>
<circle style="fill:#FFE451;" cx="309.333" cy="416" r="10.667"/>
<path style="fill:#FFBD51;" d="M480,373.333v32c0,5.891-4.776,10.667-10.667,10.667H320c-5.891,0-10.667-4.776-10.667-10.667v-32
	H480z"/>
<path style="fill:#FFE451;" d="M480,426.667v32H309.333v-32c0-5.891,4.776-10.667,10.667-10.667h149.333
	C475.224,416,480,420.776,480,426.667z"/>
<path style="fill:#FFBD51;" d="M480,458.667v32c0,5.891-4.776,10.667-10.667,10.667H320c-5.891,0-10.667-4.776-10.667-10.667v-32
	H480z"/>
<path style="fill:#FFE451;" d="M309.333,458.667v32c0,5.891-4.776,10.667-10.667,10.667H149.333
	c-5.891,0-10.667-4.776-10.667-10.667v-32H309.333z"/>
<path style="fill:#FFBD51;" d="M309.333,426.667v32H138.667v-32c0-5.891,4.776-10.667,10.667-10.667h149.333
	C304.558,416,309.333,420.776,309.333,426.667z"/>
<path style="fill:#FFE451;" d="M309.333,373.333v32c0,5.891-4.776,10.667-10.667,10.667H149.333
	c-5.891,0-10.667-4.776-10.667-10.667v-32H309.333z"/>
<g>
	<path style="fill:#4C5B66;" d="M85.333,64H192v21.333H85.333V64z"/>
	<path style="fill:#4C5B66;" d="M85.333,106.667h21.333V128H85.333V106.667z"/>
	<path style="fill:#4C5B66;" d="M128,106.667h21.333V128H128V106.667z"/>
	<path style="fill:#4C5B66;" d="M42.667,32c0-5.891,4.776-10.667,10.667-10.667H320v53.333c0,17.673,14.327,32,32,32h21.333V85.333
		H352c-5.891,0-10.667-4.776-10.667-10.667V36.416l64,64v102.251h21.333V96c-0.001-2.829-1.125-5.541-3.125-7.541L338.208,3.125
		c-2-2.001-4.713-3.125-7.541-3.125H53.333c-17.673,0-32,14.327-32,32l0,0v256h21.333V32z"/>
	<path style="fill:#4C5B66;" d="M42.667,480v-85.333H21.333V480c0,17.673,14.327,32,32,32H96v-21.333H53.333
		C47.442,490.667,42.667,485.891,42.667,480z"/>
	<path style="fill:#4C5B66;" d="M469.333,277.333H320c-11.782,0-21.333,9.551-21.333,21.333v64h-160
		c-5.891,0-10.667,4.776-10.667,10.667v32c0.021,3.756,1.045,7.438,2.965,10.667c-1.92,3.228-2.944,6.911-2.965,10.667v64
		c0,11.782,9.551,21.333,21.333,21.333h149.333c3.756-0.021,7.438-1.045,10.667-2.965c3.228,1.92,6.911,2.944,10.667,2.965h149.333
		c11.782,0,21.333-9.551,21.333-21.333v-64c-0.021-3.756-1.045-7.438-2.965-10.667c1.92-3.228,2.944-6.911,2.965-10.667v-32
		c-0.026-1.543-0.39-3.061-1.067-4.448c0.665-2.008,1.025-4.104,1.067-6.219v-64C490.667,286.885,481.115,277.333,469.333,277.333z
		 M320,298.667h149.333V320H320V298.667z M469.333,405.333H320V384h149.333V405.333z M149.333,426.667h149.333V448H149.333V426.667z
		 M320,426.667h149.333V448H320V426.667z M469.333,362.667H320v-21.333h149.333V362.667z M149.333,384h149.333v21.333H149.333V384z
		 M149.333,490.667v-21.333h149.333v21.333H149.333z M320,490.667v-21.333h149.333v21.333H320z"/>
	<path style="fill:#4C5B66;" d="M341.333,224v-74.667c0-5.891-4.776-10.667-10.667-10.667h-85.333V160h59.584l-64,64h-91.584
		c-2.829,0.001-5.541,1.125-7.541,3.125L24.459,344.459l15.083,15.083l114.208-114.208h91.584c2.829-0.001,5.541-1.125,7.541-3.125
		L320,175.083V224L341.333,224z"/>
</g>
<g>
</g>
<g>
</g>
<g>
</g>
<g>
</g>
<g>
</g>
<g>
</g>
<g>
</g>
<g>
</g>
<g>
</g>
<g>
</g>
<g>
</g>
<g>
</g>
<g>
</g>
<g>
</g>
<g>
</g>
</svg>
