<svg id="Capa_1" enable-background="new 0 0 512 512" height="512" viewBox="0 0 512 512" width="512" xmlns="http://www.w3.org/2000/svg"><g><g><path d="m454.012 369.542h-36.235c-6.916 0-12.522-5.606-12.522-12.522v-226.296c0-3.845.708-7.658 2.09-11.246l9.894-25.701c6.574-17.078 30.738-17.078 37.312 0l9.894 25.701c1.381 3.589 2.09 7.401 2.09 11.246v226.296c-.001 6.916-5.608 12.522-12.523 12.522z" fill="#cbe2ff"/></g><g><path d="m464.444 119.478-9.894-25.701c-4.479-11.636-17.121-15.336-26.804-11.116 4.529 1.974 8.413 5.674 10.508 11.116l9.894 25.701c1.382 3.589 2.09 7.401 2.09 11.246v226.296c0 6.916-5.606 12.522-12.522 12.522h16.296c6.916 0 12.522-5.606 12.522-12.522v-226.296c0-3.845-.709-7.658-2.09-11.246z" fill="#bed8fb"/></g><g><path d="m354.999 504.452h-332.506c-8.284 0-15-6.716-15-15v-446.245c0-8.284 6.716-15 15-15h332.506c8.284 0 15 6.716 15 15v446.245c0 8.284-6.716 15-15 15z" fill="#80b4fb"/></g><g><path d="m355.014 28.207h-9.995v436.28c0 8.276-6.709 14.985-14.985 14.985h-322.541v9.995c0 8.276 6.709 14.985 14.985 14.985h332.537c8.276 0 14.985-6.709 14.985-14.985v-446.275c-.001-8.276-6.71-14.985-14.986-14.985z" fill="#61a2f9"/></g><g><path d="m212.768 57.664h-48.044v-26.094c0-13.267 10.755-24.022 24.022-24.022 13.267 0 24.022 10.755 24.022 24.022z" fill="#ffe07d"/></g><g><path d="m188.746 7.548c-2.617 0-5.134.424-7.492 1.198 9.597 3.149 16.53 12.174 16.53 22.824v26.094h14.985v-26.094c-.001-13.267-10.756-24.022-24.023-24.022z" fill="#ffd064"/></g><g><path d="m118.822 459.772h201.875c8.276 0 14.985-6.709 14.985-14.985v-348.486c0-8.276-6.709-14.985-14.985-14.985h-263.902c-8.276 0-14.985 6.709-14.985 14.985v286.46c0 1.325.526 2.595 1.463 3.532l72.017 72.017c.937.936 2.207 1.462 3.532 1.462z" fill="#f4fbff"/></g><g><path d="m320.696 81.316h-18.593v329.894c0 8.276-6.709 14.985-14.985 14.985h-201.874c-1.325 0-2.595-.526-3.532-1.463l33.578 33.578c.937.937 2.207 1.463 3.532 1.463h201.875c8.276 0 14.985-6.709 14.985-14.985v-348.487c-.001-8.276-6.71-14.985-14.986-14.985z" fill="#e4f6ff"/></g><g><path d="m107.171 385.233c5.069 0 9.178 4.109 9.178 9.178v64.681c-.38-.218-.744-.468-1.059-.783l-72.017-72.017c-.316-.315-.565-.679-.783-1.059z" fill="#e4f6ff"/></g><g><path d="m107.171 385.233h-25.831c5.069 0 9.178 4.109 9.178 9.178v39.125l24.772 24.772c.315.315.679.565 1.059.783v-64.681c0-5.067-4.109-9.177-9.178-9.177z" fill="#d3effb"/></g><g><path d="m252.794 101.744-11.07 7.094c-1.839 1.178-4.195 1.178-6.034 0l-10.626-6.81c-1.839-1.179-4.196-1.178-6.035 0l-10.62 6.808c-1.839 1.179-4.196 1.179-6.035 0l-10.624-6.809c-1.839-1.179-4.196-1.179-6.035 0l-10.623 6.809c-1.839 1.179-4.196 1.179-6.035 0l-10.622-6.808c-1.839-1.179-4.196-1.179-6.035 0l-10.62 6.808c-1.839 1.179-4.196 1.179-6.035 0l-11.066-7.093c-1.604-1.028-2.574-2.802-2.574-4.708v-33.128c0-5.517 4.473-9.99 9.99-9.99h113.285c5.517 0 9.99 4.473 9.99 9.99v33.129c-.001 1.906-.971 3.68-2.576 4.708z" fill="#ffd064"/></g><g><g><path d="m245.379 53.918h-22.835c5.517 0 9.99 4.473 9.99 9.99v33.129c0 1.906-.97 3.68-2.575 4.708l-2.669 1.71 8.4 5.383c1.839 1.178 4.195 1.178 6.034 0l11.07-7.094c1.604-1.028 2.575-2.803 2.575-4.708v-33.129c0-5.517-4.472-9.989-9.99-9.989z" fill="#ffc250"/></g></g><g><path d="m405.254 156.737h61.279v36.627h-61.279z" fill="#ffe07d"/></g><g><path d="m405.254 316.596v40.425c0 6.916 5.606 12.522 12.522 12.522h36.235c6.916 0 12.522-5.606 12.522-12.522v-40.425z" fill="#365e7d"/></g><g><path d="m450.238 156.738h16.296v36.627h-16.296z" fill="#ffd064"/></g><g><path d="m450.238 316.596v40.425c0 6.916-5.606 12.522-12.522 12.522h16.296c6.916 0 12.522-5.606 12.522-12.522v-40.425z" fill="#2b4d66"/></g><g><path d="m225.732 496.96h-203.255c-4.132 0-7.492-3.361-7.492-7.492v-358.159c0-4.138-3.354-7.492-7.492-7.492s-7.493 3.354-7.493 7.492v358.159c0 12.394 10.083 22.477 22.477 22.477h203.255c4.138 0 7.492-3.354 7.492-7.492s-3.353-7.493-7.492-7.493z"/><path d="m355.014 20.715h-136.681c-4.434-12.045-16.024-20.659-29.587-20.659s-25.153 8.614-29.587 20.659h-136.682c-12.394 0-22.477 10.082-22.477 22.477v53.808c0 4.138 3.354 7.492 7.492 7.492s7.492-3.354 7.492-7.492v-53.808c0-4.132 3.361-7.492 7.492-7.492h134.754v10.726h-25.136c-9.64 0-17.482 7.843-17.482 17.482v9.916h-57.817c-12.394 0-22.477 10.083-22.477 22.477v286.46c-.01 3.338 1.348 6.485 3.656 8.83l72.017 72.017c2.345 2.309 5.492 3.668 8.83 3.657h201.875c12.394 0 22.477-10.083 22.477-22.477v-348.487c0-12.394-10.083-22.477-22.477-22.477h-57.835v-9.916c0-9.64-7.843-17.482-17.482-17.482h-25.119v-10.727h134.753c4.132 0 7.492 3.361 7.492 7.492v446.276c0 4.132-3.361 7.492-7.492 7.492h-93.274c-4.138 0-7.492 3.354-7.492 7.492s3.354 7.492 7.492 7.492h93.274c12.394 0 22.477-10.083 22.477-22.477v-446.274c.001-12.395-10.083-22.477-22.476-22.477zm-294.712 372.011h46.869c.93 0 1.686.756 1.686 1.686v46.869zm260.394-303.918c4.132 0 7.492 3.361 7.492 7.492v348.487c0 4.132-3.361 7.492-7.492 7.492h-196.854v-57.868c0-9.192-7.479-16.67-16.67-16.67h-57.869v-281.44c0-4.132 3.361-7.492 7.492-7.492h57.818v8.228c0 4.481 2.252 8.599 6.023 11.016l11.066 7.092c4.291 2.75 9.834 2.75 14.122 0l9.595-6.151 9.596 6.151c4.291 2.75 9.833 2.75 14.121 0l9.598-6.151 9.599 6.152c4.29 2.75 9.832 2.749 14.121-.001l9.596-6.151 9.6 6.152c2.144 1.375 4.602 2.061 7.06 2.061 2.456 0 4.915-.687 7.059-2.061l11.068-7.092c3.773-2.416 6.026-6.535 6.026-11.018v-8.228zm-72.82-24.9v29.888c0 1.372-.699 2.649-1.854 3.39l-7.315 4.687-9.6-6.152c-2.144-1.374-4.602-2.061-7.059-2.061-2.458 0-4.917.688-7.062 2.062l-9.595 6.151-9.599-6.152c-4.291-2.749-9.832-2.75-14.12 0l-9.598 6.151-9.597-6.151c-4.291-2.75-9.833-2.749-14.122.001l-9.594 6.15-7.312-4.686c-1.155-.74-1.854-2.018-1.854-3.39v-29.888c0-1.379 1.118-2.497 2.497-2.497h113.284c1.382-.001 2.5 1.117 2.5 2.497zm-75.66-17.482v-14.856c0-9.115 7.415-16.53 16.53-16.53s16.53 7.415 16.53 16.53v14.855h-33.06z"/><path d="m504.508 240.268c-8.604 0-15.605 7.001-15.605 15.606v71.63c0 6.885-5.602 12.487-12.487 12.487h-2.389v-209.267c0-4.786-.872-9.476-2.591-13.938l-9.893-25.701c-3.188-8.282-9.949-14.278-18.155-16.571v-13.159c0-4.138-3.354-7.492-7.492-7.492s-7.492 3.354-7.492 7.492v13.158c-8.207 2.293-14.968 8.289-18.156 16.571l-9.893 25.701c-1.72 4.466-2.591 9.155-2.591 13.938v76.964c0 4.138 3.354 7.492 7.492 7.492s7.492-3.354 7.492-7.492v-6.832h15.656v108.247h-15.656v-64.578c0-4.138-3.354-7.492-7.492-7.492s-7.492 3.354-7.492 7.492v112.496c0 11.036 8.978 20.014 20.015 20.014h36.235c11.037 0 20.015-8.978 20.015-20.014v-2.045h2.389c15.148 0 27.472-12.324 27.472-27.472v-71.63c0-.342.278-.621.62-.621 4.138 0 7.492-3.354 7.492-7.492s-3.356-7.492-7.494-7.492zm-56.95-143.8 9.893 25.703c1.056 2.739 1.59 5.616 1.59 8.553v18.521h-15.655v-58.388c1.627 1.191 3.151 2.959 4.172 5.611zm-33.221 25.702 9.893-25.701c1.021-2.653 2.546-4.421 4.172-5.613v58.39h-15.656v-18.521c0-2.936.536-5.814 1.591-8.555zm-1.591 42.06h46.295v21.642h-46.295zm30.641 36.626h15.655v108.247h-15.655zm15.655 156.164c0 2.774-2.256 5.03-5.03 5.03h-36.235c-2.773 0-5.03-2.256-5.03-5.03v-32.932h46.295z"/><ellipse cx="91.614" cy="163.149" rx="10.975" ry="10.975" transform="matrix(.924 -.383 .383 .924 -55.461 47.478)"/><ellipse cx="91.614" cy="232.141" rx="10.975" ry="10.975" transform="matrix(.924 -.383 .383 .924 -81.863 52.73)"/><ellipse cx="91.614" cy="301.404" rx="10.975" ry="10.975" transform="matrix(.924 -.383 .383 .924 -108.369 58.003)"/><path d="m126.651 163.149c0 4.138 3.354 7.492 7.492 7.492h137.39c4.138 0 7.492-3.354 7.492-7.492s-3.354-7.492-7.492-7.492h-137.39c-4.138 0-7.492 3.354-7.492 7.492z"/><path d="m134.144 205.137h109.575c4.138 0 7.492-3.354 7.492-7.492s-3.354-7.492-7.492-7.492h-109.575c-4.138 0-7.492 3.354-7.492 7.492-.001 4.138 3.353 7.492 7.492 7.492z"/><path d="m271.534 224.649h-137.39c-4.138 0-7.492 3.354-7.492 7.492s3.354 7.492 7.492 7.492h137.39c4.138 0 7.492-3.354 7.492-7.492s-3.354-7.492-7.492-7.492z"/><path d="m271.534 293.641h-137.39c-4.138 0-7.492 3.354-7.492 7.492s3.354 7.492 7.492 7.492h137.39c4.138 0 7.492-3.354 7.492-7.492 0-4.137-3.354-7.492-7.492-7.492z"/><path d="m271.534 328.137h-137.39c-4.138 0-7.492 3.354-7.492 7.492s3.354 7.492 7.492 7.492h137.39c4.138 0 7.492-3.354 7.492-7.492s-3.354-7.492-7.492-7.492z"/><path d="m243.719 362.633h-109.575c-4.138 0-7.492 3.354-7.492 7.492s3.354 7.492 7.492 7.492h109.575c4.138 0 7.492-3.354 7.492-7.492 0-4.137-3.354-7.492-7.492-7.492z"/></g></g></svg>