<svg height="512pt" viewBox="-32 0 512 512.00773" width="512pt" xmlns="http://www.w3.org/2000/svg"><path d="m396.003906 83.007812h-229.601562c1.203125 2.800782 1.800781 6 1.800781 9v31.199219c7 6.601563 7.199219 17.402344.601563 24.402344-4 4.199219-9.800782 6-15.402344 5.199219-1 14.199218-9.199219 26.800781-21.597656 33.597656v16l19.398437 9.601562 32.199219 8.199219c7 1.800781 12 7.800781 12.402344 15l3 53h184c7.398437 0 13.398437-6 13.398437-13.398437zm0 0" fill="#e9e9ea"/><path d="m323.402344 117.40625h33.203125v98.402344h-33.203125zm0 0" fill="#60bae2"/><path d="m290.203125 137.207031h33.199219v78.402344h-33.199219zm0 0" fill="#6dcc6d"/><path d="m257.003906 157.007812h33.199219v58.601563h-33.199219zm0 0" fill="#ffae2c"/><path d="m223.804688 176.40625h33.199218v39.203125h-33.199218zm0 0" fill="#f75c64"/><path d="m356.605469 220.609375h-33.203125c-2.796875 0-5-2.203125-5-5v-98.203125c0-2.796875 2.203125-5 5-5h33.203125c2.796875 0 5 2.203125 5 5v98.402344c0 2.597656-2.203125 4.800781-5 4.800781zm-28.203125-10h23.203125v-88.203125h-23.203125zm0 0" fill="#231f20"/><path d="m323.402344 220.609375h-33.199219c-2.800781 0-5-2.203125-5-5v-78.402344c0-2.800781 2.199219-5 5-5h33.199219c2.800781 0 5 2.199219 5 5v78.402344c0 2.796875-2.199219 5-5 5zm-28.199219-10h23.199219v-68.402344h-23.199219zm0 0" fill="#231f20"/><path d="m290.203125 220.609375h-33.199219c-2.800781 0-5-2.203125-5-5v-58.601563c0-2.800781 2.199219-5 5-5h33.199219c2.800781 0 5 2.199219 5 5v58.601563c0 2.796875-2.199219 5-5 5zm-28.199219-10h23.199219v-48.601563h-23.199219zm0 0" fill="#231f20"/><path d="m257.003906 220.609375h-33.199218c-2.800782 0-5-2.203125-5-5v-39.203125c0-2.796875 2.199218-5 5-5h33.199218c2.800782 0 5 2.203125 5 5v39.203125c0 2.796875-2.199218 5-5 5zm-28.199218-10h23.199218v-29.203125h-23.199218zm0 0" fill="#231f20"/><path d="m396.003906 53.40625h-264.199218c-5.199219 0-9.601563 3.402344-11 8.402344 4.800781 2 8.800781 5.398437 11.597656 9.800781 3.601562-2.203125 7.800781-3.402344 12.203125-3.402344 9.597656 0 18.199219 5.800781 21.796875 14.601563h229.601562c6.199219 0 11.398438-5 11.398438-11.402344v-7c0-6-5.199219-11-11.398438-11zm0 0" fill="#6d6c6b"/><path d="m199.203125 298.207031-3.597656-63.199219c-.402344-7.199218-5.402344-13.199218-12.402344-15l-32.199219-8.199218-19.398437-9.601563-6.601563 18.800781c-.398437 1-1.398437 1.800782-2.601562 1.800782h-20c-1.199219 0-2.199219-.800782-2.597656-1.800782l-6.601563-18.800781-19.398437 9.601563-31.800782 8.199218c-7 1.800782-12 7.800782-12.398437 15l-3.402344 63.199219c-.199219 4.601563 3.402344 8.601563 8 8.800781h.402344 156.199219c4.597656 0 8.398437-3.800781 8.398437-8.398437 0-.203125 0-.402344 0-.402344zm0 0" fill="#60bae2"/><path d="m139.003906 463.207031c-.398437-5.597656-4.199218-10.398437-9.800781-11.800781l-25.597656-6.398438-15.402344-7.601562h-30.398437l-15.402344 7.601562-25.597656 6.398438c-5.601563 1.402344-9.402344 6.203125-9.800782 11.800781l-2 38.800781c-.199218 2.601563 1.800782 4.800782 4.398438 5h.203125 126.597656c2.601563 0 4.800781-2.199218 4.800781-4.800781v-.199219zm0 0" fill="#e9e9ea"/><path d="m275.003906 463.207031c-.398437-5.597656-4.199218-10.398437-9.800781-11.800781l-25.597656-6.398438-15.402344-7.601562h-30.398437l-15.402344 7.601562-25.597656 6.398438c-5.601563 1.402344-9.402344 6.203125-9.800782 11.800781l-1.800781 38.800781c-.199219 2.601563 1.800781 4.800782 4.402344 5h.199219 126.597656c2.601562 0 4.800781-2.199218 4.800781-4.800781v-.199219zm0 0" fill="#e9e9ea"/><path d="m411.203125 463.207031c-.398437-5.597656-4.199219-10.398437-9.800781-11.800781l-25.597656-6.398438-15.402344-7.601562h-30.199219l-15.398437 7.601562-25.601563 6.398438c-5.597656 1.402344-9.398437 6.203125-9.800781 11.800781l-2.199219 38.601563c-.199219 2.597656 1.800781 4.800781 4.402344 5h.199219 126.597656c2.601562 0 4.800781-2.199219 4.800781-4.800782v-.199218zm0 0" fill="#e9e9ea"/><path d="m83.605469 416.609375-.601563.199219c-7 2-14.601562 2-21.601562 0l-.796875-.199219c-7.800781-2.203125-14.800781-6.800781-19.800781-13.203125 2 8.203125 7 15.402344 14 20 2 1.402344 3.199218 3.601562 3.199218 6v8h30.199219s0-4.597656 0-8.199219c0-2.398437 1.199219-4.597656 3-5.800781 7.402344-5.199219 12.199219-13.199219 13.800781-22-5.199218 7.203125-12.800781 12.601562-21.398437 15.203125zm0 0" fill="#f9d0b4"/><path d="m115.203125 371.007812c-1.199219 9.398438-4 18.601563-8.199219 27h3.398438c7.402344 1.199219 14.601562-3.800781 15.800781-11.398437.199219-.601563.199219-1.402344.199219-2 0-6.601563-4.597656-12.402344-11.199219-13.601563zm0 0" fill="#f9d0b4"/><path d="m28.804688 371.007812c-6.402344 1.398438-11 7-11 13.601563.199218 7.597656 6.398437 13.597656 14 13.597656.597656 0 1.398437 0 2-.199219h3.199218c-4.199218-8.398437-7-17.601562-8.199218-27zm0 0" fill="#f9d0b4"/><path d="m219.605469 416.609375-.601563.199219c-7 2-14.601562 2-21.601562 0l-.796875-.199219c-7.800781-2.203125-14.800781-6.800781-19.800781-13.203125 2 8.203125 7 15.402344 14 20 2 1.402344 3.199218 3.601562 3.199218 6v8h30.398438s0-4.597656 0-8.199219c0-2.398437 1.203125-4.597656 3-5.800781 7.402344-5.199219 12.402344-13.199219 13.800781-22-5.199219 7.203125-12.800781 12.601562-21.597656 15.203125zm0 0" fill="#f9d0b4"/><path d="m251.402344 371.007812c-1.199219 9.398438-4 18.601563-8.199219 27h3.402344c7.398437 1.199219 14.597656-3.800781 15.796875-11.398437.203125-.601563.203125-1.402344.203125-2 0-6.601563-4.601563-12.402344-11.203125-13.601563zm0 0" fill="#f9d0b4"/><path d="m165.003906 371.007812c-6.398437 1.398438-11 7-11 13.601563.199219 7.597656 6.398438 13.597656 14 13.597656.601563 0 1.398438 0 2-.199219h3.199219c-4.398437-8.398437-7.199219-17.601562-8.199219-27zm0 0" fill="#f9d0b4"/><path d="m355.804688 416.609375-.601563.199219c-7 2-14.597656 2-21.597656 0l-.800781-.199219c-7.800782-2.203125-14.800782-6.800781-19.800782-13.203125 2 8.203125 7 15.402344 14 20 2 1.402344 3.199219 3.601562 3.199219 6v8h30.402344s0-4.597656 0-8.199219c0-2.398437 1.199219-4.597656 3-5.800781 7.398437-5.199219 12.398437-13.199219 13.796875-22-5.398438 7.203125-13 12.601562-21.597656 15.203125zm0 0" fill="#f9d0b4"/><path d="m387.605469 371.007812c-1.203125 9.398438-4 18.601563-8.203125 27h3.402344c7.398437 1.199219 14.597656-3.800781 15.800781-11.398437.199219-.601563.199219-1.402344.199219-2 0-6.601563-4.800782-12.402344-11.199219-13.601563zm0 0" fill="#f9d0b4"/><path d="m301.003906 371.007812c-6.398437 1.398438-11 7-11 13.601563.199219 7.597656 6.398438 13.597656 14 13.597656.601563 0 1.398438 0 2-.199219h3.199219c-4.199219-8.398437-7-17.601562-8.199219-27zm0 0" fill="#f9d0b4"/><path d="m156.203125 118.40625c-1 0-1.800781 0-2.800781.203125 0 1 .203125 1.796875.203125 2.796875v28.601562c0 1 0 1.800782-.203125 2.800782 9.402344 1.597656 18.402344-4.800782 19.800781-14.402344 1.402344-9.597656-4.800781-18.398438-14.398437-19.796875-.601563-.203125-1.601563-.203125-2.601563-.203125zm0 0" fill="#f9d0b4"/><path d="m70.605469 150.007812v-28.601562c0-1 0-1.796875.199219-2.796875-9.402344-1.601563-18.402344 4.796875-20 14.199219-1.601563 9.398437 4.800781 18.398437 14.199218 20 2 .398437 3.800782.398437 5.800782 0 0-1-.199219-2-.199219-2.800782zm0 0" fill="#f9d0b4"/><path d="m118.402344 99.609375c-15.199219 19-37.398438 16.398437-45 14.796875-1.199219-.199219-2.398438.601562-2.597656 1.601562v.398438 33.601562c0 22.800782 18.597656 41.398438 41.398437 41.398438s41.402344-18.597656 41.402344-41.398438v-37c0-.199218 0-.398437 0-.601562 0-1.199219-1-2.199219-2.203125-2.199219-17.199219-.597656-26.398438-7.398437-29.796875-10.800781-.800781-.796875-2.203125-.796875-3.203125.203125 0-.203125 0 0 0 0zm0 0" fill="#f9d0b4"/><path d="m112.203125 191.40625c-6.398437 0-12.800781-1.597656-18.398437-4.398438v15.398438l6.597656 18.800781c.402344 1 1.402344 1.800781 2.601562 1.800781h20c1.199219 0 2.199219-.800781 2.601563-1.800781l6.597656-18.800781v-16c-6.398437 3.203125-13.199219 5-20 5zm0 0" fill="#f9d0b4"/><path d="m116.203125 358.40625c0-18.796875-15.199219-34-34-34h-9.597656c-6.601563 0-12.800781 3.601562-16.203125 9.203125-4-2.402344-8.796875-3.203125-13.398438-2.203125-8.800781 2-15 9.800781-15 18.800781v8.800781c0 10.199219 1.800782 20.398438 5.199219 30l1 2.601563c4.199219 12 14.199219 21.398437 26.402344 24.796875l.796875.203125c7 2 14.601562 2 21.601562 0l.601563-.203125c12.398437-3.597656 22.199219-12.796875 26.398437-25l1.199219-3.398438c3.199219-9.398437 5-19.398437 5-29.601562zm0 0" fill="#6d6c6b"/><path d="m252.203125 358.40625c0-18.796875-15.199219-34-34-34h-9.597656c-6.601563 0-12.800781 3.601562-16.203125 9.203125-4-2.402344-8.796875-3.203125-13.398438-2.203125-8.800781 2-15 9.800781-15 18.800781v8.800781c0 10.199219 1.800782 20.398438 5.199219 30l.800781 2.601563c4.199219 12 14.199219 21.398437 26.398438 24.796875l.800781.203125c7 2 14.601563 2 21.601563 0l.597656-.203125c12.402344-3.597656 22.203125-12.796875 26.402344-25l1.199218-3.398438c3.601563-9.398437 5.199219-19.398437 5.199219-29.601562zm0 0" fill="#6d6c6b"/><path d="m388.402344 358.40625c0-18.796875-15.199219-34-34-34h-9.597656c-6.601563 0-12.800782 3.601562-16.199219 9.203125-4-2.402344-8.800781-3.203125-13.402344-2.203125-8.800781 2-15 9.800781-15 18.800781v8.800781c0 10.199219 1.800781 20.398438 5.199219 30l.800781 2.601563c4.199219 12 14.199219 21.398437 26.402344 24.796875l.796875.203125c7 2 14.601562 2 21.601562 0l.601563-.203125c12.398437-3.597656 22.199219-12.796875 26.398437-25l1.199219-3.398438c3.601563-9.398437 5.199219-19.398437 5.199219-29.601562zm0 0" fill="#6d6c6b"/><path d="m68.003906 118.40625c.800782 0 1.800782 0 2.601563.203125v-2c0-1.203125 1-2.203125 2.199219-2.203125h.398437c7.601563 1.601562 29.800781 4.203125 45-14.796875.800781-1 2.199219-1.203125 3.199219-.402344 0 0 .203125.199219.203125.199219 3.398437 3.402344 12.597656 10.203125 29.796875 10.800781 1.203125 0 2.203125 1 2.203125 2.199219v.601562 5.601563c5.398437-.800781 10.796875.796875 14.597656 4.597656v-31.199219c0-13-10.597656-23.601562-23.597656-23.601562-4.203125 0-8.402344 1.203125-12.203125 3.402344-4.199219-7.199219-12-11.601563-20.398438-11.601563h-12.199218c-23.601563 0-42.800782 19.199219-42.800782 42.800781v19.199219c3.199219-2.597656 7-3.800781 11-3.800781zm0 0" fill="#6d6c6b"/><path d="m50.402344 35.207031c-8.796875-1.800781-15.796875-8.597656-17.597656-17.597656 0-.203125-.199219-.402344-.402344-.203125-.199219 0-.199219.203125-.199219.203125-1.800781 8.796875-8.597656 15.796875-17.597656 17.597656-.203125 0-.402344.199219-.203125.402344 0 .199219.203125.199219.203125.199219 8.796875 1.800781 15.796875 8.597656 17.597656 17.597656 0 .203125.199219.402344.402344.203125.199219 0 .199219-.203125.199219-.203125 1.800781-8.796875 8.597656-15.796875 17.597656-17.597656.203125 0 .402344-.199219.203125-.402344 0 0 0-.199219-.203125-.199219zm0 0" fill="#fcd770"/><path d="m429.804688 322.808594h-17.402344c-2.796875.199218-5.199219-2-5.199219-4.601563-.199219-2.800781 2-5.199219 4.601563-5.199219h.597656 17.402344c2.800781-.199218 5.199218 2 5.199218 4.601563.199219 2.796875-2 5.199219-4.601562 5.199219-.199219.199218-.398438.199218-.597656 0zm0 0" fill="#f75c64"/><path d="m421.003906 331.609375c-2.800781 0-5-2.203125-5-5v-17.402344c-.199218-2.800781 2-5.199219 4.601563-5.199219 2.796875-.199218 5.199219 2 5.199219 4.601563v.597656 17.402344c.199218 2.796875-2 5-4.800782 5zm0 0" fill="#f75c64"/><path d="m93.605469 10.007812c-1.402344 0-2.601563-.601562-3.601563-1.398437-.199218-.203125-.398437-.402344-.601562-.800781-.199219-.199219-.398438-.601563-.398438-.800782-.199218-.199218-.199218-.601562-.199218-1 0-.398437-.199219-.601562 0-1 0-.398437 0-.601562.199218-1 0-.398437.199219-.601562.199219-1 .199219-.398437.199219-.601562.402344-.800781.199219-.199219.398437-.597656.597656-.800781 1.402344-1.3984375 3.601563-1.796875 5.402344-1 .199219.203125.597656.203125.796875.402344.203125.199218.601562.398437.800781.597656.199219.203125.402344.402344.601563.800781.199218.199219.398437.601563.398437.800781.199219.199219.199219.601563.199219 1 0 .398438 0 .601563.203125 1 0 .398438 0 .601563-.203125 1 0 .398438-.199219.601563-.199219 1-.199219.398438-.199219.601563-.398437.800782-.199219.199218-.402344.597656-.601563.800781-.199219.199219-.398437.398437-.800781.597656-.199219.199219-.597656.402344-.796875.402344-.402344.199219-.601563.199219-1 .199219-.402344.199218-.601563.199218-1 .199218zm0 0" fill="#60bae2"/><path d="m443.402344 282.808594c-1.398438 0-2.597656-.601563-3.597656-1.402344-.199219-.199219-.402344-.398438-.601563-.796875-.199219-.203125-.398437-.601563-.398437-.800781-.199219-.199219-.199219-.601563-.199219-1 0-.402344-.203125-.601563-.203125-1 0-.402344 0-.601563.203125-1 0-.402344.199219-.601563.199219-1 .199218-.402344.199218-.601563.398437-.800782.199219-.199218.402344-.601562.601563-.800781 1.398437-1.398437 3.597656-1.800781 5.398437-1 .199219.199219.601563.199219.800781.402344.199219.199219.601563.398437.800782.597656.199218.199219.398437.402344.597656.800781.203125.199219.402344.601563.402344.800782.199218.199218.199218.597656.199218 1 0 .398437 0 .597656.199219 1 0 .398437 0 .597656-.199219 1 0 .398437-.199218.597656-.199218 1-.199219.398437-.199219.597656-.402344.800781-.199219.199219-.398438.597656-.597656.796875-.199219.203125-.402344.402344-.800782.601562-.199218.199219-.601562.398438-.800781.398438-.398437.203125-.597656.203125-1 .203125-.199219.199219-.398437.199219-.800781.199219zm0 0" fill="#6dcc6d"/><g fill="#231f20"><path d="m111.605469 512.007812c-2.800781 0-5-2.199218-5-5v-18.800781c0-2.800781 2.199219-5 5-5 2.796875 0 5 2.199219 5 5v18.800781c0 2.800782-2.402344 5-5 5zm0 0"/><path d="m33.605469 512.007812c-2.800781 0-5-2.199218-5-5v-18.800781c0-2.800781 2.199219-5 5-5 2.796875 0 5 2.199219 5 5v18.800781c0 2.800782-2.203125 5-5 5zm0 0"/><path d="m136.402344 512.007812h-126.597656c-5.402344 0-9.80078175-4.398437-9.80078175-9.800781 0-.199219 0-.398437 0-.597656l2.19921875-38.601563c.402344-7.800781 6-14.601562 13.601563-16.398437l25-6.402344 15-7.398437c.597656-.402344 1.398437-.601563 2.199218-.601563h30.199219c.800781 0 1.601563.199219 2.199219.601563l15 7.398437 25 6.402344c7.601562 1.796875 13.203125 8.597656 13.601562 16.398437l2.199219 38.601563c.199219 5.398437-3.800781 10-9.199219 10.199219-.199218.199218-.398437.199218-.601562.199218zm-126.398438-10h126l-2.199218-38.398437c-.199219-3.402344-2.601563-6.402344-6-7.203125l-25.601563-6.398438c-.398437 0-.597656-.199218-1-.398437l-14.398437-7h-28l-14.402344 7c-.398438.199219-.597656.199219-1 .398437l-25.199219 6.199219c-3.398437.800781-5.800781 3.800781-6 7.199219zm0 0"/><path d="m88.203125 442.40625h-30.398437c-2.800782 0-5-2.199219-5-5v-8c0-.796875-.402344-1.398438-1-1.796875-8.199219-5.402344-14-13.601563-16.199219-23-.601563-2.601563 1-5.402344 3.796875-6 1.800781-.402344 3.800781.199219 5 1.796875 4.402344 5.601562 10.601562 9.601562 17.402344 11.601562l.800781.199219c6.199219 1.800781 12.796875 1.800781 19 0l.597656-.199219c7.601563-2.199218 14.199219-7 18.800781-13.398437 1.601563-2.203125 4.601563-2.800781 7-1.203125 1.601563 1.203125 2.398438 3 2 5-1.601562 10.203125-7.398437 19.402344-15.800781 25.402344-.597656.398437-1 1-1 1.800781v2.199219 6 1c-.597656 2-2.597656 3.597656-5 3.597656zm-25.398437-10h20.398437v-3.199219c0-3 1.199219-6 3.199219-8.199219-.597656.199219-1 .398438-1.597656.398438l-.601563.203125c-7.800781 2.199219-16.199219 2.199219-24.199219 0 1.800782 2.199219 2.800782 4.796875 2.800782 7.597656zm20.800781-15.796875"/><path d="m72.003906 423.207031c-4.199218 0-8.199218-.597656-12.199218-1.800781l-.800782-.199219c-13.800781-4-25-14.398437-29.800781-28l-1-2.597656c-3.597656-10.203125-5.398437-20.800781-5.398437-31.601563v-8.800781c0-11.398437 7.800781-21.398437 19-23.800781 4.199218-.796875 8.800781-.597656 12.800781 1 4.597656-5 11-8 17.597656-8h10c21.601563 0 39 17.402344 39 39 0 10.601562-1.800781 21.203125-5.199219 31.203125l-1.199218 3.398437c-4.800782 13.601563-15.800782 24.199219-29.800782 28.199219l-.601562.199219c-4 1.203125-8.199219 1.800781-12.398438 1.800781zm-25.199218-87.199219c-7.601563 0-13.800782 6.199219-13.800782 13.800782v.398437 8.800781c0 9.601563 1.601563 19.199219 4.800782 28.398438l1 2.601562c3.800781 10.601563 12.398437 18.601563 23 21.800782l.800781.199218c6.199219 1.800782 12.796875 1.800782 19 0l.597656-.199218c10.800781-3 19.402344-11.199219 23-21.800782l1.199219-3.398437c3.203125-9 4.800781-18.402344 4.800781-28 0-16-13-29-29-29h-9.597656c-4.800781 0-9.402344 2.597656-11.800781 6.796875-1.402344 2.402344-4.402344 3.203125-6.800782 1.800781-2.199218-1.398437-4.800781-2.199219-7.199218-2.199219zm0 0"/><path d="m112.804688 403.207031c-.800782 0-1.800782 0-2.601563-.199219h-3c-2.800781 0-5-2.199218-5-5 0-.800781.199219-1.800781.601563-2.398437 3.800781-8 6.398437-16.402344 7.597656-25.203125.402344-2.796875 3-4.597656 5.601562-4.199219h.199219c8.800781 1.800781 15.199219 9.601563 15.199219 18.601563-.199219 10.199218-8.398438 18.398437-18.597656 18.398437zm6.199218-24.800781c-1 5-2.398437 9.800781-4.199218 14.402344 1.199218-.402344 2.398437-1 3.597656-1.800782 3.601562-3 4.203125-8.601562 1.203125-12.199218-.203125 0-.402344-.199219-.601563-.402344zm0 0"/><path d="m31.402344 403.207031c-10.398438 0-18.796875-8.398437-18.796875-18.800781 0-9 6.398437-16.597656 15-18.398438 2.796875-.601562 5.398437 1.199219 6 3.800782v.398437c1 8.800781 3.597656 17.199219 7.597656 25.199219 1.402344 2.402344.601563 5.402344-1.800781 6.800781-.796875.402344-1.597656.601563-2.398438.601563h-2.800781c-1 .398437-1.800781.398437-2.800781.398437zm-6.398438-24.597656c-3.199218 3.398437-3 9 .398438 12.199219.203125.199218.203125.199218.402344.398437 1 .800781 2 1.402344 3.199218 1.800781-1.601562-4.800781-3-9.601562-4-14.398437zm0 0"/><path d="m247.605469 512.007812c-2.800781 0-5-2.199218-5-5v-18.800781c0-2.800781 2.199219-5 5-5 2.796875 0 5 2.199219 5 5v18.800781c0 2.800782-2.203125 5-5 5zm0 0"/><path d="m169.804688 512.007812c-2.800782 0-5-2.199218-5-5v-18.800781c0-2.800781 2.199218-5 5-5 2.800781 0 5 2.199219 5 5v18.800781c0 2.800782-2.402344 5-5 5zm0 0"/><path d="m272.402344 512.007812h-126.597656c-5.402344 0-9.800782-4.398437-9.800782-9.800781 0-.199219 0-.398437 0-.597656l2.199219-38.601563c.402344-7.800781 6-14.601562 13.601563-16.398437l25-6.402344 15-7.398437c.597656-.402344 1.398437-.601563 2.199218-.601563h30.398438c.800781 0 1.601562.199219 2.203125.601563l15 7.398437 25 6.402344c7.597656 1.796875 13.199219 8.597656 13.597656 16.398437l2.199219 38.601563c.402344 5.398437-3.796875 10-9.199219 10.199219-.398437.199218-.597656.199218-.800781.199218zm-126.199219-10h126l-2.199219-38.398437c-.199218-3.402344-2.601562-6.402344-6-7.203125l-25.601562-6.398438c-.398438 0-.597656-.199218-1-.398437l-14.398438-7h-28l-14.398437 7c-.402344.199219-.601563.199219-1 .398437l-25.402344 6.199219c-3.398437.800781-5.800781 3.800781-6 7.199219zm0 0"/><path d="m224.402344 442.40625h-30.398438c-2.800781 0-5-2.199219-5-5v-8c0-.796875-.398437-1.398438-1-1.796875-8.199218-5.402344-14-13.601563-16.199218-23-.601563-2.601563 1-5.402344 3.800781-6 1.796875-.402344 3.796875.199219 5 1.796875 4.398437 5.601562 10.597656 9.601562 17.398437 11.601562l.800782.199219c6.199218 1.800781 12.800781 1.800781 19 0l.597656-.199219c7.601562-2.199218 14.203125-7 18.800781-13.398437 1.601563-2.203125 4.601563-2.800781 7-1.203125 1.601563 1.203125 2.402344 3 2 5-1.597656 10.203125-7.398437 19.402344-15.800781 25.402344-.597656.398437-1 1-1 1.800781v8.199219c0 2.398437-2.398438 4.597656-5 4.597656zm-25.398438-10h20.398438v-3.199219c0-3 1.203125-6 3.203125-8.199219-.601563.199219-1 .398438-1.601563.398438l-.601562.203125c-7.796875 2.199219-16.199219 2.199219-24.199219 0 1.800781 2.199219 2.800781 4.796875 2.800781 7.597656zm20.601563-15.796875"/><path d="m208.203125 423.207031c-4.199219 0-8.199219-.597656-12.199219-1.800781l-.800781-.199219c-13.800781-4-25-14.398437-29.800781-28l-.796875-2.597656c-3.601563-10.203125-5.402344-20.800781-5.402344-31.601563v-8.800781c0-11.398437 7.800781-21.398437 19-23.800781 4.199219-.796875 8.800781-.597656 12.800781 1 4.601563-5 11-8 17.601563-8h9.597656c21.601563 0 39 17.402344 39 39 0 10.601562-1.800781 21.203125-5.199219 31.203125l-1.199218 3.398437c-4.800782 13.601563-15.800782 24.199219-29.800782 28.199219l-.601562.199219c-4 1.203125-8 1.800781-12.199219 1.800781zm-25.199219-87.199219c-7.601562 0-13.800781 6.199219-13.800781 13.800782v.398437 8.800781c0 9.601563 1.601563 19.199219 4.800781 28.398438l.800782 2.601562c3.800781 10.601563 12.398437 18.601563 23 21.800782l.800781.199218c6.199219 1.800782 12.796875 1.800782 19 0l.597656-.199218c10.800781-3 19.402344-11.199219 23-21.800782l1.199219-3.398437c3.203125-9 4.800781-18.402344 4.800781-28 0-16-13-29-29-29h-9.597656c-4.800781 0-9.402344 2.597656-11.800781 6.796875-1.402344 2.402344-4.402344 3.203125-6.800782 1.800781-2.199218-1.398437-4.601562-2.199219-7-2.199219zm0 0"/><path d="m248.804688 403.207031c-.800782 0-1.800782 0-2.601563-.199219h-3c-2.800781 0-5-2.199218-5-5 0-.800781.199219-1.800781.601563-2.398437 3.800781-8 6.398437-16.402344 7.597656-25.203125.402344-2.796875 3-4.597656 5.601562-4.199219h.199219c8.800781 1.800781 15.199219 9.601563 15.199219 18.601563 0 10.199218-8.398438 18.398437-18.597656 18.398437zm6.398437-24.800781c-1 5-2.398437 9.800781-4.199219 14.402344 1.199219-.402344 2.398438-1 3.601563-1.800782 3.597656-3 4.199219-8.398437 1.199219-12.199218-.402344 0-.601563-.199219-.601563-.402344zm0 0"/><path d="m167.605469 403.207031c-10.402344 0-18.800781-8.398437-18.800781-18.800781 0-9 6.398437-16.597656 15-18.398438 2.800781-.601562 5.398437 1.199219 6 3.800782v.398437c1 8.800781 3.597656 17.199219 7.597656 25.199219 1.402344 2.402344.601562 5.402344-1.796875 6.800781-.800781.402344-1.601563.601563-2.402344.601563h-3c-1 .398437-1.800781.398437-2.597656.398437zm-6.402344-24.597656c-3.199219 3.398437-3 9 .402344 12.199219.199219.199218.199219.199218.398437.398437 1 .800781 2 1.402344 3.199219 1.800781-1.597656-4.800781-3-9.601562-4-14.398437zm0 0"/><path d="m383.804688 512.007812c-2.800782 0-5-2.199218-5-5v-18.800781c0-2.800781 2.199218-5 5-5 2.800781 0 5 2.199219 5 5v18.800781c0 2.800782-2.199219 5-5 5zm0 0"/><path d="m305.804688 512.007812c-2.800782 0-5-2.199218-5-5v-18.800781c0-2.800781 2.199218-5 5-5 2.800781 0 5 2.199219 5 5v18.800781c0 2.800782-2.199219 5-5 5zm0 0"/><path d="m408.605469 512.007812h-126.601563c-5.398437 0-9.800781-4.398437-9.800781-9.800781 0-.199219 0-.398437 0-.597656l2.199219-38.601563c.402344-7.800781 6-14.601562 13.601562-16.398437l25-6.402344 15-7.398437c.601563-.402344 1.398438-.601563 2.199219-.601563h30.402344c.796875 0 1.597656.199219 2.199219.601563l15 7.398437 25 6.402344c7.597656 1.796875 13.199218 8.597656 13.597656 16.398437l2.203125 38.601563c.398437 5.398437-3.800781 10-9.203125 10.199219-.398438.199218-.597656.199218-.796875.199218zm-126.402344-10h126.199219l-2.199219-38.398437c-.199219-3.402344-2.597656-6.402344-6-7.203125l-25.597656-6.398438c-.402344 0-.601563-.199218-1-.398437l-14.402344-7h-28l-14.398437 7c-.402344.199219-.601563.199219-1 .398437l-25.601563 6.398438c-3.398437.800781-5.800781 3.800781-6 7.203125zm0 0"/><path d="m360.402344 442.40625h-30.199219c-1.597656 0-5-.597656-5-6.199219v-6.800781c0-.796875-.398437-1.398438-1-1.796875-8.199219-5.402344-14-13.601563-16.199219-23-.601562-2.601563 1-5.402344 3.800782-6 1.800781-.402344 3.800781.199219 5 1.796875 4.398437 5.601562 10.597656 9.601562 17.398437 11.601562l.800781.199219c6.199219 1.800781 12.800782 1.800781 19 0l.601563-.199219c7.597656-2.199218 14.199219-7 18.796875-13.398437 1.601562-2.203125 4.601562-2.800781 7-1.203125 1.601562 1.203125 2.402344 3 2 5-1.597656 10.203125-7.398438 19.402344-15.796875 25.402344-.601563.398437-1 1-1 1.800781v2.199219 6 1c-.800781 2-2.800781 3.597656-5.203125 3.597656zm-25.199219-10h20.402344v-3.199219c0-3 1.199219-6 3.199219-8.199219-.601563.199219-1 .398438-1.601563.398438l-.597656.203125c-7.800781 2.199219-16.203125 2.199219-24.203125 0 1.800781 2.199219 2.800781 4.796875 2.800781 7.597656zm20.601563-15.796875"/><path d="m344.402344 423.207031c-4.199219 0-8.199219-.597656-12.199219-1.800781l-.800781-.199219c-13.796875-4-25-14.398437-29.796875-28l-.800781-2.597656c-3.601563-10.203125-5.402344-20.800781-5.402344-31.601563v-8.800781c0-11.398437 7.800781-21.398437 19-23.800781 4.203125-.796875 8.800781-.597656 12.800781 1 4.601563-5 11-8 17.601563-8h9.597656c21.601562 0 39 17.402344 39 39 0 10.601562-1.796875 21.203125-5.199219 31.203125l-1.199219 3.398437c-4.800781 13.601563-15.800781 24.199219-29.800781 28.199219l-.597656.199219c-4 1.402344-8.203125 1.800781-12.203125 1.800781zm-25.398438-87.199219c-7.601562 0-13.800781 6.199219-13.800781 13.800782v.398437 8.800781c0 9.601563 1.601563 19.199219 4.800781 28.398438l.800782 2.601562c3.800781 10.601563 12.398437 18.601563 23 21.800782l.800781.199218c6.199219 1.800782 12.796875 1.800782 19 0l.597656-.199218c10.800781-3 19.402344-11.199219 23-21.800782l1.199219-3.398437c3.203125-9 4.800781-18.402344 4.800781-28 0-16-13-29-29-29h-9.597656c-4.800781 0-9.402344 2.597656-11.800781 6.796875-1.402344 2.402344-4.402344 3.203125-6.800782 1.800781-2-1.398437-4.398437-2.199219-7-2.199219zm0 0"/><path d="m385.003906 403.207031c-.800781 0-1.800781 0-2.601562-.199219h-3c-2.796875 0-5-2.199218-5-5 0-.800781.203125-1.800781.601562-2.398437 3.800782-8 6.398438-16.402344 7.601563-25.203125.398437-2.796875 3-4.597656 5.597656-4.199219h.199219c8.800781 1.800781 15.203125 9.601563 15.203125 18.601563 0 10.199218-8.402344 18.398437-18.601563 18.398437zm6.199219-24.800781c-1 5-2.398437 9.800781-4.199219 14.402344 1.199219-.402344 2.398438-1 3.601563-1.800782 3.597656-3 4.199219-8.601562 1.199219-12.199218-.199219 0-.402344-.199219-.601563-.402344zm0 0"/><path d="m303.804688 403.207031c-10.402344 0-18.800782-8.398437-18.800782-18.800781 0-9 6.398438-16.597656 15-18.398438 2.800782-.601562 5.398438 1.199219 6 3.800782v.398437c1 8.800781 3.601563 17.199219 7.601563 25.199219 1.398437 2.402344.597656 5.402344-1.800781 6.800781-.800782.402344-1.601563.601563-2.402344.601563h-3.199219c-.800781.398437-1.597656.398437-2.398437.398437zm-6.601563-24.597656c-3.199219 3.398437-3 9 .402344 12.199219.199219.199218.199219.199218.398437.398437 1 .800781 2 1.402344 3.199219 1.800781-1.597656-4.800781-2.800781-9.601562-4-14.398437zm0 0"/><path d="m156.203125 158.007812c-1.199219 0-2.398437-.199218-3.597656-.398437-2.601563-.402344-4.402344-2.601563-4.203125-5.203125 0-.796875 0-1.597656 0-2.398438v-28.601562c0-.796875 0-1.597656 0-2.398438-.199219-2.601562 1.601562-4.800781 4.203125-5.199218 1.199219-.199219 2.398437-.199219 3.597656-.199219 12.402344 0 22.402344 10 22.402344 22.398437 0 12-10 22-22.402344 22zm2.402344-34.398437v24.199219c6.597656-1.199219 11-7.800782 9.796875-14.402344-1-5-4.796875-9-9.796875-9.796875zm0 0"/><path d="m68.003906 158.007812c-12.398437 0-22.398437-10-22.398437-22.398437 0-12.402344 10-22.402344 22.398437-22.402344 1.199219 0 2.398438 0 3.601563.199219 2.597656.402344 4.398437 2.601562 4.199219 5.203125v2.398437 29 2.398438c.199218 2.601562-1.601563 4.800781-4.199219 5.203125-1.203125.199219-2.402344.398437-3.601563.398437zm-2.398437-34.398437c-6.601563 1.199219-11 7.796875-9.800781 14.398437 1 5 4.800781 8.800782 9.800781 9.800782zm0 0"/><path d="m112.203125 196.40625c-25.597656 0-46.398437-20.796875-46.398437-46.398438v-33.398437c0-4 3.199218-7.203125 7.199218-7.203125.601563 0 1 0 1.601563.203125 7.597656 1.597656 26.796875 3.597656 40-13 2.398437-3.203125 7-3.601563 10.199219-1.203125.199218.203125.398437.402344.597656.402344 2.800781 2.597656 10.601562 8.800781 26.402344 9.398437 3.800781.199219 7 3.199219 7 7v37.800781c-.199219 25.601563-21 46.398438-46.601563 46.398438zm-36.597656-76.597656v30c0 20.199218 16.398437 36.398437 36.398437 36.398437 20.199219.199219 36.601563-16.199219 36.601563-36.199219v-35c-14.402344-1-23.402344-6-28.203125-10-15 16.601563-35.199219 16.199219-44.796875 14.800782zm-3.203125-.601563"/><path d="m168.203125 128.207031c-1.199219 0-2.597656-.597656-3.398437-1.398437-2.800782-2.601563-6.601563-4-10.402344-3.402344-2.796875.402344-5.199219-1.398438-5.796875-4.199219 0-.199219 0-.597656 0-.800781v-3.597656c-14.402344-1-23.402344-6-28.203125-10-15 16.800781-35.398438 16.199218-44.796875 14.800781-.601563 2.398437-3 4-5.601563 3.597656-3.398437-.597656-7 .402344-9.601562 2.601563-2.199219 1.800781-5.398438 1.398437-7-.800782-.796875-.800781-1.199219-2-1.199219-3.199218v-19.199219c0-26.402344 21.402344-47.800781 47.800781-47.800781h12.199219c8.402344 0 16.402344 3.800781 21.800781 10.199218 3.398438-1.398437 7-2 10.601563-2 15.796875 0 28.597656 12.800782 28.597656 28.601563v31.199219c0 3.199218-2.199219 5.398437-5 5.398437zm-9.597656-14.800781c1.597656.203125 3.199219.601562 4.597656 1v-22.398438c0-10.199218-8.199219-18.601562-18.597656-18.601562-3.402344 0-6.800781 1-9.601563 2.601562-2.398437 1.398438-5.398437.601563-6.800781-1.800781-3.398437-5.597656-9.398437-9.199219-16-9.199219h-12.199219c-20.800781.199219-37.800781 17-37.800781 38v11c1.402344-.398437 2.800781-.601562 4.199219-.800781 1.402344-3 4.800781-4.597656 8-3.800781 7.601562 1.601562 26.800781 3.601562 40-13 2.402344-3.199219 7-3.597656 10.203125-1.199219.199219.199219.398437.402344.597656.601563 2.800781 2.597656 10.601563 8.800781 26.402344 9.398437 3.796875.199219 7 3.199219 7 7zm0 0"/><path d="m112.804688 250.808594c-1.402344 0-2.601563-.601563-3.601563-1.402344-.199219-.199219-.398437-.398438-.597656-.796875-.203125-.203125-.402344-.601563-.402344-.800781-.199219-.199219-.199219-.601563-.199219-1 0-.402344-.199218-.601563-.199218-1 0-1.402344.597656-2.601563 1.398437-3.601563 2-1.800781 5-1.800781 7 0 1 1 1.402344 2.199219 1.402344 3.601563 0 .398437 0 .597656-.203125 1 0 .398437-.199219.597656-.398438 1-.199218.398437-.199218.597656-.398437.800781-.203125.199219-.402344.597656-.601563.796875-.601562.800781-2 1.402344-3.199218 1.402344zm0 0"/><path d="m112.804688 272.808594c-1.402344 0-2.601563-.601563-3.601563-1.402344-.199219-.199219-.398437-.398438-.597656-.796875-.203125-.203125-.402344-.601563-.402344-.800781-.597656-1.199219-.597656-2.601563 0-3.800782.199219-.398437.199219-.601562.402344-.800781.199219-.199219.398437-.597656.597656-.800781.199219-.199219.402344-.398438.800781-.597656.199219-.199219.601563-.402344.800782-.402344.398437-.199219.597656-.199219 1-.199219 1-.199219 2-.199219 2.800781.199219.398437.203125.597656.203125.796875.402344.203125.199218.601562.398437.800781.597656.199219.203125.402344.402344.601563.800781.199218.199219.398437.601563.398437.800781.199219.398438.199219.601563.402344 1 .199219.601563.199219 1.398438 0 2 0 .398438-.203125.601563-.402344 1-.199219.398438-.199219.601563-.398437.800782-.199219.199218-.402344.597656-.601563.800781-.800781.796875-2.199219 1.199219-3.398437 1.199219zm0 0"/><path d="m112.804688 295.007812c-1.402344 0-2.601563-.601562-3.601563-1.398437-1-1-1.398437-2.203125-1.398437-3.601563 0-.398437 0-.601562.199218-1 0-.398437.199219-.601562.199219-1 .199219-.398437.199219-.601562.402344-.800781.199219-.199219.398437-.597656.597656-.800781.199219-.199219.402344-.398438.800781-.597656.199219-.199219.601563-.402344.800782-.402344.398437-.199219.597656-.199219 1-.199219 1.597656-.398437 3.398437.199219 4.398437 1.402344.199219.199219.402344.398437.601563.796875.199218.203125.398437.601562.398437.800781.199219.199219.199219.601563.199219 1 .203125.601563.203125 1.402344 0 2 0 .402344-.199219.601563-.199219 1-.199219.199219-.199219.601563-.398437.800781-.199219.199219-.402344.601563-.601563.800782-.199219.199218-.398437.398437-.800781.597656-.199219.203125-.597656.402344-.796875.402344-.402344.199218-.601563.199218-1 .199218-.203125 0-.601563 0-.800781 0zm0 0"/><path d="m161.203125 309.007812c-2.800781 0-5-2.199218-5-5v-38.601562c0-2.796875 2.199219-5 5-5s5 2.203125 5 5v38.601562c0 2.601563-2.199219 5-5 5zm0 0"/><path d="m63.003906 309.007812c-2.800781 0-5-2.199218-5-5v-38.601562c0-2.796875 2.199219-5 5-5 2.800782 0 5 2.203125 5 5v38.601562c0 2.601563-2.199218 5-5 5zm0 0"/><path d="m122.804688 228.007812h-20c-3.199219 0-6.199219-2-7.199219-5.199218l-6.601563-18.800782c-.199218-.601562-.199218-1-.199218-1.601562v-15.398438c0-2.800781 2.199218-5 5-5 .800781 0 1.597656.199219 2.199218.601563 5 2.597656 10.601563 3.796875 16.199219 3.796875 6 0 12-1.597656 17.402344-4.398438 2.398437-1.398437 5.398437-.398437 6.796875 2 .402344.800782.601562 1.601563.601562 2.398438v16c0 .601562 0 1.203125-.199218 1.601562l-6.601563 18.800782c-1.199219 3-4.199219 5.199218-7.398437 5.199218zm-18.402344-10h16.800781l5.800781-16.398437v-7.601563c-9.199218 3-19 3.199219-28.199218.398438v7.203125zm0 0"/><path d="m190.804688 312.007812h-156.199219c-7.402344 0-13.402344-6-13.402344-13.398437 0-.203125 0-.402344 0-.800781l3.601563-63.199219c.398437-9.402344 7-17.203125 16.199218-19.601563l31.601563-8 18.796875-9.398437c2.402344-1.203125 5.402344-.203125 6.601562 2.199219 0 .199218.199219.398437.199219.597656l6 17.203125h16.800781l6-17.203125c1-2.597656 3.800782-4 6.398438-3 .203125 0 .402344.203125.601562.203125l18.800782 9.398437 31.597656 8c9 2.199219 15.601562 10.199219 16.203125 19.601563l3.597656 63.199219c.402344 7.398437-5.199219 13.800781-12.597656 14.199218-.203125 0-.601563 0-.800781 0zm-100-102.601562-14.199219 7c-.402344.203125-.601563.203125-1 .402344l-32.203125 8.199218c-4.796875 1.199219-8.398438 5.398438-8.597656 10.398438l-3.601563 63.203125c-.199219 1.796875 1.402344 3.597656 3.199219 3.597656h.203125 156.199219c1.800781 0 3.398437-1.597656 3.398437-3.398437v-.199219l-3.597656-63.203125c-.203125-5-3.800781-9.199219-8.601563-10.398438l-32.199218-8.199218c-.402344 0-.601563-.199219-1-.402344l-14.199219-7-4.601563 13.402344c-1 3.199218-4 5.199218-7.199218 5.199218h-20c-3.199219 0-6.199219-2-7.199219-5.199218zm0 0"/><path d="m396.003906 88.007812h-229.601562c-2 0-3.796875-1.199218-4.597656-3-3.800782-9.601562-14.601563-14-24.199219-10.199218-1 .398437-1.800781.800781-2.601563 1.398437-2.398437 1.402344-5.398437.601563-6.800781-1.800781-2.199219-3.597656-5.398437-6.199219-9.199219-7.796875-2.398437-1-3.601562-3.402344-3-6 2-7.203125 8.398438-12.203125 15.800782-12.203125h264.199218c9 0 16.398438 7.402344 16.398438 16.402344v7c0 9-7.398438 16.199218-16.398438 16.199218zm-226.398437-10h226.398437c3.601563 0 6.398438-2.800781 6.398438-6.398437v-7c0-3.601563-2.796875-6.402344-6.398438-6.402344h-264.199218c-1.402344 0-3 .601563-4 1.402344 2.398437 1.597656 4.398437 3.398437 6.199218 5.597656 13.398438-5.199219 28.601563.199219 35.601563 12.800781zm0 0"/><path d="m382.804688 292.808594h-184c-2.601563 0-4.800782-2-5-4.800782l-3-53c-.199219-5-3.800782-9.199218-8.601563-10.398437l-32.199219-8.203125c-.398437 0-.601562-.199219-1-.398438l-19.398437-9.601562c-1.800781-.796875-2.800781-2.597656-2.800781-4.398438v-16c0-1.800781 1-3.601562 2.597656-4.398437 11-6 18.203125-17.203125 19-29.601563.203125-2.800781 2.601562-4.800781 5.402344-4.601562h.398437c.601563.203125 1.402344.203125 2 .203125 6.800781 0 12.402344-5.402344 12.402344-12.203125 0-3.398438-1.402344-6.597656-3.800781-8.796875-1-1-1.601563-2.203125-1.601563-3.601563v-31c0-2.398437-.398437-4.800781-1.398437-7-1-2.601562.199218-5.398437 2.800781-6.601562.597656-.199219 1.199219-.398438 2-.398438h229.597656c2.800781 0 5 2.199219 5 5v191.601563c-.199219 10-8.398437 18.199219-18.398437 18.199219zm-179.402344-10h179.203125c4.597656 0 8.398437-3.800782 8.398437-8.402344v-186.398438h-218c.199219 1.398438.199219 2.601563.199219 4v29.199219c3.402344 4 5.402344 9.199219 5.402344 14.402344 0 11.597656-9 21.398437-20.601563 22.199219-2.199218 13-10 24.398437-21 31.398437v10l16.199219 8 31.601563 8c9 2.199219 15.597656 10.199219 16.199218 19.601563zm0 0"/><path d="m362.003906 220.609375h-143.398437c-2.800781 0-5-2.203125-5-5 0-2.800781 2.199219-5 5-5h143.398437c2.800782 0 5 2.199219 5 5 0 2.796875-2.199218 5-5 5zm0 0"/><path d="m344.605469 265.609375h-108.601563c-2.800781 0-5-2.203125-5-5 0-2.800781 2.199219-5 5-5h108.601563c2.796875 0 5 2.199219 5 5 0 2.796875-2.402344 5-5 5zm0 0"/><path d="m344.605469 245.207031h-108.601563c-2.800781 0-5-2.199219-5-5s2.199219-5 5-5h108.601563c2.796875 0 5 2.199219 5 5s-2.402344 5-5 5zm0 0"/></g></svg>