<svg version="1.1" id="Layer_1" xmlns="http://www.w3.org/2000/svg" x="0" y="0" viewBox="0 0 144 144" xml:space="preserve"><style type="text/css">.st0{opacity:.62}.st1{fill:#ffbc03}.st2{fill:#ffc423}.st3{fill:#0046bb}.st4{opacity:.3}.st5{fill:none;stroke:#0046bb;stroke-width:2;stroke-linecap:round;stroke-miterlimit:10}</style><g class="st0"><circle class="st1" cx="37.21" cy="91.63" r="21.07"/><path class="st2" d="M60.71 91.46c-.03.22.39.14.47.17-.12-.37-.58-.16-.47-.17zM59.45 88.03l.18.03-.49-.43zM58.74 84.88c-.6.5.41 1.1.3 1.72l-.14.13.63.13c-.26-.68-.85-1.45-.79-1.98zM59.59 82.69c-.22.21-.36-.28.07.43.01-.05.03-.07.04-.1-.04-.06-.07-.16-.11-.33z"/><path class="st2" d="M59.69 83.02c.15.34.14-.3 0 0zM58.89 81.55l.43.33c.11-.16-.05-.56.13-.47-.33-.39-.43-.23-.56.14zM58.23 81.37l.2.17c.04-.07.04-.13-.2-.17z"/><path class="st2" d="M58.85 81.91l-.42-.37c-.07.11-.28.21.17.18-.21.05.02.06.25.19zM58.88 82.22c-.02.3 0 .65-.4.32.4.78.84.48.4-.32zM57.98 84.95c-.03.12-.06.24-.1.37l.3.2c-.14-.1.02-.66-.2-.57zM57.79 78.75c-.14.06-.26.35-.41.48l.33.21c0-.2-.09-.55.08-.69zM57.39 79.24l-.49-.3c.21.4.36.41.49.3zM57.48 81.65l.86.51-.93-.65zM56.66 77.06l.46.04-.75-.12zM55.78 76.04c.37-.02.17-.55.47-.49-.29-.25-.69-.32-1.05-.38.29.14.49.41.58.87zM54.64 75.05c.15.06.35.09.56.13-.16-.08-.34-.13-.56-.13zM56.47 78.16c.05-.08.2-.28.11-.58l-.22.42c.03.05.07.1.11.16zM56.35 78.01l.01-.01c-.12-.18-.21-.31-.24-.37.02.05.09.16.23.38zM56.5 78.2l-.03-.04c-.02.04-.02.06.03.04zM57.22 80.3c-.36-.14-.89-.52-.91.16.36.04.37-.36.91-.16zM56.21 78.71c.08.16.14.34.2.51.09-.07.18-.24.35-.18-.18-.12-.35-.23-.55-.33zM55.94 78.57l.27.14-.09-.18zM54.99 76.02c-.3-.05-.48-.23-.7-.43.15.29.33.56.54.78.12-.05.4-.1.16-.35zM55.65 76.99l-.05-.03c-.01.05 0 .08.05.03zM52.21 73.61c0 .03-.01.06-.02.09l.06-.05-.04-.04zM54.8 76.47c.09.23.27.26.46.28-.15-.1-.3-.22-.43-.37-.07.02-.1.05-.03.09zM53.93 74.6c.03.15.08.3.13.46.02-.19-.02-.51-.13-.46zM55.64 76.83c.01.01.02.01.04.02.02-.12-.01-.09-.04-.02z"/><path class="st2" d="M55.64 76.83c-.12-.06-.26-.07-.39-.08.11.09.23.17.35.22 0-.05.02-.1.04-.14zM49.85 75.25c.26-.29.97-.26 1.04.4.54.09 1.19-1.08 1.31-1.95-.13.13-.22.23-.79.1.03.26.55 1.13 0 1.12-.63-.29-.34-.45-.46-.82-.09.55-1.12.06-1.43.73l.6.13c-.06.1-.34.12-.27.29zM52.93 74.42l.2.11c-.14-.22-.17-.46-.21-.92-.41-.11-.56-.04-.66.04l.77.77h-.1zM53.85 75.22c-.42.16-.94-.04-1.03.51.47.41.56.06.95.2-.77-.68.37.05.04-.67.19.1.33.22.46.34-.09-.18-.17-.36-.23-.54v.04h-.01c-.01.07-.02.11-.03.05-.01 0-.02-.01-.02-.01-.03.03-.08.05-.13.08-.14-.29.05-.12.15-.08.02-.01.04-.02.05-.04v-.01c-.29-.21-.62-.37-.93-.56.12.2.35.37.73.69zM55.25 80.5c.02-.05.04-.06.07-.08-.08-.03-.12-.03-.07.08zM55.26 80.02c.09.03.26-.01.35.21-.01.24-.18.11-.29.19.17.05.52.25.47-.23l-.09-.03c-.08-.41.1-1.15.18-1.13-.26.32-.43.56-.62.99zM54.61 77.67c-.21-.19-.46-.34-.7-.5v.55l.16-.16c.22.41.36.17.54.11zM52.27 73.38l.38-.27c-.26.04-.54.12-.81.18l.43.09zM51.32 72.73l.27-.29-.38.01zM21.14 101.14l.2.12a.552.552 0 0 0-.2-.12zM20.46 99.82l-.19.05c.12.02.21.01.19-.05zM24.82 71.61c-.51-.12-1.21-.37-.92-.02l.34.3c.19-.2.39-.27.58-.28zM16.65 87.5c.05-.02.1-.05.14-.07-.13-.11-.24-.21-.35-.31.07.12.13.25.21.38zM18.38 88.07l-.34.35c.11-.07.23-.19.34-.35zM26.9 106.66c.15-.07.29-.15.44-.23-.29-.2-.29.07-.44.23zM40.54 68.44c-.3-.22-.55-.33-.77-.38.37.31.62.73.77.38zM16.8 102.86c.15.1.26.11.34.06-.14-.1-.26-.14-.34-.06z"/><path class="st2" d="M38.83 68c.05.05.11.07.17.11.24-.05.49-.12.78-.05-.28-.22-.61-.34-.95-.06zM52.63 102.03c.03-.01.05-.02.08-.03-.05-.04-.07-.02-.08.03zM59.96 94.68c.01.11-.01.27-.03.43.04-.06.05-.2.03-.43zM47.46 70.17c.23.09.05-.02 0 0zM47.72 72.2c-.07.02-.13.06-.18.15a.4.4 0 0 1 .18-.15zM36.49 70.66h-.02c.07.08.06.06.02 0zM47.7 70.51c-.06-.09-.13-.17-.22-.25.03.05.1.13.22.25zM47.75 70.31c.07.05.12.09.17.13.06-.05.06-.11-.17-.13z"/><path class="st2" d="M47.14 70.05c.13.05.24.13.34.21-.03-.05-.04-.08-.02-.09-.07-.02-.16-.06-.32-.12zM39.8 111.19c.02.01.03.02.05.03.18-.2.09-.16-.05-.03zM23.26 78.68v-.03l-.03.01.03.02zM23.03 79.42c-.21-.57-.04-.66.2-.75L22.14 78c.29.48.58.95.89 1.42z"/><path class="st2" d="M23.33 103.93l-.03-.61c.87 0 .96.43 1.09-.25-.52.42-.88.13-1.18-.21-.3-.34-.6-.68-1.17-.32l.04-.42c.04.08.12.05.16.12.16-.85-1.08.19-1.35-.63-.06-.3.01-.57.25-.49l-.62-.37c-.07-.17.16-.24.23-.08-.19-.26-.34-.54-.52-.81l.04-.01c-.25-.03-.69-.17-.88-.26.07-.31.19.05.31-.07-.18-.12-.37-.23-.53-.36.24-.34.72-.06.85.29 1.02-.98-.52-.26-.14-1.56l.33.4c.61-.57.23-.82.5-1.46-.2.17-.77 1.41-1.28.99.04-.19.01-.4-.35-.61.46-.15.28-.4.16-.76l.62-.14c-.28-.33-.58-.23-.93-.39-.05-.46.4-.65.8-.83 0-.72-.71.64-.95-.18.17-.64-.21-1-.63-1.71.2-.45.39.04.57-.12l-.53-.34c.01-.09.17-.07.25-.06-.21-.31-.64.01-.84-.51-.35-.06-.13-.34.13-.67s.52-.7.13-1.04c.19-.15.39.1.64.06-.48-.89-.36-.76-.95-1.56l.51-.55c-.54.37-1.02-.28-1.39-.92-.25.13-.48.24-.59.32-.07-.31-.14-.63-.17-.95.13-.08.32.05.55.25-.04-.07-.07-.14-.11-.19.31-.26.63-.01.92.28-.15.07-.31.14-.46.22.35.29.74.56 1.12.58a.637.637 0 0 1-.13-.3c.1.07.18.12.25.11.07-.01-.06-.13-.19-.29l.74-.03-.27-.1.69-.9c-.27-.46-.58-.92-.8-1.44-.22-.52-.39-1.12-.27-1.77.34.49.76.4 1.32.66-.74.05-.06.98-.4 1.5.18-.28.43-.11.5-.01l-.18-1.24c.46.22.43-.08.75-.24-1.01-.21-.25-1.02-.32-1.57.31.13.57.39.26.84.93-.19-.73-1.26.17-1.48-.06.12-.15.16-.03.29-.09-.42.52-.97.67-.66l-.06.12c.14-.18.3-.41.45-.67.16-.25.33-.51.46-.79.26-.54.36-1.09.09-1.41.09.06.71.74.81.9-.4-1-.73-2.04-1.02-3.15.43.61 2.04 1.42 1.85 2.25.22-.08.46-.2.6-.68-.18.02-1.01-.5-.91-.69.98.21.6.05 1.56.11-.26.03-.85-.98-.56-1.2.07.17.76.84.74 1.01-.04-.47-.07-.96-.06-1.42-.05.29.57.76.91.91-.2-.12.59-.41.7-.64h-.44c.84-.44-.11-1.86.8-2.35.01.27.49 1.38.97 1.25-.05-.3-.19-1.05-.19-1.8-.01-.75.12-1.54.47-1.95l.3.22c.17-.22.34-.45.54-.64-.14.97-.45 3.18-.63 4.05.44.07.27.3.73.05.3.2-.04.54-.17.62l1.15-.33c-.16-.29-.03-.55.12-.79.16-.22.33-.43.2-.69-.35.35-.64.79-.94 1.18-.35-.55-.12-2.12.84-2.31.31.17.26 1.18.36 1.38.02-.25.63-.7.76-.58l-.23.47c.52.07.47-1.13 1.24-.65.21-.01.79.69.73.3-.48-.67-1.17-2.94-1.06-3.56.1.02 1.36.41 1.67.78.45.54-.27 1.49.12 1.95-.02-.18.12-.43.19-.52.24.12.01.57.46.42-.02-.69.96-.09.14-.6.44-.25.51.04 1.05-.02-.22-.43.38-1.52.89-1.74-.02.17.1.39.16.49 1.02-.03 1.55.41 2.48.43.07.17.49.4.28.67.14-.1.28-.31.57-.29.46.67-.63 0-.3.76.08-.39.77-.43 1.21-.62-.02-.62-.92-.26-1.33-.07.08-.84.9-1.61 2.03-1.83.87-.05.24.61.41.51.73.26 1.14-.01 1.52-.24.38-.22.73-.41 1.26.12.31.69-.33 1.02-.35 1.42-.67-.04-.84-.65-1.29-.74l.46.38c-.25.12-.7.14-.89-.07.28.53 2.4.8 3.24 1.71.25-.08.65-.09.59-.36l-.37-.05c-.13-.54.88-.24.54-.63.57-.04 1.36-.27 1.86.35l-.19.6c.08-.16-.22-.56-.48-.5.4-.08.51 1.28 1.21.76l-.21-.63c.59.01 1.55-.22 1.96.36.1-.68-.16-.04-.15-.9-.13.95-1.47-.94-1.38.2 0-.95-.52-.76-.78-1.66-.08.19.03.44-.44.1a.87.87 0 0 1-.19.1l-.03-.03.02.04c-.04.02-.04.02.01.01.08.14.13.28.12.4-.46.29-1.24-.1-1.61-.01-.25-.23.22-.15.14-.43-.18.04-.36.09-.55.16.14-.43-.56-1 .29-.97l-.67-.27c-.31-.38-.84-.69-1.24-.62-.31-.18-.97.26-.59 0l-1.16-.01.02-.11c-.53-.19-1.13-.06-1.72-.07-.59.01-1.17-.11-1.77-.53-.38.09-.77.21-1.38.06l-.12-.39c-.48.11-1.47-.34-1.66.07-.29-.49-.91-.57-1.53-.41-.63.14-1.28.4-1.72.38l.06.5c-.58.08-1.09.38-1.73.75l.16.42c-.49.47-1.58.16-2.49.54 0-.18.25-.23.45-.19-.36-.14-.68-.11-.96.01-.28.13-.51.36-.73.59-.45.47-.86.91-1.48.86-.14.28-.33.33-.55.32.02-.01.03-.03.04-.05-.03.01-.06.03-.09.05-.14-.01-.29-.02-.44-.01.15.03.29.06.39.04-.17.11-.4.32-.59.57l-.37-.34-.05.05c-.35.01-.08.31.26.53-.09.14-.14.31-.16.46-.64-.49-.46.67-1.22.2.04.22-.21.51-.42.83-.19.35-.33.73-.1 1.1-.08-.08-.18-.06-.07-.17-.3.14-.61.29-.66.66l-.53-.35c.01.35.04.71.08 1.08-.55.05-.84.05-.89-.6-.17 1.27-.38.82-.41 1.93l-.28-.29c-.18.26-.06.98-.43.93-1.09.09-2.03 2.78-3.37 4.16.61.08.39.21.14.39-.24.18-.54.42-.13.61-.29 0-.53.19-.65-.18-.06.98-.94 1.21-.35 2.07-.29.03-.34-.31-.52-.26.04.09.15.36-.03.41-.18.05-.19-.2-.26-.38-.21.98.6 1.27 1.36 1.51-.49.37-.49.63-.02 1.05-.28.11-.59.34-.6-.25-.08.31-.7 1.95-.04 2.05-.17.09-.07.45 0 .54-.08.73-.14.79-.11 1.51l.11-.2c.74.29.17.59.29 1.16l-.08-.01c-.47 1.35.25.54-.23 1.89l.47-.13c1.04-.02-.43 1.21.08 1.91l.23-.32c.4.32-1.1 1.42-1.12 1.9-.06.12-.18-.11-.27-.22-.3 1.28.64-.01 1 .75-.28.25-.89.05-.78.63-.14.38 1.58 1.2 1.29 2.14.16-.26.33-.51.68-.24.34.47-.21 1.9.8 1.97-.02.1-.07.16-.12.19.42.29 1.07 1.08 1.58 1.05-.58.63.02 1.09.58 1.47.54.39 1.11.66.53 1.16l1 .97-.14.08c.55.72 1.07.64 1.53.58.08.21-.12.22-.19.27.74 1.11.96 1.12 2.24 1.15l-.2.47c.2-.03.45.41.88.84s.97.96 1.68.97c-.04.04-.11.12-.23.14.79.04 1.39.76 2.03 1.21.64.44 1.26.7 1.78-.07.34-.02.69-.11 1.02-.17-1.1-.43.38-.71 0-1.12.45.01.99.82.42.77l-.06-.11c-.44.85 1.34.7 1.18 1.29 2.33.41 4.67.97 6.97.81l-.33-.7c.26-.01.51-.04.77-.07.22.14.35.53-.21.58.35.37.89-.49.87-.64 1.13.13-.28.91.05.87l.45-.13-.12-.07c.32-.37.3-.63.95-.77.44.04.31.39.48.37.01.05.07.06.26-.04l.99-.19-.55-.45c.34-.38.89-.21.27-.72.46.4 1.35.15 2.18-.15.82-.34 1.53-.81 1.79-.75.37-.62.84-.96 1.51-1.28-.22-.01-.65-.5-.08-.76.26.61.6.61.97.46.37-.15.78-.4 1.29-.17-.38-.11-.03-.42.26-.73.29-.32.49-.67-.06-.77.46-.27.35.36.86.33.61-1.22 2.31-1.72 3.17-3.14-.13-.13-.49-.08-.5-.51.4-.04.8-.09 1.21-.15.11-.32-.64-.79.16-.95-.17-.01-.41-.03-.35-.24 1.19-1.07 1.8-2.59 2.28-4.09.23-.76.52-1.5.77-2.25.29-.74.7-1.46 1.19-2.2-.4.38-.39.08-.35-.25-.11.2-.43-.07-.67-.07.28-.39.58-.8.84-1.22-.65-.3.03-1.42-.6-1.58l.09.41c-.72-.56-1.69.66-2.64.49.42.31.08.65-.26 1-.33.36-.61.73-.08 1.29-.22.15-.28-.22-.51-.16.38.3.38.58.08 1.02l-.08-.08c-.23 1.38-.84 1.83-1.66 3.12l.48.09c-.2.27-.37.27-.54.36.48.65.44-.82 1.01-.19-.54.01-.8.53-1.06 1.04-.27.5-.63.94-1.16.78-.26.43.54.16.27.59l-.32-.05.25.32c-.22.26-.65.16-.86.03.07-.05.08-.22.11-.3-.54.13-.61 1.01-.79 1.07l.43-.27c-.57 1.31-2.04 2.2-2.64 3.54l.22.1c-.54 1-.81.32-1.6 1.16v-.07c-.05.33-.26.57-.54.72.1-.37-.73-.15-.56-.59-.72.95-.27.59-.54 1.68l-.33-.25c-.08.41-.02.58-.51.92.3-.5-.57-.35-.27-.96-.7-.1-1 .26-1.29.52-.28.27-.52.48-.96.01-.19 1.16 1.16.18.94.49.37.22-.17.88-.58.92-.39.14-1.04-1.06-1.93-.8.09-.02.08-.1.17-.11-.4-.18-.59.55-1.11.18-.13.65-.56.05-.51.84l.85-.31c-.44.28-.8 1.27-1.71.95.05-.17.27-.42.43-.56-.27-.2-.45.24-.73.01-.01-.77 1.05-.33 1.47-1-.3-.29-.89.72-.75-.17-.11.57-.35.57-.62.55-.27-.05-.57-.14-.87.29l.01-.48c-.09.08-.29.31-.48.31l.31-.63c-.49.55-.97-.39-1.44-.15 1 .03.22.6.65.94-1.31.6-.71-1.27-2.08-1.11.19-.05.68.32.36.53-.26-.1-.59-.33-.72-.61-.91-.04.08.51-.35.73-.23-.62-.49.16-.95.28l.09-.47c-.99-.5-.49.93-1.37.33l.56-.55-.53.04.24-.51c-.62.25-.78.14-1.23-.19.01.37-.34.81-.81.65-.21-.38.33-.37-.34-.54.26-.23.54-.53.66-.01.08-.14.24-.23.32-.37-.21-.43-.77-.36-1-.44.08.05.17.11.2.19-.39.11-.77.18-1.15.23-.06-.23.11-.31.27-.39-.2-.04-.41.1-.7.01.24-.32.4-.69.84-.69h-1c.02-.17-.19-.62-.02-.69-.28-.46-1.43.04-1.82-.59-.07.04-.17.06-.31.02-.45-.47-.62-1.11-1.49-1.22l.16-.8c-.54-.27-.17 1.04-1.08.57-.68-.32.22-.6.19-.91-.47.01-1.42.03-1.42-.82.26.15.29.34.46.45zm-3.93-6.08c.15.1.53.25.3.45-.57.05-.36-.17-.3-.45zm-1.56-11.28c.13.15.01.29-.22.44 0-.14.05-.3.22-.44zm27-17.05c-.01 0-.02.01-.03.02-.3-.32-.2-.2.03-.02zm.69.48c.1-.03.12-.1.11-.17-.1.09-.27.04-.46-.06.02.13.09.25.35.23zm-2.82 43.94l-.18-.08c.31-.23.25-.08.18.08z"/><path class="st2" d="M18.18 88c-.09.03-.18.02-.27.01.07.08.17.09.27-.01zM26.82 106.71c0 .01.01.01.01.02.03-.02.05-.04.07-.06l-.08.04zM33.91 72.83a.61.61 0 0 1-.31-.21c.02.12.1.21.31.21zM49.8 71.21l-.52-.17c.23.11.26.25.33.38.05-.1.04-.29.19-.21zM51.48 76.21c.09 0 .11.09.2.1l.14-.18c-.23-.19-.5-.19-.34.08zM49.36 72.81c-.19.37.16.39.48.55-.02-.01-.04-.02-.05-.04.4-.41-.01-.48-.43-.51zM49.91 73.39a1 1 0 0 1 .26.18c.17-.15-.08-.11-.26-.18zM46.6 70.13c.11.17.31-.43.33-.23.38-.4-1.31.08-.33.23zM48.86 74.07l.17-.48-.38.24zM46.76 72.45l.42.36c.03-.08.12-.09.21-.09-.29-.16-.57-.41-.63-.27zM47.39 72.72c.15.09.29.17.41.15-.08-.05-.26-.14-.41-.15zM48.16 73.83l-.08-.17-.29-.23zM41.34 70.5l-.61.05c-.09.16.05.29.28.25.16-.1.38-.13.33-.3zM42.69 72.24c-.12-.14-.1-.25-.14-.43l-.18.6.32-.17zM41.11 71.99c-.09.16-.86.37-.19.43.09-.16.65-.2.19-.43zM32.75 71.31l.14-.04-.23-.99zM27.17 76.26c.64-.1-.21-.6.41-.63 0-.28-.52.02-.5-.23-.18.41-.42.38.09.86zM27.08 75.4c.03-.06.06-.14.08-.23-.06.11-.07.18-.08.23zM60.66 92.97l.24-.48-.36.3zM59.96 92.02l.65-.1-.57-.29c.02.1.07.31-.08.39zM20.33 96.46l-.16.02c-.15.1-.14.19-.12.37l.28-.39zM21.93 101.22l-.03-.08-.41.45zM25.13 104.01c-.11-.12-.34-.18-.43-.32.31.2-.04.87.43.32z"/></g><path class="st3" d="M104.92 114.58c-.52 0-1.11-.09-1.74-.26-1.6-.44-2.05-1.67-2.53-2.98-.78-2.11-1.95-5.29-8.23-9.77-.45-.32-.55-.95-.23-1.4.32-.45.94-.55 1.39-.23 6.78 4.84 8.13 8.51 8.94 10.71.48 1.29.63 1.59 1.19 1.74.7.19 1.62.34 2.04-.05.98-.9.31-4.52-.22-7.43l-.03-.17c-.42-2.26-.14-3.76.86-4.57 1.19-.97 2.74-.38 2.92-.3l.35.14.17.34c.52 1.05 1.31 1.88 2.21 2.34.81.41 1.6.46 2.24.14 1.27-.63 1.68-2.56.96-4.49a2.31 2.31 0 0 0-.46-.71c-1.21-1.29-1.27-7.22-1.19-10.63l.01-.29.16-.24c.6-.91 1.07-1.94 1.38-3.05.86-3.11.5-6.45-1.07-9.91l-.42-.92.93-.41c3.76-1.65 5.3-5.28 5.39-7.17.04-.81-.17-1.23-.32-1.31-.13-.07-.57-.05-1.37.5-3.55 2.46-6.07 3.16-7.56 3.32l-.52.06-.34-.39c-5.78-6.58-15.25-12.06-25.96-15.03C66 47.19 48.83 50.82 42.1 60.95l-.42.64-.1-.03c-1.51 2.05-6.33 9.85-.24 19.4.1.18.59 1.19.1 2.4-.46 1.14-1.6 2.02-3.4 2.6-1.39.46-1.86 1.49-2.01 2.28-.37 1.94.7 4.34 2.67 5.97l.14.12.09.16c.04.08 1.05 1.93-1.43 3.72-.42.31-1.03 1.62-.93 2.48.02.19.07.3.14.33.13.05 1.41.43 5.96-3.15.25-.31 1.41-1.92.37-3.75-.63-1.11-.23-2.68 1.03-4.09 3.88-4.35 14.65-6.77 32.21.71 4.52 1.92 8.5 3.86 11.85 5.75a1 1 0 0 1-.98 1.74c-3.28-1.86-7.2-3.76-11.65-5.65-8.34-3.56-24.04-7.81-29.93-1.22-.82.92-.88 1.6-.78 1.78 1.85 3.27-.57 6.01-.67 6.13l-.12.11c-3.86 3.06-6.42 4.17-8.04 3.49-.77-.32-1.26-1.01-1.37-1.95-.17-1.48.66-3.55 1.75-4.34.64-.46.82-.84.84-1.05-2.38-2.11-3.6-5.08-3.1-7.67.35-1.86 1.54-3.21 3.35-3.81 1.15-.38 1.92-.88 2.16-1.43.14-.32.07-.58.03-.67-4.01-6.34-3.58-12.03-2.51-15.7 1.17-3.98 3.28-6.44 3.37-6.54l.21-.24c7.46-10.75 24.95-14.48 43.71-9.28 10.86 3.01 20.51 8.55 26.57 15.23 1.17-.22 3.23-.89 6.14-2.9 1.68-1.16 2.82-.97 3.48-.61.94.52 1.41 1.64 1.35 3.15-.13 2.83-2.12 6.5-5.69 8.47 1.44 3.59 1.71 7.08.79 10.38-.34 1.22-.83 2.35-1.48 3.37-.07 3.82.18 8.25.68 8.96.38.41.68.87.86 1.35 1.09 2.89.25 5.89-1.94 6.98-1.22.61-2.65.56-4.03-.14-1.16-.59-2.17-1.58-2.88-2.83-.21-.03-.46-.03-.6.08-.09.08-.54.57-.15 2.65l.03.17c.73 3.92 1.41 7.62-.39 9.27-.6.55-1.33.81-2.22.81z"/><ellipse transform="rotate(-64.437 108.06 85.666)" class="st3" cx="108.06" cy="85.67" rx="1.9" ry="1.35"/><path class="st3" d="M43.24 58.36c-.1 0-.19-.01-.29-.04-.53-.16-.83-.72-.67-1.25 1.06-3.48 1.53-7.82.51-8.46-.06-.04-.39-.2-1.23.12.02.22.03.44.01.66-.28 4.45-5.1 7.75-7.6 8.27-1.57.33-2.15-.44-2.32-.78-.44-.87-.38-2.4 4.1-6.45 1.24-1.13 2.35-2 3.34-2.64-.07-.09-.15-.17-.24-.24-.27-.23-.85-.58-1.63-.4-1.52.36-3.21 1.67-4.91 3.79-.34.43-.98.5-1.41.16-.43-.34-.5-.97-.16-1.41 2-2.5 4.02-4.01 6.01-4.48 1.2-.28 2.43.01 3.38.81.29.24.54.52.75.83 1.21-.46 2.18-.43 2.98.07 2.8 1.77.96 8.67.33 10.73-.13.43-.52.71-.95.71zm-3.75-8.44c-.67.48-1.46 1.12-2.4 1.97-2.27 2.06-3.11 3.21-3.43 3.78.59-.15 1.57-.57 2.69-1.41.84-.62 2.69-2.22 3.14-4.34zM101.25 48.89c0 3.13-.87 6.07-2.39 8.64.66.22 1.24.62 1.63 1.15 1.75-2.9 2.76-6.23 2.76-9.79 0-2.67-.55-5.26-1.65-7.7a1 1 0 0 0-1.82.82 16.81 16.81 0 0 1 1.47 6.88zM62.29 48.65c.14-9.83 8.82-17.78 19.47-17.78 5.76 0 11.19 2.34 14.9 6.41.37.41 1.01.44 1.41.06.41-.37.44-1 .06-1.41-4.09-4.49-10.06-7.06-16.38-7.06-11.85 0-21.49 8.98-21.49 20.02 0 .04.01.08.01.12.63-.33 1.34-.48 2.02-.36zM99.38 66.32c-.2 0-.41-.06-.59-.19-20.15-14.67-40.11-9.39-40.31-9.33a.995.995 0 0 1-1.23-.7.995.995 0 0 1 .7-1.23c.21-.06 21.06-5.62 42.02 9.64.45.33.54.95.22 1.4-.19.26-.5.41-.81.41z"/><g class="st0"><ellipse transform="rotate(-16.013 14.855 62.448)" class="st1" cx="14.85" cy="62.44" rx="3.64" ry="3.99"/><path class="st2" d="M10.19 63.82c0-.05-.19.03-.23.03.06.06.28-.05.23-.03zM10.88 64.32l-.08.02.23.01zM11.17 64.89c.28-.23-.16-.17-.11-.33l.06-.05-.28.08c.12.11.37.17.33.3zM10.73 65.62c.1-.1.15 0-.02-.1-.01.01-.01.02-.02.03.02.02.03.04.04.07z"/><path class="st2" d="M10.7 65.56c-.06-.06-.07.1 0 0zM10.97 65.8h-.16c-.05.07-.01.15-.08.16.13.04.17-.03.24-.16zM11.24 65.71l-.07-.01c-.03.03-.03.05.07.01z"/><path class="st2" d="M11.01 65.69l.16.02c.04-.05.13-.12-.06-.01.08-.07-.01-.02-.1-.01zM11.01 65.6c.03-.09.03-.18.18-.17-.14-.12-.33.05-.18.17zM11.5 64.73l.06-.11-.13.01c.07 0-.02.16.07.1zM11.26 66.4c.06-.05.12-.17.18-.24l-.12.01c0 .06.02.15-.06.23zM11.45 66.16l.17-.01c-.06-.08-.12-.05-.17.01zM11.55 65.47l-.32.04.35-.02zM11.58 66.72l-.16.09.26-.13zM11.83 66.88c-.13.08-.1.24-.19.28.08.03.22-.03.33-.08-.09.01-.14-.04-.14-.2zM12.15 67c-.05.01-.11.04-.18.08.05-.01.11-.03.18-.08zM11.72 66.31c-.03.04-.09.14-.08.22l.11-.19-.03-.03zM11.76 66.33c.03.04.05.06.06.07-.01 0-.03-.02-.06-.07zM11.72 66.3c.01-.01.02-.02 0 0zM11.58 65.8c.13-.04.31-.04.36-.25-.14.07-.17.19-.36.25zM11.86 66.07l-.04-.11c-.04.04-.08.11-.14.14l.18-.03zM11.94 66.05l-.08.02.02.04zM12.1 66.72c.1-.05.15-.02.21 0a.37.37 0 0 0-.13-.17c-.05.06-.14.13-.08.17zM11.94 66.52h.02c0-.02 0-.03-.02 0zM12.83 67.04l.01-.04-.02.03zM12.19 66.52c-.01-.06-.07-.04-.13-.01.04.01.08.02.11.04.03-.02.04-.03.02-.03zM12.36 67.02c0-.05 0-.1-.01-.15-.02.07-.03.19.01.15zM11.93 66.57h-.01c-.02.05 0 .03.01 0z"/><path class="st2" d="M11.93 66.57c.04-.01.09-.04.13-.06a.205.205 0 0 0-.11 0c0 .02-.01.04-.02.06zM13.58 65.89c-.09.18-.27.29-.24.06-.15.09-.42.68-.5 1.05.04-.08.08-.14.23-.2.01-.12-.09-.34.07-.45.16-.03.06.11.07.24.06-.24.31-.26.42-.6l-.15.08c.04-.06.11-.13.1-.18zM12.66 66.88h-.05c.03.06.02.14.01.31.12-.04.17-.1.2-.16l-.19-.14.03-.01zM12.42 66.76c.15-.16.28-.18.36-.41-.11-.06-.17.1-.29.14.2.07-.12.06-.06.25-.06.01-.1-.01-.13-.02.02.04.03.09.04.15v-.01c.01-.03.01-.04.01-.02h.01c.03-.04.05-.06.06-.08.03.07-.02.05-.05.06l-.02.03c.09.01.17.02.25.02-.02-.04-.08-.07-.18-.11zM12.34 65.3c-.01.02-.02.03-.03.04.03-.01.04-.02.03-.04zM12.3 65.45c-.03.01-.1.07-.11.02.02-.07.07-.07.12-.12-.06.02-.18.04-.19.17l.03-.01c0 .1-.11.37-.14.38.11-.16.19-.27.29-.44zM12.35 66.05l.19.02.05-.2-.07.09c-.04-.09-.11.03-.17.09zM12.8 67.15l-.13.18.24-.23zM13.03 67.23l-.09.18.11-.09zM16.49 60.49l-.06.02c.02 0 .04-.01.06-.02zM16.62 60.67l.08-.06c-.05.02-.08.05-.08.06zM18.65 65.89c.2.05.48.14.3.02l-.19-.11c0 .07-.05.09-.11.09zM18.45 62.18l-.06.02c.08.01.15.01.21.02-.05-.01-.1-.02-.15-.04zM17.55 62.24l.13-.08c-.05.02-.09.05-.13.08zM15.46 60.05l-.11.19c.04.02.07-.09.11-.19zM15.55 67.56c.08.08.15.1.2.11-.11-.12-.2-.3-.2-.11zM18.27 59.02a.21.21 0 0 0-.13.05c.05.01.09-.01.13-.05zM15.96 67.62c-.02-.02-.03-.03-.05-.04-.04.05-.09.09-.16.08.08.09.17.12.21-.04zM12.51 61.52h-.03c.03.01.03.01.03 0zM10.3 63.1c-.02-.02-.02-.05-.03-.08-.01.01-.01.04.03.08zM13.97 67.64c-.06.01-.02.03 0 0zM13.94 66.75c.02-.02.03-.05.05-.1-.02.06-.03.09-.05.1zM16.06 66.2c-.02-.04-.01-.03 0 0zM13.91 67.53c.01.03.03.06.05.08 0-.02-.02-.05-.05-.08zM13.9 67.63c-.02-.01-.03-.02-.04-.03-.02.04-.02.06.04.03z"/><path class="st2" d="M14.04 67.65c-.03 0-.06-.02-.08-.04.01.02.01.03 0 .04.02-.01.05 0 .08 0zM13.55 59.38c0-.01-.01-.01-.01-.02.01.1.01.08.01.02zM17.27 63.84h.02zM17.16 63.68c.23.14.19.15.12.16l.59.21c-.23-.13-.47-.25-.71-.37z"/><path class="st2" d="M16.07 60.2l-.06.19c-.25.21-.22.1-.34.35.42-.55.2.08.66-.43l-.06.14c0-.01-.03.01-.04 0-.16.3.38-.31.4-.15-.01.07-.06.15-.14.19.06-.02.13-.03.19-.05.01.03-.09.1-.09.07l.13.07-.02.01c.1-.05.26-.12.33-.14-.05.09-.07.03-.13.09l.18-.03c-.12.13-.3.17-.31.12-.5.46.18-.05-.06.31l-.11-.01c-.29.25-.15.21-.32.4.11-.07.43-.45.61-.47-.03.05-.03.08.11.06-.21.13-.14.13-.1.17l-.28.15c.11 0 .25-.08.39-.11.01.07-.21.2-.39.3-.01.11.33-.24.43-.15-.08.14.08.13.29.17-.08.1-.19.06-.27.11l.26-.03c0 .02-.08.04-.12.05.11.02.3-.1.41-.05.35-.07-.45.3-.04.3-.08.04-.19.03-.31.07.29.07.22.06.58.12l-.19.13c.23-.11.52-.06.77.02.11-.04.21-.08.25-.11.06.05.13.1.19.15-.05.03-.16.02-.3 0l.08.02c-.11.07-.3.05-.48.03.06-.02.13-.05.19-.07-.2-.02-.42-.02-.6.01.04 0 .07.02.09.03h-.13c-.03.01.04.01.12.03l-.35.06.14-.01-.22.17c.37.09.89.22 1.03.47-.26-.08-.43-.04-.73-.07.33-.03-.13-.16-.06-.25-.04.05-.18.04-.24.02.1.06.19.12.29.18-.25-.02-.19.02-.3.06.5.01.31.16.46.26-.17-.02-.33-.06-.28-.14-.39.03.57.21.23.26 0-.02.03-.03-.06-.05.14.08-.01.18-.14.12v-.02c-.08.13-.11.4.27.57-.05-.02-.47-.2-.55-.23.43.24.83.5 1.22.8-.33-.17-1.15-.45-1.3-.63-.06.01-.13.02-.04.13.05 0 .5.17.52.22-.4-.09-.22-.03-.58-.11.09.01.57.31.52.36-.07-.05-.49-.27-.54-.32.14.13.28.26.42.4-.07-.09-.4-.25-.55-.32.1.05-.07.08-.04.14l.14.03c-.15.06.56.59.41.72-.07-.09-.52-.49-.62-.48.21.2.93 1.05.93 1.36l-.14-.09.02.24c-.2-.41-.68-1.2-.9-1.5-.13-.05-.15-.12-.19-.06-.13-.09-.14-.19-.14-.21-.06.02-.12.02-.18.03.24.24.14.33.33.54-.02-.13-.06-.26-.1-.39.25.22.58.77.41.84-.11-.08-.36-.48-.43-.56.06.1.04.25-.02.19l-.07-.18c-.13-.07.18.44-.08.22-.04 0-.3-.32-.2-.15.23.31.89 1.29 1 1.57-.03-.01-.4-.18-.52-.34-.19-.24-.25-.67-.42-.88.04.08.07.19.07.23-.07-.06-.12-.26-.16-.19.14.31-.14.04.09.27-.03.12-.1-.03-.17.02.11.19.2.72.13.85-.02-.08-.08-.18-.1-.23-.18.04-.32-.11-.47-.07-.03-.08-.12-.16-.11-.31-.01.06-.01.18-.06.19-.13-.28.09-.06-.02-.4.03.2-.07.28-.13.41.05.3.17.04.21-.09.07.42 0 .87-.2 1.09-.17.11-.08-.27-.11-.21-.29-.07-.29.75-.55.41-.08-.28.05-.53.04-.73.13-.09.17.19.26.18l-.1-.13c.04-.08.12-.16.16-.08-.07-.23-.46-.06-.62-.34-.05.08-.13.16-.13.27l.07-.02c.02.23-.19.27-.13.38-.13.13-.31.33-.42.17l.07-.3c-.03.09.03.2.1.12-.1.11-.07-.46-.26-.1l.03.23c-.15.12-.4.37-.49.22-.06.31.04-.02.01.35.07-.44.35.15.37-.34-.03.42.11.22.16.6.02-.1 0-.2.11-.12.01-.03.04-.06.05-.08l.01.01v-.01c.01-.01.01-.02 0 0a.297.297 0 0 1-.02-.16c.12-.21.29-.17.37-.27.06.06-.05.11-.03.22l.12-.16c-.03.23.13.39-.06.5l.16.03c.08.14.21.2.3.11.08.06.2-.24.13-.07l.25-.14v.06c.26.03.45-.4.79-.05.07-.07.14-.16.28-.13l.08.18c.08-.09.38.08.36-.12.3.46.55-.11.76-.11l-.11-.23c.12-.05.19-.18.27-.35l-.13-.18c0-.21.36-.07.52-.22.04.07-.01.09-.08.07.54.21.14-.62.54-.52-.02-.1.02-.11.09-.1v.02c.01 0 .01-.01.02-.02.05.01.1.01.14.01-.06-.02-.11-.03-.14-.02.02-.04.05-.1.04-.19l.21.12v-.02c.11 0-.06-.11-.23-.19a.507.507 0 0 0-.07-.15c.35.18-.02-.2.37-.03-.14-.14.03-.35-.33-.58.05.02.08.02.07.05.07-.03.15-.07.07-.17l.29.11-.32-.3c.2 0 .32.01.5.18-.25-.34-.05-.22-.33-.51l.18.07c.01-.06-.21-.24-.04-.22.42-.03.22-.64.6-.97-.58.03.27-.16-.18-.2.14-.01.22-.07.34 0-.12-.2.23-.3-.16-.43.14-.03.2.04.28.01-.03-.02-.12-.06-.04-.08.08-.02.12.02.18.05-.03-.21-.46-.2-.86-.18.19-.11.15-.16-.12-.19.13-.05.25-.12.32-.01.01-.06.13-.44-.19-.38.07-.04 0-.09-.04-.1-.01-.14.01-.16-.05-.29l-.04.05c-.38.05-.11-.08-.19-.18l.04-.01c.18-.33-.15-.06.05-.41l-.22.1c-.48.18.19-.32-.05-.38l-.1.11c-.18.01.52-.51.53-.64.03-.04.08-.01.12 0 .15-.36-.29.12-.44.01.13-.12.39-.18.36-.31.08-.14-.65.01-.48-.3-.08.11-.17.21-.29.21-.1-.06.17-.57-.21-.38.02-.04.04-.06.06-.09-.14 0-.34-.09-.53.03.5-.69-.67-.04-.19-.64l-.26-.13.05-.06c-.13-.15-.28-.02-.43.11-.01-.06.05-.11.07-.15-.15-.26-.21-.26-.56.01l.08-.24c-.1.11-.23-.51-.58-.31.01-.03.03-.07.06-.1-.18.1-.32-.1-.47-.23-.15-.11-.3-.15-.39.3-.07.07-.14.14-.2.21.23.07-.05.39.04.54-.08.05-.21-.27-.11-.32l.02.05c.05-.47-.29-.17-.3-.48-.48.05-1.03-.08-1.51.1l.19.31-.15.05c-.07-.06-.17-.23-.06-.27-.15-.16-.11.24-.07.32-.28-.03-.11-.42-.18-.4l-.08.07.04.03c-.01.17.07.31-.06.37-.11-.02-.16-.17-.19-.16-.01-.02-.03-.03-.05.02l-.2.09.23.19c0 .16-.16.1.1.31-.41-.34-.68.33-.84.28.07.24 0 .32-.12.42.07.01.34.2.23.26-.51-.44-.36.01-.83-.16.31.09-.13.37.34.47-.1.06-.22-.12-.4-.12.1.34-.42.46-.44.82.08.03.23.02.33.13-.16.01-.31.02-.47.04.02.08.48.19.15.23.08 0 .19.01.21.05-.28.25-.25.6-.22.91.02.32.03.61-.32 1 .16-.11.18-.05.2.01.03-.05.22-.03.33-.06-.1.1-.2.21-.28.31.33-.02.09.27.4.22l-.07-.06c.38.01.77-.33 1.25-.41-.45-.02.58-.33-.04-.38.09-.04.16.01.27-.02-.21-.01-.26-.05-.17-.14l.04.06c-.07-.22.14-.32.29-.54h-.24c.04-.05.11-.05.18-.07-.35-.1-.04.14-.43.05.49-.02.06-.39.61-.32.02-.07-.27-.04-.25-.11l.15.01-.18-.06c.04-.04.23-.02.35.01-.02.01.03.04.03.06.18-.01-.01-.18.05-.18l-.11.04c-.07-.24.2-.38.04-.69l-.1-.04c-.1-.25.17-.05.19-.24l.02.02c-.07-.09-.09-.17-.05-.2.08.11.25.1.33.23-.07-.26-.09-.17-.32-.54l.15.1c-.09-.14-.15-.21-.11-.31.06.17.24.16.33.37.39.18-.06-.49.37-.08-.24-.46-.3-.13-.33-.24-.14-.1-.18-.34-.09-.35.06-.04.47.46.57.39-.01 0 .01.04-.01.04.11.09-.01-.21.15-.05-.11-.29.08-.02-.09-.38l-.08.14c.01-.12-.11-.57.11-.43.02.08.03.19.03.26.08.09.03-.1.12-.01.14.37-.11.15-.05.45.1.14 0-.32.15.09-.18-.52.13.01.07-.4l.07.23c0-.04-.01-.15.02-.16l.06.31c-.02-.27.18.17.2.03-.12.03-.1-.27-.21-.42.11-.35.26.58.39.43-.02.03-.11-.12-.09-.24.04.04.1.13.14.25.11-.06-.05-.24-.02-.39.08.28.05-.12.11-.22l.02.24c.15.15.02-.5.17-.32l-.06.33.07-.09-.02.27c.07-.21.1-.15.16-.07 0-.17.04-.44.12-.44.03.15-.05.23.05.2-.04.15-.09.33-.1.11-.02.08-.03.15-.05.23.03.17.1.04.13.05-.01-.01-.02-.03-.02-.06.06-.11.12-.2.19-.3 0 .09-.03.16-.06.23.03-.02.07-.12.12-.14-.06.19-.1.39-.17.47.05-.06.1-.13.16-.19-.01.09-.01.24-.04.31.01.13.26-.32.29-.14a.27.27 0 0 1 .07-.08c.07.07.02.31.23.13l-.13.33c.11-.03.15-.42.34-.47.14-.04-.13.27-.16.38.13-.12.42-.37.32-.08-.05.02-.04-.03-.08-.03zm.83.67c-.06.01-.21.06-.1-.03.25-.14.15-.05.1.03zm1.1 1.55c-.08-.01-.04-.04.05-.08.02.02.01.05-.05.08zm-3.42 5.12s0-.01.01-.01c.07.1.05.06-.01.01zm-.16-.12c-.02.03-.03.06-.02.1.02-.06.06-.06.1-.04-.01-.06-.03-.11-.08-.06zm-2.02-9.26l.06.04c-.03.1-.04.03-.06-.04z"/><path class="st2" d="M17.65 62.24c.04-.01.08-.02.13-.03-.04 0-.09 0-.13.03zM15.48 60.02l-.02.03zM16.11 65.15c.03.02.06.06.09.09-.02-.05-.05-.09-.09-.09zM13.39 67.59l.13-.02c-.06-.01-.06-.06-.08-.11-.01.06-.01.14-.05.13zM13.21 65.87c-.03.02-.02-.01-.05.01l-.06.1c.06.02.14-.04.11-.11zM13.56 66.81c.06-.19-.02-.15-.09-.14h.01c-.13.25-.02.2.08.14zM13.45 66.66c-.02 0-.05 0-.06-.02-.05.1.02.03.06.02zM14.17 67.52c-.03-.06-.07.25-.08.16-.08.25.32-.26.08-.16zM13.75 66.16l-.07.24.11-.17zM14.16 66.48c-.03-.03-.05-.06-.08-.09-.01.04-.03.06-.05.07.06.03.12.09.13.02zM14.03 66.46c-.03-.01-.06-.02-.09.02.02 0 .06.01.09-.02zM13.9 66.13l.01.06.06.04zM15.24 66.63l.1-.08c0-.09-.03-.14-.07-.1-.01.06-.05.1-.03.18zM14.92 65.95c.02.05.02.11.04.19l.01-.31-.05.12zM15.18 65.87c.01-.09.1-.26 0-.23 0 .09-.08.16 0 .23zM16.64 65.83l-.02.02.25.44zM16.66 64.22c-.14-.01.24.21.07.17.08.09.14.03.21.11-.07-.12 0-.1-.28-.28zM16.93 64.5c.01.02.02.04.04.07a.161.161 0 0 0-.04-.07zM10.1 63.51l-.08.13.15-.11zM10.51 63.6l-.31.11.3-.02c-.02-.02-.05-.05.01-.09zM16.42 61.33l.07-.04c.07-.05.07-.06.07-.09l-.14.13zM16.21 60.67l.01.01.19-.22zM15.58 60.63c.01.02.06-.02.07 0-.06.02.12-.31-.07 0z"/></g><g class="st4"><circle class="st1" cx="118.26" cy="44.41" r="7.25"/><path class="st2" d="M109.18 44.48c.02-.08-.29-.05-.35-.07.08.15.43.06.35.07zM110.01 45.75l-.13-.01.34.14zM110.27 46.92c.48-.26-.19-.39-.06-.65l.11-.06h-.44c.13.24.48.49.39.71zM109.41 47.95c.18-.12.22.08 0-.18-.02.02-.03.03-.04.05.02.02.03.06.04.13z"/><path class="st2" d="M109.38 47.81c-.07-.13-.13.15 0 0zM109.74 48.37l-.25-.09c-.1.09-.05.25-.16.23.19.14.28.04.41-.14zM110.17 48.36l-.11-.05c-.04.04-.05.07.11.05zM109.82 48.2l.24.11c.07-.06.22-.14-.09-.06.15-.05-.01-.02-.15-.05zM109.85 48.06c.06-.14.09-.29.32-.19-.19-.28-.53-.1-.32.19zM110.82 46.8l.11-.16-.2-.05c.1.03-.07.27.09.21zM110.06 49.54c.1-.05.22-.22.34-.3l-.18-.05c-.03.1-.02.25-.16.35zM110.4 49.24l.27.07c-.07-.17-.16-.15-.27-.07zM110.72 48.13l-.51-.11.54.16zM110.51 50.22l-.29.05.45-.06zM110.88 50.61c-.23.07-.2.33-.37.35.13.09.36.06.56.03-.15-.03-.22-.14-.19-.38zM111.38 50.96c-.08-.01-.19.01-.31.03.08.01.17.01.31-.03zM110.82 49.62c-.05.05-.18.18-.17.32l.21-.25a.574.574 0 0 1-.04-.07zM110.86 49.67c.04.08.07.13.08.15-.01-.01-.03-.06-.08-.15zM110.8 49.6l.01.02c.03-.03.03-.04-.01-.02zM110.69 48.7c.22.01.49.1.62-.22-.23.04-.3.23-.62.22zM111.08 49.3c-.02-.07-.03-.14-.05-.21-.07.05-.15.15-.26.15l.31.06zM111.22 49.32l-.14-.02.02.07zM111.35 50.48c.17-.02.24.04.33.11a.795.795 0 0 0-.17-.33c-.09.05-.26.13-.16.22zM111.12 50.08h.03c.01-.03.01-.04-.03 0zM112.48 51.35l.02-.05-.04.04zM111.54 50.2c-.01-.11-.11-.09-.22-.07.07.03.13.07.19.12.04-.02.06-.04.03-.05zM111.7 51.09c.01-.08.01-.16.01-.24-.04.1-.08.28-.01.24zM111.1 50.16h-.02c-.04.07-.01.04.02 0zM111.1 50.16c.06.01.15-.01.22-.03a.337.337 0 0 0-.17-.05.35.35 0 0 1-.05.08zM114 49.93c-.18.23-.53.33-.44-.03-.26.06-.84.86-1.06 1.4.09-.1.16-.18.43-.2.04-.16-.08-.57.21-.67.28.04.09.2.08.4.15-.35.57-.24.85-.72l-.27.04c.06-.06.2-.13.2-.22zM112.23 51.01l-.09-.03c.04.1.01.24-.05.5.2-.01.3-.08.37-.15l-.28-.31.05-.01z"/><path class="st2" d="M111.86 50.72c.27-.17.51-.15.67-.48-.18-.14-.3.08-.5.07.32.23-.21.04-.15.38a.586.586 0 0 1-.21-.1c.02.08.03.17.04.26l.01-.02c.02-.04.03-.06.03-.03h.01c.04-.04.07-.06.1-.08.03.13-.05.07-.1.07l-.04.03c.13.06.28.1.42.15-.03-.08-.12-.14-.28-.25zM112 48.27c-.02.02-.04.04-.06.05.04 0 .07-.01.06-.05zM111.9 48.5c-.05 0-.17.05-.19-.03.05-.11.13-.08.22-.14-.1.01-.29-.03-.34.19h.05c-.02.18-.26.56-.31.57.23-.21.38-.36.57-.59zM111.87 49.53c.1.05.21.09.32.13l.11-.29-.12.11c-.06-.17-.19-.01-.31.05zM112.4 51.5l-.25.23.46-.24zM112.78 51.74l-.19.23.21-.07zM122.96 41.63l-.1-.01c.03.01.07.01.1.01zM123.15 42.02l.14-.05c-.09.01-.14.03-.14.05zM123.05 52.16c.27.16.66.43.46.16l-.22-.25c-.05.1-.14.12-.24.09zM125.3 45.82l-.1.01c.1.05.2.1.29.14a.896.896 0 0 1-.19-.15zM123.98 45.5l.22-.09a.57.57 0 0 0-.22.09zM121.15 40.18l-.24.24c.09.05.15-.11.24-.24zM116.98 53.35c.11.14.2.21.29.24-.14-.21-.22-.51-.29-.24zM126.08 40.11a.282.282 0 0 0-.22.03c.08.02.15.02.22-.03z"/><path class="st2" d="M117.63 53.61c-.02-.03-.04-.05-.06-.08-.1.05-.19.09-.31.06.1.15.23.24.37.02zM113.78 41.4c-.02 0-.02 0-.04-.01.04.03.04.02.04.01zM109.66 43.26c-.01-.04 0-.11 0-.17-.02.03-.03.08 0 .17zM114.25 52.79c-.09-.02-.03.03 0 0zM114.45 51.46c.03-.02.07-.06.1-.12-.04.06-.08.1-.1.12zM118.51 51.6c-.02-.06-.02-.05 0 0zM114.19 52.6c.01.05.04.1.07.14a.589.589 0 0 0-.07-.14zM114.14 52.74c-.03-.03-.04-.05-.06-.06-.04.04-.04.08.06.06zM114.38 52.84c-.05-.02-.09-.06-.13-.1.01.03.01.05 0 .06.03 0 .07.02.13.04zM117.44 38.21c-.01-.01-.01-.02-.02-.03-.05.14-.02.12.02.03zM122.46 48.31l.01.02h.01zM122.42 48c.25.33.17.34.06.33l.74.58c-.26-.31-.52-.62-.8-.91z"/><path class="st2" d="M122.28 40.85l-.13.29c-.47.2-.41.02-.64.37.79-.67.37.29 1.2-.3l-.12.2c-.01-.03-.06 0-.07-.02-.3.41.68-.31.7-.01-.02.12-.12.24-.25.25l.32.03c.01.06-.15.13-.16.07.07.07.13.14.2.22l-.03.01c.16-.03.43-.05.54-.05-.1.13-.12.01-.22.08l.3.05c-.22.16-.5.14-.52.03-.87.54.3.02-.15.53l-.17-.09c-.51.29-.28.31-.57.55.17-.07.75-.57 1.05-.5-.06.07-.07.14.16.16-.35.11-.24.17-.19.27l-.47.12c.16.07.4 0 .62.02-.01.14-.37.24-.67.33-.05.21.57-.25.69-.03-.16.21.07.29.37.49-.16.14-.29 0-.43.06l.39.09c-.01.03-.13.03-.19.02.15.09.48-.02.62.14.54.05-.77.33-.18.53-.14.04-.29-.04-.48-.04.38.29.28.24.77.53l-.34.15c.38-.08.77.16 1.09.42a3 3 0 0 0 .41-.07c.07.12.14.24.19.36-.09.02-.24-.05-.42-.14.03.03.07.05.1.08-.2.07-.45-.05-.7-.18.1-.01.21-.03.32-.04-.27-.13-.58-.25-.86-.29.05.03.09.07.11.11-.08-.03-.14-.06-.19-.06-.05 0 .05.05.16.11l-.54-.06.2.06-.4.22c.48.36 1.13.82 1.18 1.33-.31-.25-.58-.27-1-.46.5.09-.09-.35.06-.49-.08.08-.28-.02-.35-.07.1.15.21.31.3.47-.35-.15-.29-.04-.47-.03.72.24.34.43.49.67-.23-.11-.44-.26-.32-.38-.58-.1.69.63.15.57.02-.04.06-.04-.04-.12.14.2-.14.32-.3.15l.02-.04c-.2.2-.48.67-.02 1.13-.06-.05-.57-.52-.66-.61.45.57.86 1.18 1.23 1.84-.37-.41-1.41-1.2-1.49-1.58-.1-.01-.21-.01-.17.22.09.03.64.48.63.56-.56-.32-.33-.15-.83-.39.13.04.65.73.54.79-.07-.11-.56-.64-.59-.73.12.27.24.55.33.82-.04-.16-.44-.56-.63-.72.12.11-.18.12-.19.22l.2.09c-.3.07.42 1.15.1 1.3-.05-.17-.47-.97-.65-.98.18.41.72 1.98.51 2.45l-.16-.2c-.04.12-.09.25-.14.37-.06-.67-.27-2.1-.38-2.63-.19-.12-.16-.24-.29-.16-.15-.18-.09-.35-.06-.38l-.36.01c.23.46-.04.57.13.95.07-.2.11-.43.15-.64.24.43.39 1.42.05 1.44-.14-.16-.26-.86-.34-1.01.03.17-.13.4-.19.29l.02-.29c-.19-.13-.02.72-.34.3-.07-.01-.33-.59-.27-.29.22.54.71 2.25.72 2.69-.05-.03-.56-.42-.69-.7-.19-.43-.02-1.08-.19-1.45.02.14-.01.31-.02.37-.09-.11-.05-.42-.18-.34.05.51-.31 0-.01.44-.13.16-.17-.07-.34-.04.09.33-.07 1.13-.26 1.28 0-.13-.04-.3-.06-.37-.35-.02-.53-.29-.84-.3-.02-.12-.15-.28-.07-.5-.05.08-.11.25-.2.25-.12-.47.21-.04.14-.59-.04.29-.27.37-.44.53-.04.46.3.13.45-.03-.06.63-.39 1.25-.83 1.48-.33.1-.05-.43-.12-.35-.49-.25-.77.97-1.11.36-.05-.45.26-.76.31-1.05.26-.06.25.36.41.38l-.13-.23c.11-.11.28-.17.33-.04-.04-.37-.82-.31-1.03-.79-.12.09-.29.17-.3.34h.14c-.02.35-.41.3-.33.51-.26.12-.63.36-.77.05l.19-.42c-.06.12.01.33.14.24-.2.12-.02-.74-.43-.28l-.03.41c-.28.1-.77.38-.89.1-.17.44.07-.01-.07.54.23-.63.56.38.71-.35-.15.62.13.4.11.97.06-.14.05-.3.22-.13.03-.04.08-.08.1-.1l.01.02v-.02c.02-.02.02-.02 0-.01a.528.528 0 0 1 0-.25c.26-.26.54-.11.72-.23.08.12-.12.14-.12.31.09-.06.17-.12.26-.18-.12.32.11.64-.25.71l.26.11c.09.23.29.39.47.29.11.11.43-.27.24-.05l.47-.09-.01.08c.43.14.93-.39 1.35.25.15-.08.3-.17.54-.07l.04.29c.18-.09.58.27.65-.03.26.79.96.08 1.3.16l-.06-.38c.23-.02.42-.19.65-.4l-.11-.32c.14-.31.63.05.98-.11.02.13-.08.13-.17.08.35.28.53.06.66-.19.14-.25.25-.5.55-.36.03-.16.11-.16.21-.12-.01.01-.01.02-.01.03.01 0 .02-.01.04-.02.07.03.14.06.21.08a.653.653 0 0 0-.2-.09c.06-.05.14-.14.19-.27l.24.28.02-.02c.17.05-.02-.19-.22-.38a.57.57 0 0 0 0-.26c.41.42.11-.33.58.1-.12-.28.31-.53-.08-1.05.06.06.11.07.07.11.13-.02.27-.05.23-.25l.36.3c-.08-.21-.16-.41-.25-.62.3.08.47.14.62.5-.13-.66.07-.38-.13-.97l.22.2c.06-.1-.14-.49.09-.39.64.13.78-.99 1.52-1.4-.85-.22.49-.15-.14-.43.21.04.35-.01.48.16-.07-.41.51-.42.02-.83.21.02.27.16.4.16-.04-.04-.14-.16-.01-.17.13 0 .15.1.23.18.07-.39-.55-.57-1.12-.73.32-.1.3-.21-.07-.4.2-.02.42-.09.45.14.05-.11.4-.71-.08-.77.12-.03.04-.17-.01-.2.04-.27.09-.29.05-.55l-.08.07c-.57-.11-.13-.21-.21-.42h.06c.39-.51-.19-.18.22-.71l-.35.07c-.77.06.39-.47.05-.71l-.19.14c-.28-.08.93-.63.98-.84.06-.05.12.03.18.07.33-.55-.47.06-.66-.21.23-.13.64-.11.62-.34.15-.19-.99-.33-.65-.77-.15.14-.31.27-.5.2-.15-.15.41-.88-.24-.77.03-.05.07-.08.11-.11-.23-.07-.52-.34-.84-.23.48-.41.19-.54-.09-.63-.27-.1-.54-.13-.11-.51l-.4-.35.09-.07c-.18-.3-.47-.17-.74-.05 0-.11.11-.15.15-.19-.2-.5-.31-.5-.95-.27l.18-.33c-.19.11-.28-.89-.92-.74.02-.04.07-.09.13-.12-.35.08-.52-.31-.74-.54-.22-.23-.46-.35-.76.26-.14.06-.29.15-.43.22.39.21-.22.55-.12.81-.16.04-.29-.5-.08-.51l.01.07c.25-.66-.45-.38-.35-.84-.87-.14-1.73-.54-2.62-.49l.15.53-.29.01c-.09-.12-.16-.41.05-.42-.15-.29-.32.31-.3.43-.44-.16.05-.66-.07-.65l-.17.07.05.06c-.1.25-.07.47-.32.5-.18-.07-.16-.31-.22-.31-.01-.04-.03-.05-.1.01l-.38.05.27.38c-.1.24-.33.07-.03.49-.22-.33-.57-.27-.88-.16-.31.13-.56.33-.68.25-.06.37-.23.49-.49.6.11.04.39.44.18.5-.49-.89-.58-.13-1.17-.59.42.27-.47.53.18.88-.2.07-.25-.28-.52-.36-.09.6-.96.56-1.24 1.15.1.09.32.13.4.35-.24-.05-.48-.1-.72-.14-.02.14.55.51.06.44.11.03.27.09.27.18-.58.31-.76.92-.91 1.49-.16.58-.32 1.1-1.01 1.62.28-.12.29-.01.28.12.07-.07.32.05.5.06-.19.13-.38.27-.56.42.49.13 0 .54.48.61l-.08-.2c.55.21 1.26-.2 1.97-.1-.64-.26.99-.32.13-.73.15-.03.22.1.39.09-.3-.12-.33-.23-.16-.34l.07.03c.03-.44.39-.53.75-.86l-.34-.11c.09-.07.2-.05.3-.05-.44-.34-.15.24-.65-.1.71.18.35-.68 1.12-.33.08-.12-.37-.18-.29-.31l.21.09-.22-.19c.09-.07.36.06.51.16-.03.01 0 .08 0 .11.29.06.13-.32.23-.31l-.19.03c.07-.47.63-.61.63-1.21l-.13-.11c.05-.45.32-.01.51-.34l.01.04c-.04-.18 0-.3.09-.34.03.21.34.24.36.48.12-.46 0-.31-.09-.97l.18.22c-.04-.26-.09-.38.05-.53-.04.28.28.33.27.69.55.39.29-.77.74-.01-.08-.79-.44-.29-.41-.48-.17-.2-.06-.59.09-.57.13-.04.5.88.76.79-.03 0-.02.06-.04.06.15.17.14-.32.34-.02-.01-.47.17 0 .1-.59l-.25.18c.12-.17.18-.89.5-.6-.01.12-.07.29-.11.39.1.16.13-.14.23.03.04.58-.32.18-.4.65.11.24.23-.47.24.18.01-.83.27.06.41-.56l.01.36c.03-.06.08-.23.14-.22l-.08.47c.14-.4.28.32.41.12-.29 0-.06-.44-.19-.69.41-.46.2.94.59.79-.05.04-.18-.22-.08-.38.07.07.16.22.18.42.27-.03.01-.37.15-.57.03.44.16-.15.32-.27l-.07.36c.26.29.24-.72.48-.37l-.24.46.18-.09-.13.39c.23-.25.27-.18.37-.01.04-.26.22-.62.37-.57.02.24-.17.3.04.33-.13.19-.27.45-.24.1-.05.11-.12.2-.16.31.01.27.21.14.27.16a.133.133 0 0 1-.04-.1c.15-.13.3-.24.46-.35-.01.14-.09.23-.17.31.07-.01.17-.14.27-.13-.15.25-.28.53-.44.61l.37-.18c-.04.12-.05.37-.13.45.02.22.58-.32.62-.02.04-.04.09-.07.14-.08.11.18.01.52.42.36l-.27.47c.2.02.32-.6.67-.55.27.02-.26.37-.31.52.24-.12.78-.34.58.08-.08-.03-.05-.11-.12-.13zm1.27 1.71c-.09-.02-.33-.01-.14-.11.4-.1.23.01.14.11zm.97 3.49c-.11-.07-.04-.1.11-.13.02.05 0 .1-.11.13zm-9.2 6.87l.01-.01c.1.18.07.11-.01.01zm-.24-.26c-.05.04-.06.08-.07.14.05-.08.12-.06.19-.01.01-.1 0-.17-.12-.13zm1.1-16.69l.08.08c-.11.13-.09.03-.08-.08z"/><path class="st2" d="M124.14 45.53c.06 0 .13.01.2.02a.275.275 0 0 0-.2-.02zM121.2 40.14v-.01l-.05.05zM119.26 50.1c.05.05.09.11.11.17-.01-.09-.05-.16-.11-.17zM113.3 52.46l.23.03c-.1-.04-.09-.12-.1-.2-.04.07-.07.2-.13.17zM113.36 49.71c-.05.02-.04-.03-.09-.01l-.11.13c.09.05.23 0 .2-.12zM113.78 51.35c.15-.27 0-.23-.13-.26.01 0 .01.01.02.01-.28.33-.08.3.11.25zM113.62 51.07c-.04-.01-.08-.03-.1-.06-.11.13.02.06.1.06zM114.64 52.7c-.03-.1-.2.34-.18.21-.22.32.6-.24.18-.21zM114.25 50.46l-.17.33.22-.22zM114.9 51.15l-.12-.17c-.03.06-.07.08-.11.09.11.06.19.18.23.08zM114.68 51.06c-.05-.03-.1-.06-.16-.02.03.01.09.04.16.02zM114.52 50.49v.09l.1.09zM116.8 51.87l.22-.07c.04-.12 0-.21-.08-.17-.06.08-.15.12-.14.24zM116.47 50.73c.03.09.01.17 0 .3l.13-.45-.13.15zM117 50.75c.05-.12.31-.33.1-.33-.04.13-.24.2-.1.33zM119.77 51.3l-.05.02.17.74zM121.11 48.79c-.24-.07.22.42-.04.31.06.18.21.09.26.24 0-.22.1-.16-.22-.55zM121.33 49.34c0 .03 0 .08.01.13.01-.06 0-.1-.01-.13zM109.19 43.89l-.17.19.27-.12zM109.74 44.26l-.49.04.44.11c-.02-.04-.06-.12.05-.15zM122.71 43.14l.11-.02c.12-.05.12-.08.13-.13l-.24.15zM122.48 41.76l.01.03.35-.28zM121.35 41.24c.02.04.12.01.14.06-.11-.02.23-.46-.14-.06z"/></g><g id="EeQfo3_1_"><path class="st3" d="M91.64 39.11c-.04-.03-.09-.04-.1-.09-3.31-1.1-6.62-2.21-9.93-3.31-.02.06-.07.03-.1.03-.53.03-.9.51-.78 1.03.08.34.33.52.64.62 1.11.37 2.21.74 3.32 1.11.59.2 1.12.5 1.57.93.48.46.73 1.03.72 1.7 0 .17-.01.17-.16.11-2-.67-4.01-1.34-6.01-2.01-.08-.03-.15-.05-.23-.07-.59-.11-1.11.41-.99.99.07.36.29.57.64.68 2 .66 3.99 1.33 5.99 2 .14.05.14.05.05.16-.29.33-.65.55-1.06.68-.65.2-1.3.18-1.94 0-.96-.27-1.89-.62-2.83-.92l-.21-.06c-.39-.08-.8.13-.94.49-.18.45.02.93.47 1.1.27.1.55.18.82.28.68.24 1.38.42 2.03.72.38.18.72.41.98.74.39.49.5 1.07.51 1.68.01.52-.05 1.05-.1 1.57-.05.61-.11 1.22-.14 1.83.58.14 1.05.44 1.39.83.16-.02.32-.04.49-.04.07 0 .14.02.21.02.04-1.01.13-2.01.22-3.01.05-.58.07-1.17-.03-1.75-.12-.67-.37-1.28-.87-1.76-.03-.03-.08-.05-.06-.09.02-.04.07-.02.11-.03.61-.04 1.18-.2 1.72-.48.45-.24.85-.56 1.17-.97.19-.25.19-.25.48-.15.35.12.7.24 1.05.35a.855.855 0 0 0 1.11-.83.84.84 0 0 0-.59-.79c-.36-.13-.72-.24-1.08-.36-.08-.03-.11-.06-.09-.15.11-.62.11-1.24-.07-1.84-.01-.03-.03-.06 0-.09.03-.02.06 0 .09.01.56.19 1.12.37 1.68.56.21.07.43.11.65.03.32-.12.5-.36.54-.68a.931.931 0 0 0-.34-.77z"/></g><path class="st5" d="M72.36 84.59c5.93 1.62 8.02 2.55 13.07 5.44M52.78 82.35s3.31-.29 8.43.2"/><g><path class="st3" d="M73.95 35.32a.986.986 0 0 0-1.39-.23c-6.45 4.59-7.53 10.74-7.56 14.19.36-.16.78-.26 1.26-.26.26 0 .51.03.74.09.07-3.05 1.09-8.38 6.72-12.39.44-.33.55-.95.23-1.4z"/></g></svg>