<svg version="1.1" id="Layer_1" xmlns="http://www.w3.org/2000/svg" xmlns:xlink="http://www.w3.org/1999/xlink" x="0" y="0" viewBox="0 0 144 144" xml:space="preserve"><style type="text/css">.st0{opacity:.35}.st1{fill:#f15c68}.st2{clip-path:url(#SVGID_3_)}.st3{fill:#2c51a3}.st4{opacity:.18}.st5{clip-path:url(#SVGID_7_)}</style><g class="st0"><path class="st1" d="M71.69 76.93l-28.06-.08a2 2 0 0 1-1.99-2.01l.08-28.06a2 2 0 0 1 2.01-1.99l28.06.08a2 2 0 0 1 1.99 2.01l-.08 28.06c-.01 1.1-.91 2-2.01 1.99z"/><path class="st1" d="M71.69 77.43l-28.07-.08c-1.38 0-2.5-1.13-2.49-2.51l.08-28.06c0-1.38 1.12-2.49 2.5-2.49h.01l28.06.08c1.38 0 2.5 1.13 2.49 2.51l-.08 28.06c0 1.38-1.12 2.49-2.5 2.49zm0-1c.83 0 1.5-.67 1.5-1.5l.08-28.06c0-.83-.67-1.5-1.5-1.5l-28.06-.08c-.82 0-1.5.67-1.5 1.5l-.08 28.06c0 .83.67 1.5 1.5 1.5l28.06.08z"/><g><path class="st1" d="M72 79.35c-.41-.02-.26.39-.32.47.74-.12.28-.58.32-.47z"/><path class="st1" d="M70.44 80.53l.76-.92c.01-.17.05-.39.24-.56.07-.07.18-.14.34-.17l.18-.15.31.18c.18.11.35.37.34.65l.11.32-.2-.01c-.1.18-.31.37-.76.44l-1.32.22zm1.54-.69l.02-.49-.02.49zm-.37-.35c-.01.05 0 .1.02.15.01.01.01.02.02.04l-.03-.19h-.01zM75.17 74.89c.06.02.11.03.17.06l-.42-.45.25.39z"/><path class="st1" d="M77.45 76.5l-2.61-1.19-.34-.54.8-.61zM75.19 72.05c-.71.27.11 1.03-.14 1.54l-.16.08.57.23c-.09-.62-.47-1.42-.27-1.85z"/><path class="st1" d="M76.08 74.69l-2.4-.96.91-.46-.07-.24c-.1-.31-.36-1.12.5-1.44l1.14-.42-.51 1.1c-.06.12.07.6.14.85s.13.49.17.72l.12.85zM76.74 70.54c-.28.09-.24-.33-.09.35.03-.03.05-.04.07-.06 0-.06 0-.15.02-.29z"/><path class="st1" d="M76.4 71.91l-.24-.91c-.04-.17-.06-.26-.08-.29l-1.76-4.13L76.78 70l.56-.19-.11.8c-.02.11-.02.16-.01.18l.02.25-.19.17-.65.7z"/><path class="st1" d="M76.72 70.83c.02.3.24-.2 0 0z"/><path class="st1" d="M76.76 71.43c-.03 0-.06 0-.09-.01-.07-.01-.42-.1-.45-.56l-.02-.25.19-.16c.36-.3.66-.1.72-.06l.32.24-.16.44c-.09.22-.29.36-.51.36zM76.57 69.44l.25.4c.16-.08.2-.43.32-.3-.14-.41-.3-.33-.57-.1z"/><path class="st1" d="M78.35 71.63l-1.25-1.38c-.02.01-.04.03-.07.04l-.41.2-.72-1.15.33-.28c.16-.14.46-.39.83-.29.37.1.49.48.54.6l.75 2.26zm-1.62-1.96l-.07.02c.01.01.05.03.1.04l-.03-.06z"/><path class="st1" d="M76.05 69.07l.1.2c.07-.03.09-.09-.1-.2z"/><path class="st1" d="M75.93 69.95l-1.11-2.17 1.47.86c.1.06.41.24.4.59l-.01.3-.75.42zm-.23-.77c-.02.19.09.32.13.35l.14-.29-.27-.06zm.22-.35l.12.24-.12-.24z"/><path class="st1" d="M76.37 69.71l-.22-.43c-.12.06-.35.06.08.2-.21-.04-.01.04.14.23z"/><path class="st1" d="M78.97 73.71l-2.98-3.69c-.04-.04-.08-.08-.11-.1l-.13-.11a.54.54 0 0 1-.16-.14.504.504 0 0 1-.11-.31c0-.14.05-.4.43-.53l.44-.22.46.87 2.16 4.23z"/><path class="st1" d="M76.26 69.95c-.16.22-.25.51-.5.11.1.76.6.65.5-.11z"/><path class="st1" d="M76.06 71.08c-.08 0-.17-.02-.25-.05-.17-.07-.46-.28-.54-.9l-.29-2.28 1.01 1.63.61-.86.17 1.27c.06.48-.05.85-.31 1.06-.13.08-.27.13-.4.13zM74.45 71.9l-.21.3.24.26c-.12-.13.2-.57-.03-.56z"/><path class="st1" d="M74.12 72.8l-.52-.55.58-.82.5-.04.23.22c.2.24.12.52.07.69-.02.06-.03-.07-.13-.18l-.04.04.05.04-.21.3-.12-.08-.41.38zM76.94 66.99c-.15-.03-.41.13-.6.16l.17.29c.11-.15.21-.43.43-.45z"/><path class="st1" d="M76.48 68.36l-.95-1.6.74-.11c.03 0 .11-.04.16-.06.17-.07.37-.14.59-.1l3.91.66-3.86.33c-.02.03-.04.06-.05.09-.03.06-.07.11-.1.16l-.44.63z"/><path class="st1" d="M76.34 67.15l-.26-.44c-.03.39.1.46.26.44z"/><path class="st1" d="M76.29 67.65c-.24 0-.4-.11-.47-.18-.28-.26-.24-.67-.23-.8l.13-1.56 1.44 2.43-.74.11h-.13zm-.01-.92l.23.02c-.07-.06-.17-.11-.24-.09l.01.07zM75.25 69l.55.71-.55-.85z"/><path class="st1" d="M75.4 70.02l-.64-.84-.1-2.16 1.56 2.42zM76.97 65.32l.35.25-.53-.44z"/><path class="st1" d="M77.03 65.98l-.43-.32-.18-.19.69-.73.53.45zM76.91 64.22c.29.18.49-.25.67-.06-.05-.3-.3-.56-.52-.79.12.25.09.51-.15.85z"/><path class="st1" d="M78.35 65.74l-.97-1.05c-.2.08-.46.13-.75-.05l-.45-.28.3-.43c.16-.23.13-.29.11-.33l-1.51-2.97 2.32 2.4c.26.27.58.6.66 1.05l.29 1.66z"/><path class="st1" d="M76.73 62.99c.07.12.19.25.33.39-.07-.14-.17-.26-.33-.39z"/><path class="st1" d="M79.09 66.22l-2.4-2.5c-.17-.17-.3-.32-.4-.49L75.03 61l2.01 1.59c.2.16.35.34.46.55l1.59 3.08zM76.16 65.97c.09-.03.33-.1.43-.34l-.43.17c.01.05 0 .11 0 .17z"/><path class="st1" d="M75.66 66.67v-.72l.02-.43.3-.19 1.53-.61-.46 1.1c-.18.43-.56.56-.71.61l-.68.24z"/><path class="st1" d="M76.15 65.8l.01-.01c.01-.19.02-.32.02-.37.01.05 0 .17-.03.38z"/><path class="st1" d="M75.58 66.62l.12-1.24.27.02-.03-.05.02-.01.02.06.71.06-.04.67z"/><path class="st1" d="M76.16 66.01v-.04c-.04.02-.06.03 0 .04z"/><path class="st1" d="M76.63 66.64l-.96-.26-.06-.72 1.09-.44zM75.64 67.85c-.24-.26-.49-.79-.86-.28.3.19.51-.1.86.28z"/><path class="st1" d="M75.28 68.19c-.04-.05-.06-.06-.06-.06-.21.01-.44.02-.7-.14l-.45-.28.31-.43c.2-.28.43-.42.7-.43.41 0 .67.31.84.53.03.04.07.09.1.12l-.74.69zM75.62 66.22l-.1.46c.11-.01.28-.09.4.04l-.3-.5z"/><path class="st1" d="M78.78 70.54l-3.12-3.37c-.04.01-.07.01-.09.01l-.67.05.5-2.36 3.38 5.67z"/><path class="st1" d="M75.49 66l.13.22.04-.17z"/><path class="st1" d="M75.84 67.58l-1.46-2.47 1.87.61zM76.33 63.78c-.19-.2-.2-.42-.23-.67-.08.26-.13.54-.13.8.13.04.37.15.36-.13z"/><path class="st1" d="M76.2 64.46c-.14 0-.26-.04-.33-.06l-.35-.11-.05-.38c0-.31.05-.64.16-.95l.7-2.19.27 2.28c.03.25.04.32.1.39l.12.13.01.18c.02.33-.15.51-.24.58-.13.1-.27.13-.39.13zM76.21 64.76l-.02-.04c-.04.02-.06.05.02.04z"/><path class="st1" d="M75.87 65.29l-.32-.71.8-.62.63 1.2zM76.11 60.68l-.08.04.07.01z"/><path class="st1" d="M76.56 61.29l-2.17-.27 2.21-1.14.01.84zM75.89 63.95c-.08.2.02.32.15.43-.04-.15-.07-.31-.07-.48-.06-.01-.1-.01-.08.05z"/><path class="st1" d="M76.99 65.86l-1.27-1.1c-.32-.28-.38-.56-.35-.8l-.05-.15.41-.48.73.18.01.37c0 .11.02.23.05.35l.47 1.63zM76.53 62.31c-.09.1-.17.22-.24.34.14-.1.35-.31.24-.34z"/><path class="st1" d="M74.67 64.49l1.19-2.09c.09-.15.18-.3.29-.42l.22-.25.6.2.08.33c.02.1.06.4-.46.79l-1.92 1.44zm1.39-2.15c0 .04 0 .09.02.14l.07-.02-.09-.12zM76.3 64.65c.01.01.01.02.02.03.09-.06.05-.06-.02-.03z"/><path class="st1" d="M76.07 65.47l-.2-.56-.34-.47.99-.42.29.37.21.39z"/><path class="st1" d="M76.3 64.65c-.06-.1-.17-.18-.26-.26.03.12.08.23.14.33.03-.03.08-.05.12-.07z"/><path class="st1" d="M76.05 65.47l-.29-.48a1.68 1.68 0 0 1-.21-.47l-.44-1.61 1.25 1.1c.14.12.27.23.36.38l.3.5-.53.22-.19-.46.18.47-.43.35zM73.37 59.93c.4.04.76.56.33 1.01.3.45 1.6.16 2.33-.23-.17-.01-.33-.01-.57-.47-.22.16-.51 1.01-.87.63-.2-.61.14-.5.35-.79-.49.25-.72-.77-1.44-.64l.25.53c-.1.01-.28-.18-.38-.04z"/><path class="st1" d="M74.34 61.67c-.45 0-.84-.12-1.06-.45l-.22-.33.27-.29c.03-.03.06-.07.05-.1l-.86-.08.43-.77c.02-.02.04-.05.06-.07l-.24-.51.65-.12c.64-.12 1.03.29 1.27.53l.12.12 1.72-.87-.75 1.05.13.25c.09.17.13.21.14.21l1.71.14-1.49.79c-.43.21-1.24.5-1.93.5z"/><path class="st1" d="M75.99 61.59l.05.19c.07-.21.23-.37.54-.65-.19-.31-.34-.38-.47-.4l-.06.93-.06-.07z"/><path class="st1" d="M75.98 63.57L75 59.79l.62.67.02-.31.55.09c.33.05.58.25.82.63l.22.35-.31.28c-.21.19-.33.3-.38.39l-.06.97-.19-.21-.31.92z"/><path class="st1" d="M76.03 62.62c-.43-.15-.61-.6-1.08-.33.03.55.36.39.54.72-.1-.89.24.26.49-.39.07.18.09.33.11.48.05-.16.12-.32.2-.46l-.03.02h-.01c-.05.04-.09.05-.06.01-.01 0-.01-.01-.01-.02-.04.01-.09-.01-.15-.03.09-.26.11-.04.16.04.02 0 .04.01.06.01h.01l-.23-.89c-.06.19-.04.42 0 .84z"/><path class="st1" d="M76.29 65.43l-.27-.47-.15.46-.11-.92-.69-1.23c-.33-.19-.58-.4-.61-.94l-.02-.3.26-.15c.32-.19.6-.18.82-.11.01-.05.02-.09.04-.13l.53-1.64.48 1.84 1.26-.95-.9 1.65-.09.16.3.6-.54-.07.01.13-.07-.02-.38 1.15.13.94zM73.86 67.1c.04-.03.07-.03.1-.03-.05-.06-.09-.08-.1.03z"/><path class="st1" d="M73.25 68.16l.14-1.43.34-.18.31-.1.29.28.7.77-.96.07z"/><path class="st1" d="M74.12 66.73c.06.07.23.12.19.33-.13.18-.21 0-.35.01.11.13.31.45.52.05l-.06-.06c.15-.36.69-.82.75-.76-.39.1-.67.19-1.05.43z"/><path class="st1" d="M74.26 67.81c-.33 0-.55-.26-.64-.37l-.62-.75.36-.04-.01-.01.51-.32c.4-.25.72-.36 1.04-.46.05-.03.11-.04.15-.05l.27-.05.78.81-.8.22h-.02c-.08.06-.19.17-.28.28l-.08.29c-.18.35-.42.44-.59.46-.03-.01-.05-.01-.07-.01zM74.97 64.65l-.21-.74-.37.38.22-.02c-.09.42.19.33.36.38z"/><path class="st1" d="M75.7 65.4l-.87-.27c-.17-.02-.43-.05-.61-.29a.138.138 0 0 1-.03-.04l-1.12.09L75 62.94l.22.77h.01v.02l.47 1.67zM76.32 60.59l.46.1-.64-.43z"/><path class="st1" d="M79.23 61.74L76 61.03l-1.33-2.36zM76.27 59.63l.4.03-.24-.25z"/><path class="st1" d="M77.93 60.28l-2.57-.24 1.02-1.42zM44.07 54.27l.11.22a.89.89 0 0 0-.11-.22z"/><path class="st1" d="M43.73 54.72l-2.23-4.36 2.95 3.6c.08.1.15.23.2.38l-.92.38zM44.1 52.69l-.19-.04c.1.08.18.11.19.04z"/><path class="st1" d="M44.06 53.23c-.2 0-.37-.11-.44-.16l-2.03-1.39 3.06.62-.1.74-.28.15c-.07.02-.14.04-.21.04zm.01-1c-.06 0-.14.01-.22.05l.13.26.2-.29c0-.01-.04-.02-.11-.02zM63.92 42.36c-.32-.37-.67-.94-.63-.5l.1.43c.21-.07.38-.02.53.07z"/><path class="st1" d="M66.55 44.66l-2.9-1.88c-.04-.03-.05-.03-.1-.01l-.53.18-.22-.98c-.05-.52.19-.68.34-.73.41-.16.68.18.96.54.07.09.14.18.21.26l2.24 2.62zM47.65 44.91l.09.13c.08-.15.15-.29.22-.41-.09.08-.2.17-.31.28z"/><path class="st1" d="M47.81 46l-.82-1.17 2.74-2.51z"/><g><path class="st1" d="M47.42 46.7l-.42-.28c.1.1.23.19.42.28z"/><path class="st1" d="M47.21 47.15c-.24-.11-.42-.24-.57-.39l-3.25-3.37 4.31 2.89-.49.87z"/></g><g><path class="st1" d="M44.5 62.92l.44.26c0-.4-.22-.23-.44-.26z"/><path class="st1" d="M45.44 64.05l-3.45-2 2.57.38c.18-.02.43-.05.65.15.23.21.23.51.23.61v.86zm-.98-.87h-.02c0 .01.01.03.01.04l.01-.04z"/></g><g><path class="st1" d="M76.14 49.72c.17-.27.24-.49.26-.68-.25.33-.62.6-.26.68z"/><path class="st1" d="M76.37 50.3l-.35-.09c-.35-.09-.46-.31-.5-.43-.11-.36.13-.63.32-.85.05-.06.11-.13.17-.19l1.1-1.45-.2 1.81c-.03.29-.14.58-.34.89l-.2.31z"/></g><g><path class="st1" d="M39.46 53.64c.08.13.17.19.26.19-.07-.14-.15-.22-.26-.19z"/><path class="st1" d="M39.72 54.33c-.17 0-.47-.06-.69-.44l-.33-.57.63-.17c.12-.03.55-.1.83.44l.38.7-.8.03c0 .01-.01.01-.02.01zm-.18-.4l-.25.14c.02.02.16.1.31.06l-.06-.2zm.17-.44v.01l.19-.1-.01-.01-.18.1zm.01-.16h-.01l.01.17.18-.1a.248.248 0 0 0-.18-.07z"/></g><g><path class="st1" d="M76.4 47.9c-.04.09-.07.17-.1.25.04.16.07.33.09.51.02.17.03.24.01.37a.76.76 0 0 0 .12-.19c.03-.05.05-.13.06-.27a.992.992 0 0 0-.18-.67z"/><path class="st1" d="M75.72 50.75l.19-1.77c.01-.08.01-.1-.01-.26a4.84 4.84 0 0 0-.08-.46l-.03-.16.06-.15c.05-.14.08-.21.12-.28l.37-.73.48.67c.2.28.3.63.27 1-.01.2-.05.36-.13.49-.03.05-.08.15-.15.23l-1.09 1.42z"/></g><g><path class="st1" d="M59.91 74.42c.02.02.05.03.07.05 0-.05-.03-.06-.07-.05z"/><path class="st1" d="M60.35 75.62l-.74-.81-.78-.66 1.22-.27.44.35-.02.3-.12 1.09zm-.87-1.2l.44.05-.44-.05z"/></g><g><path class="st1" d="M69.02 78.83c-.09.03-.24.03-.37.03.07.03.18.03.37-.03z"/><path class="st1" d="M68.76 79.38c-.1 0-.21-.02-.31-.06l-1.99-.87 2.17-.09c.15 0 .21 0 .26-.01l.28.96c-.12.03-.26.07-.41.07z"/></g><g><path class="st1" d="M76.47 55.74c.03.2.05.03 0 0z"/><path class="st1" d="M76.83 56.37l-.39-.04c-.15-.02-.41-.11-.46-.53l-.15-1.11 1.25.85-.25.83z"/></g><g><path class="st1" d="M74.75 56.73a.312.312 0 0 0-.21-.08c.11.01.17.04.21.08z"/><path class="st1" d="M74.5 57l.07-.86c.19.01.35.07.49.19.01.01.02.02.03.02l-.57.63v-.01l-.02.03z"/></g><g><path class="st1" d="M73.59 46.25v-.02c-.06.12-.05.1 0 .02z"/><path class="st1" d="M73.7 46.96l-.82-.48.91-1.63.34 1.5-.14.2-.26-.18.24.21z"/></g><g><path class="st1" d="M76.27 56.05c.05-.08.1-.17.13-.26-.03.04-.07.11-.13.26z"/><path class="st1" d="M74.35 59.66l1.45-3.79c.07-.19.14-.31.21-.4l1.73-2.13-.87 2.61c-.05.14-.11.27-.19.39l-2.33 3.32z"/></g><g><path class="st1" d="M76.48 56c-.02.07-.03.13-.04.18.07.03.11.01.04-.18z"/><path class="st1" d="M76.64 56.76l-.79-.26.48-2.04.61 1.35c.12.3.1.54-.07.71l-.23.24zm-.48-.94c-.15.14-.16.33-.14.4l.32-.15-.18-.25z"/></g><g><path class="st1" d="M76.45 55.45c.01.12-.01.23-.05.33.03-.04.05-.06.07-.05 0-.05-.01-.14-.02-.28z"/><path class="st1" d="M75.09 58.45l.83-2.81a.61.61 0 0 0 .03-.17h.06l.11-.15.47-.11.18.13-.07.1.25-.02.11 1.37-.5-.37-1.47 2.03z"/></g><g><path class="st1" d="M43.92 75.49v.05c.24-.15.17-.13 0-.05z"/><path class="st1" d="M43.33 76.5l.1-1.32.28-.14c.48-.23.7-.05.81.15.16.28.05.54-.33.78l-.86.53z"/></g><g><path class="st1" d="M58.57 46.85c.01 0 .01-.02.02-.02l-.03-.02.01.04z"/><path class="st1" d="M58.2 47.58l-.31-1.68 1.74.9-.84.5-.59.28zm.17-1.16l-.01-.02.01.02z"/></g><g><path class="st1" d="M57.83 47.17c.32-.54.49-.47.73-.36l-.24-1.25-.49 1.61z"/><path class="st1" d="M56.11 51.11l2.32-7.63.81 4.21-.88-.43c-.02.03-.06.08-.1.15l-2.15 3.7zm2.31-3.91z"/></g><g><path class="st1" d="M44.18 58.06l.39-.52c.64.63.42 1.08.97.59-1.36-.08-.13-2.01-1.49-2.09l.29-.34c-.01.1.07.11.05.21.65-.66-.98-.5-.78-1.35.1-.3.3-.5.46-.3l-.33-.66c.03-.19.26-.15.24.05l-.11-1.01.04.01c-.21-.14-.54-.47-.68-.63.2-.26.14.13.31.06l-.33-.56c.35-.23.69.24.64.62 1.36-.52-.34-.47.45-1.59l.17.53c.77-.34.49-.75.98-1.35-.25.14-1.21 1.19-1.55.58.1-.17.15-.4-.12-.73.48 0 .37-.32.34-.72l.64.03a.83.83 0 0 0-.16-.25c-.07-.02-.13-.03-.2-.04-.14-.03-.29-.06-.44-.13.06-.2.56-.11.98-.01.05-.04-.15-.1-.37-.14-.23-.05-.48-.06-.54-.27.25-.14-.05-.4-.13-1.02.34.04.3.35.51.46-.11-.18-.2-.37-.28-.56.05-.01.15.14.21.22-.01-.25-.48-.61-.29-.89-.18-.36.19-.15.49.1.32.25.54.48.64.08.12.18.03.39.1.64.29-.52.41-.38 1.09-1.08l.63.42c-.46-.48.13-1.05.65-1.51-.16-.23-.3-.44-.4-.53l.82-.34c.1.11.02.32-.12.59.06-.05.11-.1.15-.15.29.24.14.61-.07.96-.1-.13-.2-.26-.3-.4-.2.39-.4.82-.35 1.19.05-.07.16-.14.27-.17-.05.11-.09.2-.06.26.03.07.11-.07.25-.24l.19.71.05-.28 1.08.45c.77-.72 1.45-1.77 2.67-2.06-.31.52-.07.85-.09 1.47-.33-.66-.95.28-1.58.14.33.07.26.36.17.47l1.13-.59c-.03.51.24.38.53.59-.22-1 .85-.66 1.31-.97.03.34-.08.68-.65.6.62.76.8-1.17 1.41-.53-.14.01-.21-.04-.27.13.32-.3 1.1-.06.92.23l-.14.01c.91.12 2.77.02 2.91-.83.01.11-.12 1.03-.18 1.2l1.63-2.86c-.15.73.4 2.47-.36 2.88.22.1.48.23.94-.03-.15-.1-.37-1.06-.16-1.12.55.82.38.44 1.07 1.13-.22-.16.03-1.3.38-1.26-.06.17.03 1.13-.1 1.25l.88-1.12c-.22.2-.04.95.15 1.27-.09-.22.75.02.99-.09l-.37-.26c.98.17.98-1.58 1.95-1.52-.12.23-.3 1.43.2 1.57.23-.58 1.02-2.77 1.88-3.21l.16.33.66-.37c-.42.87-1.58 2.69-2.21 3.39.37.26.1.39.65.36.19.31-.3.47-.46.48l1.28.2c-.06-.67.98-.67.94-1.23l-1.4.69c-.05-.67.81-1.91 1.72-1.78.23.27-.18 1.2-.16 1.42.12-.23.87-.44.95-.28l-.39.36c.51.25.83-.89 1.44-.25.09.02.3.24.36.4.05.16.08.27.1.07-.03-.77-.26-3.14.09-3.72.05.03.41.21.73.44.33.22.59.5.64.69.07.29-.24.65-.47 1-.24.35-.42.68-.42.94.06-.18.27-.41.35-.48.08.16-.29.57.02.49.4-.7.56.18.45-.56.45-.12.26.22.58.4.13-.23.49-.52.92-.68.45-.18.84-.1 1.03.08-.16.08-.29.3-.38.42.13.47-.02.89-.1 1.25-.09.37-.17.69-.17 1.09-.17.06-.37.49-.66.31.12.13.35.25.37.53-.59.53-.09-.62-.8-.21.4.04.54.72.79 1.11.61-.12.12-.91-.13-1.31.84 0 1.73.69 2.11 1.63.21.75-.55.32-.43.45-.15 1.4 1.47 1.2.86 2.36-.54.46-1.07.02-1.46.12-.2-.61.34-.93.32-1.34l-.26.51c-.18-.19-.31-.6-.16-.82-.48.39-.1 2.36-.55 3.44.18.19.37.52.58.37l-.07-.34c.43-.31.6.64.8.21.3.46.78.97.53 1.62l-.61.12c.18-.01.37-.42.18-.6.27.27-.83.99-.03 1.28l.43-.45c.31.46.96 1.03.76 1.6.61-.26-.07-.13.64-.54-.88.35.04-1.46-.89-.9.82-.41.35-.72 1.05-1.26-.2.02-.39.19-.29-.29a.67.67 0 0 1-.18-.11c.01-.01.01-.02.02-.03l-.02.03c-.03-.02-.04-.02-.01.01-.09.11-.2.21-.31.24-.46-.24-.45-1-.69-1.26.1-.28.23.12.45-.04l-.36-.39c.45-.04.75-.75 1.01-.08l.02-.6c.25-.35.35-.84.17-1.15.1-.28-.5-.72-.14-.47l-.28-.95.11-.01c.03-.47-.15-.95-.25-1.45-.05-.25-.07-.5-.03-.76.02-.13.06-.26.11-.39.06-.16.13-.41.24-.63-.12-.51-.21-1.01-.19-1.85l.42-.31c-.12-.29-.15-.78-.28-1.21-.13-.43-.34-.79-.58-.77.21-.61-.35-1.33-1.16-1.72-.81-.42-1.75-.45-2.36-.59l-.2.5c-.4-.04-.82 0-1.26.05-.22.03-.44.06-.66.1-.16.04-.29.09-.44.14l.04.45c-.52.37-1.34-.32-2.17-.28.06-.17.27-.13.41-.02-.99-1.02-2.09.73-2.98-.01-.22.16-.39.11-.54-.01.02 0 .04-.01.06-.02-.02-.01-.06-.01-.09-.01-.1-.08-.2-.17-.31-.24.09.11.18.2.26.24-.17.01-.43.06-.69.18l-.11-.48c-.02.01-.04.01-.06.01-.25-.18-.2.23-.07.59-.13.08-.25.17-.34.29-.2-.78-.67.26-.95-.57-.17.4-1.29.3-1.43 1.15-.01-.11-.08-.16.05-.17-.29-.1-.57-.2-.83.04l-.12-.61-.63.82c-.38-.37-.53-.59-.16-1.06-.91.72-.74.27-1.51.99l.04-.4c-.28.01-.72.54-.88.22-.62-.75-3.06-.11-4.64-.82.3 1.17-.74-.52-.8.38-.09-.28-.31-.43-.05-.67-.81.27-1.21-.44-1.78.32-.09-.28.17-.4.09-.57-.07.06-.26.24-.34.07-.08-.16.12-.23.25-.35-.83.04-.91.89-.98 1.69-.42-.38-.63-.33-.93.2-.15-.26-.39-.53.13-.63-.29-.04-1.76-.39-1.8.25-.07-.16-.54-.05-.62.02-.86-.03-.99-.12-1.78.03l.26.07c.01.78-.56.18-1.1.53l-.03-.07c-.81.11-.87.35-.95.47-.06.17-.16.25-.77.73l.43.21c.4.36.16.52-.11.78-.26.25-.62.66-.43 1.16l.28-.23c.17.27-.18.47-.59.78-.41.28-.88.76-.95.88-.09.07-.14-.11-.21-.26-.61 1.01.63.14.77.87-.34.13-.86-.17-.93.31-.28.24 1.1 1.41.44 2.07.26-.15.52-.29.72.05.09.51-.99 1.38-.17 1.85-.07.07-.14.09-.2.09.21.39.35 1.28.79 1.51-1.66.36.8 2.44-.73 2.43l.08 1.21-.16-.03c-.1.77.26 1.05.63 1.32-.1.18-.25.05-.33.03-.31 1.13-.25 1.24.51 2.19l-.5.1c.29.26-.78 1.63-.21 2.73a.326.326 0 0 1-.22-.12c.58 1.25-1.38 2.97.42 3.44l.44.82c.14-1.06.78.16 1.08-.28.1.42-.55 1.08-.64.56l.12-.06c-.94-.19-.34 1.32-.98 1.29.02 1.09-.11 1.87-.23 3.59-.04.77-.01 1.48.26 2.15.27.67.75 1.25 1.35 1.64.06-.25.13-.5.2-.74.23.19.49.34.75.45.13.22.01.64-.61.32.04.26.37.31.68.23.31-.07.6-.26.64-.34.55.22.39.41.06.56-.32.14-.76.18-.55.24.2.02.39.05.61.05l-.1-.1c.6-.23.72-.54 1.54-.51.51.15.23.45.44.48-.01.05.07.08.35.02l.89.07-.34-.58c.38-.28.81.03.41-.62.58 1.01 3.21.37 3.56.69.54-.42 1.06-.41 1.72-.36-.16-.12-.26-.77.31-.69-.21 1.34 1.03.58 1.48 1.55-.4-.64 1.6-.15.97-1.06.47.11.03.5.38.82 1.12-.52 2.46.34 3.85.17.02-.18-.21-.45.09-.71l.73.88c.27-.09.25-1.01.75-.4-.07-.15-.17-.37.01-.43 2.71.86 5.54-.69 8.28.93-.37-.34-.12-.37.16-.39-.18-.08.01-.43-.03-.67l1.15.67c.21-.66 1.23-.04 1.36-.67l-.37.11c.49-.75-.67-1.66-.6-2.62-.55.85-1.43-1.26-2.32-.05-.2-.2.17-.31.06-.53-.23.41-.5.49-1 .31l.06-.1c-1.42.1-2.03-.31-3.62-.58l.12.47c-.34-.06-.41-.21-.57-.33-.4.72.96.04.6.83-.45-.97-2.42-.02-2.72-1.12-.53-.01.15.55-.37.54l-.14-.3-.13.38c-.35-.06-.52-.44-.53-.69.08.03.24-.07.33-.09-.45-.35-1.26.12-1.42 0l.51.18c-1.44.27-3.2-.12-4.59.48l.1.22c-1.06.41-.85-.25-2.02-.06l.04-.05c-.23.22-.55.33-.86.31.3-.26-.55-.51-.17-.8-1.15.44-.57.35-1.33 1.18l-.2-.37c-.26.33-.28.51-.86.61.48-.32-.37-.57.17-.99-1.22-.81-1.82.81-2.37-.37-.56 1.02 1.06.57.74.79.26.34-.47.77-.85.66-.2-.01-.36-.34-.6-.66-.12-.16-.26-.32-.43-.44a.92.92 0 0 0-.28-.14c-.07-.03-.11-.05-.18-.05.05.01.06-.07.1-.07-.13-.26-.43.35-.54-.07-.36.62-.26-.03-.68.75.23-.05.44-.12.64-.18-.18.1-.44.39-.76.59-.31.21-.69.27-.83-.11.16-.12.47-.24.65-.33 0-.27-.41.04-.36-.28.33-.34.48-.3.66-.26.17.04.4.03.63-.27.06-.32-.77.54-.17-.3-.39.53-.52.45-.57.32-.07-.14-.07-.29-.54-.11l.45-.34c-.09.02-.36.1-.37-.01.22-.08.44-.18.65-.29-.29.11-.22-.09-.08-.25.14-.17.32-.3.17-.32.02.32-.58.31-.92.68-.33-.22-.01-.48.35-.65.16-.08.33-.16.51-.24.07-.04.12-.07.15-.11.01-.02.02-.04.02-.06 0-.06 0-.16-.02-.25.02.05.01.12-.02.2-.03.08-.07.06-.13.1-.11.04-.25.08-.36.03.02-.04.05-.04.09-.1.03-.08.07-.16.12-.23.09-.15.2-.29.32-.37-.1-.99-.49.15-.78-.27.58-.34-.23-.49-.42-.92h.48c.31-1.13-1-.3-.63-1.32l.67.43-.17-.53.55.11c-.41-.58-.3-.76-.14-1.32-.34.13-.88-.08-.89-.58.29-.34.46.19.39-.52.3.16.68.34.23.64.16.03.3.16.46.19.33-.37.08-.92.07-1.18-.02.1-.04.22-.11.28l-.67-1.03c.18-.16.33-.03.47.09-.05-.21-.27-.35-.31-.66.39.08.8.06.98.5l-.43-.98c.17-.06.47-.5.61-.37.23-.54-.76-1.33-.45-2.05-.08-.04-.15-.11-.2-.27.09-.67.57-1.27.04-2.07l.7-.45c-.16-.63-.89.61-1.15-.43-.22-.74.6-.27.8-.53-.35-.37-1.07-1.01-.5-1.69.13.22.03.39.08.6zm-.29-7.73c.1.15.41.45.13.56-.55-.17-.29-.3-.13-.56zm4.9-4.49c-.11.16-.28.08-.48-.1.14-.05.3-.03.48.1zm27.29 7.65l-.02-.02c.19-.33.12-.21.02.02zm-.21.69c.07.07.13.07.2.04-.12-.05-.13-.2-.1-.38-.12.04-.2.13-.1.34zM45.19 78.79l-.19-.13c.45-.13.32-.01.19.13z"/><path class="st1" d="M62.43 82.28L60 79.29c-.09.14-.21.27-.4.33l-.32.1-.25-.3-.34.04c-.69.09-1.35-.05-1.94-.17-.69-.14-1.28-.26-1.76-.04l-.3.14-.24-.22-.12-.12c-.12.03-.23.05-.34.07-.09.02-.23.04-.27.06.02-.01.1-.07.14-.18a.3.3 0 0 0 .01-.16l-.86.47c-.02-.04-.05-.08-.06-.12-.09-.14-.22-.19-.5-.27-.16-.04-.37-.1-.56-.22l-.28-.02c-.67-.05-1-.03-1.37.25l-.33.26-.31-.27c-.03.02-.43.03-.72.03-.68.01-1.52.04-2.17-.21-.01 0-.01.01-.02.01l.52.88-1.77-.13c-.24.04-.5.06-.7-.12a.57.57 0 0 1-.14-.13l-.05-.04v-.03a.751.751 0 0 1-.07-.18c-.25 0-.39.04-.55.13l.51.49-1.26-.02c-.16 0-.3-.02-.45-.03l-.65-.06-.04-.39a.887.887 0 0 1-.28-.07l-.02.09-.6-.39a4.031 4.031 0 0 1-1.54-1.87c-.33-.8-.34-1.61-.3-2.36.04-.6.08-1.07.12-1.49.07-.8.12-1.37.11-2.07l-.01-.54.36.02c.01-.05.01-.11.02-.15.02-.18.05-.4.14-.6l-.34-.64c-.38-.13-.64-.34-.79-.62-.29-.53-.09-1.13.1-1.71.16-.48.32-.97.16-1.31L37.4 61.6l1.85 2.32c.06-.29.15-.56.23-.78.03-.1.07-.22.1-.31l-.61-.54.7-.14c-.39-.59-.39-.98-.12-1.95-.23-.29-.39-.69-.31-1.31l.07-.53.04.01-.07-1.09h.53c-.03-.1-.08-.23-.12-.33-.17-.45-.39-1.02-.12-1.51a.92.92 0 0 1 .19-.25c-.12-.23-.21-.49-.29-.71-.05-.16-.1-.3-.16-.41l-.38-.71.22-.01c-.02-.36.15-.71.27-.95l-2.82 1.56 2.45-2.48c.13-.13-.16-.6-.31-.85-.19-.32-.45-.74-.25-1.09a.64.64 0 0 1 .08-.19.161.161 0 0 1-.04-.07c-.21-.37.04-.78.16-.98l.51-.84.22.53c.19-.18.4-.35.57-.46l.09-.07c-.16-.54.04-1.07.59-1.59l.06-.06-.97-.47.64-.49c.3-.24.57-.44.61-.5l.47.17-.42-.27c.13-.23.32-.46.84-.6l-.78-.22 2.08-.4c.64-.12.91-.1 1.35-.07.12.01.25.02.41.03.15-.06.32-.09.48-.1.02-.02.04-.04.06-.05.45-.36 1.23-.26 1.92-.14l.48.07c.14-.64.46-1.26 1.34-1.31l1.37-.07-.6.56c.11.01.21.03.3.05.21.04.37.08.58.01l.27-.09-.01-.02.03.01 1.88-.62-1.06.99.1.04c.68.3 1.6.32 2.42.34.94.02 1.77.04 2.26.46.01-.01.02-.01.02-.02.17-.1.36-.22.59-.23h.07l.23-1.43.11 1.41c.04-.02.07-.03.11-.04.14-.06.28-.11.67-.42l1.3-1.03.19-.34-.07.23 1.38-1.09-.11-.13.15.1.62-.49-.47.59 2.2 1.44.03-.01v.03l.4.26c.08.05.16.11.24.18l.18.04.2-.14.32.23c.02.02.05.04.07.05l.11.03c.14.01.33-.06.66-.21.55-.24 1.38-.6 2.14.14.03.01.05.01.08.02l.17-.1-.06.13.29.09c.13.04.29.1.43.13l-.03-.39.5-.16c.12-.04.22-.07.35-.11.27-.05.5-.09.72-.12.3-.04.64-.07.97-.07h.01l.23-.57.42.09c.16.04.34.06.53.09.57.09 1.29.2 1.95.54.91.44 1.46 1.17 1.47 1.88.22.19.39.5.52.92.07.22.11.46.15.69.03.18.07.37.11.47l.14.33-.45.4c0 .64.07 1.04.18 1.51l.04.17-.07.16c-.07.15-.13.33-.18.46l-.04.12c-.05.12-.08.21-.09.3-.03.17-.02.35.02.59.03.15.06.3.1.44.09.36.18.73.15 1.12l-.01.24.17.58c.08.14.16.3.17.48.05.12.08.25.08.38l.14.48-.16-.11c-.03.19-.1.38-.19.56l.41.16.7-.76-1.1 2.4.03.01-.01.12 1.41-.11-1.33 1.03c-.21.16-.25.26-.3.41-.04.11-.08.22-.15.32.05.18.05.37.05.52 0 .08 0 .21.01.25-.03-.11-.2-.21-.3-.19l.47.89c-.06.03-.1.06-.13.08-.08.28-.38.4-.56.48l-1.03.44.36-1.06c.05-.15-.14-.43-.33-.67l-.25.26-.31-.11c-.3-.11-.5-.29-.58-.54-.13-.39.09-.75.24-.99.04-.06.09-.15.1-.18-.02.05-.02.2.09.31l.08-.08v-.01l.05-.05-.01-.1c-.02 0-.04 0-.06.01l.2-.04.06-.07c-.03-.15-.13-.32-.28-.53a.62.62 0 0 1-.24-.08l-.01.01c-.37.26-.75.15-1.15-.33l-.31-.34.12-.3c.18-.44.2-1.13.22-1.74.03-.87.05-1.56.48-1.9l.43-.33-.03-.03.34-.66.06.01c-.15-.26-.35-.48-.56-.65.02.16 0 .31-.06.46-.06.14-.23.4-.63.47l-.34.07-.18-.29c-.08-.13-.16-.3-.24-.46-.07-.14-.17-.39-.24-.44l-1.58-.14 1.36-.73-1.12-1.21-.66 1.86v-1.63c-.02.01-.05.01-.07.01-.28.02-.47-.14-.58-.48-.02-.04-.06-.09-.09-.13l-.07-.02-.1-.11c-.01-.03-.1.04-.16.09-.22.18-.63.51-1.14.26l-.05-.02-.69 1.34-.06-1.12c-.07.04-.13.09-.14.12l.05.63-1.91-.29-3.71-.59 3.19-.35-.23-.07c-.18-.05-.42-.18-.56-.52-.05-.11-.08-.24-.1-.37-.09.15-.2.32-.34.46l.34.24-.77.37c-.23.11-.5.08-.79.06-.1-.01-.2-.02-.26-.02.05 0 .19-.05.28-.2l-.34-.21-.51.26c-.03-.06-.07-.13-.11-.22l-.06.08c-.02.04-.05.07-.09.1l-.49-.44-.01.01-.2 1.3-.07-.94-.13.16c-.04-.03-.08-.07-.11-.1l-.01-.01-.24.14c-.69.39-1.17.16-1.4.04l-.61-.29-2.43 4.26 1.45-4.46c-.81.25-1.8.22-2.28.15l.02-.39-.21.01c.02.02.03.03.04.03-.03-.02-.07-.02-.12-.03l-.09.01c-.01 0-.01 0-.02.01l-1.4 1.3.19-.59c-.11 0-.24-.03-.37-.11l.21.97-.56-.4-.02.62-.5-.99c-.03-.02-.07-.03-.12-.05-.13-.05-.27-.12-.38-.22l-1.9.99 1.23 1.28-1.61-1.08-.53.28.34-.41-.36-.24-.21 1.3-.45-1.74-.39-.26-.26.35-.07-.59-.49-.33-.25.24.09-.18c-.11.1-.2.16-.28.22-.17.13-.21.16-.32.37l-.39.71.42.69-.26-.13.01.05-.23.2.14.34 2.05-1.15-1.64 2.02c-.13.17-.19.31-.24.48-.1.3-.23.66-.78.95.06.12.11.28.06.47-.06.22-.22.37-.42.48l1.69 1.15-1.72-.31.02.21c.02.08.02.17.01.26l-.02.18.29.57.35-.41-.12.86 1.39 2.76.44.02-.3.26.26.51-.34-.44-.53.47c-.17.15-.42.38-.76.32a.527.527 0 0 1-.15-.05l.3.31-.26.34-.01.01c.02.01.05.02.07.03.13.06.3.2.38.5l.09.35-.63.4c.21.58.05 1.1-.07 1.49-.03.09-.05.18-.08.27l.36.18-.23.42c-.07.17.08.46.22.74.2.39.43.84.23 1.31l-.27.63-.09-.08.16.36c.01.01.01.02.02.04l-.63.27.18.73h.13c0 .04.02.1.03.16.06.32.18.91-.23 1.36l-.12.2c-.12.41-.12.42.11.75l.72 1.02-.94-.19.34 1.05-.44-.28-.03.12-.03.1.04.04c.09-.01.18 0 .28.04.37.16.42.61.44.82l.03.29-.06.04c.01.04.02.09.02.13.01.09.01.18.01.23l-.06.24 3.1-.82L45.22 74l.07.28c.06-.01.14 0 .21.02l.22.06.11.17.78-.23.35-.64.22.47 1.64-.49-1.47.85.03.06c.07.15.11.18.11.18-.02-.02.11-.07.2-.11.4-.17 1.06-.45 1.89.1l.27.18.26-.33.16.34c.18-.28.4-.4 1.07-.66l3.38-1.29-2.65 1.97.01.01c.05-.03.09-.06.13-.1l.28.25-.05-.33c.63-.1.96 0 1.27.13l.09.03-.04-.09.47-.2c.93-.4 1.95-.4 2.94-.4h.23l-1.93-1.44 3.16 1.15c.04-.01.09-.02.14-.04.09-.02.19-.04.29-.07v-.04l.08.03c.28-.05.61-.05.91.09l.15-.42.29.62c.09-.03.19-.03.3-.04h.38l.1.36c.05.18.28.22.9.24.08 0 .17.01.26.01.01-.03.03-.05.04-.08l.25-.45-.02-.08.75.13c.58.1 1.03.21 1.43.32.71.18 1.23.32 2.07.26l.59-.04.42-.77.35.75c.51-.07.99.26 1.24.43.07.05.17.12.24.16l1.02-1.58-.14 1.95c-.02.29.16.64.33.98.14.27.29.58.36.89l.43-.13-.16.82c-.15.74-.84.76-1.13.76-.08 0-.19 0-.25.02l.56.25-.68.03-.1.32-.45-.3-.25.01 2.98 2.74-4.06-2.4c-1.43-.84-2.89-.75-4.44-.65-.96.06-1.94.13-2.93-.04l1.55 3.3zm-6.82-4.15c.45 0 .9.09 1.34.18.37.08.75.15 1.12.17.01-.19.09-.4.32-.6l.39-.34.62.75c.08-.1.19-.19.34-.24a.59.59 0 0 1 .33-.22l.15-.04.15.05c1.08.35 2.19.27 3.38.2 1.42-.09 2.88-.19 4.35.45 0-.03.01-.06.01-.08.01-.05.02-.12.02-.15l-.15-1.03 1.68.98c.23-.15.5-.19.7-.2.09-.16-.03-.44-.25-.87-.12-.24-.25-.49-.34-.77-.3-.03-.56-.21-.79-.37-.52-.36-.55-.32-.72-.08l-.34.47-.4-.4c-.23.03-.48-.01-.77-.11l-.15-.05c-.76 0-1.34-.14-1.97-.3-.18-.05-.37-.09-.57-.14 0 .04.01.08.01.12l.08.34-.15-.03c-.01.03-.03.07-.04.1l-.45.99-.46-.98c-.08-.18-.43-.2-.92-.22-.37-.01-.84-.03-1.22-.22-.1.09-.23.14-.39.15l-.06.16-.42-.08a1.12 1.12 0 0 1-.79-.62l-.14.03c-.62.12-1.29.12-1.94.12-.73 0-1.43 0-2.05.16l.09.2-.5.19c-.69.27-1.03.17-1.38.03-.17-.07-.31-.12-.64-.08-.3.21-.67.3-1.04.27l-.85-.07c-.07.09-.15.18-.24.29l-.5.55-.18-.37c-.15.1-.36.17-.65.22l-2.29.37.56-.37c-.25.1-.51.14-.75.09-.36-.05-.57-.35-.77-.65l-.15-.21c-.1-.14-.2-.24-.29-.31l-.43.25c-.06.04-.13.1-.22.18-.15.13-.33.28-.52.4-.33.22-.71.3-1.02.2-.26-.08-.45-.28-.55-.56l-.12-.35.3-.22.09-.06c0-.02 0-.04-.01-.06l-2.35.86 2.34-1.8a.731.731 0 0 1-.22-.55c.02-.28.2-.52.53-.72l.27-.38c.01-.02.02-.03.02-.05a.722.722 0 0 1-.35-.28l-.3-.49.19-.11c-.13-.11-.27-.26-.35-.45l-.29-.69h.23c-.04-.04-.07-.09-.1-.14-.16-.3-.07-.63.01-.85l.22-.58.01.01v-.01l.51.1c0-.06 0-.12.01-.18a1.108 1.108 0 0 1-.71-.71l-.04-.01.03-.02a.925.925 0 0 1-.04-.29v-.19l.12-.15c.09-.1.18-.17.27-.22l-.08-.85.18.09-.26-.4.32-.29.01-.01c-.01-.04-.02-.07-.02-.11l-.09-.7.58.12-.11-.25.49-.19c-.01 0 .03-.04.07-.08.05-.05.12-.11.21-.18-.04-.1-.1-.22-.15-.3-.17-.34-.39-.77-.34-1.24a.83.83 0 0 1-.12-.25l-.04-.12.02-.12c.03-.21.09-.42.15-.63.14-.47.21-.73-.04-1.1l-.28-.42.06-.04c-.2-.2-.27-.47-.29-.58-.09-.31-.06-.58.09-.79.07-.1.16-.16.25-.2-.29-.45-.47-1.05.05-1.66l.07-.48-.01-.12-.75-.04.66-.78-.01-.09c-.32-.2-.7-.54-.55-1.16.07-.2.15-.35.25-.47l-.15-.29.02-.15c.02-.15.08-.27.18-.37l-.03-.29c-.01 0-.01-.01-.02-.01l-.12.05.02-.14a5.42 5.42 0 0 1-.42-.42l-.27-.31.2-.26-.24-.42.4-.26c.1-.07.22-.11.33-.13-.02-.04-.04-.08-.05-.12-.1-.32.09-.56.19-.69a.55.55 0 0 1 .07-.09l.01-.01c.01-.01-.01-.06-.08-.14l-.68-.81h.92l-.02-.22-.26-.12.13-.41c.02-.05.04-.1.06-.14l-.11-.38.13-.07c-.06-.16-.12-.37-.16-.65l-.08-.64.19.02a.595.595 0 0 1 .01-.23c-.07-.32.1-.5.19-.57.38-.3.84.04 1.1.25l.18-.69.56.84c.12-.09.27-.22.47-.43l.01-.01-.73-1.71-.15.14-.17-.12c-.23-.01-.42-.02-.57-.03-.18-.01-.31-.02-.45-.02-.03.14-.1.27-.22.39-.24.23-.54.2-.74.19-.18-.02-.26-.01-.33.03l-.51.33-.1-.25c-.13.04-.16.07-.16.07l-.02.04c-.06.17-.15.28-.35.46.12.12.26.33.27.6 0 .35-.23.57-.4.74l-.08.07-.16.16.09.15c.39.63-.23 1.09-.57 1.33l-.15.11c-.19.13-.38.3-.54.44.16.11.29.28.34.55l.08.41-.39.15c-.21.08-.4.08-.56.07.03.05.06.09.08.14.16.27.41.67.47 1.09.2.06.36.2.49.42l.06.16c.06.36-.11.7-.27 1-.07.14-.21.39-.2.48l.6.34-.38.41c.01.04.03.08.04.12.08.24.24.69.37.76l1.2.64-1.33.29c-.16.04-.2.08-.2.08-.04.1.11.49.18.67.17.43.35.91.08 1.31a.77.77 0 0 1-.36.28l.09 1.42-.1-.02c.07.1.19.18.33.28l.35.27-.23.39c-.03.05-.16.24-.38.31-.12.53-.03.65.52 1.34l.52.65-.89.17c-.03.15-.09.31-.14.47-.17.51-.39 1.14-.14 1.63l.49.91-.54-.1c-.03.4-.16.79-.27 1.13-.11.34-.25.77-.17.92.04.07.18.15.38.2l.21.05.18.33c.3-.09.56.06.74.16l.49-.71.27 1.07c.03.1.03.21.02.31l.03.01-.03.03c-.04.31-.22.6-.42.79-.23.21-.51.3-.75.22v.01c-.01.12-.04.31-.11.5l-.02.13-.02-.05c-.05.11-.12.2-.21.28 0 .6-.05 1.13-.11 1.83-.04.41-.08.88-.12 1.46-.03.63-.03 1.31.23 1.92.14.35.35.67.6.95v-.02l.22-.7.57.46c.19.15.4.28.64.38l.15.06.08.13.13-.22.35.24c.1.04.33.14.5.32.22-.08.5-.14.88-.11l.12.02c.12.03.21.08.29.12.15-.03.33-.05.48.03l.12-.09c.23-.17.45-.21.59-.24 0 0-.1.06-.17.18l.72-.42c0 .01.01.01.01.02.24.38 1.42.35 2.05.33.43-.01.75-.02 1.01.03.39-.24.78-.31 1.18-.32.01-.06.03-.12.05-.18.12-.28.42-.55.93-.48l.5.07-.08.5c-.04.24 0 .31 0 .31.03.02.17.06.26.08.2.05.45.12.69.28.14-.05.29-.08.42-.1.02 0 .05-.01.07-.01l-.6-.86 1.23.22c.37.09.58.32.62.68.15-.01.31-.02.47-.02zm-12.58.16zm5.19-2.53a.88.88 0 0 1-.14.39c-.03.05-.07.1-.12.15l.75-.5c-.06-.14-.09-.28-.09-.4-.13-.01-.26.03-.4.08l.07.23-.07.05zm10.33-1.82zm-14.44-1.23c-.03.04-.05.07-.07.11l.07-.02.09-.17c-.01 0-.01-.01-.02-.01-.04.02-.07.03-.11.04-.03.03-.05.07-.07.11l.11-.06zm-.16-5.61l-.07-.09-.03.03c.04.02.07.04.1.06zm1.28-10.53c.04.19.05.36.06.5.04.56.07.57.28.58l.54.03-.88-1.11zm-5.29.69zm35.82-.46c0 .08 0 .15-.01.23.01-.03.02-.06.04-.09.01-.03.02-.07.04-.11l-.07-.03zm.19-1.34c.01.04.02.07.04.11l.15-.17-.02-.06-.13.09c-.02.01-.03.02-.04.03zm-1.93-.64c.12 0 .26.04.41.13l.17-.32.18.26c.01-.03.02-.05.03-.08l-.54-.58 1.03-.08c.01 0 .02-.01.04-.02v-.03c-.38.14-.74.06-.98.01-.08-.02-.2-.04-.24-.04l-.02.01c-.01.25-.04.51-.08.76-.01-.02 0-.02 0-.02zm2.83-.39l-.01.27.4-.43-.39.16zm-2.35-1.32c.02 0 .04.01.06.01.25.06.37.07.49 0 .07-.15.03-.19-.22-.4-.03-.03-.06-.06-.1-.09-.04.12-.1.22-.16.32-.02.06-.05.11-.07.16zm.62-1.56c.07.16.2.27.37.42.07.06.15.13.23.22l.07-.1-.28-.97a.72.72 0 0 1-.15.27c-.07.07-.15.12-.24.16zm.38-1.01c.04.15.05.28.05.39l.15-.01c-.02-.13-.06-.26-.09-.39a.355.355 0 0 1-.02-.1l-.09.11zm-1.68-1.82c.61.26 1.15.77 1.5 1.42l.16-.13c-.06-.34-.07-.64-.03-.92.03-.18.08-.35.15-.51l.02-.08c.04-.12.09-.26.15-.4-.12-.52-.18-1.03-.17-1.82l.01-.22.27-.24c-.02-.1-.04-.21-.06-.33-.03-.19-.07-.39-.13-.57-.06-.22-.13-.35-.18-.41l-.65.05.25-.72c.11-.32-.3-.82-.91-1.11-.53-.27-1.12-.36-1.65-.45l-.18-.03-.19.47-.38-.04c-.33-.03-.68 0-1.14.05-.2.03-.42.06-.63.1v.06l.32.17c.12.06.47.25.79.47.21.14.71.53.83.96.09.37-.07.71-.26 1.01.12.02.23.07.33.15.21-.16.46-.3.72-.39.55-.22 1.16-.16 1.53.18l.55.49-.66.33c-.01.01-.04.05-.07.08.06.41-.03.77-.1 1.05l-.04.18c-.09.39-.16.66-.16.99l.01.16zm-34.47 1.33l-.08.09c.03-.03.06-.06.08-.09zm5.2-.35l.03.09c.12-.09.23-.18.3-.24l.16-.13-.4-.02c-.01.1-.03.2-.09.3zm26.37-2.48l1.87 1.16s0-.01.01-.01c.01-.01.02-.03.04-.04.03-.33.09-.62.17-.92l.05-.23c.07-.28.13-.54.05-.8l-.04-.15c-.34.14-.57.35-.62.44l-.25.44-.44-.25-.09-.06-.19.13-.1-.05-.08.14-.21.05c-.05.01-.1.02-.15.02l-.02.13zm-22.45.01l.54.57.21-.26-.75-.31zm1.58-.22zm-.12-.12c.04.07.09.11.12.11l.07-.31c-.01.01-.02.02-.03.04-.06.05-.11.11-.16.16zm21.25-.11zm.31-.03zm-21.55-.08zm8.56-.93l-.48.83.33-.18c.12-.06.15-.34.15-.65zm-4.25.61v.06c.01-.02.02-.03.03-.05l-.03-.01zm-5.29-.01l.08.04c.1-.11.21-.22.31-.33.47-.5.98-1.05 1.69-1.39l-.45-1.34c-.02-.05-.04-.09-.06-.13 0 0 0-.01-.01-.01l-1.09.2-.37.51-.14-.42-.15.03c-.01.06-.01.13-.02.2l-.06.73c.11.23.1.51-.01.82.12.03.25.09.39.18l.41.29-.29.41c-.06.09-.14.16-.23.21zm19.41-.24c.17 0 .3.04.39.1.19-.1.44-.17.71-.09-.07-1.28-.05-2.13.13-2.63-.44.17-.91.01-1.33-.13a6.47 6.47 0 0 0-.41-.13l-.19.39c-.2.42-.57 1.05-.97 1.68.35-.22.74-.32 1.1-.27l.2.02.12.14c.21.25.22.58.16.92h.09zm-1.11.02c-.01.01-.02.02-.04.02l.04-.02c0 .01 0 .01 0 0zm-5.27-.1l.46.08c.12.03.2-.04.48-.5.25-.43.65-1.08 1.42-1.02l.51.03c.29-.56.6-1.04.95-1.36-.33.09-.68.12-1.03-.04a.9.9 0 0 1-.68-.09c-.11.02-.26.06-.41.12l-.18.09c-.09.06-.16.11-.21.17l-.31.39.24.08-.31.02-.24.3-.07-.29-1.62.08-.16.96h.04l.61.07-.1.31.6.55c.01-.01.01-.03.01-.03v.08zm-6.85-.03c.94.03 1.82-.21 1.86-.46l.14-.88-.42.39.08-.85c-.11.02-.22.02-.33-.01a.661.661 0 0 1-.38-.28c-.2-.19-.99-.21-1.63-.23-.69-.02-1.44-.04-2.14-.21-.04.06-.09.11-.15.15-.23.16-.46.1-.64.01l-.06.87c.08-.02.16-.05.24-.07l1.14-.27-.59 1.01c-.11.19-.1.29-.06.6v.01c.15-.05.31-.07.46-.09.13-.02.31-.05.37-.08l.71-.47.03.32c.13-.01.29.01.47.12.29 0 .57.1.76.25.05.05.1.11.14.17zm-14.3-.08zm18.73-.82l.21.31c.1.15.17.25.23.32.04-.11.09-.21.15-.29l-.1-1.38-.59.55-.03-.15.03.45c.01.07.01.14.02.21l.08-.02zm10.89-.8c-.03.37-.02.87 0 1.34.05-.08.11-.17.17-.26l.11-.16c.1-.14.27-.39.28-.48-.01.01-.16-.17-.43-.35-.05-.03-.09-.06-.13-.09zm-24.31-.68l-.1 2.01.26-.26.18.12c.12-.22.3-.43.5-.63-.04-.05-.07-.09-.1-.12l-.51-.53.46-.2c-.07-.12-.14-.26-.17-.39-.28-.03-.44-.02-.52 0zm2.59 1.83zm9.13-1.45l.06.75.47-.82c-.04-.06-.08-.11-.12-.18-.01 0-.01.01-.02.01-.11.04-.2.07-.39.24zm3.74-.57l.93.32-.08-.3c-.26.04-.46-.01-.6-.11-.09.03-.17.06-.25.09zm-11.91-.4l.8.11c-.01-.02-.02-.05-.04-.08-.15-.01-.28-.04-.4-.06-.23-.06-.28-.07-.36.03zm1.72.08zm8.73-.11c.07 0 .14.01.21.02.27-.3.64-.44.9-.53.1-.04.25-.09.29-.12l.52-1.21.36 1.26a.78.78 0 0 1 .22-.03c.01-.21.08-.37.22-.49L61.5 40.3l-1.51 1.88.16.81zm6.54-.08l.05.1.04-.13-.09.03z"/></g><g><path class="st1" d="M47.45 46.49c-.04-.08-.05-.17-.06-.26-.06.08-.06.17.06.26z"/><path class="st1" d="M48.84 48l-1.67-1.1a.751.751 0 0 1-.31-.46.66.66 0 0 1 .13-.5l.76-1.05.14 1.29.95 1.82zm-1.29-1.65l.24.17c.04-.05.07-.14.05-.25-.02-.11-.08-.17-.1-.19l-.19.27z"/></g><g><path class="st1" d="M44.42 62.87c0 .01 0 .02-.01.02.03.01.06.02.09.02l-.08-.04z"/><path class="st1" d="M46.93 63.75l-2.72-.4-.43-.19.19-.51.24-.48 2.72 1.58zm-2.31-.78l.24.12-.24-.12z"/></g><g><path class="st1" d="M70.67 46.84a.51.51 0 0 1-.05-.25c-.04.12-.04.22.05.25z"/><path class="st1" d="M71.81 47.76l-1.5-.51-.16-.25c-.08-.17-.08-.37 0-.58l1.02-2.76-.05 2.94.69 1.16zm-1.07-1.13l.35.13c.03-.1-.05-.33-.26-.4l-.09.27z"/></g><g><path class="st1" d="M76.68 57.86l-.12-.44c.02.21-.08.29-.16.4.11-.01.27-.1.28.04z"/><path class="st1" d="M77.44 62.4l-1.14-4.07-.93.08.69-.96.31-.05-.01-.08c.1-.02.28-.06.46 0l.23-.04.14.55.25 4.57z"/></g><g><path class="st1" d="M73.69 61.71c.06.07.01.14.07.2l.22-.02c-.02-.27-.2-.47-.29-.18z"/><path class="st1" d="M73.55 62.43l-.16-.17c-.1-.1-.14-.21-.15-.3l-.12-.13.09-.28c.14-.4.45-.51.67-.48.33.05.57.37.59.8l.02.49-.94.07zm.2-.53l-.28.01c.01.01.12.15.32.15.22-.02.33-.13.36-.2l-.19-.06.01.09-.22.01z"/></g><g><path class="st1" d="M75.08 58.27c-.41.03-.27.31-.19.62v-.06c.56.1.37-.23.19-.56z"/><path class="st1" d="M75.05 59.35c-.08 0-.16-.01-.24-.02l.07-.41-.47.09.48-.11-.49.05v-.04h-.01c-.06-.21-.14-.54.06-.82.13-.18.33-.29.61-.31l.32-.03.16.28c.17.29.39.69.14 1.05-.16.18-.36.27-.63.27zm.03-1.08l.04.49-.04-.49z"/></g><g><path class="st1" d="M74.9 58.96c.02.1.03.19.01.29.22.04.04-.12-.01-.29z"/><path class="st1" d="M74.96 59.76c-.04 0-.09 0-.13-.01l-.52-.08.12-.52c0-.01 0-.01-.01-.02l.29-.1.02.01.64-.23-.41.14.41-.14c.09.16.25.44.06.72-.07.09-.21.23-.47.23z"/></g><g><path class="st1" d="M76.14 55.06c-.1.15.52.09.35.18.52.17-.62-.99-.35-.18z"/><path class="st1" d="M76.58 55.76a.75.75 0 0 1-.24-.04l-.25-.08-.09-.03-.82-.26.42-.21-.04-.08.05-.08c-.04-.36.13-.54.26-.61.16-.1.5-.2.94.24.38.38.36.67.26.86l.01.03-.04.02c-.05.06-.19.24-.46.24zm-.28-.9l.07.14.22-.06v-.02a.356.356 0 0 0-.1-.15c-.06.01-.13.04-.19.09z"/></g><g><path class="st1" d="M73.74 58.51l.5-.11-.4-.17z"/><path class="st1" d="M72.98 59.19l.56-1.64 2.32 1.01z"/></g><g><path class="st1" d="M74.12 56.06l-.14.5c.08-.01.13.06.17.13.01-.31.11-.64-.03-.63z"/><path class="st1" d="M74.53 58.66l-.76-1.59-.48.04.43-1.53.58-.04.21.19c.21.22.17.51.14.77-.01.07-.02.15-.02.22l-.1 1.94z"/></g><g><path class="st1" d="M74.15 56.69c-.01.16 0 .31.08.4-.01-.09-.02-.27-.08-.4z"/><path class="st1" d="M74.81 58.45l-.95-1.02c-.22-.24-.23-.55-.21-.77l.12-1.95.83 1.77c.07.15.12.35.13.59l.08 1.38z"/></g><g><path class="st1" d="M73.59 57.83l.11-.14.03-.35z"/><path class="st1" d="M72.32 60.47l.93-3.27.98.19-.05.48z"/></g><g><path class="st1" d="M74.23 50.71l-.14-.54c-.17-.06-.28.09-.21.29.12.13.18.34.35.25z"/><path class="st1" d="M74.15 51.23c-.18 0-.4-.08-.6-.37l-.07-.08-.08-.16c-.1-.29-.04-.58.15-.77.18-.18.43-.24.69-.16l.26.08.32 1.2-.36.18c-.08.05-.19.08-.31.08zm-.08-.83l.11.22c.03-.02.06-.04.08-.06.1-.1.1-.21.09-.25l-.28.09zm-.01-.16l-.02.07.09-.08c-.02 0-.05.01-.07.01z"/></g><g><path class="st1" d="M72.85 52.35c.1-.15.22-.16.38-.24l-.62-.02.24.26z"/><path class="st1" d="M72.95 53.12l-.7-.69-.82-.88 3.81.11-1.78.89c-.05.03-.11.05-.15.07l-.36.5z"/></g><g><path class="st1" d="M72.71 50.77c-.17-.05-.49-.79-.46-.1.18.05.32.6.46.1z"/><path class="st1" d="M72.57 51.48c-.3 0-.48-.24-.56-.35 0-.01-.01-.01-.01-.01l-.23-.07-.02-.34c-.01-.17-.03-.63.37-.79.39-.15.65.19.78.34.02.02.03.05.05.07l.38.12-.13.47c-.04.12-.14.5-.52.56-.04-.01-.08 0-.11 0zm-.29-.89c-.04.03-.06.07-.07.08l.41.08c.04-.04.07-.07.09-.11l-.07.07.04-.07-.42.02.02-.07z"/></g><g><path class="st1" d="M70.58 45.14l.13-.01.2-1.02c-.12.34-.23.68-.33 1.03z"/><path class="st1" d="M69.9 45.68l.2-.68c.1-.35.22-.7.34-1.05l.96.27-.28 1.4-1.22.06z"/></g><g><path class="st1" d="M63.41 47.55c.64.25.15-.63.73-.32.15-.24-.47-.25-.32-.46-.38.26-.59.11-.41.78z"/><path class="st1" d="M63.61 48.1c-.12 0-.24-.03-.37-.08l-.24-.09-.06-.25c-.15-.57-.13-.97.45-1.23.05-.02.11-.05.18-.09l2.36-1.54-1.43 1.91c.07.07.13.16.16.27l.06.21-.39.68-.16-.08c-.05.08-.12.15-.23.21a.73.73 0 0 1-.33.08z"/></g><g><path class="st1" d="M63.83 46.77c.06-.04.13-.09.2-.15-.12.06-.17.11-.2.15z"/><path class="st1" d="M61.66 48.74l1.78-2.27c.08-.11.19-.19.35-.28l3.6-2.03-3.02 2.83c-.1.09-.19.16-.27.21l-2.44 1.54z"/></g><g><path class="st1" d="M70.54 79.38l.41.21-.26-.34z"/><path class="st1" d="M72.74 81.08l-3.08-1.59 1.09-.97z"/></g><g><path class="st1" d="M71.33 78.63l.1.65.25-.59c-.09.03-.27.08-.35-.06z"/><path class="st1" d="M71.19 81.1l-.83-5.65 1.31 2.72.84-.26-.62 1.56z"/></g><g><path class="st1" d="M45.2 49.19l-.16-.03c-.17.06-.18.16-.21.35l.37-.32z"/><path class="st1" d="M44.16 50.78l.19-1.34c.03-.22.08-.58.53-.75l.12-.05 1.28.26-2.12 1.88zm1.04-1.22l.02.06c.02-.01.05-.03.07-.05l-.09-.01z"/></g><g><path class="st1" d="M44.7 54.8l.01-.1-.58.18z"/><path class="st1" d="M44.2 55.37l-.22-.97 1.34-.41-.16 1.15-.39.15z"/></g><g><path class="st1" d="M45.44 59.51c.02-.19-.11-.42-.08-.61.1.42-.66.66.08.61z"/><path class="st1" d="M45.28 60.01c-.22 0-.48-.05-.61-.31-.17-.32.05-.58.13-.68.01-.02.03-.04.05-.06 0-.04 0-.09.01-.13l.34-2.61.64 2.55c.02.09.03.17.02.25 0 .02.01.04.02.06.03.13.08.3.05.49l-.05.41-.41.03h-.19z"/></g></g><g><defs><path id="SVGID_1_" d="M71.69 76.93l-28.06-.08a2 2 0 0 1-1.99-2.01l.08-28.06a2 2 0 0 1 2.01-1.99l28.06.08a2 2 0 0 1 1.99 2.01l-.08 28.06c-.01 1.1-.91 2-2.01 1.99z"/></defs><defs><path id="SVGID_2_" d="M71.69 77.43l-28.07-.08c-1.38 0-2.5-1.13-2.49-2.51l.08-28.06c0-1.38 1.12-2.49 2.5-2.49h.01l28.06.08c1.38 0 2.5 1.13 2.49 2.51l-.08 28.06c0 1.38-1.12 2.49-2.5 2.49zm0-1c.83 0 1.5-.67 1.5-1.5l.08-28.06c0-.83-.67-1.5-1.5-1.5l-28.06-.08c-.82 0-1.5.67-1.5 1.5l-.08 28.06c0 .83.67 1.5 1.5 1.5l28.06.08z"/></defs><use xlink:href="#SVGID_1_" overflow="visible" fill="#f15c68"/><use xlink:href="#SVGID_2_" overflow="visible" fill="#f15c68"/><clipPath id="SVGID_3_"><use xlink:href="#SVGID_1_" overflow="visible"/></clipPath><clipPath id="SVGID_4_" class="st2"><use xlink:href="#SVGID_2_" overflow="visible"/></clipPath></g></g><path class="st3" d="M79.44 113.14c-.28 0-.59-.08-.85-.34-.49-.49-.32-1.11-.21-1.48.23-.82.44-1.61.66-2.4.29-1.07.58-2.14.89-3.2.06-.21.06-.33-.08-.6-2.1-4.11-2.1-8.85 0-13.02 2.1-4.16 5.91-6.97 10.45-7.72 7.78-1.29 15.24 3.98 16.6 11.74.18 1.04.24 1.79.2 2.41-.01 7.38-5.46 13.55-12.67 14.38-2.85.33-5.58-.14-8.11-1.4-.09-.04-.16-.07-.39-.01-.81.22-1.62.42-2.42.63-1.14.29-2.29.59-3.42.91-.15.03-.38.1-.65.1zm6.71-3.69c.31 0 .67.06 1.06.25 2.22 1.1 4.51 1.49 7 1.21 6.22-.71 10.9-6.06 10.9-12.43v-.08c.05-.59-.07-1.39-.17-1.94-1.17-6.68-7.58-11.2-14.31-10.11-3.91.64-7.18 3.07-8.99 6.65-1.81 3.59-1.81 7.67 0 11.21.37.71.43 1.35.22 2.08-.31 1.05-.59 2.1-.87 3.15-.12.46-.25.92-.37 1.38.8-.21 1.6-.42 2.41-.63.8-.21 1.6-.41 2.4-.63.18-.05.43-.11.72-.11z" id="oO3MZk_6_"/><path class="st3" d="M99.29 103.01c-.04.16-.09.31-.16.46-.15.33-.42.56-.71.77-.42.31-.87.57-1.39.67-.71.13-1.42.11-2.12-.11-.79-.24-1.56-.52-2.3-.88-.99-.48-1.87-1.12-2.69-1.86-1.12-1.01-2.08-2.18-2.91-3.45-.43-.65-.76-1.35-.91-2.12-.26-1.33.06-2.5 1.01-3.48.11-.13.24-.23.38-.32-.32.71-.4 1.5-.23 2.36.15.77.48 1.47.91 2.13.83 1.26 1.79 2.43 2.92 3.45.81.73 1.69 1.37 2.68 1.85.74.36 1.51.64 2.3.88.7.22 1.41.25 2.12.11.4-.08.76-.25 1.1-.46z"/><path class="st3" d="M98.29 103.86c0 .24.29-.14.22.1l.21-.15c.21-.16.42-.33.53-.58.16-.33.21-.69.22-1.06 0-.16-.07-.26-.21-.33-.62-.3-1.24-.61-1.87-.9-.07-.03-.14-.05-.21-.07-.19-.06-.3-.02-.42.14l-1.56 2.29 1.58.66 1.58-.29M86.91 94.03c-.23.08.04-.32-.16-.18.03-.09.05-.16.07-.25.08-.25.18-.51.38-.68.27-.25.58-.42.93-.55.15-.05.27-.01.37.09.49.49.98.98 1.45 1.49.05.05.09.12.14.18.12.16.12.28 0 .44l-2.33 2.68-.46-1.75-.23-1.59M90.74 79.72c-3.34 0-6.83-.76-10.32-2.31-3.97-1.77-7.03-4.79-8.61-8.5-1.11-2.6-1.24-4.9-.4-6.85.86-1.99 2.73-3.52 5.56-4.54 8-2.9 8.29-4.88 8.8-8.47.21-1.43.44-3.05 1.14-4.99 1.88-5.19 8.37-8.54 14.47-7.47 3.41.6 11.35 3.57 11.35 18.21 0 3.66-.66 7.19-1.96 10.48-.2.51-.79.77-1.3.56a.995.995 0 0 1-.56-1.3c1.21-3.06 1.82-6.33 1.82-9.74 0-9.24-3.53-15.16-9.69-16.24-5.11-.9-10.71 1.94-12.24 6.18-.63 1.75-.85 3.26-1.04 4.6-.62 4.31-1.39 6.91-10.1 10.06-2.29.83-3.77 1.99-4.41 3.46-.62 1.42-.48 3.19.4 5.27 1.38 3.25 4.08 5.9 7.58 7.46 9.52 4.24 18.69 2.21 24.52-5.42.33-.44.96-.52 1.4-.19.44.34.52.96.19 1.4-4.18 5.48-10.1 8.34-16.6 8.34z"/><path class="st3" d="M94.21 71.56c-.55 0-1-.45-1-1V53.48c0-2.12 1.72-3.84 3.84-3.84h3.88c.55 0 1 .45 1 1s-.45 1-1 1h-3.88c-1.02 0-1.84.83-1.84 1.84v17.07c0 .56-.45 1.01-1 1.01z"/><path class="st3" d="M99.4 58.71h-8.61c-.55 0-1-.45-1-1s.45-1 1-1h8.61c.55 0 1 .45 1 1s-.45 1-1 1z"/><g><path class="st3" d="M31.57 113c-2.78 0-5.42-1.07-7.45-3.01-2.08-2-3.25-4.67-3.3-7.54l-.38-19.64c-.11-5.93 4.62-10.85 10.55-10.96l24.13-.46c5.89-.09 10.85 4.62 10.96 10.55l.38 19.64c.11 5.93-4.62 10.85-10.55 10.96l-24.12.46h-.22zm24.33-1.46zm-.57-38.15h-.17l-24.13.46c-4.83.09-8.68 4.1-8.59 8.92l.38 19.64c.04 2.33 1 4.51 2.69 6.13s3.89 2.49 6.23 2.45l24.13-.46c4.83-.09 8.68-4.1 8.59-8.92l-.38-19.64c-.09-4.76-4-8.58-8.75-8.58z"/><path class="st3" d="M38.04 103.2c-.57 0-1.14-.14-1.66-.43-1.09-.6-1.75-1.7-1.78-2.94l-.28-14.47a3.42 3.42 0 0 1 1.66-3.01c1.06-.64 2.35-.67 3.44-.07l12.67 7c1.09.6 1.75 1.7 1.78 2.94s-.6 2.37-1.66 3.01l-12.39 7.48c-.56.32-1.17.49-1.78.49zm-.28-19.36c-.26 0-.51.07-.74.21-.45.27-.71.74-.69 1.26l.28 14.47c.01.52.29.98.74 1.23.46.25.99.24 1.44-.03l12.39-7.48c.44-.27.7-.74.69-1.26-.01-.52-.29-.98-.74-1.23l-12.67-6.99c-.23-.12-.46-.18-.7-.18z"/></g><g><path class="st3" d="M116.44 45.87c-.43 0-.82-.28-.96-.71-2.06-6.74-7.05-9.74-7.1-9.77-.48-.28-.63-.89-.36-1.37.28-.48.89-.64 1.37-.35.23.14 5.71 3.43 8 10.9.16.53-.14 1.09-.66 1.25a.71.71 0 0 1-.29.05z"/></g><g><path class="st3" d="M100.17 33.11c-.05 0-.09 0-.14-.01-1.89-.27-3.67-.31-5.29-.12a1.002 1.002 0 1 1-.23-1.99c1.79-.21 3.74-.17 5.8.13a1 1 0 1 1-.14 1.99z"/></g><g><path class="st3" d="M29.9 107.42c-.1 0-.2-.01-.29-.04-.14-.04-3.53-1.12-3.8-4.53-.04-.55.37-1.03.92-1.08.54-.04 1.03.37 1.08.92.16 2.04 2.31 2.75 2.4 2.78a1 1 0 0 1 .65 1.25c-.14.42-.53.7-.96.7z"/></g><g class="st4"><path class="st1" d="M117.95 90.79l-7.69-.02c-.3 0-.55-.25-.55-.55l.02-7.69c0-.3.25-.55.55-.55l7.69.02c.3 0 .55.25.55.55l-.02 7.69c0 .3-.25.55-.55.55z"/><path class="st1" d="M117.95 91.29l-7.69-.02c-.58 0-1.05-.47-1.04-1.05l.02-7.69c0-.28.11-.54.31-.74.2-.2.46-.31.74-.31l7.69.02c.58 0 1.05.47 1.05 1.05l-.03 7.69c0 .28-.11.54-.31.74-.2.2-.46.31-.74.31zm-7.67-8.81l-.07 7.74 7.74.07c.02 0 .05-.03.05-.05l.02-7.69-7.74-.07z"/><g><path class="st1" d="M118.04 91.45c-.11 0-.07.11-.09.13.2-.03.08-.16.09-.13z"/><path class="st1" d="M116.72 92.29l.76-.92-.03-.08.1-.09c.02-.04.05-.07.09-.1l.35-.26.61.36-.03.26.19.52-.44-.02c-.07.05-.17.09-.29.11l-1.31.22zM118.91 90.23c.02.01.03.01.05.02l-.11-.12.06.1z"/><path class="st1" d="M121.04 91.77l-2.46-1.13-.17-.26.59-.44.06-.19.11.04-.02.04.06-.05z"/><path class="st1" d="M118.91 89.45c-.2.07.03.28-.04.42l-.04.02.16.06c-.03-.16-.13-.38-.08-.5z"/><path class="st1" d="M119.6 90.75l-1.99-.8.73-.36a.61.61 0 0 1 .4-.6l1.14-.42-.47 1.02c.01.02.01.05.02.07.02.08.04.17.05.24l.12.85z"/><path class="st1" d="M119.34 89.04c-.08.03-.07-.09-.02.1l.02-.02c-.01-.02-.01-.05 0-.08z"/><path class="st1" d="M118.97 90.25l-.15-1.01.15-.09-.14.02v-.06l.01-.15.34.05-.24-.21.1-.09.21.29.02-.02-.09-.42.77-.25-.12.8-.25-.04h-.01l.26.05.03.29-.24.11z"/><path class="st1" d="M119.33 89.11c.01.09.06-.05 0 0z"/><path class="st1" d="M119.66 89.69l-.79-.12-.05-.67.49-.42.66.46z"/><path class="st1" d="M119.29 88.74l.07.11c.05-.02.06-.12.09-.08-.04-.12-.09-.1-.16-.03z"/><path class="st1" d="M120.64 90.76l-1.28-1.36-.19.09-.53-.86.33-.28c.18-.15.37-.2.56-.15l.08.02h.01l.01.01.16.04.14.33.71 2.16zm-1.33-1.95l-.33.11.33-.11z"/><path class="st1" d="M119.15 88.63l.03.06c.01-.01.02-.03-.03-.06z"/><path class="st1" d="M118.95 89.36l-.98-1.93 1.68.92.03.34-.01.3-.72.37zm0-1.12l.2.39-.2-.39z"/><path class="st1" d="M119.23 88.81l-.06-.12c-.03.02-.1.02.02.05-.05-.01 0 .02.04.07z"/><path class="st1" d="M121.84 92.83l-2.96-3.66-.18-.06-.03-.14-.08-.07.05-.14-.01-.04v-.37l.21-.07.04-.09.14.02.42-.21.24.58z"/><path class="st1" d="M119.2 88.87c-.04.06-.07.14-.14.03.03.21.17.18.14-.03z"/><path class="st1" d="M119.15 89.55a.53.53 0 0 1-.3-.09h-.01a.607.607 0 0 1-.16-.16.81.81 0 0 1-.12-.33l-.29-2.27.86 1.38.37-.54.2 1.28c.05.43-.2.69-.49.73-.02-.01-.04 0-.06 0zm-.06-1c-.27.04-.4.27-.38.39l.36-.05.03-.16-.01-.18zm.01.34zM118.71 89.41l-.06.08.07.07c-.04-.03.05-.16-.01-.15z"/><path class="st1" d="M118.75 89.91l-.03-.35-.37.34-.28-.3.31-.59.29-.1.26-.02.35.41-.08.32-.31-.08.23.16-.06.08-.33-.23zM119.39 88.06c-.04-.01-.11.04-.16.04l.05.08c.02-.04.05-.11.11-.12z"/><path class="st1" d="M119.23 89.11l-.76-1.3.69-.19a.53.53 0 0 1 .32-.04l4.08.66-3.92.31-.41.56z"/><path class="st1" d="M119.23 88.11l-.07-.12c-.01.1.02.12.07.12z"/><path class="st1" d="M119.05 88.63l-.22-.18a.622.622 0 0 1-.17-.51l.13-1.56 1.26 2.12-1 .13zm.22-.63l.38.03c0-.04-.01-.18-.13-.29l-.25.26zM118.93 88.61l.15.2-.15-.24z"/><path class="st1" d="M118.68 89.11l-.24-.32-.11-2.06 1.17 1.81zM119.4 87.61l.09.06-.14-.12z"/><path class="st1" d="M119.21 88.08l-.23-.19.69-.72.14.12zM119.38 87.3c.08.05.14-.07.18-.02-.01-.08-.08-.15-.14-.22.04.08.03.15-.04.24z"/><path class="st1" d="M120.36 88.9l-.99-1.09a.486.486 0 0 1-.25-.09l-.44-.28.22-.31-1.5-2.88 2.39 2.47c.09.09.24.24.28.48l.29 1.7zm-1.16-1.55l-.13.02c.01.06.04.09.04.09l.09-.11zm-.23-.34l.32.22-.32-.22z"/><path class="st1" d="M119.33 86.96c.02.03.05.07.09.11-.02-.03-.04-.07-.09-.11z"/><path class="st1" d="M121.37 89.85l-2.31-2.44c-.06-.06-.12-.12-.17-.21l-1.19-2.19 1.94 1.56c.1.08.17.17.22.27l1.51 3.01zM119.18 87.78c.03-.01.09-.03.12-.09l-.12.05v.04z"/><path class="st1" d="M118.64 88.51l.04-.75.5.03-.5-.05.01-.33 1.52-.6-.45 1.08c-.05.12-.16.28-.4.37l-.72.25zm.36-1.19a.36.36 0 0 0-.16.18l.28.11-.12-.29z"/><path class="st1" d="M119.18 87.74c.01-.05.01-.09.01-.1-.01.01-.01.04-.01.1z"/><path class="st1" d="M118.58 88.6l.11-1 .43.03-.17-.34h.01l.17.34.55.03-.02.4z"/><path class="st1" d="M119.18 87.79v-.01c-.01.01-.02.01 0 .01z"/><path class="st1" d="M119.68 88.48l-1-.32-.02-.72 1.02-.37z"/><path class="st1" d="M119.04 88.3c-.07-.07-.14-.22-.24-.08.08.05.14-.03.24.08z"/><path class="st1" d="M118.87 88.74a.58.58 0 0 1-.34-.1l-.45-.28.31-.43c.16-.23.37-.27.48-.27.3.02.46.2.52.28l.01.01-.38.35.19.2-.23-.16-.09.08v-.01l-.21.2-.02.02c.06.06.17.12.25.1 0 .01-.02.01-.04.01z"/><path class="st1" d="M119.03 87.85l-.03.13c.03 0 .08-.03.11.01l-.08-.14z"/><path class="st1" d="M122 91.88l-3.12-3.4-.4.02.06-.75.27-1.25z"/><path class="st1" d="M118.99 87.79l.04.06.01-.04z"/><path class="st1" d="M119.27 89.17l-1.35-2.22 1.7.52zM119.22 87.18c-.05-.05-.05-.11-.06-.18a.85.85 0 0 0-.04.22c.04.01.11.04.1-.04z"/><path class="st1" d="M119.31 87.78l-.67-.19-.01-.37c0-.12.02-.25.06-.37l.71-2.18.26 2.25.06.07.02.44-.43.35zm-.41-.95c-.08.06-.13.14-.16.22l.27-.04-.11-.18z"/><path class="st1" d="M119.19 87.45l-.01-.01c-.01.01-.01.01.01.01z"/><path class="st1" d="M118.85 87.97l-.27-.68.76-.62.66 1.23zM119.16 86.33l-.02.01.02.01z"/><path class="st1" d="M119.62 86.92l-2.11-.31 2.19-1.11zM119.1 87.23c-.02.05.01.09.04.12a.507.507 0 0 1-.02-.13c-.01-.01-.02-.01-.02.01z"/><path class="st1" d="M120.1 88.84l-1.28-1.11a.57.57 0 0 1-.22-.46l-.05-.19.42-.43.66.19.01.37.46 1.63zm-1.02-1.47l-.1.33.1-.33zm.39-.4l-.17.2.26-.07a.305.305 0 0 0-.09-.13z"/><path class="st1" d="M119.28 86.78c-.02.03-.05.06-.06.09.03-.02.09-.08.06-.09z"/><path class="st1" d="M117.54 88.72l1.24-2.1c.03-.06.07-.12.12-.17l.21-.25.61.19.06.31c.02.12.01.36-.27.57l-1.97 1.45zm2.1-1.63l.02.01-.02-.01zm-.72-.62c-.05.04-.16.19-.12.4l.37-.06-.25-.34z"/><path class="st1" d="M119.22 87.42s0 .01 0 0c.03-.01.01-.01 0 0z"/><path class="st1" d="M119.09 88.14l-.29-.43-.53-.53 1.15-.39.46.77-.79.58zm-.16-1.12l.29.4-.29-.4z"/><path class="st1" d="M119.22 87.42c-.02-.03-.05-.05-.07-.07.01.03.02.06.04.09 0-.01.01-.01.03-.02z"/><path class="st1" d="M119.07 88.16l-.41-.67-.47-1.61 1.46 1.29.29.49-.49.21z"/><path class="st1" d="M118.41 86.13c.11.01.21.15.09.28.08.12.44.04.64-.06-.05 0-.09 0-.15-.13-.06.04-.14.28-.24.17-.06-.17.04-.14.1-.22-.14.07-.2-.21-.4-.18l.07.15c-.03 0-.08-.05-.11-.01z"/><path class="st1" d="M118.68 86.97c-.24 0-.46-.08-.6-.28l-.06-.09-.53-.05.39-.56-.18-.38.53-.11.04.01.08-.01c.21-.04.38.02.5.1l1.58-.8-.78 1.08 1.18.1-1.47.79c-.17.11-.43.2-.68.2zm-.41-.39s.01 0 .02.01l-.02-.01z"/><path class="st1" d="M119.13 86.58l.01.05c.02-.06.06-.1.15-.18-.05-.09-.09-.1-.13-.11l-.02.25-.01-.01z"/><path class="st1" d="M119.09 88.38l-.93-3.52.94.97.15.02c.2.03.36.15.47.34l.22.35-.3.27-.06.96-.21-.22-.28.83zm-.04-1.78l-.19.11c.01.02.04.04.07.07l.16-.17-.04-.01z"/><path class="st1" d="M119.14 86.87c-.12-.04-.17-.16-.3-.09.01.15.1.11.15.2-.03-.24.07.07.13-.11.02.05.03.09.03.13.01-.04.03-.09.05-.13l-.01.01c-.01.01-.02.01-.02 0v-.01h-.03c.03-.07.03-.01.05.01h.02l-.06-.25c-.02.06-.02.12-.01.24z"/><path class="st1" d="M118.96 89.39l-.24-1.9-.11-.19a.624.624 0 0 1-.26-.5l-.02-.3.26-.15c.04-.02.09-.05.14-.06l.46-1.43.3 1.13 1.45-1.24-1.05 1.94.06.03-.2.27.05.17-.12.06.04.37-.18-.06.1 1.55-.38-.65-.3.96zM118.55 88.09c.01-.01.02-.01.03-.01-.02-.01-.03-.02-.03.01z"/><path class="st1" d="M117.9 89.18l.2-1.47.61-.21.92.97-.88.1-.85.61zm.66-1.08l-.35.33.35-.33z"/><path class="st1" d="M118.62 87.99c.02.02.06.03.05.09-.04.05-.06 0-.1 0 .03.03.08.12.14.01l-.02-.02c.04-.1.19-.22.2-.21-.09.04-.17.07-.27.13z"/><path class="st1" d="M118.83 88.73l-.18-.08-.21.02-.24-.26-.61-.74.76-.11c.13-.08.24-.13.36-.16l.09-.03.27-.05.77.81-.68.19c-.06.12-.14.19-.22.24l-.11.17z"/><path class="st1" d="M118.85 87.42l-.06-.2-.1.1.06-.01c-.02.12.05.1.1.11z"/><path class="st1" d="M119.58 88.17l-1.08-.33-1.05.08 1.59-1.66.15.52.13-.01-.04.33zM119.22 86.31l.13.03-.18-.12z"/><path class="st1" d="M121.81 87.39l-2.91-.64-1.22-2.14z"/><path class="st1" d="M119.21 86.04l.11.01-.07-.07z"/><path class="st1" d="M120.52 86.61l-2.23-.15.91-1.26zM110.38 84.58l.03.06a.163.163 0 0 0-.03-.06z"/><path class="st1" d="M109.99 84.89l.09-.07-.11.05-2.2-4.41 3.13 4.03-.91.4zm.24-.2l-.3.09.3-.09z"/><path class="st1" d="M110.39 84.14l-.05-.01c.02.02.05.03.05.01z"/><path class="st1" d="M110.32 84.72l-.27-.18-1.96-1.37 2.82.57-.07.76zM115.82 81.31c-.09-.1-.18-.26-.17-.14l.03.12c.06-.02.1 0 .14.02z"/><path class="st1" d="M117.99 83.28l-2.3-1.46-.38.13-.24-1.09.41-.2c.36-.14.6.16.68.26l1.83 2.36zm-2.44-1.55zM111.36 82.01l.03.04c.02-.04.04-.08.06-.11a.55.55 0 0 0-.09.07z"/><path class="st1" d="M111.45 83l-.72-1.03.3-.33.18.17-.15-.2 2.12-1.94-1.73 3.33zm-.16-1.08l.02.01-.11-.11.09.1z"/><g><path class="st1" d="M111.3 82.5l-.11-.08c.02.03.06.06.11.08z"/><path class="st1" d="M111.09 82.95a.772.772 0 0 1-.27-.19l-2.96-3.19 3.73 2.52-.5.86z"/></g><g><path class="st1" d="M110.5 86.95l.12.07c0-.11-.06-.06-.12-.07z"/><path class="st1" d="M111.13 87.88l-3.17-1.82 2.57.38.18-.02.4.3.02.29v.87zm-.64-.86h-.37.37z"/></g><g><path class="st1" d="M119.17 83.33a.37.37 0 0 0 .07-.19c-.07.09-.17.17-.07.19z"/><path class="st1" d="M119.4 83.9l-.63-.15-.12-.3c-.09-.29.09-.5.16-.58l1.04-1.18-.12 1.5c-.01.13-.06.26-.15.4l-.18.31zm-.65-.83l.42.26-.42-.26z"/></g><g><path class="st1" d="M109.12 84.4c.02.04.05.05.07.05-.02-.03-.04-.06-.07-.05z"/><path class="st1" d="M108.91 84.96l-.22-.31-.34-.57 1.02-.27.26.39.39.71-1.11.05zm.23-.48l-.39.21.39-.21z"/></g><g><path class="st1" d="M119.24 82.83c-.01.02-.02.05-.03.07.01.04.02.09.02.14.01.05.01.06 0 .1.01-.02.02-.03.03-.05.01-.01.02-.04.02-.07.02-.07 0-.13-.04-.19z"/><path class="st1" d="M118.57 84.85l.18-1.76-.03-.16.09-.33.38-.73.47.67c.11.15.15.33.14.51l-.01.12-.08.17c0 .01-.03.06-.06.1l-1.08 1.41zm.28-2.01c-.05.08-.05.14-.05.15 0 .04.01.09.04.13l.2-.14-.19-.14z"/></g><g><path class="st1" d="M114.72 90.1c.01.01.01.01.02.01 0-.01-.01-.01-.02-.01z"/><path class="st1" d="M115.09 91.32l-.72-.87-.68-.56 1.17-.33.4.35-.17 1.41zm-.85-1.27l.48.06-.48-.06z"/></g><g><path class="st1" d="M117.22 91.31c-.02.01-.06.01-.1.01.02 0 .05 0 .1-.01z"/><path class="st1" d="M117.15 91.82c-.08 0-.15-.01-.22-.04l-2.01-.85 2.18-.11v.01c-.02 0-.02.01-.02.01l.11.34.01-.02.18.63c-.02 0-.03.01-.05.01l-.03.01c-.06.01-.11.01-.15.01z"/></g><g><path class="st1" d="M119.26 84.98c.01.05.02.01 0 0z"/><path class="st1" d="M119.61 85.54l-.78-.08-.21-1.5 1.25.8-.26.78zm-.81-.7l.45.16-.45-.16z"/></g><g><path class="st1" d="M118.79 85.25c-.01-.01-.03-.02-.06-.02.03 0 .05.01.06.02z"/><path class="st1" d="M118.7 85.73l.01-.22-.06.21.04-.35-.22.26.22-.27-.23.26.23-.26.08-.63.25.07.1.07.01.01-.34.38z"/></g><g><path class="st1" d="M118.47 82.38c-.02.02-.01.02 0 0z"/><path class="st1" d="M118.61 83.06l-.81-.49.89-1.66.31 1.58-.12.18-.35-.25.35.25z"/></g><g><path class="st1" d="M119.21 85.06c.01-.02.03-.05.04-.07-.02.01-.03.03-.04.07z"/><path class="st1" d="M117.33 88.55l1.53-3.88 1.72-2.1-.96 2.78-2.29 3.2zm1.66-3.64l-.19-.14.19.14z"/></g><g><path class="st1" d="M119.26 85.05c0 .02-.01.03-.01.05.02.01.03 0 .01-.05z"/><path class="st1" d="M119.42 85.68l-.77-.25.5-1.88.7 1.62-.43.51zm-.15-.63l.48.12-.48-.12zm-.01 0z"/></g><g><path class="st1" d="M119.26 84.9c0 .03 0 .06-.01.09.01-.01.01-.02.02-.01-.01-.02-.01-.04-.01-.08z"/><path class="st1" d="M117.8 88.05l.96-3.2h.27l-.2-.14.12-.18.44-.08.17.13-.21.28h.4l-.43.04.43-.03.09 1.12-.45-.31z"/></g><g><path class="st1" d="M110.34 90.39v.01c.07-.03.05-.03 0-.01z"/><path class="st1" d="M109.67 91.42l.16-1-.08-.3.8-.38.5.81z"/></g><g><path class="st1" d="M114.36 82.54l-.01-.01zM114.05 83.66l-.39-2.15 1.72 1.07-.7.36z"/></g><g><path class="st1" d="M114.15 82.63c.09-.15.14-.13.2-.1l-.07-.34-.13.44z"/><path class="st1" d="M112.75 85.57l1.64-5.46.64 3.3-.61-.29z"/></g><g><path class="st1" d="M110.41 85.62l.11-.14c.18.17.11.3.27.16-.37-.02-.04-.55-.41-.57l.08-.09c0 .03.02.03.01.06.18-.18-.27-.14-.22-.37.03-.08.08-.14.13-.08l-.09-.18c.01-.05.07-.04.06.01l-.03-.28h.01c-.06-.04-.15-.13-.19-.17.05-.07.04.04.09.02l-.09-.15c.1-.06.19.07.18.17.37-.14-.09-.13.12-.44l.05.15c.21-.09.14-.21.27-.37-.07.04-.33.33-.43.16.03-.05.04-.11-.03-.2.13 0 .1-.09.09-.2l.18.01c-.01-.03-.03-.05-.04-.07-.02 0-.04-.01-.05-.01l-.12-.03c.02-.06.15-.03.27 0 .01-.01-.04-.03-.1-.04-.06-.01-.13-.02-.15-.07.07-.04-.01-.11-.03-.28.09.01.08.1.14.13-.03-.05-.06-.1-.08-.15.01 0 .04.04.06.06 0-.07-.13-.17-.08-.24-.05-.1.05-.04.13.03.09.07.15.13.18.02.03.05.01.11.03.18.08-.14.11-.1.3-.3l.17.12c-.13-.13.04-.29.18-.41-.04-.06-.08-.12-.11-.15l.23-.09c.03.03 0 .09-.03.16.02-.01.03-.03.04-.04.08.07.04.17-.02.26l-.08-.11c-.06.11-.11.22-.1.33.01-.02.04-.04.07-.05-.01.03-.02.05-.02.07.01.02.03-.02.07-.06l.05.2.01-.08.3.12c.21-.2.4-.49.73-.56-.08.14-.02.23-.02.4-.09-.18-.26.08-.43.04.09.02.07.1.05.13l.31-.16c-.01.14.07.1.15.16-.06-.27.23-.18.36-.27.01.09-.02.19-.18.16.17.21.22-.32.39-.15-.04 0-.06-.01-.07.03.09-.08.3-.02.25.06h-.04c.25.03.76 0 .8-.23 0 .03-.03.28-.05.33l.45-.78c-.04.2.11.68-.1.79.06.03.13.06.26-.01-.04-.03-.1-.29-.04-.31.15.22.11.12.29.31-.06-.04.01-.36.1-.35-.02.05.01.31-.03.34l.24-.31c-.06.06-.01.26.04.35-.02-.06.21.01.27-.02l-.1-.07c.27.05.27-.43.54-.42-.03.06-.08.39.05.43.06-.16.28-.76.52-.88l.05.09.18-.1c-.11.24-.43.74-.61.93.1.07.03.11.18.1.05.08-.08.13-.13.13l.35.06c-.02-.18.27-.18.26-.34l-.38.19c-.01-.18.22-.52.47-.49.06.07-.05.33-.04.39.03-.06.24-.12.26-.08l-.11.1c.14.07.23-.24.39-.07.02.01.08.07.1.11.01.04.02.07.03.02-.01-.21-.07-.86.02-1.02.01.01.11.06.2.12.09.06.16.14.18.19.02.08-.06.18-.13.27-.07.1-.11.19-.11.26.02-.05.07-.11.1-.13.02.04-.08.16 0 .13.11-.19.15.05.12-.15.12-.03.07.06.16.11.04-.06.14-.14.25-.19.12-.05.23-.03.28.02-.04.02-.08.08-.1.11.04.13-.01.24-.03.34-.02.1-.05.19-.05.3-.05.02-.1.14-.18.08.03.04.1.07.1.14-.16.15-.02-.17-.22-.06.11.01.15.2.22.3.17-.03.03-.25-.03-.36.23 0 .47.19.58.45.06.2-.15.09-.12.12-.04.38.4.33.24.65-.15.13-.29 0-.4.03-.06-.17.09-.26.09-.37l-.07.14c-.05-.05-.09-.16-.04-.22-.13.11-.03.65-.15.94.05.05.1.14.16.1l-.02-.09c.12-.09.16.18.22.06.08.13.21.27.15.44l-.17.03c.05 0 .1-.12.05-.17.07.07-.23.27-.01.35l.12-.12c.08.13.26.28.21.44.17-.07-.02-.04.18-.15-.24.1.01-.4-.24-.25.23-.11.1-.2.29-.35-.06 0-.11.05-.08-.08-.02-.01-.04-.02-.05-.03v-.01l-.01.01c-.01-.01-.01-.01 0 0-.02.03-.05.06-.08.07-.13-.07-.12-.27-.19-.35.03-.08.06.03.12-.01l-.1-.11c.12-.01.21-.21.28-.02l.01-.17c.07-.1.1-.23.05-.31.03-.08-.14-.2-.04-.13l-.08-.26h.03c.01-.13-.04-.26-.07-.4-.01-.07-.02-.14-.01-.21l.03-.11c.02-.04.04-.11.06-.17-.03-.14-.06-.28-.05-.51l.1-.08c-.03-.08-.04-.21-.08-.33-.04-.12-.09-.22-.16-.21.06-.17-.1-.36-.32-.47-.22-.12-.48-.12-.65-.16l-.09.16c-.11-.01-.23 0-.34.01l-.18.03c-.04.01-.08.02-.12.04l.01.12c-.14.1-.37-.09-.6-.08.02-.05.07-.03.11-.01-.27-.28-.57.2-.82 0-.06.04-.11.03-.15 0 .01 0 .01 0 .02-.01h-.03c-.03-.02-.05-.05-.08-.07l.07.07c-.05 0-.12.02-.19.05l-.03-.13h-.02c-.07-.05-.06.06-.02.16-.04.02-.07.05-.09.08-.06-.21-.18.07-.26-.16-.05.11-.35.08-.39.32 0-.03-.02-.04.01-.05-.08-.03-.16-.05-.23.01l-.03-.17-.17.23c-.1-.1-.15-.16-.04-.29-.25.2-.2.07-.41.27l.01-.11c-.08 0-.2.15-.24.06-.17-.21-.84-.03-1.27-.22.08.32-.2-.14-.22.1-.03-.08-.09-.12-.01-.18-.22.07-.33-.12-.49.09-.03-.08.05-.11.03-.16-.02.02-.07.07-.09.02-.02-.05.03-.06.07-.1-.23.01-.25.24-.27.46-.11-.1-.17-.09-.26.05-.04-.07-.11-.15.03-.17-.08-.01-.48-.11-.49.07-.02-.04-.15-.01-.17.01-.24-.01-.27-.03-.49.01l.07.02c0 .21-.15.05-.3.15l-.01-.02c-.22.03-.24.1-.26.13-.02.05-.05.07-.21.2l.12.06c.11.1.04.14-.03.21-.07.07-.17.18-.12.32l.08-.06c.05.08-.05.13-.16.21-.11.08-.24.21-.26.24-.02.02-.04-.03-.06-.07-.17.28.17.04.21.24-.09.04-.24-.05-.25.09-.08.07.3.39.12.57.07-.04.14-.08.2.01.03.14-.27.38-.05.51-.02.02-.04.02-.06.03.06.11.1.35.22.41-.45.1.22.67-.2.67l.02.33-.04-.01c-.03.21.07.29.17.36-.03.05-.07.01-.09.01-.09.31-.07.34.14.6l-.14.03c.08.07-.21.45-.06.75-.02 0-.04-.01-.06-.03.16.34-.38.82.12.94l.12.23c.04-.29.21.04.3-.08.03.11-.15.3-.18.15l.02-.02c-.26-.05-.09.36-.27.35.01.3-.03.51-.06.98-.01.21 0 .4.07.59.07.18.21.34.37.45.02-.07.03-.14.06-.2.06.05.13.09.21.12.04.06 0 .18-.17.09.01.07.1.08.19.06.08-.02.16-.07.18-.09.15.06.11.11.02.15-.09.04-.21.05-.15.07.06 0 .11.01.17.01l-.03-.03c.16-.06.2-.15.42-.14.14.04.06.12.12.13 0 .01.02.02.09.01l.24.02-.09-.16c.1-.08.22.01.11-.17.16.28.88.1.98.19.15-.11.29-.11.47-.1-.04-.03-.07-.21.08-.19-.06.37.28.16.41.42-.11-.18.44-.04.26-.29.13.03.01.14.1.22.31-.14.68.09 1.05.05.01-.05-.06-.12.02-.19l.2.24c.07-.02.07-.28.21-.11-.02-.04-.05-.1 0-.12.74.24 1.52-.19 2.27.26-.1-.09-.03-.1.04-.11-.05-.02 0-.12-.01-.18l.32.18c.06-.18.34-.01.37-.18l-.1.03c.13-.2-.18-.46-.16-.72-.15.23-.39-.35-.64-.01-.05-.05.05-.08.02-.15-.06.11-.14.14-.28.08l.02-.03c-.39.03-.56-.09-.99-.16l.03.13c-.09-.02-.11-.06-.16-.09-.11.2.26.01.17.23-.12-.26-.66-.01-.75-.31-.14 0 .04.15-.1.15l-.04-.08-.04.1c-.09-.02-.14-.12-.15-.19.02.01.07-.02.09-.02-.12-.1-.35.03-.39 0l.14.05c-.39.07-.88-.03-1.26.13l.03.06c-.29.11-.23-.07-.55-.02l.01-.01c-.06.06-.15.09-.24.08.08-.07-.15-.14-.05-.22-.32.12-.16.1-.37.32l-.05-.1c-.07.09-.08.14-.24.17.13-.09-.1-.16.05-.27-.33-.22-.5.22-.65-.1-.15.28.29.16.2.22.07.09-.13.21-.23.18-.05 0-.1-.09-.16-.18a.456.456 0 0 0-.12-.12c-.02-.02-.05-.03-.08-.04-.02-.01-.03-.01-.05-.01.01 0 .02-.02.03-.02-.03-.07-.12.1-.15-.02-.1.17-.07-.01-.19.21.06-.02.12-.03.18-.05-.05.03-.12.11-.21.16-.08.06-.19.07-.23-.03.05-.03.13-.07.18-.09 0-.07-.11.01-.1-.08.09-.09.13-.08.18-.07.05.01.11.01.17-.07.02-.09-.21.15-.05-.08-.11.14-.14.12-.16.09-.02-.04-.02-.08-.15-.03l.12-.09c-.02.01-.1.03-.1 0 .06-.02.12-.05.18-.08-.08.03-.06-.02-.02-.07.04-.05.09-.08.05-.09 0 .09-.16.09-.25.19-.09-.06 0-.13.1-.18.05-.02.09-.04.14-.07.02-.01.03-.02.04-.03 0 0 .01-.01.01-.02 0-.02 0-.04-.01-.07 0 .01 0 .03-.01.05-.01.02-.02.02-.03.03-.03.01-.07.02-.1.01.01-.01.01-.01.02-.03l.03-.06c.02-.04.05-.08.09-.1-.03-.27-.13.04-.21-.07.16-.09-.06-.13-.11-.25h.13c.09-.31-.28-.08-.17-.36l.18.12-.05-.15.15.03c-.11-.16-.08-.21-.04-.36-.09.04-.24-.02-.24-.16.08-.09.13.05.11-.14.08.04.19.09.06.18.04.01.08.04.13.05.09-.1.02-.25.02-.32-.01.03-.01.06-.03.08l-.18-.28c.05-.04.09-.01.13.03-.01-.06-.07-.1-.09-.18.11.02.22.02.27.14l-.12-.27c.05-.02.13-.14.17-.1.06-.15-.21-.36-.12-.56-.02-.01-.04-.03-.06-.07.02-.18.16-.35.01-.57l.19-.12c-.04-.17-.24.17-.32-.12-.06-.2.16-.08.22-.15-.1-.1-.29-.28-.14-.46.09.03.06.08.07.14zm-.08-2.12c.03.04.11.12.03.15-.14-.05-.07-.08-.03-.15zm1.34-1.24c-.03.04-.08.02-.13-.03.04-.01.08 0 .13.03zm7.49 2.1c.04-.09.02-.06 0 0zm-.06.19c.02.02.04.02.06.01-.03-.01-.04-.06-.03-.1-.04.01-.06.03-.03.09zm-8.41 6.75l-.05-.03c.12-.05.08-.01.05.03z"/><path class="st1" d="M116.68 94.4l-2.02-2.5-.23.07-.1-.12c-.21.01-.39-.03-.54-.06-.09-.02-.22-.05-.26-.04l-.3.14-.24-.22-.45-.04c.03.03.06.05.08.06-.07-.02-.13-.04-.18-.06h-.02c-.07 0-.11-.01-.13 0l-.33.26-.19-.17.13.23-.86-.06h-.23l-.06.06-.09-.06-.06.01-.02-.01h-.47l-.1-.01-.02.1-.24-.15-.27-.07v-.1l-.09-.06c-.2-.13-.36-.3-.48-.5l-1.16.36 1-.78c-.04-.2-.04-.4-.03-.57l.03-.42c.02-.2.03-.34.03-.52l-.01-.37c-.06-.05-.09-.11-.12-.16-.16-.28-.06-.57 0-.76.02-.05.04-.13.04-.16l-1.15-2.47-.9.45.75-.77-.46-.99.64.81 1.01-1.03c-.11-.21-.13-.37-.1-.5-.03-.15.01-.3.11-.47l.24-.4-.32-.16.49-.38-.94-.27 2-.42c.21-.04.31-.04.46-.03h.04c.01 0 .02-.01.04-.01.19-.11.42-.11.59-.09.12-.18.29-.29.51-.32l.26-.23.11.21.71-.04 1.08-.36.07-.45-.8-.96.86.58.19-1.15.13 1.37.53.36.68-1.19-.24 1.24.01-.01.05-.11.02.06 2.15-1.7-1.81 2.29.13.09.28-.09.01.17.13.1c.16-.06.38-.13.6-.08l.02-.01.04.02c.03.01.06.02.08.03l.86-.49-.08.18.5.1c.17.03.41.06.65.18.32.15.53.41.58.68.06.08.11.18.14.3.02.07.04.15.05.23l.1.24 1.19-.94-1.37 1.93.02.11c.02.08.04.18.05.29l.08-.03 1.62-1.85-1.29 2.58.39.15-.16.07.62-.04-.85.66.02.07-.06-.04-.36.28-.01.3v.11l-.04 1.16-.29-.74c-.02.01-.03.01-.05.02l-1.03.44.27-.78a.598.598 0 0 1-.32-.66.832.832 0 0 1-.17-.16l-.19-.23.08-.31c.02-.05.03-.21.03-.32l-.09-.1.1-.01c0-.1.01-.21.03-.31l-.12-.19c-.01-.02-.03-.05-.04-.08l-.08-.02-.61 1.73V83.6l-.29-.03-.4.77-.08-1.04-.1-.02-.32.16-.02-.21-.77-.12-.5 3.06-.05-.83-1.69-1.13-.01.18-.14-.28-.17-.11-.01.12-.05-.16-.27-.18-.28.26.11-.37-.29-.19-.07.43-.09.62.63.47-.68-.12-.01.05-.02-.06-.56-.1.2.4.79.04-.53.47 1.58 3.12-1.88-2.38-.19.11c0 .04 0 .07-.01.11l.13.07-.14.32c.09.19.18.41.08.66l.06-.02-.15.55v.11l.22.77.16.23.83-.19-.92-.68 1.75.64 1.71-.52-.97.55 1.88-.72-.83.62.26.55.23.04.07-.13.26.19.12.02c.17.03.3.06.42.09.17.04.27.07.42.06l.36-.64.29.6.12-.01.82-1.28-.15 1.96c0-.01.02.02.04.05l.38-.12-.16.81c0 .02-.01.04-.01.06l1.03.45-1.11.04 2.55 2.38-3.8-2.24-.4.12.16-.25c-.26-.1-.54-.09-.88-.06-.09.01-.18.01-.27.02l1.13 2.66zm-3.06-3.65c.13.01.25.03.36.06.01 0 .03 0 .04.01l.04-.04.11-.1c-.18 0-.37 0-.53.01l-.05.03.03.03zm2.84-.64c0 .01 0 .01 0 0zm.01-.01l.02-.03c-.01.01-.02.02-.02.03zm-3.98-.2c-.05 0-.1.02-.13.05l.14.13.02-.18h-.03zm3.32-.04l.09.03.01-.01a.193.193 0 0 0-.09-.05l-.01.03zm-6.06-.21v.03a.21.21 0 0 1 .04-.06l-.02-.03-.02.06zm4.49-.21l.28.1.15-.42-.43.32zm-1.96-.24l-.25.2.37-.11-.12-.09zm-2.58-1.92c-.01.05-.03.1-.03.12l.04.08v-.09l.02.01-.02-.12h-.01zm.08-.79c.01.01.01.02.02.02l.14.18.03-.12-.13-.2-.06.12zm-1.94-1.39l.9 1.14a.89.89 0 0 1-.05-.45l.02-.16-.04-.6h.07c0-.08.01-.16.04-.23-.01-.02-.01-.04-.02-.05l-.05-.09-.87.44zm1.89.79l.04.04.08-.17a.875.875 0 0 1-.02-.16c-.02.06-.04.12-.08.18-.01.01-.01.02-.02.03v.08zm8.71-.28l.13-.12h-.01l.03-.03a.634.634 0 0 1-.28-.18c-.01.06 0 .12.02.18.03.04.06.1.11.15zm0-.27c.03.01.06.02.09.02l-.1-.09c0 .03 0 .05.01.07zm-.12-.07c.03.03.07.05.11.07l-.08-.12.02-.01-.03-.02c-.01.02-.02.05-.02.08zm-5.37-1.72l1.67 1.74-.14-2.22c-.16 0-.28-.06-.33-.08l-.27-.09c-.21.05-.45.06-.67.03v-.02l-.05.05.17.78-.37-.26-.01.07zm5.48 1.69zm-7.38-1.19l.4.3-.24-.72-.01.23-.07-.17c-.01.04-.03.08-.05.12l-.03.24zm6.01-.85l.06-.03-.02-.05-.04.08zm1.31-1.5l-.01.02h.06a.076.076 0 0 0-.05-.02zm-5.01-.66c.13 0 .26.01.38.04l.08-.46-.46.42zm1.03-.66l.04.41.01-.01.12-.2-.17-.2z"/></g><g><path class="st1" d="M111.31 82.44c-.01-.02-.01-.05-.02-.07-.02.02-.02.05.02.07z"/><path class="st1" d="M112.72 84.07l-2.1-1.51.26-.47.75-1.09.15 1.27z"/></g><g><path class="st1" d="M110.48 86.93c0 .01 0 .01 0 0 .01.01.01.01.02.01l-.02-.01z"/><path class="st1" d="M113.57 88.23l-3.51-.92-.08-.49.3-.6 3.29 2.01zm-3.07-1.29l.42.21-.42-.21z"/></g><g><path class="st1" d="M117.67 82.54c-.01-.02-.01-.04-.01-.07-.01.03-.01.06.01.07z"/><path class="st1" d="M118.78 83.45l-1.47-.51-.2-.39.08-.25 1.09-3-.12 3.09z"/></g><g><path class="st1" d="M119.32 85.56l-.03-.12c.01.06-.02.08-.04.11.02-.01.07-.03.07.01z"/><path class="st1" d="M120.05 90.02l-1.11-3.95-.67.06.57-.88.27.18.12-.03-.03-.35.22-.05.38.28.02.25z"/></g><g><path class="st1" d="M118.5 86.61c.02.02 0 .04.02.06h.06c-.01-.08-.06-.13-.08-.06z"/><path class="st1" d="M118.38 87.18l-.44-.45.22-.67.86.07.09 1-.73.05zm.09-.51h.05-.05zm.05 0z"/></g><g><path class="st1" d="M118.88 85.67c-.11.01-.07.09-.05.17v-.02c.15.03.1-.06.05-.15z"/><path class="st1" d="M119.16 86.36l-.41-.04.08-.47-.36.1.04-.02-.16.03c-.01-.04-.03-.09-.03-.16-.01-.11 0-.25.1-.38l.14-.19.62-.07.16.28c.05.1.22.39.02.68l-.2.24zm-.27-.5l.02.31-.02-.31.3.12-.21-.16-.09.02v-.01.01l-.03.01.03.01zm.31.12l.09.04c.05-.12.04-.22.03-.27l-.29.07.17.16z"/></g><g><path class="st1" d="M118.83 85.86c.01.03.01.05 0 .08.07.01.02-.03 0-.08z"/><path class="st1" d="M119.09 86.48l-.86-.14.12-.51.25.06.12-.04-.26-.2.28.2.11-.03.07-.37-.07.37.16-.04.27-.13.15.28z"/></g><g><path class="st1" d="M119.17 84.79c-.03.04.14.03.1.05.14.05-.17-.27-.1-.05z"/><path class="st1" d="M119.52 85.44l-1.59-.5.65-.32-.01-.04.33-.29c.17-.1.42-.13.66.08l.08.01.03.1.21.21-.09.24.03.19-.16.08-.14.24zm-.25-.56l-.06.34c.07 0 .14-.02.21-.06l-.15-.28z"/></g><g><path class="st1" d="M118.51 85.74l.14-.03-.11-.05z"/><path class="st1" d="M117.76 86.42l.48-1.43 2.04.87z"/></g><g><path class="st1" d="M118.62 85.07l-.04.14c.02 0 .04.02.05.04 0-.1.03-.19-.01-.18z"/><path class="st1" d="M118.92 86.86l-.6-1.13-.42.04.33-1.17.59-.04.34.35-.03.33-.21 1.62zm-.77-1.65c.02.06.05.14.12.21l.01-.01.18-.18-.31-.02z"/></g><g><path class="st1" d="M118.62 85.24c0 .04 0 .09.02.11.01-.03 0-.08-.02-.11z"/><path class="st1" d="M119.27 86.76l-.99-1.07a.608.608 0 0 1-.15-.48l.13-1.92.82 1.74c.05.1.06.2.07.28l.12 1.45zm-.51-1.51l.37.02c0-.05-.02-.16-.11-.26l-.26.24z"/></g><g><path class="st1" d="M118.47 85.55l.03-.04.01-.09z"/><path class="st1" d="M117.24 88.08l.79-2.8.09.02-.05-.04.03-.04.14.1.77.15-.01.13-.09.21z"/></g><g><path class="st1" d="M118.65 83.6l-.04-.15c-.05-.02-.08.03-.06.08.03.04.05.09.1.07z"/><path class="st1" d="M118.49 84.24l-.41-.55-.1-.29.44-.51.6.17.21.8-.74.38zm.06-.61l-.1.3.1-.3z"/></g><g><path class="st1" d="M118.27 84.05c.03-.04.06-.04.1-.07l-.17-.01.07.08z"/><path class="st1" d="M118.32 84.84l-1.3-1.4 3.36.1-1.76.88z"/></g><g><path class="st1" d="M118.23 83.62c-.05-.01-.13-.22-.12-.03.04.01.08.16.12.03z"/><path class="st1" d="M117.98 84.22l-.16-.2-.19-.07-.04-.7.35-.21.35-.13.22.27.34.11-.22.76z"/></g><g><path class="st1" d="M117.65 82.07h.04l.06-.28c-.05.09-.08.19-.1.28z"/><path class="st1" d="M117 82.61l.16-.67c.03-.1.06-.21.1-.31l.36.1-.01-.15h.04l.01.16.56.15-.13.66-1.09.06z"/></g><g><path class="st1" d="M115.68 82.73c.18.07.04-.17.2-.09.04-.07-.13-.07-.09-.13-.1.08-.16.04-.11.22z"/><path class="st1" d="M116.06 83.31l-.16-.08c-.1.03-.24.04-.4-.02l-.24-.09-.06-.25c-.12-.47.15-.68.32-.76l2.28-1.48-1.41 1.94.04.14-.37.6zm-.17-.64l.16.25c.04-.04.07-.09.08-.15l-.17-.12-.07.02z"/></g><g><path class="st1" d="M115.8 82.52c.02-.01.04-.02.05-.04-.03.02-.04.03-.05.04z"/><path class="st1" d="M113.54 84.48l1.92-2.35.14-.09 3.5-1.97-3.05 2.88-2.51 1.53zm2.09-2.24l-.09-.15.09.15z"/></g><g><path class="st1" d="M117.64 91.46l.11.06-.07-.1z"/><path class="st1" d="M119.53 93l-2.77-1.43.98-.88z"/></g><g><path class="st1" d="M117.85 91.25l.03.18.07-.16c-.03.01-.08.02-.1-.02z"/><path class="st1" d="M117.65 93.25l-.77-5.13 1.26 2.57.68-.19z"/></g><g><path class="st1" d="M110.69 83.18l-.04-.01c-.05.02-.05.04-.06.1l.1-.09z"/><path class="st1" d="M109.9 84.54l.2-1.34c.04-.31.23-.44.38-.49l.13-.05 1.13.23-1.84 1.65z"/></g><g><path class="st1" d="M110.55 84.72l.01-.03-.16.05z"/><path class="st1" d="M110.47 85.24l-.12-.54-.29-.04v-.02l.28.03-.09-.41.89-.27-.13 1.14z"/></g><g><path class="st1" d="M110.75 86.01c.01-.05-.03-.11-.02-.17.03.12-.18.19.02.17z"/><path class="st1" d="M110.46 86.53l-.24-.3-.15-.29.17-.22.33-2.61.64 2.61c.01.03.01.07.02.11.01.06.03.14.02.24l-.05.41-.74.05zm-.2-.58h.03-.03zm-.02-.13v.11-.11zm.06-.17z"/></g></g><g><defs><path id="SVGID_5_" d="M116.5 90.78l-4.79-.01a2 2 0 0 1-1.99-2.01l.01-4.79a2 2 0 0 1 2.01-1.99l4.79.01a2 2 0 0 1 1.99 2.01l-.01 4.79c-.01 1.1-.91 2-2.01 1.99z"/></defs><defs><path id="SVGID_6_" d="M116.5 91.28l-4.79-.01c-1.38 0-2.5-1.13-2.49-2.51l.01-4.79c0-.67.26-1.29.74-1.76.47-.47 1.1-.73 1.76-.73h.01l4.79.01c.67 0 1.29.26 1.76.74.47.47.73 1.1.73 1.77l-.02 4.79c0 1.38-1.12 2.49-2.5 2.49zm0-1c.83 0 1.5-.67 1.5-1.5l.01-4.79c0-.4-.15-.78-.44-1.06s-.66-.44-1.06-.44l-4.79-.01c-.41-.04-.77.15-1.06.44-.29.28-.44.66-.44 1.06l-.01 4.79c0 .4.15.78.44 1.06.28.29.66.44 1.06.44l4.79.01z"/></defs><use xlink:href="#SVGID_5_" overflow="visible" fill="#f15c68"/><use xlink:href="#SVGID_6_" overflow="visible" fill="#f15c68"/><clipPath id="SVGID_7_"><use xlink:href="#SVGID_5_" overflow="visible"/></clipPath><clipPath id="SVGID_8_" class="st5"><use xlink:href="#SVGID_6_" overflow="visible"/></clipPath></g></g></svg>