<svg version="1.1" id="Layer_1" xmlns="http://www.w3.org/2000/svg" xmlns:xlink="http://www.w3.org/1999/xlink" x="0" y="0" viewBox="0 0 144 144" xml:space="preserve"><style type="text/css">.st0{opacity:.3}.st1{fill:none;stroke:#0046bb;stroke-width:2;stroke-linecap:round;stroke-miterlimit:10}.st2{fill:#0046bb}.st3{stroke:#0046bb;stroke-width:1.5;stroke-linecap:round;stroke-miterlimit:10}.st3,.st4{display:none;fill:#fff}.st5{opacity:.35}.st6{fill:#205dc4}.st7{opacity:.19}.st8{fill:#fff;stroke:#0046bb;stroke-width:2;stroke-linecap:round;stroke-miterlimit:10}</style><g class="st0"><defs><path id="SVGID_1_" d="M103.36 111.99l-.59-19.14c-.03-1.1.84-2.03 1.94-2.06l19.14-.59c1.1-.03 2.03.84 2.06 1.94l.59 19.14c.03 1.1-.84 2.03-1.94 2.06l-19.14.59c-1.1.03-2.03-.84-2.06-1.94z"/></defs><clipPath id="SVGID_2_"><use xlink:href="#SVGID_1_" overflow="visible"/></clipPath></g><path class="st1" d="M115.3 75.85c-24.88 18.91-27.98 4.95-35.36-4.34-5.14-6.47-9.75-7.18-17.92-.5-1.84 1.51-3.38 2.41-4.64 2.93-2.87 1.19-5.74-1.84-4.39-4.64.02-.04.04-.07.05-.11 2.13-4.25 18.9-27.3 49.43-19.45M38.68 90.97s-4.84 2.36-5.29-2.28c-.45-4.64 8.55-12.06 10.12-7.94 0 0 1.02 2.44-1.93 5.95"/><path class="st1" d="M44.07 96.38s-5.58 1.12-5.66-3.95c-.07-4.16 9.3-12.5 12.58-10.54.89.53 1.08 1.75.99 2.79-.13 1.51-.52 3.01-2.71 5.66"/><path class="st1" d="M49.25 102.95s-4.78 1.01-5.41-3.87c-.55-4.25 8.59-13.37 12.66-11.52.47.21.78.66.87 1.16.22 1.21.5 3.37-3 8.08"/><path class="st1" d="M54.9 106.26c-1.65 1.41-4.3.57-4.75-1.55 0-.02-.01-.03-.01-.05-.93-4.57 8.06-12.6 10.52-9.13 0 0 1.82 1.55-2.46 7.11-1.34 1.74-2.43 2.88-3.3 3.62z"/><path class="st2" d="M68.74 54.23c-.14-.53-.68-.86-1.22-.72-.12.03-10.63 2.57-24.04-3.47-.21.67-.63 1.26-1.27 1.62 7.69 3.58 14.48 4.45 19.15 4.45 3.95 0 6.41-.6 6.65-.66.54-.14.87-.68.73-1.22z"/><path class="st1" d="M65.86 98.58s10.29 9.95 17.39 1.97M70.67 93.94s14.76 12.11 20.31 1.1"/><path class="st1" d="M76.15 87.63s12.11 9.29 19.88 6.28c2.42-.94 1.97-3.99.46-5.99-.4-.52-.92-.94-1.49-1.27l-3.45-2.2M20.55 78.55l-8.66-5.94a3.838 3.838 0 0 1-1.2-5.29l22.05-25.65a3.838 3.838 0 0 1 5.29-1.2l4.66 2.94a3.838 3.838 0 0 1 1.2 5.29L25.84 77.35c-1.12 1.78-3.5 2.32-5.29 1.2zM121 81.06l11.58-6.73c1.17-.57 1.66-2 1.08-3.17L112.58 39.4c-.57-1.17-2-1.66-3.17-1.08l-7.58 3.73c-1.17.57-1.66 2-1.08 3.17l17.08 34.76c.57 1.17 2 1.65 3.17 1.08zM48.08 46.96s5.97 3.1 14.16 2.21"/><circle class="st3" cx="20.41" cy="69.11" r="2.21"/><g><circle class="st4" cx="122.26" cy="70.88" r="2.21"/><path class="st2" d="M122.26 73.84c-1.63 0-2.96-1.33-2.96-2.96s1.33-2.96 2.96-2.96 2.96 1.33 2.96 2.96-1.32 2.96-2.96 2.96zm0-4.43c-.81 0-1.46.66-1.46 1.46s.66 1.46 1.46 1.46 1.46-.66 1.46-1.46-.65-1.46-1.46-1.46z"/></g><g><path class="st2" d="M68.36 106.07c-3.07 0-6.3-.69-9.83-2.08a.995.995 0 0 1-.56-1.3c.2-.51.78-.77 1.3-.56 5.68 2.23 10.27 2.54 14.91.98.52-.17 1.09.11 1.27.63s-.11 1.09-.63 1.27c-2.12.7-4.25 1.06-6.46 1.06z"/></g><g><path class="st2" d="M33.35 86.97a.99.99 0 0 1-.66-.25c-5.91-5.2-7.43-7.59-7.49-7.69-.29-.47-.15-1.09.32-1.38a.991.991 0 0 1 1.37.32c.03.04 1.52 2.33 7.11 7.25.42.36.46 1 .09 1.41-.19.23-.47.34-.74.34z"/></g><g><path class="st2" d="M88.12 73.32c-5.23 0-10.24-3.09-10.51-3.26a1.003 1.003 0 0 1 1.06-1.7c.08.05 7.59 4.66 13 2.26.51-.23 1.1 0 1.32.51a1 1 0 0 1-.51 1.32c-1.4.63-2.89.87-4.36.87z"/></g><g class="st5"><path class="st2" d="M116.77 72.97c1.12-.26 2.25.44 2.51 1.57l6.56 28.33c.26 1.12-.44 2.25-1.57 2.51l-28.33 6.56c-1.12.26-2.25-.44-2.51-1.57l23.34-37.4z"/><path class="st6" d="M115.29 71.1c.11-.11-.16-.4-.19-.49-.11.32.25.57.19.49zM114.36 74.21l-.07-.17.03.68zM112.98 76.4c.57.35.43-.88.83-1.07l.14.06-.24-.63c-.24.54-.4 1.46-.73 1.64zM111.27 76.36c.22.14-.01.44.23-.21-.04 0-.05 0-.08-.01-.02.06-.06.13-.15.22z"/><path class="st6" d="M111.43 76.15c.13-.25-.24-.03 0 0zM110.85 77.35l.04-.5c-.14-.06-.34.18-.35-.01-.12.42.02.48.31.51zM110.99 78.04l.03-.24c-.05-.02-.1 0-.03.24zM111.1 77.29l-.07.51c.1.04.25.22.05-.22.11.2.02-.03.02-.29zM111.29 77.19c.21-.05.41-.2.37.3.31-.66-.06-.97-.37-.3zM113.37 77.09l.27-.06-.03-.38c.02.18-.39.28-.24.44zM109.39 78.98c.09.13.33.2.47.33l.03-.36c-.14.04-.34.18-.5.03zM109.86 79.31l-.04.54c.21-.29.16-.44.04-.54zM111.47 78.7v-.97l-.07 1.09zM108.56 80.26l-.11-.46.13.75zM108.05 81.17c-.1-.36-.45-.17-.48-.46-.11.27-.07.66-.04 1.01.04-.29.19-.47.52-.55zM107.57 82.26c.01-.15-.01-.34-.03-.54-.02.15-.02.32.03.54zM109.41 80.36c-.08-.04-.27-.17-.45-.06l.37.19c.01-.04.05-.08.08-.13zM109.33 80.5l-.01-.01c-.1.14-.17.23-.2.27.03-.03.09-.11.21-.26zM109.43 80.33l-.02.03c.03.02.05.02.02-.03zM110.66 79.29c.03.38-.06.99.42.87-.1-.37-.37-.3-.42-.87zM109.88 80.57l.29-.28c-.08-.08-.23-.14-.24-.33l-.05.61zM109.86 80.84l.02-.27-.1.1zM108.22 81.94c.03.29-.07.47-.17.69.19-.14.35-.32.48-.52-.07-.13-.18-.4-.31-.17zM108.79 81.27l-.01.05c.04 0 .06 0 .01-.05zM106.86 84.51l.07.03-.04-.06zM108.61 82.13c.15-.09.14-.26.11-.45-.04.15-.1.29-.18.42.02.06.05.1.07.03zM107.37 82.94c.11-.02.22-.05.33-.1-.15-.02-.39-.01-.33.1zM108.67 81.28v-.04c-.09-.01-.06.01 0 .04zM108.67 81.28c-.01.13.02.27.04.4.04-.12.06-.24.07-.36-.03 0-.07-.02-.11-.04zM108.4 87.06c-.26-.31-.26-.98.25-1.01.01-.55-1.02-1.28-1.71-1.51.11.14.22.25.16.77.23.03.84-.42.9.14-.15.61-.34.28-.62.35.46.16.13 1.11.7 1.53l.08-.59c.07.08.1.36.24.32zM107.39 83.89l.06-.18c-.15.12-.34.12-.69.11-.02.38.05.54.13.65l.49-.68.01.1z"/><path class="st6" d="M107.86 83.06c.22.43.13.91.58 1.04.25-.45-.06-.56-.02-.96-.36.77-.04-.37-.52-.06.04-.19.1-.33.16-.46-.11.09-.23.16-.36.21h.03v.01c.06.01.08.02.04.03v.02c.03.06.06.11.09.17-.19.13-.1-.05-.09-.15l-.04-.06h-.01l-.28.87c.14-.11.25-.3.42-.66zM111.46 81.23c-.04-.01-.06-.03-.08-.05.01.08.02.12.08.05zM111.11 81.31c-.01-.1-.09-.27.04-.4.17-.04.13.16.23.26-.01-.18.01-.58-.31-.43l.01.09c-.27.16-.84.11-.85.02.29.22.52.35.88.46zM109.56 82.27l-.22.73.43-.01-.16-.15c.26-.26.04-.4-.05-.57zM106.67 84.42l-.26-.4.23.8zM106.24 85.21l-.26-.31.04.37zM113.16 105.51l.17-.15c-.09.06-.13.11-.17.15zM111.77 105.81l.01.2c.04-.12.05-.21-.01-.2zM94.62 103.78c-.56.2-1.42.49-.97.62l.48.05c.11-.33.3-.53.49-.67zM100.94 110.68l-.11-.11c-.03.16-.07.31-.1.45.06-.1.14-.22.21-.34zM100.73 108.89l.43.19c-.1-.08-.24-.15-.43-.19zM120.62 103.31l.12-.48c-.34.08-.14.27-.12.48zM101.51 93.01c-.26.1-.42.22-.53.36.35-.09.76-.05.53-.36zM113.66 110.13c.1-.1.13-.2.1-.29-.1.09-.15.19-.1.29zM100.59 93.99c.06-.01.1-.03.15-.05.04-.2.1-.4.24-.57-.26.07-.49.22-.39.62zM118.52 82.21c.01-.02.02-.05.04-.07-.06 0-.06.03-.04.07zM120.4 72.57c.12.1.26.32.38.52-.02-.12-.13-.29-.38-.52zM104.19 88.1c.08-.18-.02-.05 0 0zM105.9 88.53c.01.07.04.14.11.21a.533.533 0 0 1-.11-.21zM101.66 97.31l-.01.01c.1.01.08.01.01-.01zM104.49 88a.65.65 0 0 0-.22.11c.04 0 .11-.04.22-.11zM104.32 87.89c.05-.04.08-.08.12-.11-.04-.07-.09-.08-.12.11zM104.07 88.34c.05-.1.12-.17.2-.23-.04.01-.07.01-.07-.01-.03.05-.07.13-.13.24zM123.06 96.65c.01-.01.02-.03.03-.05-.22-.14-.17-.07-.03.05zM97.22 108.07h-.02l-.03.02zM97.58 108.11c-.8.28-.63.13-.41-.02-.65.26-1.31.55-1.99.85.76-.22 1.56-.5 2.4-.83z"/><path class="st6" d="M116.45 104.62l-.54-.27c.4-.75.85-.63.3-1.06.24 1.34-1.73.54-1.48 1.88l-.36-.21c.09-.01.08-.09.17-.09-.73-.5-.21 1.06-1 1.04-.28-.04-.51-.19-.37-.39l-.5.46a.12.12 0 0 1-.01-.24l-.86.31v-.04c-.08.24-.29.62-.4.79-.27-.14.08-.17-.02-.32l-.42.43c-.28-.3.05-.72.4-.75-.76-1.21-.33.43-1.5-.12l.42-.28c-.47-.68-.77-.33-1.4-.67.18.22 1.32.94.87 1.39-.17-.07-.38-.07-.61.27-.11-.47-.37-.29-.71-.18l-.12-.63c-.34.27-.23.58-.39.91-.44.04-.64-.43-.83-.81-.7.06.65.67-.13.97-.62-.11-.95.24-1.54.77-.44-.12-.02-.4-.2-.54l-.23.58c-.09.01-.1-.15-.1-.23-.25.26.12.63-.3.9.03.72-1.18-.78-1.57.13-.18-.14-.02-.4-.12-.63-.67.69-.59.53-1.07 1.37l-.64-.28c.51.37.12 1.05-.22 1.61.2.19.36.36.47.44-.21.17-.42.33-.7.52-.12-.08-.06-.32.02-.61-.04.07-.08.13-.12.18-.31-.17-.18-.58-.09-.97.09.11.2.22.31.33.09-.42.16-.88.04-1.23-.03.08-.11.17-.2.22.02-.11.03-.21 0-.27-.03-.06-.1.1-.13.27-.08-.22-.16-.45-.22-.68l.02.29c-.2-.11-.36-.22-.48-.35a6.1 6.1 0 0 1-1.12 1.7c-.37.39-.85.76-1.36 1 .61-.68.63-1.02 1.08-1.76-.2.58.38-.04.66-.27.08-.06.15-.1.21-.08-.14-.04.02-.38.08-.5l-.13.15c-.19.21-.41.42-.67.65.33-.6.12-.42.16-.64-.62 1.17-.94.9-1.51 1.35.34-.42.75-.87.92-.83.2-.43-.13-.05-.57.36-.42.41-.94.85-.75.43.09-.01.08.06.31-.16-.55.42-.73-.04-.21-.37l.08.01c-.15-.14-.44-.33-.8-.49-.17-.07-.41-.15-.59-.15-.15 0-.38.05-.71.2.18-.08 1.65-.73 1.93-.86-1.44.56-2.86.88-3.56.68.2-.04.49-.13.82-.25.39-.14.82-.29 1.23-.44.86-.29 1.61-.5 1.84-.48.21-.14.43-.27.17-.34-.17.08-1.61.6-1.63.52.64-.3.82-.39 1.01-.48.16-.08.31-.18.84-.38-.26.12-1.68.26-1.48.01.19.01 1.41-.14 1.52-.11-.4-.05-.77-.17-1.08-.36.15.13 1.09.04 1.48.01-.26.01.18-.24.11-.34-.11.02-.23.04-.35.07.38-.28-1.24-.98-.7-1.73.13.22 1.03 1.04 1.38.75-.37-.5-1.78-2.37-1.72-3.3l.35.07.02-.73c.49.84 1.42 2.79 1.7 3.68.38-.12.36.15.6-.28.34.04.24.5.18.63l.75-.84c-.57-.35-.09-1.13-.56-1.43l-.09 1.46c-.57-.35-1.16-1.73-.64-2.35.32-.01.88.85 1.07.97-.13-.23.05-.91.22-.88l.11.51c.44-.23-.32-1.16.47-1.23.13-.13.98.06.68-.21-.76-.22-2.67-1.62-3.02-2.15.08-.03 1.11-.4 1.52-.34.63.11.88 1.29 1.42 1.38-.14-.12-.23-.41-.25-.51.23-.07.4.42.56.01-.49-.49.5-.7-.34-.53.07-.48.34-.29.58-.72-.42-.15-.93-1.32-.85-1.81.12.13.34.2.45.22.5-.69.98-.89 1.41-1.56.16.04.52-.15.65.18-.03-.18-.15-.42-.03-.64.69-.02-.22.53.5.68-.28-.29-.08-.9-.07-1.36-.51-.31-.52.61-.52 1.07-.64-.55-.98-1.66-.81-2.64.2-.71.56.12.53-.06.78-.97-.51-1.91.5-2.4.61.01.79.72 1.12.9-.14.6-.69.48-.88.81l.43-.21c.04.27-.05.67-.27.73.54.03 1.19-1.74 2.03-2.25-.04-.27-.02-.65-.24-.68l-.11.31c-.46-.06-.12-.91-.48-.72 0-.56-.09-1.3.4-1.62l.49.34c-.13-.12-.46.07-.42.34-.06-.4 1.06-.17.64-.97l-.52.05c0-.57-.17-1.48.24-1.78-.55-.23-.02.15-.71-.04.79.36-.74 1.11.19 1.33-.78-.26-.6.31-1.36.24.15.13.37.12.06.42.03.06.06.15.08.21-.01.01-.02.01-.03.01h.03c.01.04.02.04.01 0 .12-.03.24-.02.34.03.22.51-.17 1.09-.12 1.45-.21.15-.11-.25-.34-.28l.07.55c-.34-.28-.91.07-.77-.63l-.31.46c-.36.1-.67.42-.68.78-.21.16.01.9-.12.47l-.26.92-.09-.07c-.5.69-.38 1.98-1.51 2.28-.07.32-.12.66-.47.99l-.35-.17c-.09.4-.89.7-.67 1.09-1.02-.32-1.14 1.39-1.63 1.82l.34.31c-.26.36-.38.82-.51 1.41l.37.24c.04.63-.91.85-1.27 1.52-.11-.15.03-.28.18-.34-1.3.17-.42 2.05-1.45 2.31.02.27-.1.36-.27.42.01-.02.01-.04.01-.06-.02.01-.03.04-.05.07-.06.02-.11.03-.17.05-.07.03-.15.08-.22.13.17-.07.31-.12.37-.14-.06.12-.27.55-.34.89l-.52-.07a.3.3 0 0 1-.04.08c-.37.26.06.34.49.33-.02.18-.02.35.03.49-.45-.01-.52.22-.58.44-.07.22-.14.43-.7.55.32.26-.64 1.59.4 1.55-.14.03-.25.11-.19-.02-.25.28-.46.57-.27.74l-.79.28c.26.13.51.23.75.32-.59.46-.88.74-1.3.54.28.31.25.47.31.55.04.1.09.19.34.32l-.37.16c-.01.05.01.09.03.13.01.03.08.09.16.15.14.12.25.23.15.39-.19.47.3 1.25 1.12 1.66.41.21.85.31 1.21.36.39.06.76.18 1.1.36.21-.63.32-.49.47-.33.16.17.41.35.68-.17-.04.3.18.43-.27.75.24-.08.45-.15.63-.18.71-.15 1.19.08 1.88-.7.1.26-.29.48-.2.63.11-.09.39-.34.5-.19.11.14-.18.28-.39.45 1.29-.35 1.31-1.22 1.29-2.04.26.13.47.17.63.1.12-.06.2-.23.27-.51.19.22.46.44.03.64.26-.02 1.63.01 1.51-.61.12.14.36-.04.41-.12.58-.09.64-.05 1.18-.24l-.18-.07c.05-.8.42-.27.85-.47l.01.08c1.16.3.38-.36 1.54.02l-.16-.45c-.14-1.03 1.04.38 1.54-.14l-.27-.22c.24-.42 1.22 1.16 1.57 1.21.09.07-.08.17-.16.25.98.4-.03-.64.57-.93.19.3.04.87.48.84.27.22.98-1.36 1.71-.86-.19-.22-.37-.45-.12-.71.43-.19 1.44.68 1.66-.22.07.06.11.12.13.18.3-.29 1.04-.6 1.14-1.09.69 1.54 1.95-1.28 2.29.21l1.04-.32.01.16c.7-.06.85-.47 1.01-.88.18.07.1.23.1.31 1.06.07 1.14-.01 1.79-.95l.2.46c.08-.17.48-.06.97-.01.26.02.48.04.79-.02.39-.08.77-.21 1.07-.42.01.06.02.15-.07.24.71-.45 1.75-.42 2.57-.88.81-.42 1.24-1.17.54-1.82 0-.37-.06-.74-.17-1.09-.15.57-.36.43-.52.23-.18-.2-.38-.46-.55-.31-.04-.39.49-.88.64-.35l-.09.06c.46.23.56-.1.55-.49 0-.39-.09-.82.24-.81l-.01-.06c-.36-1.45-.39-2.13-.48-3.1-.08-.91-.15-1.81-.32-2.66l-.67.36-.1-.61c.13-.2.51-.34.58.09.35-.32-.5-.64-.66-.61.1-.9.91.13.86-.13l-.13-.34-.07.1c-.36-.21-.67-.17-.75-.69.07-.36.4-.27.4-.4.05-.01.06-.06-.02-.2l-.11-.77-.49.43c-.35-.27-.13-.71-.69-.22.86-.74-.3-2.89-.07-3.27-.52-.37-.62-.84-.7-1.42-.08.17-.7.4-.73-.11 1.35-.12.36-1.03 1.2-1.65-.54.5-.48-1.37-1.23-.6.01-.44.48-.14.72-.52-.73-.86-.17-2.23-.62-3.4-.18.02-.39.28-.71.08l.71-.84c-.14-.22-1.04.01-.55-.57-.13.1-.33.24-.42.09.14-1.28-.31-2.45-.67-3.65-.18-.6-.34-1.2-.39-1.83-.02-.31-.02-.63.02-.96.02-.16.05-.33.09-.5.03-.23 0-.62-.04-.94-.06.78-.24.33-.48-.09.07.32-.39.19-.57.36-.06-.6-.3-1.22-.73-1.77-.33.17-.74-.06-1.2-.19-.45-.13-.92-.14-1.01.18.18-.04.36-.06.54-.07-.41.33-.16.76-.07 1.24.12.48.06.98-.17 1.4.28-.34.33.07.18.33-.06.13-.16.23-.15.26 0 .07.09-.04.44.16-.15.22-.33-.08-.53.07.45.1.58.32.51.81l-.11-.03c.39 1.22.11 1.84.18 3.3l.44-.21c.01.31-.12.41-.21.58.78.18-.16-.85.69-.72-.85.62.48 2.12-.53 2.63.1.46.5-.26.6.2l-.26.19.4.03c.01.32-.32.55-.56.62.01-.08-.12-.19-.16-.27-.25.47.37 1.08.29 1.24l.08-.48c.56 1.2.54 2.82 1.41 3.9l.2-.14c.62.84-.07.8.36 1.78l-.06-.03c.26.15.44.4.48.69-.31-.2-.38.6-.74.33.67.91.46.42 1.42.9l-.33.24c.38.15.56.13.77.62-.41-.35-.48.45-.99.08-.54 1.25 1.17 1.4.12 2.16 1.11.26.34-1.05.62-.83.27-.31.84.23.82.59.06.35-1.14.88-.93 1.73-.02-.09-.09-.07-.11-.16-.18.38.49.55.17 1.04.66.08.08.52.87.41l-.36-.75c.31.4 1.3.61 1.04 1.45-.17-.02-.42-.19-.57-.32-.18.27.25.38.06.66-.79.12-.39-.92-1.09-1.26-.27.31.77.78-.12.73 1.14.1.06.88 1.01 1.27l-.47.07c.09.08.36.22.38.39l-.67-.17c.62.35-.24 1.01.15 1.4-.23-.94.51-.34.75-.82.89 1.02-1.05.95-.53 2.21-.11-.16.12-.73.4-.5-.04.27-.14.64-.35.85.15.44.25.3.38.23.12-.13.25-.32.43-.17-.24.24-.19.18-.02.23.16.03.43.06.55.17l-.49.02c-.01.02-.02.05-.02.06-.07.32 1.09.16.82.61-.25-.13-.51-.25-.76-.34.08.08.16.16.23.25l-.6-.19c.46.29.34.39.11.47.37.14.93.51.78.76-.39-.07-.38-.37-.54-.09-.21-.28-.54-.57-.04-.37-.15-.11-.27-.24-.43-.34-.38-.12-.22.14-.29.19.04 0 .09 0 .16.04.12.24.18.49.17.72-.19-.14-.22-.28-.28-.42-.03.06.05.27-.05.34-.19-.36-.4-.72-.44-.91.03.14.03.29 0 .45-.1-.15-.3-.41-.32-.55-.04-.05-.05-.03-.06.03.02.02-.06.08-.13.14-.06.06-.13.12-.2.18-.27.25-.56.49-.91.42-.02.08-.06.17-.19.25-.61.05-1.24-.3-1.82.39l-.56-.59c-.51.28.74.74-.12 1.21-.6.37-.38-.53-.65-.67-.24.42-.64 1.25-1.36.83.16-.13.34-.06.51-.16zm-6.69 1.87c.11-.13.3-.49.46-.24-.03.58-.2.35-.46.24zm-9.78 3.46c.07-.18.17-.12.32.03-.09.06-.21.07-.32-.03zm3.4-19.83c0 .01.01.02.01.03-.3.13-.19.09-.01-.03zm.49-.39c-.01-.1-.07-.14-.13-.17.06.12 0 .25-.12.36.12.05.23.04.25-.19zM125.78 94l-.1.15c-.2-.24-.06-.19.1-.15z"/><path class="st6" d="M100.75 109.1c.06.07.09.16.12.24.03-.09.01-.18-.12-.24zM120.6 103.4h.02v-.09l-.02.09zM101.84 100.6a.48.48 0 0 1-.32.05c.09.08.19.1.32-.05zM105.08 86.3l-.13.43c.09-.18.2-.17.31-.2-.08-.07-.24-.12-.18-.23zM109.02 85.48c-.01-.09.06-.11.05-.2l-.16-.15c-.12.22-.09.5.11.35zM106.41 87.12c.3.26.34-.05.44-.34-.01.02-.01.03-.03.04-.35-.48-.38-.09-.41.3zM106.87 86.71c.03-.09.07-.17.13-.23-.14-.19-.08.06-.13.23zM104.1 88.86c.15-.04-.33-.43-.17-.38-.29-.49-.03 1.19.17.38zM107.47 87.88l-.4-.27.2.42zM106.04 89.49l.34-.28c-.06-.05-.07-.14-.06-.22-.16.22-.39.41-.28.5zM106.32 88.99c.08-.12.15-.24.13-.36-.04.06-.12.22-.13.36zM107.25 88.5l-.14.04-.19.24zM103.41 93.52l-.15.51c.1.16.25.11.3-.09-.03-.18.02-.38-.15-.42zM105.21 93.19c-.15.04-.23-.03-.39-.08l.45.43-.06-.35zM104.57 94.48c.1.16 0 .92.29.38-.1-.15.05-.66-.29-.38zM100.11 100.18l.06-.11-.81-.61zM98.91 106.69c.3-.02-.55-.3-.14-.37-.05-.14-.19-.04-.25-.05-.07 0-.14.02-.21-.06.12.26-.03.23.6.48zM98.3 106.21c-.02-.05-.05-.1-.08-.16.02.08.05.12.08.16zM118.43 70.63c-.24-.14-.5-.26-.78-.35.17.13.33.26.47.41l.31-.06zM116.95 71.24c-.07-.21-.15-.42-.24-.63-.36.23-.78.59-.96.94.16-.12.45-.27.75-.34.07-.02.15-.03.22-.04.07-.01.06 0 .1.01.05 0 .09.02.13.06zM108.46 105.45l.01.16c.09.15.18.14.36.13l-.37-.29zM113.47 104.79l-.08.01.29.53zM117.43 103.11c-.17.02-.34.19-.52.2.34-.19.73.5.52-.2z"/></g><g class="st7"><path class="st2" d="M42.66 33.39c-.09-.41.16-.82.57-.92l10.36-2.38c.41-.09.82.16.92.57l2.38 10.36c.09.41-.16.82-.57.92l-13.66-8.55z"/><path class="st6" d="M41.71 34.12c-.04-.04-.19.09-.23.11.13.03.28-.14.23-.11zM42.96 34.39l-.09.04.3-.04zM43.76 34.9c.21-.27-.34-.15-.38-.32l.04-.06-.29.13c.21.09.58.11.63.25zM43.58 35.66c.08-.1.19-.01-.07-.09 0 .02-.01.02-.01.03.03.01.05.03.08.06z"/><path class="st6" d="M43.51 35.6c-.1-.05-.04.11 0 0zM43.96 35.8l-.21.01c-.04.07.05.14-.04.16.18.03.22-.04.25-.17zM44.27 35.71h-.1c-.01.02-.01.04.1 0zM43.96 35.69l.21.01c.03-.05.12-.12-.09-.01.1-.06-.01-.01-.12 0zM43.94 35.61c0-.09-.05-.17.16-.18-.25-.1-.42.08-.16.18zM44.09 34.7v-.12l-.17.03c.08-.01.08.16.17.09zM44.53 36.37c.06-.04.12-.16.18-.22h-.15c0 .06.05.15-.03.22zM44.71 36.15l.22-.01c-.1-.08-.17-.05-.22.01zM44.6 35.47l-.42.04.46-.02zM45 36.69l-.21.07.33-.1zM45.34 36.87c-.16.06-.11.21-.23.23.11.04.27 0 .42-.03-.12 0-.19-.06-.19-.2zM45.76 37.03c-.06 0-.14.02-.23.04.06 0 .13 0 .23-.04zM45.11 36.3c-.03.04-.1.13-.07.21l.11-.17-.04-.04zM45.16 36.33c.04.04.08.07.09.08-.01-.01-.03-.03-.09-.08zM45.1 36.29l.01.01c.01-.01.02-.02-.01-.01zM44.77 35.8c.16-.03.41-.02.41-.23-.17.06-.16.18-.41.23zM45.24 36.08l-.09-.12c-.04.04-.08.11-.16.12h.25zM45.36 36.08h-.12l.04.04zM45.68 36.76c.13-.03.19.01.28.04a.546.546 0 0 0-.18-.19c-.07.04-.19.1-.1.15zM45.44 36.54h.02c.01-.02.01-.03-.02 0zM46.65 37.24l.01-.03-.03.02zM45.79 36.58c-.03-.06-.1-.05-.18-.03.06.01.11.03.16.06.03-.02.05-.03.02-.03zM46.02 37.09c0-.05 0-.1-.01-.14-.02.06-.04.17.01.14zM45.44 36.59h-.02c-.01.04 0 .02.02 0zM45.44 36.59c.05 0 .11-.02.17-.04-.05-.01-.1-.02-.15-.01 0 .01-.01.03-.02.05zM47.85 36.43c-.15.13-.43.17-.4-.06-.23.02-.63.52-.78.84.07-.06.12-.11.34-.11.03-.1-.1-.36.14-.41.24.04.09.14.1.26.11-.21.48-.11.7-.39h-.24c.02-.04.14-.07.14-.13z"/><path class="st6" d="M46.43 37.04l-.07-.02c.04.06.02.14-.01.3.16-.01.23-.05.29-.09l-.24-.19h.03zM46.12 36.87c.2-.12.4-.1.49-.31-.17-.09-.24.05-.4.06.29.12-.16.03-.07.23a.655.655 0 0 1-.18-.05c.03.05.05.1.06.15v-.01c.01-.03.02-.04.02-.02h.01c.02-.03.04-.04.07-.05.04.08-.03.05-.07.05l-.03.02.34.08c-.03-.06-.11-.1-.24-.15zM45.66 35.35c-.01.02-.02.03-.03.04.04-.01.06-.02.03-.04zM45.67 35.5c-.04.01-.12.05-.16 0 0-.07.08-.07.13-.11-.08.01-.24.02-.21.16l.04-.01c.04.11-.03.37-.07.38.11-.15.19-.25.27-.42zM45.94 36.14l.29.06.03-.19-.08.08c-.09-.1-.17.01-.24.05zM46.59 37.33l-.19.14.36-.14zM46.89 37.49l-.15.13.15-.04zM54.25 34.8l-.07-.06c.02.03.04.05.07.06zM54.35 35.31l.1-.01c-.06-.01-.1-.01-.1.01zM54.44 42.23c.15.31.38.8.33.5l-.07-.3c-.1-.02-.19-.1-.26-.2zM56.42 39.17h-.07c.09.06.17.11.25.15-.06-.04-.12-.09-.18-.15zM55.41 38.8l.14-.03c-.05 0-.1.01-.14.03zM53.39 32.11c-.07.01-.15.02-.22.04.01.02.12-.01.22-.04zM49.77 39.22c.02.11.06.18.11.22-.01-.15.03-.34-.11-.22zM56.54 34.49c-.05-.03-.1-.04-.14-.03.04.03.09.05.14.03zM50.11 39.59c0-.03-.01-.04-.01-.06-.08-.01-.16-.02-.22-.08.01.11.05.2.23.14zM46.12 33.08c-.01-.01-.02-.01-.03-.02 0 .03.01.03.03.02zM42.36 31.86c.04-.05.13-.11.22-.17-.04.02-.12.06-.22.17zM47.93 38.26c-.07-.03-.02.01 0 0zM48.25 37.47zM51.56 38.92c.01-.04.01-.03 0 0zM47.91 38.13c0 .03.01.06.03.09 0-.01 0-.04-.03-.09zM47.85 38.21c-.02-.02-.03-.03-.04-.05-.03.03-.03.05.04.05zM48.02 38.3c-.04-.02-.06-.05-.08-.08 0 .02 0 .03-.01.03.02.02.05.03.09.05zM51.36 31.28l-.02-.02c-.04.11-.02.09.02.02zM55.08 40v.01l.01.02zM55.03 39.78c.21.44.14.36.07.25l.56 1.08c-.2-.44-.41-.88-.63-1.33z"/><path class="st6" d="M53.91 33.6l-.15.21c-.36-.13-.28-.3-.52-.08.67-.13.22.63.88.5l-.11.14c0-.03-.04-.03-.04-.06-.27.29.51.05.48.34-.03.11-.11.2-.2.15l.21.17c0 .06-.12.08-.12.01l.13.31h-.02c.11.02.3.09.38.13-.08.1-.08-.03-.16.01l.2.14c-.15.11-.36 0-.36-.13-.62.32.2.11-.1.56l-.12-.15c-.35.2-.18.3-.37.54.11-.07.5-.52.71-.36-.04.07-.04.14.11.22-.24.06-.15.14-.11.27l-.31.06c.12.12.28.07.44.12 0 .16-.23.25-.42.33.01.26.35-.26.47.02-.07.23.09.35.33.55-.07.17-.2.02-.27.09l.28.07c0 .03-.08.04-.12.04.12.09.31-.06.44.09.18-.02.07.1-.02.23-.09.14-.21.18.01.23-.09.03-.2 0-.32.02.3.12.22.09.62.29-.06.03-.13.06-.2.08.24-.03.57.15.87.41a1 1 0 0 0 .26-.04l.26.37c-.05.01-.18-.07-.34-.17.03.03.07.06.1.09-.11.05-.33-.1-.55-.24h.2c-.23-.14-.48-.25-.68-.31.04.02.08.06.11.09-.06-.03-.12-.06-.15-.06-.04-.01.05.03.14.1l-.39-.12.16.07c-.04.02-.08.03-.12.04-.03.01-.06.01-.1.01.44.33 1.12.93 1.4 1.49-.35-.37-.55-.47-.94-.81.4.26-.22-.33-.16-.36-.03.03-.21-.11-.28-.16.13.13.27.29.41.46-.32-.26-.23-.15-.35-.22.63.51.46.53.69.83-.22-.22-.46-.46-.42-.51-.48-.39.83.92.4.63-.01-.04.03-.02-.08-.15.21.29 0 .28-.18.01v-.03c-.1.09-.36.39.01 1-.05-.1-.48-.89-.56-1.04.39.77.74 1.64.76 1.98-.04-.1-.11-.24-.18-.4l-.32-.67c-.22-.47-.41-.9-.44-1.04-.07-.11-.14-.22-.12-.05.05.09.43.88.41.91-.38-.71-.23-.4-.54-.99.08.14.36.98.26.9-.03-.12-.28-.83-.29-.91.05.25.09.49.09.71.01-.11-.18-.67-.26-.9.05.16-.1-.08-.11-.02l.08.2c-.14-.19-.03.9-.31.69.04-.11.07-.79.01-.91-.03.15-.1.51-.25.81-.15.3-.39.54-.6.54v-.19c-.11.01-.22.01-.34.01.19-.13.49-.35.7-.59.22-.24.36-.52.43-.69-.02-.17.02-.21-.04-.23.03-.16.08-.22.09-.23a.393.393 0 0 1-.03-.14c-.12.32-.22.25-.37.49.13-.06.23-.13.3-.21-.07.35-.46.83-.67.62.04-.14.39-.46.44-.56-.04.11-.34.05-.31-.03l.21-.08c-.06-.19-.5.21-.47-.14-.04-.05.1-.45-.04-.3-.14.36-.85 1.31-1.09 1.5-.01-.03-.08-.48-.03-.67.09-.29.59-.47.67-.72-.06.07-.18.13-.23.14-.01-.1.2-.21.05-.26-.24.25-.25-.19-.24.19-.19 0-.09-.14-.25-.22-.09.2-.61.49-.81.49.06-.06.11-.17.12-.22-.25-.19-.29-.4-.54-.56.03-.08-.02-.23.12-.31-.08.02-.18.09-.27.05.05-.31.2.07.32-.26-.14.14-.38.08-.57.11-.17.25.21.2.4.18-.28.32-.76.53-1.15.51-.28-.05.09-.26.02-.24-.34-.3-.83.33-.96-.1.05-.28.36-.39.46-.55.24.03.14.29.27.35l-.06-.18c.11-.03.27-.01.28.08.06-.24-.63-.45-.77-.79-.12.03-.27.04-.3.15l.12.03c-.06.21-.39.1-.34.25-.23.03-.55.11-.64-.1l.18-.24c-.06.07-.01.2.11.17-.17.05.02-.47-.35-.24l-.02.23c-.24.03-.63.15-.73-.02-.14.26.06 0-.08.32.21-.37.4.28.57-.15-.17.37.08.25-.01.6.07-.08.08-.17.18-.05.03-.02.07-.03.09-.04v.01-.01c.02-.01.02-.01 0 0 0-.05.01-.11.04-.15.23-.12.44.02.6-.02.05.09-.11.06-.15.17l.23-.06c-.15.17-.04.41-.32.38l.17.12c.01.16.12.28.27.27.05.09.37-.05.18.03l.36.07-.04.04c.25.19.79.07.83.57.13.01.26.02.37.16l-.1.17c.16.02.22.37.4.25-.21.48.49.45.64.65l.17-.19c.13.1.31.13.55.16l.13-.18c.13-.03.2.07.27.18.07.12.12.24.34.37-.07.06-.16-.03-.2-.11.08.35.41.45.68.49.28.05.5.04.68.37.11-.03.18.05.25.16-.01-.01-.02-.01-.03 0 .01.01.03.02.04.03.04.07.09.16.15.23-.05-.09-.09-.17-.12-.22.08.04.2.09.31.09l.08.33c.01 0 .02.01.03.01.14.19.08-.09-.01-.35.05-.01.09-.04.12-.1.08.28.15.29.22.29.06-.02.11-.03.22.26 0-.24.42-.04.29-.55.03.07.06.11.02.1.11.1.23.2.26.09l.19.38c0-.14.01-.26-.01-.4.2.26.31.37.32.62.07-.34.13-.12.15-.4l.09.18c.06.04.08-.26.22-.15.2.11.48-.06.64-.35.17-.29.11-.55.33-.68-.59-.38.28-.03-.18-.43.14.08.24.06.36.25-.13-.41.27-.35-.21-.86.16.04.24.21.33.22-.04-.05-.15-.2-.07-.19.08 0 .15.13.22.24a.78.78 0 0 0-.17-.34c-.22-.27-.57-.44-.9-.59.17-.09.12-.21-.2-.42.13-.01.25-.09.36.16-.01-.11.01-.79-.32-.82.08-.04-.02-.18-.06-.21-.04-.27-.03-.33-.11-.56l-.04.07c-.39.01-.12-.15-.21-.3h.04c.18-.44-.17-.13.06-.58l-.23.07c-.51.08.22-.4-.02-.57l-.12.11c-.2-.08.61-.49.64-.62.04-.04.08.02.12.05.23-.38-.32.03-.44-.18.16-.08.43-.04.43-.2.12-.11-.64-.33-.37-.61-.12.08-.23.15-.35.07-.08-.15.38-.55-.06-.61.03-.03.06-.04.09-.05-.13-.1-.27-.37-.5-.39.78-.3-.57-.69.17-.86l-.13-.38.08-.01c-.01-.26-.21-.3-.4-.35.04-.07.12-.04.16-.05.07-.4.03-.42-.41-.64l.23-.09c-.15.02.21-.91-.21-1.27.03-.01.07-.03.11-.01-.22-.19-.19-.59-.35-.9-.14-.3-.41-.47-.71-.11-.15.02-.29.05-.42.11.38.15-.22.35-.12.52-.15.03-.27-.25-.08-.31l.01.04c.24-.47-.44-.13-.37-.45l-.38.06c-.92.17-1.41.08-1.97.19l.15.34-.22.03c-.08-.07-.14-.26.02-.28-.13-.18-.22.23-.21.31-.34-.07.02-.44-.07-.43l-.12.06.04.04c-.07.17-.04.33-.23.35-.13-.04-.11-.21-.16-.21-.01-.03-.02-.03-.07.01l-.28.03.17.26c-.09.17-.26.04-.06.33-.3-.45-1.07.06-1.22-.07-.12.24-.29.28-.51.3.07.05.17.36-.02.36-.08-.67-.4-.21-.65-.64.2.28-.49.19-.19.59-.16-.02-.07-.24-.21-.37-.3.34-.83.02-1.25.2.01.09.12.2.05.35l-.33-.37c-.08.06.03.51-.19.25.04.07.1.17.05.21-.48-.11-.9.08-1.34.22-.22.07-.44.13-.67.14a1.472 1.472 0 0 1-.55-.1c-.09-.02-.27-.01-.41 0 .35.05.15.13-.03.23.14-.03.1.19.18.29-.26.01-.53.1-.78.27.09.16-.01.33-.06.52-.06.19-.06.39.1.43-.02-.07-.03-.15-.04-.23.17.18.38.07.62.05.24-.03.47.03.68.14-.18-.11 0-.1.09.01.06.07.02.02.03.04.01-.02-.02.09.04-.12.08.08-.02.16.04.26.03-.22.1-.28.29-.23l-.01.05c.44-.15.68 0 1.22.01l-.09-.22c.12.01.16.07.22.12.05-.38-.31.05-.29-.36.25.44.78-.17 1 .34.17-.04-.11-.26.06-.29l.08.13v-.2c.12.01.22.17.25.29-.03-.01-.07.05-.09.07.18.14.39-.15.45-.11l-.18-.05c.43-.24 1.04-.18 1.41-.58l-.06-.1c.29-.28.3.06.65-.12l-.01.03c.05-.13.14-.2.24-.21-.06.15.23.21.14.38.32-.3.14-.21.29-.67l.1.17c.05-.18.03-.27.21-.36-.12.19.18.25.06.49.48.31.49-.53.8 0 .06-.54-.4-.2-.33-.33-.12-.14.06-.41.2-.39.13-.02.36.59.67.51-.03 0-.03.04-.06.05.15.1.19-.23.38-.05.01-.32.19-.03.13-.42l-.27.16c.14-.14.19-.63.51-.47 0 .08-.06.2-.1.27.1.1.13-.11.24-.01.07.39-.33.16-.44.5.12.14.27-.36.28.08 0-.56.33 0 .44-.46l.04.23c.03-.04.07-.17.13-.18l-.04.33c.11-.3.38.15.52-.03-.34.09-.14-.26-.33-.4.18-.2.27-.07.38.09.05.08.12.17.18.22.03.06.06.09.08.06-.01.04-.09-.12-.08-.24.04.04.1.12.11.25.09-.07-.02-.25.03-.41.01.1.02.11.04.09.02-.05.07-.26.13-.34l-.04.26c.12.13.17-.56.31-.39-.07.13-.14.26-.19.39.03-.04.07-.08.11-.11l-.12.31c.15-.24.17-.17.19-.06.08-.19.28-.48.37-.43-.05.19-.18.21-.07.26-.13.12-.28.31-.16.05-.06.08-.12.15-.17.23-.08.19.04.09.06.12 0-.02.01-.04.03-.08.11-.08.22-.14.33-.17-.07.1-.14.13-.2.18.03 0 .13-.06.16-.03-.17.13-.35.28-.43.32.07-.04.14-.06.21-.07-.07.07-.2.18-.26.22-.1.07.37-.08.25.06.04-.01.08 0 .12.05.01.23-.18.47.14.67l-.31.22c.12.18.39-.3.59.01.16.21-.27.16-.35.26.2.08.6.2.37.48-.04-.15 0-.22-.04-.28zm.72 2.44c-.06-.04-.23-.1-.1-.16.28-.01.16.06.1.16zm1.34 3.22a.274.274 0 0 1-.05-.04c-.03-.03.01-.04.08-.04.02.04.03.07 0 .08h-.03zm-7.26-.73s.01 0 .01-.01c.03.13.03.08-.01.01zm-.12-.2c-.04.01-.06.04-.08.07.06-.04.1-.01.14.03.03-.06.03-.11-.06-.1zm1.71-8.47l.06.05c-.09.09-.07.02-.06-.05z"/><path class="st6" d="M55.53 38.84c.04.01.09.02.14.03-.05-.03-.1-.04-.14-.03zM53.43 32.1h.01l-.05.01zM52.92 38.66c.02.05.01.1 0 .14.04-.04.05-.09 0-.14zM47.25 37.95l.17.04c-.07-.03-.05-.08-.06-.13-.04.04-.07.11-.11.09zM47.24 36.23c-.04.01-.04-.02-.08-.01l-.08.08c.08.04.2.01.16-.07zM47.7 37.31c.13-.15.01-.15-.11-.18.01 0 .01 0 .02.01-.23.19-.07.18.09.17zM47.57 37.13c-.03-.01-.07-.02-.08-.05-.1.07.01.04.08.05zM48.24 38.26c-.01-.06-.21.17-.17.1-.23.15.5-.05.17-.1zM48.11 36.8l-.15.2.19-.12zM48.66 37.36l-.09-.14c-.03.03-.06.04-.1.04.09.06.14.16.19.1z"/><path class="st6" d="M48.48 37.26a.18.18 0 0 0-.14-.04c.02.01.08.04.14.04zM48.35 36.87v.06l.09.07zM50.12 38.33l.2.04c.07-.05.07-.12-.01-.13-.07.03-.15.02-.19.09zM50.13 37.54c.01.06-.03.11-.06.18l.21-.23-.15.05zM50.62 37.76c.07-.05.38-.05.18-.15-.08.05-.27.01-.18.15zM52.62 39.47l-.04-.02-.31.4zM54.41 39.18c-.05-.17.01.37-.05.15-.02.13.05.18.04.29.04-.12.06-.02.01-.44zM54.4 39.62c-.01.02-.01.04-.02.07.01-.02.02-.05.02-.07zM41.49 32.7c-.06.1-.12.22-.17.34.07-.07.13-.14.2-.2l-.03-.14zM41.8 33.34c-.11.03-.21.07-.32.11.11.17.29.37.46.45-.06-.08-.13-.21-.17-.36-.02-.18 0-.15.03-.2zM54.08 36.56l.08-.01c.08-.04.08-.07.08-.14l-.16.15zM53.9 34.71v.03l.27-.12zM53.19 33.28c0 .06.08.12.08.19-.08-.12.27-.28-.08-.19z"/></g><path class="st8" d="M23.18 59.69l1.7-2.01M15.27 69.03l4.87-5.75M109.66 43.34l5.64 8.29M126.58 68.22l2.66 3.65M114.86 81.27s-1.11 2.43-6.19 3.54"/></svg>