<svg width="29" height="28" viewBox="0 0 29 28" fill="none" xmlns="http://www.w3.org/2000/svg"><path d="M22.87 8.094C22.87 3.63 19.112 0 14.492 0S6.114 3.63 6.114 8.094c0 2.764 1.442 5.209 3.637 6.67A14.52 14.52 0 0 0 4.245 18.1C1.507 20.744 0 24.26 0 28h2.264c0-6.514 5.486-11.813 12.228-11.813 4.62 0 8.378-3.63 8.378-8.093zM14.492 14c-3.371 0-6.114-2.65-6.114-5.906 0-3.257 2.743-5.907 6.114-5.907s6.114 2.65 6.114 5.907c0 3.256-2.743 5.906-6.114 5.906zM29 20.125l-5.33 5.148-1.6-1.547 2.652-2.563h-1.964c-2.713 0-4.922 2.133-4.924 4.754L17.832 28l-2.264-.002.001-2.083c.004-3.826 3.229-6.94 7.19-6.94h1.85l-2.54-2.452 1.602-1.547L29 20.125z" fill="#0046BB"/><path d="M29 20.125l-5.328 5.148-1.602-1.547 2.653-2.563h-1.964c-2.713 0-4.922 2.133-4.924 4.754L17.833 28l-2.265-.002.002-2.083c.003-3.826 3.228-6.94 7.19-6.94h1.85l-2.54-2.452 1.602-1.547L29 20.125z" fill="#009E7C"/></svg>