<svg version="1.1" id="Layer_1" xmlns="http://www.w3.org/2000/svg" x="0" y="0" viewBox="0 0 144 144" xml:space="preserve"><style type="text/css">.st0{opacity:.55}.st1{fill:#0eb9c1}.st2{fill:#32c3ca}.st3{fill:#0046bb}.st4{opacity:.24}</style><g class="st0"><path class="st1" d="M109.91 49.04c1.12-.26 2.25.44 2.51 1.57l6.56 28.33c.26 1.12-.44 2.25-1.57 2.51l-28.33 6.56c-1.12.26-2.25-.44-2.51-1.57l23.34-37.4z"/><path class="st2" d="M108.43 47.17c.11-.11-.16-.4-.19-.49-.11.32.25.58.19.49zM107.51 50.29l-.08-.18.03.68zM106.12 52.47c.57.35.43-.88.83-1.07l.14.06-.24-.63c-.24.55-.4 1.46-.73 1.64zM104.42 52.43c.22.14-.01.44.23-.21-.04 0-.05 0-.08-.01-.03.06-.07.13-.15.22z"/><path class="st2" d="M104.57 52.22c.13-.25-.24-.03 0 0zM103.99 53.42l.04-.5c-.14-.06-.34.18-.35-.01-.12.42.02.48.31.51zM104.13 54.11l.03-.24c-.05-.02-.1 0-.03.24zM104.24 53.37l-.07.51c.1.04.25.22.05-.22.11.19.02-.04.02-.29zM104.43 53.26c.21-.05.41-.2.37.3.31-.66-.06-.96-.37-.3zM106.51 53.16l.27-.06-.03-.38c.02.18-.39.28-.24.44zM102.53 55.05c.09.13.33.2.47.33l.03-.36c-.14.04-.34.18-.5.03zM103 55.38l-.04.54c.21-.28.17-.43.04-.54zM104.61 54.78v-.98l-.07 1.09zM101.7 56.33l-.11-.45.13.74zM101.19 57.24c-.1-.36-.45-.17-.48-.46-.11.27-.07.66-.04 1.01.04-.28.2-.46.52-.55zM100.71 58.33c.01-.15-.01-.34-.03-.54-.02.15-.02.32.03.54zM102.55 56.43c-.08-.04-.27-.17-.45-.06l.37.19c.02-.04.05-.08.08-.13zM102.47 56.57l-.01-.01c-.1.14-.17.23-.2.27.03-.03.09-.11.21-.26zM102.57 56.4l-.02.03c.03.02.05.02.02-.03zM103.8 55.36c.03.38-.06.99.42.87-.09-.37-.37-.3-.42-.87zM103.02 56.64l.29-.28c-.08-.08-.23-.14-.24-.33l-.05.61zM103 56.92l.02-.28-.1.1zM101.37 58.01c.03.29-.07.47-.17.69.19-.14.35-.32.48-.52-.08-.13-.19-.4-.31-.17zM101.93 57.34l-.01.05c.04.01.06 0 .01-.05zM100 60.59l.07.02-.04-.06zM101.75 58.2c.15-.09.14-.26.11-.45-.04.15-.1.29-.18.42.02.07.05.1.07.03zM100.51 59.01c.11-.02.22-.05.33-.1-.15-.02-.39-.01-.33.1zM101.81 57.35v-.04c-.09-.01-.06.02 0 .04zM101.81 57.35c-.01.13.02.27.04.4.04-.12.06-.24.07-.36-.03 0-.07-.02-.11-.04zM101.54 63.14c-.26-.31-.26-.98.25-1.01.01-.55-1.02-1.28-1.71-1.51.11.14.22.25.16.77.23.03.84-.42.9.14-.15.61-.34.28-.62.35.46.16.13 1.11.7 1.53l.08-.59c.07.08.1.35.24.32zM100.53 59.97l.06-.18c-.15.12-.34.12-.69.11-.02.38.05.54.13.65l.49-.68.01.1z"/><path class="st2" d="M101 59.13c.22.43.13.91.58 1.04.25-.45-.06-.56-.02-.96-.36.77-.04-.37-.52-.06.04-.19.1-.33.16-.46-.11.09-.23.16-.36.21h.03v.01c.06.01.08.02.04.03v.02c.03.06.06.12.09.17-.19.13-.1-.05-.09-.15l-.04-.06h-.01l-.28.87c.14-.11.25-.3.42-.66zM104.6 57.3c-.04-.01-.06-.03-.08-.05.01.08.02.12.08.05zM104.25 57.38c-.01-.1-.09-.27.04-.4.17-.04.13.16.23.26-.01-.18.01-.58-.31-.43l.01.09c-.27.16-.84.11-.85.02.3.22.52.36.88.46zM102.7 58.35l-.22.73.43-.01-.16-.15c.27-.27.04-.41-.05-.57zM99.81 60.5l-.26-.41.23.8zM99.38 61.29l-.26-.32.04.37zM106.3 81.59l.17-.15c-.08.05-.13.1-.17.15zM104.91 81.88l.01.2c.04-.12.05-.2-.01-.2zM87.76 79.85c-.56.2-1.42.49-.97.62l.48.05c.11-.32.3-.53.49-.67zM94.08 86.75l-.11-.11c-.03.16-.07.31-.1.45.06-.1.14-.22.21-.34zM93.87 84.96l.43.19c-.1-.08-.24-.14-.43-.19zM113.76 79.39l.12-.48c-.34.08-.14.26-.12.48zM94.65 69.09c-.26.1-.42.22-.53.36.35-.1.76-.06.53-.36zM106.8 86.2c.1-.1.13-.2.1-.29-.1.09-.15.19-.1.29zM93.73 70.06c.06-.01.1-.03.15-.05.04-.2.1-.4.24-.57-.26.07-.49.22-.39.62zM111.66 58.28c.01-.02.02-.05.04-.07-.06.01-.06.03-.04.07zM113.54 48.64c.12.1.26.32.38.52-.02-.12-.13-.29-.38-.52zM97.33 64.18c.08-.18-.01-.06 0 0zM99.04 64.61c.01.07.04.14.11.21-.06-.09-.09-.16-.11-.21zM94.81 73.38l-.01.01c.09.01.07.01.01-.01zM97.63 64.07a.65.65 0 0 0-.22.11c.04 0 .11-.03.22-.11zM97.46 63.96c.05-.04.08-.08.12-.11-.04-.07-.09-.08-.12.11zM97.21 64.41c.05-.1.12-.17.2-.23-.04.01-.07.01-.07-.01-.03.06-.07.13-.13.24zM116.2 72.72c.01-.01.02-.03.03-.05-.22-.14-.17-.07-.03.05zM90.36 84.14l-.02.01-.03.02z"/><path class="st2" d="M90.72 84.18c-.8.28-.63.13-.41-.02-.65.26-1.31.55-1.99.85.77-.22 1.56-.5 2.4-.83z"/><path class="st2" d="M109.59 80.7l-.54-.27c.4-.75.85-.63.3-1.06.24 1.34-1.73.54-1.48 1.88l-.36-.21c.09-.01.08-.09.17-.09-.73-.5-.21 1.06-1 1.04-.28-.04-.51-.19-.37-.39l-.5.46a.12.12 0 0 1-.01-.24l-.86.31v-.04c-.08.24-.29.62-.4.79-.27-.14.08-.17-.02-.32l-.42.43c-.28-.3.05-.72.4-.75-.76-1.21-.33.43-1.5-.12l.42-.28c-.47-.68-.77-.33-1.4-.67.18.22 1.32.94.87 1.39-.17-.07-.38-.07-.61.27-.11-.47-.37-.29-.71-.18l-.12-.63c-.34.27-.23.58-.39.91-.44.04-.64-.43-.83-.81-.7.06.65.67-.13.97-.62-.11-.95.24-1.54.77-.44-.12-.02-.4-.2-.54l-.23.58c-.09.01-.1-.15-.1-.23-.25.26.12.63-.3.9.03.72-1.18-.78-1.57.13-.18-.14-.02-.4-.12-.63-.67.69-.59.53-1.07 1.37l-.64-.28c.51.37.12 1.05-.22 1.61.2.19.36.36.47.44-.21.17-.42.33-.7.52-.12-.08-.06-.32.02-.61-.04.07-.08.13-.12.18-.31-.17-.18-.58-.09-.97.09.11.2.22.31.33.09-.42.16-.88.04-1.23-.03.08-.11.17-.2.22.02-.11.03-.21 0-.27-.03-.06-.1.1-.13.27-.08-.22-.16-.45-.22-.68l.02.29c-.2-.11-.36-.22-.48-.35a6.1 6.1 0 0 1-1.12 1.7c-.37.39-.85.76-1.36 1 .61-.68.63-1.02 1.08-1.76-.2.58.38-.04.66-.27.08-.06.15-.1.21-.08-.14-.04.02-.38.08-.5l-.13.15c-.19.21-.41.42-.67.65.33-.6.12-.42.16-.64-.62 1.17-.94.9-1.51 1.35.34-.42.75-.87.92-.83.2-.43-.13-.05-.57.36-.42.41-.94.85-.75.43.09-.01.08.06.31-.16-.55.42-.73-.04-.21-.37l.08.01c-.15-.14-.44-.33-.8-.49-.17-.07-.41-.15-.59-.15-.15 0-.38.05-.71.2.18-.08 1.65-.73 1.93-.86-1.44.56-2.86.88-3.56.68.2-.04.49-.13.82-.25.39-.14.82-.29 1.23-.44.86-.29 1.61-.5 1.84-.48.21-.14.43-.27.17-.34-.17.08-1.61.6-1.63.52.64-.3.82-.39 1.01-.48.16-.08.31-.18.84-.38-.26.12-1.68.26-1.48.01.19.01 1.41-.14 1.52-.11-.4-.05-.77-.17-1.08-.36.15.13 1.09.04 1.48.01-.26.01.18-.24.11-.34-.11.02-.23.04-.35.07.38-.28-1.24-.98-.7-1.73.13.22 1.03 1.04 1.38.75-.37-.5-1.78-2.37-1.72-3.3l.35.07.02-.73c.49.84 1.42 2.79 1.7 3.68.38-.12.36.15.6-.28.34.04.24.5.18.63l.71-.85c-.57-.35-.09-1.13-.56-1.43l-.09 1.46c-.57-.35-1.16-1.73-.64-2.35.32-.01.88.85 1.07.97-.13-.23.05-.91.22-.88l.11.51c.44-.23-.32-1.16.47-1.23.13-.13.98.06.68-.21-.76-.22-2.67-1.62-3.02-2.15.08-.03 1.11-.4 1.52-.34.63.11.88 1.29 1.42 1.38-.14-.12-.23-.41-.25-.51.23-.07.4.42.56.01-.49-.49.5-.7-.34-.53.07-.48.34-.29.58-.72-.42-.15-.93-1.32-.85-1.81.12.13.34.2.45.22.5-.69.98-.89 1.41-1.56.16.04.52-.15.65.18-.03-.18-.15-.42-.03-.64.69-.02-.22.53.5.68-.28-.29-.08-.9-.07-1.36-.51-.31-.52.61-.52 1.07-.64-.55-.98-1.66-.81-2.64.2-.71.56.12.53-.06.78-.97-.51-1.91.5-2.4.61.01.79.72 1.12.9-.14.6-.69.48-.88.81l.43-.21c.04.27-.05.67-.27.73.54.03 1.19-1.74 2.03-2.25-.04-.27-.02-.65-.24-.68l-.11.31c-.46-.06-.12-.91-.48-.72 0-.56-.09-1.3.4-1.62l.49.34c-.13-.12-.46.07-.42.34-.06-.4 1.06-.17.64-.97l-.52.05c0-.57-.17-1.48.24-1.78-.55-.23-.02.15-.71-.04.79.36-.74 1.11.19 1.33-.78-.26-.6.31-1.36.24.15.13.37.12.06.42.03.06.06.15.08.21-.01.01-.02.01-.03.01h.03c.01.04.02.04.01 0 .12-.03.24-.02.34.03.22.51-.17 1.09-.12 1.45-.21.15-.11-.25-.34-.28l.07.55c-.34-.28-.91.07-.77-.63l-.31.46c-.36.1-.67.42-.68.78-.21.16.01.9-.12.47l-.26.92-.09-.07c-.5.69-.38 1.98-1.51 2.28-.07.32-.12.66-.47.99l-.35-.17c-.09.4-.89.7-.67 1.09-1.02-.32-1.14 1.39-1.63 1.82l.38.34c-.26.36-.38.82-.51 1.41l.37.22c.04.63-.91.85-1.27 1.52-.11-.15.03-.28.18-.34-1.3.17-.42 2.05-1.45 2.31.02.27-.1.36-.27.42.01-.02.01-.04.01-.06-.02.01-.03.04-.05.07-.06.02-.11.03-.17.05-.07.03-.15.08-.22.13.17-.07.31-.12.37-.14-.06.12-.27.55-.34.89l-.52-.07a.3.3 0 0 1-.04.08c-.37.26.06.34.49.33-.02.18-.02.35.03.49-.45-.01-.52.22-.58.44-.07.22-.14.43-.7.55.32.26-.64 1.59.4 1.55-.14.03-.25.11-.19-.02-.25.28-.46.57-.27.74l-.79.28c.26.13.51.23.75.32-.59.46-.88.74-1.3.54.28.31.25.47.31.55.04.1.09.19.34.32l-.37.16c-.01.05.01.09.03.13.01.03.08.09.16.15.14.12.25.23.15.39-.19.47.3 1.25 1.12 1.66.41.21.85.31 1.21.36.39.06.76.18 1.1.36.21-.63.32-.49.47-.33.16.17.41.35.68-.17-.04.3.18.43-.27.75.24-.08.45-.15.63-.18.71-.15 1.19.08 1.88-.7.1.26-.29.48-.2.63.11-.09.39-.34.5-.19.11.14-.18.28-.39.45 1.29-.35 1.31-1.22 1.29-2.04.26.13.47.17.63.1.12-.06.2-.23.27-.51.19.22.46.44.03.64.26-.02 1.63.01 1.51-.61.12.14.36-.04.41-.12.58-.09.64-.05 1.18-.24l-.18-.07c.05-.8.42-.27.85-.47l.01.08c1.16.3.38-.36 1.54.02l-.16-.45c-.14-1.03 1.04.38 1.54-.14l-.27-.22c.24-.42 1.22 1.16 1.57 1.21.09.07-.08.17-.16.25.98.4-.03-.64.57-.93.19.3.04.87.48.84.27.22.98-1.36 1.71-.86-.19-.22-.37-.45-.12-.71.43-.19 1.44.68 1.66-.22.07.06.11.12.13.18.3-.29 1.04-.6 1.14-1.09.69 1.54 1.95-1.28 2.29.21l1.04-.32.01.16c.7-.06.85-.47 1.01-.88.18.07.1.23.1.31 1.06.07 1.14-.01 1.79-.95l.2.46c.08-.17.48-.06.97-.01.26.02.48.04.79-.02.39-.08.77-.21 1.07-.42.01.06.02.15-.07.24.71-.45 1.75-.42 2.57-.88.81-.42 1.24-1.17.54-1.82 0-.37-.06-.74-.17-1.09-.15.57-.36.43-.52.23-.18-.2-.38-.46-.55-.31-.04-.39.49-.88.64-.35l-.09.06c.46.23.56-.1.55-.49 0-.39-.09-.82.24-.81l-.01-.06c-.36-1.45-.39-2.13-.48-3.1-.08-.91-.15-1.81-.32-2.66l-.67.36-.1-.61c.13-.2.51-.34.58.09.35-.32-.5-.64-.66-.61.1-.9.91.13.86-.13l-.13-.34-.07.1c-.36-.21-.67-.17-.75-.69.07-.36.4-.27.4-.4.05-.01.06-.06-.02-.2l-.11-.77-.49.43c-.35-.27-.13-.71-.69-.22.86-.74-.3-2.89-.07-3.27-.52-.37-.62-.84-.7-1.42-.08.17-.7.4-.73-.11 1.35-.12.36-1.03 1.2-1.65-.54.5-.48-1.37-1.23-.6.01-.44.48-.14.72-.52-.73-.86-.17-2.23-.62-3.4-.18.02-.39.28-.71.08l.71-.84c-.14-.22-1.04.01-.55-.57-.13.1-.33.24-.42.09.14-1.28-.31-2.45-.67-3.65-.18-.6-.34-1.2-.39-1.83-.02-.31-.02-.63.02-.96.02-.16.05-.33.09-.5.03-.23 0-.62-.04-.94-.06.78-.24.33-.48-.09.07.32-.39.19-.57.36-.06-.6-.3-1.22-.73-1.77-.33.17-.74-.06-1.2-.19-.45-.13-.92-.14-1.01.18.18-.04.36-.06.54-.07-.41.33-.16.76-.07 1.24.12.48.06.98-.17 1.4.28-.34.33.07.18.33-.06.13-.16.23-.15.26 0 .07.09-.04.44.16-.15.22-.33-.08-.53.07.45.1.58.32.51.81l-.11-.03c.39 1.22.11 1.84.18 3.3l.44-.21c.01.31-.12.41-.21.58.78.18-.16-.85.69-.72-.85.62.48 2.12-.53 2.63.1.46.5-.26.6.2l-.26.19.4.03c.01.32-.32.55-.56.62.01-.08-.12-.19-.16-.27-.25.47.37 1.08.29 1.24l.08-.48c.56 1.2.54 2.82 1.41 3.9l.2-.14c.62.84-.07.8.36 1.78l-.06-.03c.26.15.44.4.48.69-.31-.2-.38.6-.74.33.67.91.46.42 1.42.9l-.33.24c.38.15.56.13.77.62-.41-.35-.48.45-.99.08-.54 1.25 1.17 1.4.12 2.16 1.11.26.34-1.05.62-.83.27-.31.84.23.82.59.06.35-1.14.88-.93 1.73-.02-.09-.09-.07-.11-.16-.18.38.49.55.17 1.04.66.08.08.52.87.41l-.36-.75c.31.4 1.3.61 1.04 1.45-.17-.02-.42-.19-.57-.32-.18.27.25.38.06.66-.79.12-.39-.92-1.09-1.26-.27.31.77.78-.12.73 1.14.1.06.88 1.01 1.27l-.47.07c.09.08.36.22.38.39l-.67-.17c.62.35-.24 1.01.15 1.4-.23-.94.51-.34.75-.82.89 1.02-1.05.95-.53 2.21-.11-.16.12-.73.4-.5-.04.27-.14.64-.35.85.15.44.25.3.38.23.12-.13.25-.32.43-.17-.24.24-.19.18-.02.23.16.03.43.06.55.17l-.49.02c-.01.02-.02.05-.02.06-.07.32 1.09.16.82.61-.25-.13-.51-.25-.76-.34.08.08.16.16.23.25l-.6-.19c.46.29.34.39.11.47.37.14.93.51.78.76-.39-.07-.38-.37-.54-.09-.21-.28-.54-.57-.04-.37-.15-.11-.27-.24-.43-.34-.38-.12-.22.14-.29.19.04 0 .09 0 .16.04.12.24.18.49.17.72-.19-.14-.22-.28-.28-.42-.03.06.05.27-.05.34-.19-.36-.4-.72-.44-.91.03.14.03.29 0 .45-.1-.15-.3-.41-.32-.55-.04-.05-.05-.03-.06.03.02.02-.06.08-.13.14-.06.06-.13.12-.2.18-.27.25-.56.49-.91.42-.02.08-.06.17-.19.25-.61.05-1.24-.3-1.82.39l-.56-.59c-.51.28.74.74-.12 1.21-.6.37-.38-.53-.65-.67-.24.42-.64 1.25-1.36.83.16-.14.34-.07.51-.16zm-6.69 1.87c.11-.13.3-.49.46-.24-.03.57-.2.34-.46.24zm-9.78 3.45c.07-.18.17-.12.32.03-.09.07-.2.07-.32-.03zm3.4-19.83c0 .01.01.02.01.03-.3.13-.19.09-.01-.03zm.49-.39c-.01-.1-.07-.14-.13-.17.06.12 0 .25-.12.36.12.05.23.04.25-.19zm21.91 4.27l-.1.15c-.2-.24-.06-.19.1-.15z"/><path class="st2" d="M93.89 85.17c.06.07.09.16.12.24.03-.09.01-.18-.12-.24zM113.74 79.47h.02v-.09l-.02.09zM94.98 76.67a.48.48 0 0 1-.32.05c.09.08.19.1.32-.05zM98.22 62.37l-.13.43c.09-.18.2-.17.31-.2-.08-.07-.24-.12-.18-.23zM102.16 61.55c-.01-.09.06-.11.05-.2l-.16-.15c-.12.22-.09.5.11.35zM99.55 63.19c.3.26.34-.05.44-.34-.01.02-.01.03-.03.04-.35-.48-.38-.09-.41.3zM100.01 62.78c.03-.09.07-.17.13-.23-.14-.19-.08.06-.13.23zM97.24 64.93c.15-.04-.33-.43-.17-.38-.29-.49-.03 1.2.17.38zM100.61 63.95l-.4-.27.2.42zM99.18 65.57l.34-.28c-.06-.05-.07-.14-.06-.22-.16.21-.39.4-.28.5zM99.46 65.06c.08-.12.15-.24.13-.36-.04.07-.11.22-.13.36zM100.39 64.57l-.14.04-.19.24zM96.55 69.59l-.15.51c.1.16.25.11.3-.09-.03-.18.02-.38-.15-.42zM98.35 69.26c-.15.04-.23-.03-.39-.08l.45.43-.06-.35zM97.71 70.56c.1.16 0 .92.29.38-.1-.16.05-.67-.29-.38zM93.25 76.25l.06-.11-.81-.61zM92.05 82.77c.3-.02-.55-.3-.14-.37-.05-.14-.19-.04-.25-.05-.07 0-.14.02-.21-.06.12.25-.03.23.6.48zM91.44 82.28c-.02-.05-.05-.1-.08-.16.02.08.05.12.08.16zM111.57 46.7c-.24-.14-.5-.26-.78-.35.17.13.33.26.47.41l.31-.06zM110.09 47.31c-.07-.21-.15-.42-.24-.63-.36.23-.78.59-.96.94.16-.12.45-.27.75-.34.07-.02.15-.03.22-.04.07-.01.06 0 .1.01.05 0 .1.02.13.06zM101.6 81.53l.01.16c.09.15.18.14.36.13l-.37-.29zM106.62 80.86l-.09.01.29.53zM110.57 79.18c-.17.02-.34.19-.52.2.34-.19.73.5.52-.2z"/></g><path class="st3" d="M82.36 70.32c-.33 0-.67-.05-.99-.14a3.58 3.58 0 0 1-2.31-2.02l-.04-.12-2.71-9.42c-.15-.53.15-1.08.68-1.24a.99.99 0 0 1 1.24.68l2.69 9.35c.2.41.56.72 1.01.85.46.13.95.05 1.35-.22l4.14-2.85a.997.997 0 0 1 1.39.26c.31.46.2 1.08-.26 1.39l-4.14 2.85c-.62.42-1.33.63-2.05.63z"/><path class="st3" d="M94.23 70.67c-.82 0-1.62-.25-2.3-.73L66 51.78c-.68-.48-1.04-1.29-.93-2.12s.67-1.52 1.46-1.8l51.98-18.49c.89-.32 1.85-.04 2.44.7.59.74.63 1.74.12 2.53l-17.3 26.74c-.3.46-.92.6-1.38.3-.46-.3-.6-.92-.3-1.38l17.3-26.74c.02-.03.07-.11-.01-.21-.08-.1-.16-.07-.2-.06L67.2 49.75c-.08.03-.13.09-.15.18-.01.09.02.16.09.21L93.07 68.3c.46.32 1.01.44 1.56.33a2.01 2.01 0 0 0 1.32-.89l3.21-4.96c.3-.46.92-.6 1.38-.3.46.3.6.92.3 1.38l-3.21 4.96a3.99 3.99 0 0 1-2.62 1.77c-.26.06-.52.08-.78.08z"/><path class="st3" d="M78.62 60.02a1 1 0 0 1-.56-1.83l40.93-27.81c.46-.31 1.08-.19 1.39.27s.19 1.08-.27 1.39L79.18 59.85c-.17.11-.36.17-.56.17zM64.44 44.74a1 1 0 0 1-.32-1.95L84.63 36a.996.996 0 1 1 .63 1.89l-20.51 6.79c-.1.04-.21.06-.31.06zM89.04 36.25c-.43 0-.83-.28-.96-.71-.16-.53.14-1.09.67-1.25l6.51-1.98a1.003 1.003 0 0 1 .58 1.92l-6.51 1.98c-.09.03-.19.04-.29.04z"/><g><path class="st3" d="M116.17 51.34c-.15 0-.31-.03-.45-.11a.998.998 0 0 1-.44-1.34l4.08-8.05a.998.998 0 0 1 1.78.9l-4.08 8.05c-.17.35-.52.55-.89.55z"/></g><g><path class="st3" d="M49.11 114.75a.992.992 0 0 1-.94-1.31c.4-1.21 1.12-3.28 2.25-6.26.86-2.26 3.13-2.68 5.75-3.17 4.47-.84 11.23-2.1 17.48-13.09.51-.89.65-1.88.41-2.72-.3-1-.85-1.15-1.36-1.15-.67.01-1.39.37-1.87 1.02-1.86 2.52-7.03 8.16-14.94 6.14-2.12-.54-3.46-2.71-2.99-4.83.75-3.43 7.29-11.28 21.83-12.22 1.95-.2 4.02-.73 4.62-1.17-.14-.14-.46-.39-1.12-.73-2.51-1.27-9.65-2.15-18.13.89-9.52 3.41-23.14 12.63-33.94 37.17-.22.5-.81.73-1.32.51s-.73-.81-.51-1.32c11.09-25.19 25.21-34.7 35.1-38.25 9.13-3.27 16.79-2.26 19.71-.79.64.32 2.57 1.3 2.29 2.84-.36 1.92-4.24 2.6-6.52 2.84-13.71.89-19.49 8.12-20.04 10.65-.24 1.08.45 2.19 1.54 2.46 6.73 1.72 11.21-3.2 12.83-5.39.85-1.15 2.14-1.83 3.46-1.83h.04c1.61.02 2.76.94 3.25 2.58.41 1.38.2 2.89-.59 4.27-6.71 11.8-14.02 13.17-18.85 14.07-2.56.48-3.81.76-4.25 1.92-1.12 2.95-1.83 4.99-2.23 6.18-.15.42-.54.69-.96.69z"/><path class="st3" d="M80.57 94.66c-1.78 0-3.83-1.28-6.11-3.83a.998.998 0 1 1 1.49-1.33c1.36 1.52 3.87 3.91 5.49 2.91.37-.23.61-.61.68-1.06.08-.52-.07-1.08-.41-1.48-8.23-9.76-14.5-9.36-14.57-9.36-.55.04-1.03-.36-1.08-.91a.99.99 0 0 1 .89-1.08c.29-.03 7.3-.6 16.29 10.06.72.85 1.03 1.98.86 3.08a3.513 3.513 0 0 1-1.6 2.45c-.61.36-1.25.55-1.93.55z"/><path class="st3" d="M70.68 87.49c-.31 0-.6-.14-.79-.39-.16-.12-1.18-.77-5.3-1.33-.55-.07-.93-.58-.86-1.12s.58-.93 1.12-.86c4 .54 6.26 1.3 6.73 2.27.24.5.03 1.1-.47 1.33-.14.07-.29.1-.43.1zm-.9-.56zm0 0zm0-.01c0 .01 0 .01 0 0 0 .01 0 .01 0 0zM72.8 103.57c-.48 0-.95-.1-1.37-.31-1.21-.59-2.32-1.76-3.32-3.49-.28-.48-.11-1.09.37-1.37s1.09-.11 1.37.37c.99 1.71 1.89 2.41 2.47 2.69.36.18.82.14 1.2-.09.5-.31.76-.68.84-1.18.25-1.67-1.56-4.14-2.28-4.96a.989.989 0 0 1 .09-1.41.998.998 0 0 1 1.41.08c.33.37 3.19 3.7 2.77 6.58-.16 1.08-.77 1.98-1.77 2.6-.56.32-1.17.49-1.78.49zM63.57 107.79c-.84 0-1.47-.27-1.89-.54-1.52-.99-1.87-2.92-1.91-3.13a1.004 1.004 0 0 1 1.98-.32c.06.35.36 1.35 1.03 1.78.37.24.84.28 1.43.13.5-.13.6-.36.63-.44.28-.67-.28-2.01-.58-2.53a.998.998 0 0 1 .36-1.37.998.998 0 0 1 1.37.36c.15.25 1.43 2.54.7 4.3-.23.56-.76 1.29-1.97 1.61-.43.1-.81.15-1.15.15z"/></g><g><path class="st3" d="M108.25 109.96h-1.62c-1.61 0-2.92-1.31-2.92-2.92v-.8c-.02-.01-.05-.02-.07-.03l-1.04 1.01c-.91.87-2.35.83-3.21-.07l-2.02-2.1c-.42-.44-.64-1.01-.63-1.62.01-.61.26-1.17.7-1.59l.76-.73h-.4c-1.61 0-2.92-1.31-2.92-2.92v-1.61c0-1.61 1.31-2.92 2.92-2.92h.91l-1.08-1.12c-.42-.43-.64-1-.63-1.6.01-.61.26-1.17.69-1.59l2.1-2.03c.91-.86 2.35-.83 3.2.06l.74.77v-.41c0-1.61 1.31-2.92 2.92-2.92h1.62c1.61 0 2.92 1.31 2.92 2.92v.89l1.12-1.07c.44-.42.97-.67 1.62-.63.61.01 1.17.26 1.58.7l1.57 1.63c.54.56.83 1.3.81 2.08-.02.78-.33 1.51-.89 2.04l-.3.29h.41c1.61 0 2.92 1.31 2.92 2.92v1.61c0 1.61-1.31 2.92-2.92 2.92h-.85c0 .01-.01.03-.02.04l1.04 1.08c.86.89.84 2.33-.05 3.2l-2.12 2.03c-.42.41-.97.63-1.56.63h-.03c-.61-.01-1.17-.25-1.6-.69l-.73-.76v.4a2.952 2.952 0 0 1-2.94 2.91zm-4.68-5.82c.24 0 .48.05.71.16.12.06.25.11.37.16.65.26 1.07.86 1.07 1.54v1.04c0 .5.41.92.92.92h1.62c.5 0 .92-.41.92-.92V106c0-.68.42-1.29 1.06-1.54l.1-.04c.64-.26 1.36-.12 1.83.38l1.17 1.22c.06.07.16.09.19.08.05 0 .12-.01.18-.07l2.12-2.03c.1-.1.1-.27 0-.37l-1.21-1.26a1.65 1.65 0 0 1-.3-1.82l.15-.36c.25-.65.85-1.07 1.53-1.07h1.1c.5 0 .92-.41.92-.92v-1.61c0-.5-.41-.92-.92-.92h-1.15c-.68 0-1.28-.41-1.54-1.05-.28-.69-.13-1.41.36-1.88l.83-.8c.17-.17.27-.4.28-.64s-.08-.48-.25-.65l-1.57-1.63a.241.241 0 0 0-.19-.08c-.04 0-.12.01-.18.07l-1.33 1.28c-.49.47-1.2.6-1.8.32-.1-.04-.21-.09-.32-.13-.63-.24-1.04-.86-1.04-1.54v-1.2c0-.5-.41-.92-.92-.92h-1.62c-.5 0-.92.41-.92.92v1.2c0 .64-.37 1.22-.96 1.5l-.12.05c-.64.25-1.36.1-1.82-.38l-1.28-1.34c-.1-.1-.27-.1-.38 0l-2.1 2.02a.25.25 0 0 0-.08.18c0 .05.01.12.07.18l1.26 1.31c.47.49.6 1.23.31 1.84-.05.11-.1.22-.15.34-.26.63-.86 1.03-1.55 1.03H97.8c-.5 0-.92.41-.92.92v1.61c0 .5.41.92.92.92h1.09c.69 0 1.3.42 1.55 1.08.28.71.13 1.42-.35 1.89l-1.25 1.21c-.07.07-.08.14-.08.19s.01.12.07.19l2.03 2.1c.1.11.27.11.38.01l1.21-1.17c.3-.32.71-.48 1.12-.48zm12.58-9.95zm-4.81-5.4z"/></g><g><path class="st3" d="M107.44 102.36c-2.74 0-4.96-2.22-4.96-4.96s2.22-4.96 4.96-4.96 4.96 2.22 4.96 4.96-2.22 4.96-4.96 4.96zm0-7.92c-1.63 0-2.96 1.33-2.96 2.96s1.33 2.96 2.96 2.96 2.96-1.33 2.96-2.96-1.32-2.96-2.96-2.96z"/></g><g><path class="st3" d="M44.61 60.78a1.006 1.006 0 0 1-.85-1.53c1.93-3.13 4.59-3.94 5.12-4.08 2.78-1.05 5-3.23 6.09-5.99 1.04-2.62 1-5.49-.12-8.08s-3.18-4.59-5.8-5.63c-1.63-.65-3.41-.88-5.14-.67-.54.06-1.05-.32-1.11-.87a.994.994 0 0 1 .87-1.11c2.06-.25 4.18.03 6.12.8a12.46 12.46 0 0 1 6.9 6.7c1.33 3.08 1.38 6.49.15 9.61-1.31 3.3-3.97 5.91-7.31 7.15l-.14.04c-.09.02-2.28.54-3.92 3.19-.19.31-.52.47-.86.47zM35.62 57.22c-.15 0-.3-.03-.44-.1-.49-.25-.7-.85-.45-1.34.73-1.46-.29-3.91-.74-4.73a12.594 12.594 0 0 1-.51-10.38c.93-2.35 2.52-4.33 4.6-5.75.46-.31 1.08-.19 1.39.26.31.46.19 1.08-.26 1.39a10.555 10.555 0 0 0-3.46 13.53c.2.36 2.09 3.89.77 6.56-.17.36-.53.56-.9.56z"/><path class="st3" d="M41.92 67.44c-.34 0-.68-.06-1.01-.18l-7.87-2.83a3.002 3.002 0 0 1-1.81-3.84l1.06-2.94a3.002 3.002 0 0 1 3.84-1.81L44 58.67a3.009 3.009 0 0 1 1.81 3.84l-1.06 2.94c-.27.75-.82 1.35-1.55 1.7-.41.19-.85.29-1.28.29zm-.34-2.06c.25.09.52.08.76-.04.24-.11.43-.31.52-.56l1.06-2.94c.09-.25.08-.52-.04-.76a.987.987 0 0 0-.56-.52l-7.87-2.83a.958.958 0 0 0-.76.04c-.24.11-.43.31-.52.56l-1.06 2.94c-.19.52.08 1.09.6 1.28l7.87 2.83z"/></g><g><path class="st3" d="M39.24 49.38l-.19-1.96c-.09-.96-.46-5.84 1.55-7.43.48-.38 1.3-.75 2.5-.34 1.19.41 1.58 1.18 1.69 1.77.48 2.38-3 5.7-4.08 6.66l-1.47 1.3zm2.87-7.91c-.15 0-.22.06-.26.09-.54.42-.79 1.89-.85 3.4 1.12-1.27 1.96-2.56 1.84-3.15-.02-.1-.15-.19-.38-.27-.16-.05-.27-.07-.35-.07z"/></g><g class="st4"><path class="st1" d="M25.2 89.47a.862.862 0 0 1-.91-.81l-.71-11.99c-.03-.47.34-.89.81-.91l11.99-.71c.47-.03.89.34.91.81L25.2 89.47z"/><path class="st2" d="M25.77 90.53c-.05.04.05.21.06.25.06-.14-.09-.3-.06-.25zM26.33 89.25l.02.09.02-.31zM27.04 88.45c-.24-.24-.23.34-.42.37l-.06-.05.08.32c.14-.21.25-.6.4-.64zM27.8 88.7c-.09-.09.03-.2-.11.06.02 0 .02.01.03.01.02-.01.04-.04.08-.07zM27.72 88.78c-.07.09.11.04 0 0zM28.04 88.32l-.04.22c.06.05.16-.04.16.05.07-.18.01-.22-.12-.27zM28 87.98l-.03.1c.04.03.05.02.03-.1z"/><path class="st2" d="M27.92 88.31l.06-.22c-.04-.03-.1-.13-.03.09-.05-.1-.02.01-.03.13zM27.83 88.33c-.09 0-.19.03-.15-.19-.17.26-.01.45.15.19zM26.9 88.09l-.12-.01-.01.18c0-.09.19-.08.13-.17zM28.76 87.78c-.03-.07-.14-.14-.2-.21l-.03.16c.07 0 .17-.04.23.05zM28.57 87.57l.04-.23c-.1.09-.09.16-.04.23zM27.82 87.62l-.04.44.08-.48zM29.2 87.31l.03.22-.03-.35zM29.47 86.97c.03.18.2.14.19.27.06-.11.06-.29.06-.45-.03.13-.1.19-.25.18zM29.73 86.55c-.01.06-.01.15-.01.25a.67.67 0 0 0 .01-.25zM28.82 87.16c.03.03.11.11.2.09l-.16-.13-.04.04zM28.86 87.11c.06-.04.09-.08.11-.09-.02.01-.05.03-.11.09zM28.81 87.17l.01-.01c-.01-.02-.02-.02-.01.01zM28.21 87.47c0-.18.07-.43-.15-.45.03.18.16.18.15.45zM28.62 87l-.14.09c.03.05.1.09.09.18l.05-.27zM28.64 86.88l-.02.12.05-.03zM29.42 86.6c0-.14.05-.2.11-.29-.09.04-.17.1-.24.17.03.08.06.21.13.12zM29.14 86.83v-.02c-.01-.01-.02-.01 0 .02zM30.15 85.63l-.03-.02.02.03zM29.26 86.47c-.07.02-.07.1-.07.19.03-.06.06-.12.1-.17-.01-.03-.02-.05-.03-.02zM29.85 86.27a.379.379 0 0 0-.15 0c.06.03.17.06.15 0zM29.19 86.84v.02c.04.02.03 0 0-.02zM29.19 86.84c.01-.06 0-.12 0-.18-.02.05-.04.1-.05.15.02 0 .04.02.05.03zM29.57 84.29c.1.17.08.47-.15.42-.03.25.4.71.71.9-.04-.08-.09-.14-.04-.37-.1-.04-.4.07-.4-.18.09-.25.16-.08.3-.08-.2-.13-.01-.51-.25-.77l-.06.25c-.05-.04-.05-.17-.11-.17zM29.88 85.84l-.03.07c.07-.03.16-.01.31.04.03-.17 0-.25-.03-.31l-.25.24v-.04zM29.64 86.15c-.08-.22-.02-.43-.21-.54-.13.17 0 .26-.03.43.2-.3 0 .17.23.09-.02.08-.06.13-.09.18.05-.02.11-.04.17-.05l-.01-.01c-.02-.01-.04-.02-.02-.02v-.01c-.02-.01-.03-.04-.04-.07.09-.03.04.04.03.08l.01.03.16-.35c-.05.03-.11.1-.2.24zM27.94 86.49c.02.01.02.02.03.04 0-.04 0-.06-.03-.04zM28.1 86.5c0 .04.03.13-.03.17-.08 0-.05-.09-.09-.15 0 .08-.03.26.12.24v-.04c.13-.04.38.06.38.11-.13-.14-.22-.23-.38-.33zM28.84 86.28l.13-.3-.19-.05.06.09c-.13.08-.03.17 0 .26zM30.23 85.7l.1.21-.07-.39zM30.46 85.4l.1.17v-.17zM28.94 76.68l-.08.06c.04-.02.06-.04.08-.06zM29.52 76.66l.01-.1c-.02.06-.03.1-.01.1zM36.87 78.21c.32-.08.81-.2.54-.24l-.28-.01c-.05.12-.15.2-.26.25zM34.24 75.23l.01.07c.06-.08.11-.15.16-.22-.06.04-.11.09-.17.15zM33.89 76.15c-.01-.05-.03-.09-.05-.14.01.05.03.09.05.14zM25.75 77.1l-.08.23c.14-.01.07-.12.08-.23zM32.93 82.53c.12-.01.2-.05.26-.09-.16 0-.35-.07-.26.09zM29.03 74.37c-.05.04-.07.09-.06.14.05-.05.07-.09.06-.14zM33.39 82.21h-.07c-.03.09-.06.17-.13.22.12.01.23-.03.2-.22zM25.34 85.58c-.01.01-.01.02-.02.03.03 0 .03-.02.02-.03zM23.55 89.46a.702.702 0 0 1-.13-.26c0 .06.03.14.13.26zM31.51 84.37c-.05.07 0 .03 0 0zM30.75 83.96c0-.03-.01-.07-.04-.11.03.05.04.08.04.11zM33.03 80.61c-.04-.02-.03-.02 0 0zM31.37 84.38c.04 0 .07-.01.1-.02-.01 0-.05 0-.1.02zM31.44 84.45l-.06.03c.02.04.04.06.06-.03z"/><path class="st2" d="M31.57 84.28c-.03.04-.06.06-.1.08.02 0 .03.01.03.01.02-.02.04-.04.07-.09zM24.4 79.39l-.02.02c.09.07.07.04.02-.02zM35.18 76.74h.02l.02-.01z"/><path class="st2" d="M34.98 76.73c.45-.11.36-.06.24 0l1.12-.33c-.44.09-.89.2-1.36.33z"/><path class="st2" d="M27.54 76.83l.2.18c-.21.33-.39.23-.19.5-.01-.68.74-.11.73-.79l.13.14c-.04 0-.04.04-.08.03.26.31.15-.5.48-.42.11.05.2.14.13.22l.24-.18c.07.01.06.13-.01.12l.37-.08v.02c.05-.11.16-.28.21-.35.1.09-.04.07-.01.16l.2-.18c.09.17-.07.35-.21.33.23.67.16-.18.6.19l-.19.1c.15.38.29.23.53.46-.06-.12-.48-.58-.26-.76.07.05.15.07.26-.08.02.24.13.17.28.15l.01.32c.15-.1.13-.26.22-.41.18.02.23.27.29.47.29.03-.22-.38.11-.47.25.11.4-.03.68-.24.17.1-.02.2.05.28l.13-.26c.04 0 .03.08.03.12.12-.11-.01-.32.18-.42.03-.35.43.49.65.08.07.09-.02.2.01.32.34-.28.23-.2.44-.57.05.07.09.14.12.2-.06-.24.12-.53.39-.78-.02-.11-.05-.22-.07-.26l.41-.2c.02.05-.06.17-.17.31.03-.03.06-.06.09-.08.07.11-.09.31-.23.5-.01-.06-.01-.13-.02-.2-.14.2-.25.43-.29.62.02-.04.06-.07.09-.09-.03.05-.05.1-.06.14 0 .03.04-.04.1-.12l-.1.36.07-.15c.04.07.07.14.08.22.05-.06.11-.11.17-.17.35-.36.91-.8 1.45-.96-.4.29-.5.46-.86.79.27-.34-.36.16-.41.1.04.03-.11.19-.16.24.15-.11.31-.22.5-.33-.28.27-.16.2-.23.31.54-.53.58-.37.9-.54-.23.18-.5.37-.55.33-.42.41 1-.66.7-.28-.04 0-.02-.03-.16.06.31-.16.31.06.01.19l-.03-.01c.1.12.37.48.99.24-.1.03-.93.29-1.09.34.8-.22 1.65-.36 1.99-.29-.1.01-.26.05-.43.1-.22.05-.46.11-.69.17-.48.12-.92.2-1.05.2-.12.05-.24.1-.09.12.1-.03.91-.24.92-.21-.74.23-.42.15-1.04.33.15-.05.96-.12.86-.03-.11 0-.81.07-.88.06.23.01.45.05.64.11-.09-.05-.64.01-.86.03.15-.01-.09.09-.05.12l.2-.03c-.21.1.76.32.48.59-.08-.09-.65-.33-.78-.3.12.08.4.28.6.56.22.26.31.66.26.87l-.16-.07-.04.32c-.1-.21-.23-.57-.36-.92-.13-.34-.32-.6-.44-.73-.15-.03-.17-.09-.21-.03-.13-.08-.16-.17-.16-.18h-.07c-.02-.01-.04-.01-.12.06.25.23 0 .51.2.7.02-.19.09-.46.06-.59.29.18.5.87.24 1.08-.15-.03-.37-.48-.45-.56.05.12-.06.4-.13.36l-.03-.24c-.21.04.11.55-.26.48-.07.04-.44-.15-.32.01.34.19 1.16 1.04 1.3 1.32-.04 0-.52.04-.71-.04-.29-.13-.35-.68-.6-.79.06.07.09.21.09.26-.11 0-.17-.24-.26-.08.21.28-.26.25.14.28-.05.2-.17.08-.29.25.19.12.37.7.32.91a.524.524 0 0 0-.2-.15c-.26.24-.48.27-.7.51-.07-.04-.24 0-.29-.16.01.08.05.2-.01.29-.32-.08.12-.21-.2-.37.12.16 0 .41-.02.61.22.21.26-.21.28-.41.27.33.38.86.26 1.27-.12.29-.25-.12-.25-.04-.39.33.15.92-.32 1-.28-.08-.33-.42-.47-.55.09-.25.33-.12.43-.25l-.2.04c-.01-.12.05-.29.15-.29-.24-.08-.61.62-1.01.74.01.13-.02.29.08.34l.06-.13c.21.09.02.42.19.38-.02.25-.01.59-.25.67l-.21-.22c.06.07.21.03.2-.1.01.19-.49-.06-.33.35l.24.05c-.03.25.02.68-.18.76.24.18.01-.07.32.11-.34-.26.38-.4-.03-.62.34.22.28-.06.63.07-.06-.08-.16-.1-.01-.2l-.03-.1h.01-.01c0-.02 0-.02 0 0-.06 0-.11-.02-.15-.06-.08-.26.12-.46.11-.63.1-.04.04.13.14.17l-.01-.25c.14.17.42.08.32.38l.16-.16c.17 0 .32-.1.34-.26.1-.04.03-.4.08-.19l.16-.38.04.04c.26-.24.25-.83.78-.82.04-.13.08-.28.26-.38l.15.12c.06-.17.44-.2.35-.4.45.27.58-.47.82-.61l-.16-.2c.13-.13.2-.32.29-.56l-.16-.15c.01-.28.45-.26.64-.52.05.08-.02.12-.1.13.3.04.37-.17.42-.4.13-.31.21-.59.54-.69.02-.14.1-.2.22-.24-.01.01-.01.02-.01.03.01-.01.03-.02.04-.04.08-.03.16-.06.25-.1-.1.03-.18.05-.23.08.07-.08.14-.21.18-.34l.31.02c.01-.01.01-.02.02-.03.21-.1-.05-.12-.3-.11.01-.07 0-.13-.04-.17.54-.03.08-.29.71-.38-.13-.11.09-.51-.4-.51.07-.01.12-.04.1.01.13-.1.25-.21.15-.28l.41-.11c-.13-.05-.25-.09-.38-.12.32-.18.46-.27.68-.21-.3-.18-.09-.19-.35-.3l.19-.06c.06-.06-.24-.16-.11-.28.14-.19 0-.54-.3-.77-.3-.24-.61-.23-.76-.48-.42.54-.06-.3-.51.12.08-.14.05-.23.27-.33-.41.06-.45-.19-.82-.02-.07.03-.15.08-.24.15.03-.14.23-.22.24-.3-.06.03-.23.13-.23.05s.14-.12.26-.19c-.56.06-.8.5-1.01.91-.12-.18-.26-.15-.47.13-.03-.13-.13-.26.15-.32-.13-.01-.93-.14-.93.18-.05-.08-.16-.01-.18.02-.24 0-.26-.03-.5.01l.07.05c-.07.39-.19.1-.38.15v-.04c-.45-.25-.18.14-.63-.15l.04.24c-.01.52-.4-.28-.64-.07l.1.13c-.13.18-.42-.68-.56-.73-.03-.04.04-.07.08-.11-.38-.28-.03.32-.29.41-.06-.17.04-.43-.14-.45-.1-.13-.49.58-.75.27.06.13.12.25 0 .36-.19.06-.54-.46-.69-.04a.143.143 0 0 1-.04-.1c-.14.11-.46.2-.54.43-.18-.82-.88.46-.92-.31l-.44.07.01-.08c-.29-.03-.38.16-.47.34-.07-.05-.03-.12-.02-.16-.43-.13-.47-.09-.79.31l-.05-.25c-.05.08-.17-.01-.42-.08-.28-.06-.68-.11-.92.07-.01-.03-.01-.08.02-.11-.29.18-.71.09-1.08.21-.36.11-.59.38-.29.74-.02.16-.01.32.02.48.22-.4.31.27.5.18 0 .17-.3.29-.33.06l.05-.01c-.43-.32-.21.49-.51.39v.26c.01.25.01.5 0 .75l-.05.53c-.04.35-.08.69-.07 1.02l.36-.11-.01.25c-.08.07-.28.11-.28-.08-.2.11.19.29.27.29-.13.36-.43-.11-.44 0l.04.15.04-.04c.16.11.31.11.31.33-.06.14-.22.08-.23.14-.03 0-.04.02-.01.08l-.01.32.32-.14c.15.13 0 .3.32.13-.49.25-.11 1.2-.26 1.34.22.19.23.38.22.62.06-.06.38-.12.35.09-.67-.04-.27.4-.74.6.31-.17.11.59.55.33-.04.18-.25.03-.4.17.28.4-.11.92 0 1.43.09 0 .22-.09.35.01l-.42.3c.05.1.51.06.22.27.07-.03.18-.08.21-.01-.18.51-.07 1.02 0 1.53.04.26.06.51.03.77-.02.13-.05.26-.09.39-.02.07-.05.13-.09.2-.03.1-.06.28-.07.43.1-.35.15-.13.22.07-.01-.15.21-.06.31-.13-.03.27.02.57.16.86.17-.06.34.07.53.16s.4.13.46-.02c-.08.01-.16 0-.24-.01.21-.13.14-.36.15-.6 0-.24.09-.47.23-.66-.15.16-.12-.03 0-.12.05-.05.11-.07.11-.07.01-.02-.04.05-.2-.06.09-.08.16.05.27.01-.21-.07-.26-.17-.18-.36l.05.02c-.08-.52.11-.76.21-1.36l-.23.06c.02-.13.1-.16.15-.22-.37-.12 0 .36-.4.25.47-.2-.05-.9.49-1.04-.01-.2-.27.07-.28-.12l.14-.06-.19-.04c.02-.13.21-.21.33-.22-.01.03.04.09.05.12.16-.18-.09-.46-.03-.52l-.08.19c-.17-.52-.01-1.19-.35-1.68l-.11.05c-.23-.38.1-.32-.02-.75l.03.01c-.12-.08-.18-.19-.17-.31.14.1.24-.22.39-.09-.25-.41-.19-.2-.62-.46l.18-.08c-.17-.09-.26-.09-.32-.3.17.17.27-.15.5.03.38-.48-.45-.65.13-.89-.52-.18-.26.41-.38.3-.16.11-.39-.15-.35-.29 0-.15.64-.28.61-.65 0 .04.04.04.04.07.12-.14-.19-.26.01-.44-.32-.08 0-.22-.39-.22l.11.33c-.11-.18-.59-.33-.38-.66.08.02.19.11.25.17.11-.1-.09-.17.03-.27.4 0 .11.4.42.58.16-.11-.31-.37.13-.29-.55-.11.05-.36-.38-.58h.24c-.04-.04-.16-.11-.15-.18l.31.11c-.27-.18.21-.4.05-.58.03.4-.28.11-.44.29-.35-.46.6-.36.46-.83.03 0-.13.27-.24.14.04-.14.13-.16.25-.18-.06-.11-.24 0-.39-.06.21-.02.04-.05-.1-.13-.05-.03-.1-.06-.12-.09l.25.06c.15-.13-.52-.24-.34-.38.11.09.23.17.35.24-.03-.04-.06-.09-.09-.13l.28.16c-.21-.19-.14-.21-.02-.21-.17-.11-.42-.34-.34-.44.18.08.17.21.25.11.09.15.24.32.01.17.07.07.12.14.19.21.18.1.11-.03.14-.05-.02 0-.04-.01-.07-.04a.98.98 0 0 1-.08-.36c.08.09.1.16.13.23.01-.03-.03-.14.02-.16.09.19.19.39.21.48a.537.537 0 0 1-.01-.22c.05.08.14.23.15.3.09.11-.09-.38.3-.25.01-.04.04-.08.09-.11.25.03.49.26.77-.03l.19.34c.23-.09-.25-.43.12-.58.27-.13.12.29.22.39.13-.18.34-.56.61-.29-.09.06-.16.02-.23.05zm2.85-.33c-.05.05-.15.22-.2.08.04-.28.1-.15.2-.08zm4-.82c-.07.08-.09.05-.11-.04.05-.02.1-.02.11.04zm-2.43 7.9v-.01c.14-.02.09-.02 0 .01zm-.24.11c0 .05.02.07.05.09-.02-.06.01-.11.07-.15-.05-.03-.1-.04-.12.06zm-8.9-3.39l.06-.05c.08.1.01.08-.06.05z"/><path class="st2" d="M33.93 76.04c0-.04.01-.09.02-.13a.2.2 0 0 0-.02.13zM25.76 77.06c-.01.01-.01.03-.02.04l.02-.04zM33.08 79.13c.06-.01.11 0 .15.02-.04-.05-.09-.07-.15-.02zM31.03 85.07l.08-.18c-.05.07-.1.05-.15.05.03.04.1.08.07.13zM29.22 84.91c0 .04-.03.04-.03.08l.07.09c.06-.08.06-.2-.04-.17zM30.46 84.53c-.13-.16-.16-.02-.21.1 0-.01.01-.01.01-.02.14.26.18.08.2-.08zM30.24 84.65c-.02.03-.04.07-.07.08.05.11.04-.01.07-.08zM31.58 84.05c-.07 0 .13.23.06.19.11.26.07-.53-.06-.19zM30.02 84.05l.17.17-.07-.21zM30.73 83.52l-.16.08c.03.03.03.07.02.11.08-.08.19-.14.14-.19z"/><path class="st2" d="M30.59 83.7c-.04.04-.08.09-.08.15.02-.03.06-.09.08-.15zM30.14 83.8h.07l.1-.08zM32.09 82.07l.09-.21c-.04-.08-.11-.08-.14 0 0 .08-.03.16.05.21zM31.26 81.98c.07 0 .1.04.18.08l-.19-.25.01.17zM31.6 81.49c-.04-.08.04-.41-.12-.21.04.08-.05.29.12.21zM33.85 79.53l-.03.04.35.38zM34.26 77.26c-.17 0 .32.11.11.11.1.06.17 0 .26.05-.09-.09 0-.08-.37-.16zM34.63 77.42l.05.05a.12.12 0 0 0-.05-.05zM24.27 90.51c.1.08.21.16.32.23-.07-.08-.13-.15-.18-.24l-.14.01zM25 90.31c.01.11.03.22.06.33.19-.09.42-.23.53-.38-.09.04-.24.1-.39.1-.19.01-.16-.01-.2-.05zM30.85 77.13l.01-.08c-.03-.08-.06-.09-.14-.1l.13.18zM28.76 77.01h.04l-.09-.29zM27.04 77.49c.07.01.15-.06.22-.05-.15.05-.26-.32-.22.05z"/></g></svg>